<?xml version="1.0" encoding="utf-8"?>
<!-- Generator: Adobe Illustrator 19.0.0, SVG Export Plug-In . SVG Version: 6.00 Build 0)  -->
<svg version="1.1" id="Layer_1" xmlns="http://www.w3.org/2000/svg" xmlns:xlink="http://www.w3.org/1999/xlink" x="0px" y="0px"
	 width="550px" height="370px" viewBox="0 0 550 370" style="enable-background:new 0 0 550 370;" xml:space="preserve">
<style type="text/css">
	.st0{fill:#1E2828;}
	.st1{fill:#232323;}
	.st2{fill:#212D2D;}
</style>
<g id="XMLID_1_">
	<polygon id="XMLID_2853_" class="st0" points="20,110 20,120 30,120 40,120 40,110 50,110 60,110 70,110 70,120 80,120 80,130 
		90,130 100,130 110,130 110,120 100,120 90,120 90,110 80,110 80,100 70,100 70,90 70,80 60,80 50,80 50,70 40,70 30,70 30,60 
		20,60 20,50 10,50 0,50 0,60 0,70 0,80 0,90 0,100 0,110 10,110 	"/>
</g>
<g>
	<polygon class="st1" points="230,220 230,216 127,216 127,200 120,200 120,210 120,220 110,220 110,230 110,240 110,246 110,250 
		110,256 120,256 120,266 130,266 130,276 140,276 140,286.1 140,296 150,296 160,296 160,286 150,286 150,276.1 150,266 160,266 
		160,256 150,256 150,246 140,246 140,240 140,230 150,230 150,220 160,220 160,230 170,230 180,230 180,240 190,240 200,240 
		210,240 220,240 230,240 230,230 240,230 240,220 	"/>
</g>
<g>
	<polygon class="st2" points="127,130 127,126 137,126 137,116 137,106 137,96 137,90 130,90 120,90 120,80 110,80 110,70 100,70 
		90,70 90,60 80,60 80,50 70,50 70,40 70,30 60,30 60,20 60,10 60,0 50,0 40,0 30,0 20,0 10,0 0,0 0,10 0,20 0,30 0,40 0,50 10,50 
		20,50 20,60 30,60 30,70 40,70 50,70 50,80 60,80 70,80 70,90 70,100 80,100 80,110 90,110 90,120 100,120 110,120 120,120 
		120,130 	"/>
</g>
</svg>
