<?xml version="1.0" encoding="utf-8"?>
<!-- Generator: Adobe Illustrator 19.0.0, SVG Export Plug-In . SVG Version: 6.00 Build 0)  -->
<svg version="1.1" id="Layer_1" xmlns="http://www.w3.org/2000/svg" xmlns:xlink="http://www.w3.org/1999/xlink" x="0px" y="0px"
	 width="358px" height="359px" viewBox="0 0 358 359" style="enable-background:new 0 0 358 359;" xml:space="preserve">
<style type="text/css">
	.st0{fill:#947500;}
	.st1{fill:#B99200;}
</style>
<g id="XMLID_1_">
	<path id="XMLID_13_" class="st0" d="M-0.5,360.3V1.3h358v190h-232v84h43v-42h189v127H-0.5z M273.5,107.3v-43h-42v43H273.5z
		 M189.5,107.3v-85h-21v21h-21v21h-127v43H189.5z"/>
	<path id="XMLID_9_" class="st0" d="M337,1.3h-21h-21h-21h-21h-21h-21h-21h-21h-21h-22h-21H84H63H42H21H-0.5v359h358v-22.5v-21v-21
		v-21v-21v-20.5H337h-21h-21h-21h-21h-21h-21h-21h-21.5v20.5v21.5H148h-22.5v-21.5v-21v-21v-20.5H148h21h21h21h21h21h21h21h21h21
		h20.5v-21.5v-21v-21v-21v-22v-21v-21v-21V1.3H337z M189.5,42.8v21v21v22.5H169h-21h-22h-21H84H63H42H20.5V84.8V64.3H42h21h21h21h21
		h21.5v-21h21v-21h21V42.8z M273.5,84.8v22.5H253h-21.5V84.8V64.3H253h20.5V84.8z"/>
	<polygon id="XMLID_6_" class="st1" points="125.5,275.3 125.5,191.3 357.5,191.3 357.5,233.3 168.5,233.3 168.5,275.3 	"/>
	<polygon id="XMLID_14_" class="st1" points="316,191.3 295,191.3 274,191.3 253,191.3 232,191.3 211,191.3 190,191.3 169,191.3 
		148,191.3 125.5,191.3 125.5,211.8 125.5,232.8 125.5,253.8 125.5,275.3 148,275.3 168.5,275.3 168.5,253.8 168.5,233.3 190,233.3 
		211,233.3 232,233.3 253,233.3 274,233.3 295,233.3 316,233.3 337,233.3 357.5,233.3 357.5,211.8 357.5,191.3 337,191.3 	"/>
	<rect id="XMLID_5_" x="231.5" y="64.3" class="st1" width="42" height="43"/>
	<polygon id="XMLID_15_" class="st1" points="231.5,64.3 231.5,84.8 231.5,107.3 253,107.3 273.5,107.3 273.5,84.8 273.5,64.3 
		253,64.3 	"/>
	<polygon id="XMLID_3_" class="st1" points="20.5,107.3 20.5,64.3 147.5,64.3 147.5,43.3 168.5,43.3 168.5,22.3 189.5,22.3 
		189.5,107.3 	"/>
	<polygon id="XMLID_16_" class="st1" points="168.5,43.3 147.5,43.3 147.5,64.3 126,64.3 105,64.3 84,64.3 63,64.3 42,64.3 
		20.5,64.3 20.5,84.8 20.5,107.3 42,107.3 63,107.3 84,107.3 105,107.3 126,107.3 148,107.3 169,107.3 189.5,107.3 189.5,84.8 
		189.5,63.8 189.5,42.8 189.5,22.3 168.5,22.3 	"/>
</g>
</svg>
