<?xml version="1.0" encoding="utf-8"?>
<!-- Generator: Adobe Illustrator 19.0.0, SVG Export Plug-In . SVG Version: 6.00 Build 0)  -->
<svg version="1.1" id="Layer_1" xmlns="http://www.w3.org/2000/svg" xmlns:xlink="http://www.w3.org/1999/xlink" x="0px" y="0px"
	 width="23px" height="23.1px" viewBox="-300 436.9 23 23.1" style="enable-background:new -300 436.9 23 23.1;"
	 xml:space="preserve">
<style type="text/css">
	.st0{fill:#947500;}
	.st1{fill:#B99200;}
</style>
<g id="XMLID_1_">
	<path id="XMLID_13_" class="st0" d="M-300,460v-23.1h23v12.2h-14.9v5.4h2.8v-2.7h12.1v8.2H-300z M-282.4,443.7V441h-2.7v2.8H-282.4
		z M-287.8,443.7v-5.5h-1.3v1.3h-1.3v1.3h-8.2v2.8H-287.8z"/>
	<path id="XMLID_9_" class="st0" d="M-278.3,436.9h-1.3h-1.3h-1.3h-1.3h-1.3h-1.3h-1.3h-1.3h-1.3h-1.4h-1.3h-1.3h-1.3h-1.3h-1.3
		h-1.4V460h23v-1.4v-1.3v-1.3v-1.3v-1.3v-1.3h-1.3h-1.3h-1.3h-1.3h-1.3h-1.3h-1.3h-1.3h-1.4v1.3v1.4h-1.3h-1.4v-1.4v-1.3v-1.3v-1.3
		h1.4h1.3h1.3h1.3h1.3h1.3h1.3h1.3h1.3h1.3h1.3v-1.4v-1.3v-1.3v-1.3v-1.4V441v-1.3v-1.3v-1.3H-278.3z M-287.8,439.6v1.3v1.3v1.4
		h-1.3h-1.3h-1.4h-1.3h-1.3h-1.3h-1.3h-1.4v-1.4V441h1.4h1.3h1.3h1.3h1.3h1.4v-1.3h1.3v-1.3h1.3V439.6z M-282.4,442.3v1.4h-1.3h-1.4
		v-1.4V441h1.4h1.3V442.3z"/>
	<polygon id="XMLID_6_" class="st1" points="-291.9,454.5 -291.9,449.1 -277,449.1 -277,451.8 -289.1,451.8 -289.1,454.5 	"/>
	<polygon id="XMLID_14_" class="st1" points="-279.7,449.1 -281,449.1 -282.4,449.1 -283.7,449.1 -285.1,449.1 -286.4,449.1 
		-287.8,449.1 -289.1,449.1 -290.5,449.1 -291.9,449.1 -291.9,450.5 -291.9,451.8 -291.9,453.2 -291.9,454.5 -290.5,454.5 
		-289.1,454.5 -289.1,453.2 -289.1,451.8 -287.8,451.8 -286.4,451.8 -285.1,451.8 -283.7,451.8 -282.4,451.8 -281,451.8 
		-279.7,451.8 -278.3,451.8 -277,451.8 -277,450.5 -277,449.1 -278.3,449.1 	"/>
	<rect id="XMLID_5_" x="-285.1" y="441" class="st1" width="2.7" height="2.8"/>
	<polygon id="XMLID_15_" class="st1" points="-285.1,441 -285.1,442.3 -285.1,443.7 -283.7,443.7 -282.4,443.7 -282.4,442.3 
		-282.4,441 -283.7,441 	"/>
	<polygon id="XMLID_3_" class="st1" points="-298.7,443.7 -298.7,441 -290.5,441 -290.5,439.6 -289.1,439.6 -289.1,438.3 
		-287.8,438.3 -287.8,443.7 	"/>
	<polygon id="XMLID_16_" class="st1" points="-289.1,439.6 -290.5,439.6 -290.5,441 -291.9,441 -293.2,441 -294.6,441 -295.9,441 
		-297.3,441 -298.7,441 -298.7,442.3 -298.7,443.7 -297.3,443.7 -295.9,443.7 -294.6,443.7 -293.2,443.7 -291.9,443.7 -290.5,443.7 
		-289.1,443.7 -287.8,443.7 -287.8,442.3 -287.8,441 -287.8,439.6 -287.8,438.3 -289.1,438.3 	"/>
</g>
</svg>
