<?xml version="1.0" encoding="utf-8"?>
<!-- Generator: Adobe Illustrator 19.0.0, SVG Export Plug-In . SVG Version: 6.00 Build 0)  -->
<svg version="1.1" id="Layer_1" xmlns="http://www.w3.org/2000/svg" xmlns:xlink="http://www.w3.org/1999/xlink" x="0px" y="0px"
	 width="358px" height="359px" viewBox="-300 101 358 359" style="enable-background:new -300 101 358 359;" xml:space="preserve">
<style type="text/css">
	.st0{fill:#16E900;}
	.st1{fill:#B99200;}
	.st2{fill:#947500;}
	.st3{fill:#55BF00;}
</style>
<g id="XMLID_39_">
</g>
<g>
	<rect x="36.7" y="100.7" class="st0" width="21.6" height="21.6"/>
	<rect x="37" y="101" class="st0" width="21" height="21"/>
	<polygon class="st1" points="-5.3,333.3 -5.3,269.7 37.3,269.7 37.3,290.7 58.3,290.7 58.3,333.3 	"/>
	<polygon class="st1" points="37,270 16,270 -5,270 -5,291 -5,312 -5,333 16,333 37,333 58,333 58,312 58,291 37,291 	"/>
	<path class="st2" d="M15.7,460.3v-43h-41.4v43h-274.6V269.7h42v-41.4h-42v-21.6h21v-43h42.6v43h62.4v-43H37.3v43h21v84.6H36.7v-21
		H-4.7v62.4h63v127.6H15.7z M-237.3,437.7v-20.4h-21v-42h-20.4v62.4H-237.3z M-152.3,374.7v-62.4h-84.4v41.4h42v21H-152.3z
		 M-47.3,269.7v-41.4h-21v-43h-62.4v42.4h42v42H-47.3z"/>
	<path class="st2" d="M37,185v-21H16H-5h-21h-21h-21h-21h-21h-21h-21h-22v21v22h-21h-21h-21v-22v-21h-21h-21v21v22h-19.5h-1.5v21
		h1.5h19.5h21v21v21h-21h-19.5h-1.5v21v21v21v21v21v21v21v21v22h21h21h21h21h21h21h22h21h21h21h21h21h21v-2.5V438v-21h21h21v21v19.5
		v2.5h21h21v-22v-21v-21v-21v-21v-21H37H16H-5v-21v-21v-21h21h21v21h21v-21v-21v-21v-21H37V185z M-110,185h21h21v22v21h21v21v21h-21
		h-21v-21v-21h-21h-21v-21v-22H-110z M-216,312h21h21h22v21v21v21h-22h-21v-21h-21h-21v-21v-21H-216z M-258,438h-21v-21v-21v-21h21
		v21v21h21v21H-258z"/>
	<polygon class="st3" points="36.7,207.3 36.7,164.3 -173.7,164.3 -173.7,207.3 -237.3,207.3 -237.3,164.3 -279.3,164.3 
		-279.3,143.3 -300.3,143.3 -300.3,100.7 -257.7,100.7 -257.7,121.7 -216.3,121.7 -216.3,100.7 -173.7,100.7 -173.7,121.7 
		-152.3,121.7 -152.3,100.7 -88.7,100.7 -88.7,121.7 -46.7,121.7 -46.7,142.7 -26.3,142.7 -26.3,121.7 -5.3,121.7 -5.3,100.7 
		37.3,100.7 37.3,121.7 58.3,121.7 58.3,207.3 	"/>
	<polygon class="st3" points="37,101 16,101 -5,101 -5,122 -26,122 -26,143 -47,143 -47,122 -68,122 -89,122 -89,101 -110,101 
		-131,101 -152,101 -152,122 -174,122 -174,101 -195,101 -216,101 -216,122 -237,122 -258,122 -258,101 -279,101 -300,101 -300,122 
		-300,143 -298.5,143 -279,143 -279,164 -258,164 -237,164 -237,185 -237,207 -216,207 -195,207 -174,207 -174,185 -174,164 
		-152,164 -131,164 -110,164 -89,164 -68,164 -47,164 -26,164 -5,164 16,164 37,164 37,185 37,207 58,207 58,185 58,164 58,143 
		58,122 37,122 	"/>
	<rect x="-26.3" y="416.7" class="st1" width="42.6" height="43.6"/>
	<polygon class="st1" points="16,438 16,417 -5,417 -26,417 -26,438 -26,457.5 -26,460 -5,460 16,460 16,457.5 	"/>
	<polygon class="st0" points="-47.3,143.3 -47.3,122.3 -89.3,122.3 -89.3,100.7 -4.7,100.7 -4.7,122.3 -25.7,122.3 -25.7,143.3 	"/>
	<polygon class="st0" points="-68,122 -47,122 -47,143 -26,143 -26,122 -5,122 -5,101 -26,101 -47,101 -68,101 -89,101 -89,122 	"/>
	<polygon class="st1" points="-89.3,270.3 -89.3,228.3 -131.3,228.3 -131.3,184.7 -67.7,184.7 -67.7,227.7 -46.7,227.7 -46.7,270.3 
			"/>
	<polygon class="st1" points="-131,228 -110,228 -89,228 -89,249 -89,270 -68,270 -47,270 -47,249 -47,228 -68,228 -68,207 -68,185 
		-89,185 -110,185 -131,185 -131,207 	"/>
	<rect x="-174.3" y="100.7" class="st0" width="22.6" height="21.6"/>
	<rect x="-174" y="101" class="st0" width="22" height="21"/>
	<polygon class="st1" points="-195.3,375.3 -195.3,354.3 -237.3,354.3 -237.3,311.7 -151.7,311.7 -151.7,375.3 	"/>
	<polygon class="st1" points="-237,354 -216,354 -195,354 -195,375 -174,375 -152,375 -152,354 -152,333 -152,312 -174,312 
		-195,312 -216,312 -237,312 -237,333 	"/>
	<polygon class="st1" points="-279.3,438.3 -279.3,374.7 -257.7,374.7 -257.7,416.7 -236.7,416.7 -236.7,438.3 	"/>
	<polygon class="st1" points="-258,417 -258,396 -258,375 -279,375 -279,396 -279,417 -279,438 -258,438 -237,438 -237,417 	"/>
	<rect x="-258.3" y="100.7" class="st0" width="42.6" height="21.6"/>
	<polygon class="st0" points="-237,122 -216,122 -216,101 -237,101 -258,101 -258,122 	"/>
	<rect x="-300.3" y="227.7" class="st1" width="42.6" height="42.6"/>
	<polygon class="st1" points="-279,270 -258,270 -258,249 -258,228 -279,228 -298.5,228 -300,228 -300,249 -300,270 -298.5,270 	"/>
	<rect x="-300.3" y="163.7" class="st3" width="21.6" height="43.6"/>
	<polygon class="st3" points="-279,207 -279,185 -279,164 -298.5,164 -300,164 -300,185 -300,207 -298.5,207 	"/>
	<rect x="-300.3" y="142.7" class="st0" width="21.6" height="21.6"/>
	<polygon class="st0" points="-279,164 -279,143 -298.5,143 -300,143 -300,164 -298.5,164 	"/>
</g>
</svg>
