<?xml version="1.0" encoding="utf-8"?>
<!-- Generator: Adobe Illustrator 19.0.0, SVG Export Plug-In . SVG Version: 6.00 Build 0)  -->
<svg version="1.1" id="Layer_1" xmlns="http://www.w3.org/2000/svg" xmlns:xlink="http://www.w3.org/1999/xlink" x="0px" y="0px"
	 width="23.2px" height="23.2px" viewBox="-294.7 231.5 23.2 23.2" style="enable-background:new -294.7 231.5 23.2 23.2;"
	 xml:space="preserve">
<style type="text/css">
	.st0{fill:#16E900;}
	.st1{fill:#B99200;}
	.st2{fill:#947500;}
	.st3{fill:#55BF00;}
</style>
<g id="XMLID_39_">
</g>
<g>
	<rect x="-272.9" y="231.5" class="st0" width="1.4" height="1.4"/>
	<rect x="-272.8" y="231.6" class="st0" width="1.4" height="1.4"/>
	<polygon class="st1" points="-275.6,246.6 -275.6,242.5 -272.8,242.5 -272.8,243.8 -271.5,243.8 -271.5,246.6 	"/>
	<polygon class="st1" points="-272.8,242.5 -274.2,242.5 -275.6,242.5 -275.6,243.8 -275.6,245.2 -275.6,246.6 -274.2,246.6 
		-272.8,246.6 -271.5,246.6 -271.5,245.2 -271.5,243.8 -272.8,243.8 	"/>
	<path class="st2" d="M-274.2,254.8V252h-2.7v2.8h-17.8v-12.3h2.7v-2.7h-2.7v-1.4h1.4v-2.8h2.8v2.8h4v-2.8h13.7v2.8h1.4v5.5h-1.4
		v-1.4h-2.7v4h4.1v8.3H-274.2L-274.2,254.8z M-290.6,253.3V252h-1.4v-2.7h-1.3v4H-290.6z M-285.1,249.3v-4h-5.5v2.7h2.7v1.4H-285.1z
		 M-278.3,242.5v-2.7h-1.4V237h-4v2.7h2.7v2.7H-278.3z"/>
	<path class="st2" d="M-272.8,237v-1.4h-1.4h-1.4h-1.4h-1.4h-1.4h-1.4h-1.4h-1.4h-1.4h-1.4v1.4v1.4h-1.4h-1.4h-1.4V237v-1.4h-1.4
		h-1.4v1.4v1.4h-1.3h-0.1v1.4h0.1h1.3h1.4v1.4v1.4h-1.4h-1.3h-0.1v1.4v1.4v1.4v1.4v1.4v1.4v1.4v1.4v1.4h1.4h1.4h1.4h1.4h1.4h1.4h1.4
		h1.4h1.4h1.4h1.4h1.4h1.4v-0.2v-1.3V252h1.4h1.4v1.4v1.3v0.2h1.4h1.4v-1.4V252v-1.4v-1.4v-1.4v-1.4h-1.4h-1.4h-1.4v-1.4v-1.4v-1.4
		h1.4h1.4v1.4h1.4v-1.4v-1.4v-1.4v-1.4h-1.4V237z M-282.3,237h1.4h1.4v1.4v1.4h1.4v1.4v1.4h-1.4h-1.4v-1.4v-1.4h-1.4h-1.4v-1.4V237
		H-282.3z M-289.2,245.2h1.4h1.4h1.4v1.4v1.4v1.4h-1.4h-1.4v-1.4h-1.4h-1.4v-1.4v-1.4H-289.2z M-291.9,253.4h-1.4V252v-1.4v-1.4h1.4
		v1.4v1.4h1.4v1.4H-291.9z"/>
	<polygon class="st3" points="-272.9,238.4 -272.9,235.7 -286.5,235.7 -286.5,238.4 -290.6,238.4 -290.6,235.7 -293.3,235.7 
		-293.3,234.3 -294.7,234.3 -294.7,231.5 -291.9,231.5 -291.9,232.9 -289.2,232.9 -289.2,231.5 -286.5,231.5 -286.5,232.9 
		-285.1,232.9 -285.1,231.5 -281,231.5 -281,232.9 -278.2,232.9 -278.2,234.3 -276.9,234.3 -276.9,232.9 -275.6,232.9 -275.6,231.5 
		-272.8,231.5 -272.8,232.9 -271.5,232.9 -271.5,238.4 	"/>
	<polygon class="st3" points="-272.8,231.6 -274.2,231.6 -275.6,231.6 -275.6,232.9 -276.9,232.9 -276.9,234.3 -278.3,234.3 
		-278.3,232.9 -279.6,232.9 -281,232.9 -281,231.6 -282.3,231.6 -283.7,231.6 -285.1,231.6 -285.1,232.9 -286.5,232.9 -286.5,231.6 
		-287.8,231.6 -289.2,231.6 -289.2,232.9 -290.6,232.9 -291.9,232.9 -291.9,231.6 -293.3,231.6 -294.6,231.6 -294.6,232.9 
		-294.6,234.3 -294.5,234.3 -293.3,234.3 -293.3,235.6 -291.9,235.6 -290.6,235.6 -290.6,237 -290.6,238.4 -289.2,238.4 
		-287.8,238.4 -286.5,238.4 -286.5,237 -286.5,235.6 -285.1,235.6 -283.7,235.6 -282.3,235.6 -281,235.6 -279.6,235.6 -278.3,235.6 
		-276.9,235.6 -275.6,235.6 -274.2,235.6 -272.8,235.6 -272.8,237 -272.8,238.4 -271.5,238.4 -271.5,237 -271.5,235.6 -271.5,234.3 
		-271.5,232.9 -272.8,232.9 	"/>
	<rect x="-276.9" y="252" class="st1" width="2.8" height="2.8"/>
	<polygon class="st1" points="-274.2,253.4 -274.2,252 -275.6,252 -276.9,252 -276.9,253.4 -276.9,254.6 -276.9,254.8 -275.6,254.8 
		-274.2,254.8 -274.2,254.6 	"/>
	<polygon class="st0" points="-278.3,234.3 -278.3,232.9 -281,232.9 -281,231.5 -275.5,231.5 -275.5,232.9 -276.9,232.9 
		-276.9,234.3 	"/>
	<polygon class="st0" points="-279.6,232.9 -278.3,232.9 -278.3,234.3 -276.9,234.3 -276.9,232.9 -275.6,232.9 -275.6,231.6 
		-276.9,231.6 -278.3,231.6 -279.6,231.6 -281,231.6 -281,232.9 	"/>
	<polygon class="st1" points="-281,242.5 -281,239.8 -283.7,239.8 -283.7,237 -279.6,237 -279.6,239.8 -278.2,239.8 -278.2,242.5 	
		"/>
	<polygon class="st1" points="-283.7,239.8 -282.3,239.8 -281,239.8 -281,241.1 -281,242.5 -279.6,242.5 -278.3,242.5 -278.3,241.1 
		-278.3,239.8 -279.6,239.8 -279.6,238.4 -279.6,237 -281,237 -282.3,237 -283.7,237 -283.7,238.4 	"/>
	<rect x="-286.5" y="231.5" class="st0" width="1.5" height="1.4"/>
	<rect x="-286.5" y="231.6" class="st0" width="1.4" height="1.4"/>
	<polygon class="st1" points="-287.9,249.3 -287.9,247.9 -290.6,247.9 -290.6,245.2 -285,245.2 -285,249.3 	"/>
	<polygon class="st1" points="-290.6,247.9 -289.2,247.9 -287.8,247.9 -287.8,249.3 -286.5,249.3 -285.1,249.3 -285.1,247.9 
		-285.1,246.6 -285.1,245.2 -286.5,245.2 -287.8,245.2 -289.2,245.2 -290.6,245.2 -290.6,246.6 	"/>
	<polygon class="st1" points="-293.3,253.4 -293.3,249.3 -291.9,249.3 -291.9,252 -290.5,252 -290.5,253.4 	"/>
	<polygon class="st1" points="-291.9,252 -291.9,250.6 -291.9,249.3 -293.3,249.3 -293.3,250.6 -293.3,252 -293.3,253.4 
		-291.9,253.4 -290.6,253.4 -290.6,252 	"/>
	<rect x="-291.9" y="231.5" class="st0" width="2.8" height="1.4"/>
	<polygon class="st0" points="-290.6,232.9 -289.2,232.9 -289.2,231.6 -290.6,231.6 -291.9,231.6 -291.9,232.9 	"/>
	<rect x="-294.7" y="239.8" class="st1" width="2.8" height="2.8"/>
	<polygon class="st1" points="-293.3,242.5 -291.9,242.5 -291.9,241.1 -291.9,239.8 -293.3,239.8 -294.5,239.8 -294.6,239.8 
		-294.6,241.1 -294.6,242.5 -294.5,242.5 	"/>
	<rect x="-294.7" y="235.6" class="st3" width="1.4" height="2.8"/>
	<polygon class="st3" points="-293.3,238.4 -293.3,237 -293.3,235.6 -294.5,235.6 -294.6,235.6 -294.6,237 -294.6,238.4 
		-294.5,238.4 	"/>
	<rect x="-294.7" y="234.3" class="st0" width="1.4" height="1.4"/>
	<polygon class="st0" points="-293.3,235.6 -293.3,234.3 -294.5,234.3 -294.6,234.3 -294.6,235.6 -294.5,235.6 	"/>
</g>
</svg>
