<?xml version="1.0" encoding="utf-8"?>
<!-- Generator: Adobe Illustrator 19.0.0, SVG Export Plug-In . SVG Version: 6.00 Build 0)  -->
<svg version="1.1" id="Layer_1" xmlns="http://www.w3.org/2000/svg" xmlns:xlink="http://www.w3.org/1999/xlink" x="0px" y="0px"
	 width="44px" height="22px" viewBox="-274 175 44 22" style="enable-background:new -274 175 44 22;" xml:space="preserve">
<style type="text/css">
	.st0{fill:#5A5B5B;}
	.st1{fill:#FFFFFF;}
</style>
<rect id="XMLID_316_" x="-274" y="175" class="st0" width="22" height="22"/>
<g id="XMLID_296_">
</g>
<g>
	<rect x="-259.3" y="180" class="st1" width="2.4" height="2.4"/>
	<rect x="-259.3" y="189.6" class="st1" width="2.4" height="2.4"/>
	<polygon class="st1" points="-256.9,182.4 -256.9,184.8 -256.9,187.2 -256.9,189.6 -254.5,189.6 -254.5,187.2 -254.5,184.8 
		-254.5,182.4 	"/>
	<rect x="-261.7" y="184.8" class="st1" width="2.4" height="2.4"/>
	<polygon class="st1" points="-266.5,182.4 -268.9,182.4 -271.3,182.4 -271.3,184.8 -271.3,187.2 -271.3,189.6 -268.9,189.6 
		-266.5,189.6 -266.5,192 -264.1,192 -264.1,189.6 -264.1,187.2 -264.1,184.8 -264.1,182.4 -264.1,180 -266.5,180 	"/>
</g>
<rect id="XMLID_1_" x="-252" y="175" class="st0" width="22" height="22"/>
<g>
	<polygon class="st1" points="-244.5,182.4 -246.9,182.4 -249.3,182.4 -249.3,184.8 -249.3,187.2 -249.3,189.6 -246.9,189.6 
		-244.5,189.6 -244.5,192 -242.1,192 -242.1,189.6 -242.1,187.2 -242.1,184.8 -242.1,182.4 -242.1,180 -244.5,180 	"/>
</g>
</svg>
