<?xml version="1.0" encoding="utf-8"?>
<!-- Generator: Adobe Illustrator 19.0.0, SVG Export Plug-In . SVG Version: 6.00 Build 0)  -->
<svg version="1.1" id="Layer_1" xmlns="http://www.w3.org/2000/svg" xmlns:xlink="http://www.w3.org/1999/xlink" x="0px" y="0px"
	 width="111.3px" height="66px" viewBox="-218 153 111.3 66" style="enable-background:new -218 153 111.3 66;"
	 xml:space="preserve">
<style type="text/css">
	.st0{fill:none;}
	.st1{fill:#C69C6D;}
	.st2{fill:#A67C52;}
	.st3{fill:#FFFFFF;}
	.st4{fill:#FF7BAC;}
	.st5{fill:#E6E6E6;}
	.st6{fill:#C1272D;}
	.st7{fill:#CCCCCC;}
	.st8{fill:#42210B;}
	.st9{fill:#F15A24;}
	.st10{fill:#DDC0A2;}
	.st11{fill:#29ABE2;}
	.st12{fill:#FCEE21;}
	.st13{fill:#FBB03B;}
	.st14{fill:#CEBC17;}
</style>
<g>
	<polygon class="st0" points="-200.5,174.7 -200.5,174.9 -200.4,174.9 -200.4,174.7 -200.4,174.3 -200.5,174.3 	"/>
	<polygon class="st0" points="-211.5,183.6 -211.5,183.6 -211.5,183.5 	"/>
	<polygon class="st0" points="-200.5,183.6 -200.5,183.6 -200.5,183.5 	"/>
	<polygon class="st0" points="-213.6,177.2 -213.7,177.2 -213.6,179 -211.4,178.9 -211.5,177.2 	"/>
	<polygon class="st0" points="-207.1,170.5 -209.2,170.5 -209.2,172.4 -207.1,172.2 	"/>
	<polygon class="st0" points="-209.3,174.9 -209.2,174.9 -209.2,174.7 -209.2,174.3 -209.3,172.6 -211.4,172.6 -211.4,174.3 
		-211.5,174.3 -211.5,174.7 -211.5,174.9 -211.4,174.9 -211.4,176.8 -209.2,176.8 	"/>
	<polygon class="st0" points="-200.4,155 -200.5,155 -200.5,155.4 -200.5,155.6 -200.4,155.6 -200.4,155.4 	"/>
	<polygon class="st0" points="-200.5,164.3 -200.5,164.2 -200.5,164.3 	"/>
	<polygon class="st0" points="-200.5,164 -200.5,164.2 -200.4,164.2 -200.4,164 -200.4,163.7 -200.5,163.7 	"/>
	<polygon class="st0" points="-211.4,183.3 -211.4,183 -211.5,183 -211.5,183.3 -211.5,183.5 -211.4,183.5 	"/>
	<polygon class="st0" points="-187.3,183.6 -187.3,183.5 -187.3,183.6 	"/>
	<polygon class="st0" points="-200.4,183.3 -200.4,183 -200.5,183 -200.5,183.3 -200.5,183.5 -200.4,183.5 	"/>
	<polygon class="st0" points="-193.9,174.9 -193.9,176.8 -193.9,177.2 -196,177.2 -196,178.9 -196.1,178.9 -196.1,179 -193.9,178.9 
		-193.9,179 -193.9,180.9 -193.9,181 -191.7,180.9 -191.7,181 -189.5,180.9 -189.5,179.1 -189.5,179 -189.5,178.9 -189.5,177.2 
		-191.7,177.2 -191.7,176.8 -191.7,174.9 -191.7,174.7 -191.7,174.3 -191.7,172.6 -193.9,172.6 -193.9,172.4 -193.9,170.5 
		-193.9,170.4 -193.9,168.5 -196,168.5 -196,170.4 -196.1,170.4 -196.1,170.5 -196,170.5 -196,172.6 -196,174.7 -193.9,174.7 	"/>
	<polygon class="st0" points="-187.3,183.3 -187.3,183.5 -187.2,183.5 -187.2,183.3 -187.2,183 -187.3,183 	"/>
	<path class="st1" d="M-187.2,181L-187.2,181v-1.9v-0.2v-1.7v-0.3v-2h-0.1v-0.2h-2.2v-0.4h0.1l-0.1-1.9h0.1l-0.1-2.1l-2.1,0.1
		l-0.1-1.9h0.1l-0.1-2.2v-0.2h-2.2v-1.8V164h-2.1h-0.1h-2.1v-0.3v-1.8h-2.2v1.8v0.3v0.2l-0.1,0l0,0.1l0,0v-0.1V164h-2.2h-2.2h-2.1
		h-0.1h-2.1v0.2l-0.1,0l0.1,2l-0.1,0l0.1,2l-2.3,0.1l0.1,2l-2.3,0.1v0.1v1.9v0.2v1.7v0.4h-2.2v0.2v1.9v0.1v0.3v1.7v0.1v0.1v1.8
		l-2.1,0.1v0.2v1.8v0.3h2.1v0.2v1.9v0.5h2.2h0.1h2.2h2.2h2.1h2.2h2.2h0.1h2.2h2.2h2.1h2.2h2.2h0.1h2.1h0.1h2.2h2.2v-0.5v-1.8v-0.3
		V183v-1.8v-0.3L-187.2,181z M-200.4,174.7v0.2h-0.1L-200.4,174.7l-0.1-0.4h0.1V174.7z M-211.5,183.6L-211.5,183.6v-0.3V183h0.1v0.3
		L-211.5,183.6L-211.5,183.6L-211.5,183.6L-211.5,183.6z M-200.5,183.6L-200.5,183.6v-0.3h-2.2h-2.2V183v-1.8v-0.1V181v-0.1v-1.8
		h-2.1V179h-0.1v-0.1h0.1v-1.7v-0.4h-0.1v0.1v0.3h-2.1v1.7v0.1v0.1h-2.2V179v-0.1l0,0l-2.2,0.1l-0.1-1.8h0.1h2.1h0.1v-0.4v-1.9h-0.1
		v-0.2v-0.4h0.1v-1.7h2.1h0.1v-0.2v0v-1.9h2.1h2.2v1.7v0.2v0.2v1.7v0.4v0.2v1.9v0.1v0.3h2.2h0.1h2.2h2.2h2.1v-0.3v-0.1h0.1v-2.1
		v-2.1h-2.2h-2.2v-0.2v-0.2v-1.7h2.2h2.1v-0.1h0.1v-1.9h2.1v1.9v0.1v1.9v0.2h2.2v1.7v0.4v0.2v1.9v0.4h2.2v1.7v0.1v0.1v1.8l0.1,2.1
		h-0.1v0.3h-2.2h-2.2h-2.1h-0.1h-2.1V183v-1.8v-0.1h-2.2v0.1v1.8v0.3L-200.5,183.6L-200.5,183.6L-200.5,183.6L-200.5,183.6z
		 M-187.2,183.3v0.2l-0.1,0l0,0.1l0,0v-0.1L-187.2,183.3l-0.1-0.3h0.1V183.3z"/>
	<polygon class="st2" points="-191.7,180.9 -193.9,181 -193.9,180.9 -193.9,179 -193.9,178.9 -196.1,179 -196,179 -196,181.1 
		-196.1,181.1 -198.2,181.1 -198.2,181.2 -198.2,183 -198.2,183.3 -196.1,183.3 -196,183.3 -193.9,183.3 -191.7,183.3 -189.5,183.3 
		-189.5,183 -189.4,183 -189.5,180.9 -191.7,181 	"/>
	<polygon class="st2" points="-193.9,177.2 -193.9,176.8 -193.9,174.9 -193.9,174.7 -196,174.7 -196,176.8 -196,177.2 	"/>
	<polygon class="st1" points="-196,181.1 -196,179 -196.1,179 -196.1,179.1 -198.2,179.1 -198.2,180.9 -198.2,181.1 -196.1,181.1 	
		"/>
	<polygon class="st2" points="-196.1,170.5 -198.2,170.5 -200.4,170.5 -200.4,172.2 -200.4,172.4 -200.4,172.6 -198.2,172.6 
		-196,172.6 -196,170.5 	"/>
	<polygon class="st1" points="-198.2,159.7 -198.2,159.8 -196.1,159.8 -196.1,159.7 -196,159.7 -196,157.6 -196.1,157.6 
		-198.2,157.6 -198.2,157.9 	"/>
	<polygon points="-198.2,157.9 -200.4,157.9 -200.4,159.7 -200.4,159.8 -198.2,159.8 -198.2,159.7 	"/>
	<polygon class="st3" points="-200.4,183 -200.4,181.2 -200.4,181.1 -198.2,181.1 -198.2,180.9 -198.2,179.1 -196.1,179.1 
		-196.1,179 -196.1,178.9 -196,178.9 -196,177.2 -196,176.8 -196.1,176.8 -196.1,176.9 -196.1,177.2 -198.2,177.2 -200.4,177.2 
		-202.6,177.2 -202.7,177.2 -204.9,177.2 -207,177.2 -207,178.9 -207.1,178.9 -207.1,179 -207,179 -207,179.1 -204.9,179.1 
		-204.9,180.9 -204.9,181 -204.9,181.1 -204.9,181.2 -204.9,183 -204.9,183.3 -202.7,183.3 -200.5,183.3 -200.5,183 	"/>
	<polygon class="st3" points="-200.5,163.7 -200.4,163.7 -200.4,161.9 -198.2,161.9 -198.2,161.8 -198.2,161.6 -198.2,159.8 
		-200.4,159.8 -200.4,161.6 -200.4,161.8 -200.5,161.8 -200.5,161.9 -202.7,161.9 -202.7,163.7 -202.7,164 -200.5,164 	"/>
	<polygon class="st4" points="-200.5,161.8 -200.4,161.8 -200.4,161.6 -200.4,159.8 -200.5,159.8 -202.6,159.8 -202.7,159.8 
		-202.6,161.8 -202.7,161.8 -202.7,161.9 -200.5,161.9 	"/>
	<polygon class="st3" points="-200.5,155.4 -200.5,155 -200.4,155 -200.4,155.4 -200.4,155.6 -200.4,157.5 -200.4,157.6 
		-200.4,157.9 -198.2,157.9 -198.2,157.6 -198.2,157.5 -198.2,155.6 -198.2,155.4 -198.2,155 -198.2,153.3 -198.2,152.9 
		-200.4,153.1 -200.4,152.9 -202.7,153.1 -202.7,152.9 -204.9,153.1 -204.9,153.3 -204.9,155 -204.9,155.4 -202.7,155.4 	"/>
	<polygon class="st3" points="-202.6,161.8 -202.7,159.8 -202.7,159.8 -204.9,159.8 -204.9,161.8 -204.9,161.9 -202.7,161.9 
		-202.7,161.8 	"/>
	<polygon points="-202.7,159.8 -202.6,159.8 -202.7,157.9 -202.7,157.9 -204.9,157.9 -204.9,159.7 -204.9,159.8 -202.7,159.8 	"/>
	<polygon class="st1" points="-202.7,157.9 -202.6,159.8 -200.5,159.8 -200.4,159.8 -200.4,159.7 -200.4,157.9 -200.4,157.6 
		-200.4,157.5 -200.4,155.6 -200.5,155.6 -200.5,155.4 -202.7,155.4 -204.9,155.4 -204.9,155.6 -204.9,157.5 -204.9,157.6 
		-204.9,157.9 -202.7,157.9 	"/>
	<polygon class="st2" points="-204.9,176.9 -204.9,176.8 -204.9,174.9 -204.9,174.7 -204.9,174.3 -204.9,172.6 -204.9,172.4 
		-204.9,172.2 -204.9,170.5 -207.1,170.5 -207.1,172.2 -209.2,172.4 -209.2,172.4 -209.2,172.6 -209.3,172.6 -209.2,174.3 
		-209.2,174.7 -207.1,174.7 -207,174.7 -207,176.8 -207,177.2 -204.9,177.2 	"/>
	<polygon class="st3" points="-207,174.7 -207.1,174.7 -209.2,174.7 -209.2,174.9 -209.3,174.9 -209.2,176.8 -211.4,176.8 
		-211.4,177.2 -211.5,177.2 -211.4,178.9 -211.4,178.9 -211.4,179 -211.4,179.1 -209.2,179.1 -209.2,179 -209.2,178.9 -209.2,177.2 
		-207.1,177.2 -207.1,176.9 -207.1,176.8 -207,176.8 	"/>
</g>
<g>
	<polygon class="st5" points="-156.4,173.6 -156.4,173.7 -156.4,175.7 -158.6,175.7 -160.8,175.7 -160.8,177.8 -160.8,179.8 
		-160.8,179.9 -160.8,181.9 -163,181.9 -165.2,181.9 -165.2,179.9 -165.2,179.8 -165.2,177.8 -167.4,177.8 -169.6,177.8 
		-171.8,177.8 -171.8,175.7 -174,175.7 -174,173.7 -176.2,173.7 -176.2,173.6 -176.2,171.6 -178.4,171.6 -178.4,173.6 -178.4,173.7 
		-180.6,173.7 -180.6,175.7 -178.4,175.7 -178.4,177.8 -176.2,177.8 -176.2,179.8 -176.2,179.9 -174,179.9 -171.8,179.9 
		-171.8,181.9 -171.8,183.9 -171.8,184 -174,184 -176.2,184 -176.2,186 -176.2,188.1 -176.2,190.1 -178.4,190.1 -178.4,192.2 
		-178.4,194.3 -178.4,196.3 -178.4,196.4 -178.4,198.4 -178.4,200.4 -178.4,200.5 -178.4,202.5 -178.4,204.6 -178.4,206.6 
		-178.4,206.7 -178.4,208.7 -176.2,208.7 -174,208.7 -171.8,208.7 -169.6,208.7 -167.4,208.7 -167.4,206.7 -167.4,206.6 
		-167.4,204.6 -167.4,202.5 -167.4,200.5 -167.4,200.4 -167.4,198.4 -167.4,196.4 -167.4,196.3 -167.4,194.3 -167.4,192.2 
		-165.2,192.2 -163,192.2 -163,194.3 -163,196.3 -163,196.4 -163,198.4 -163,200.4 -163,200.5 -163,202.5 -163,204.6 -163,206.6 
		-163,206.7 -160.8,206.7 -158.6,206.7 -156.4,206.7 -156.4,206.6 -156.4,204.6 -156.4,202.5 -158.6,202.5 -158.6,200.5 
		-158.6,200.4 -158.6,198.4 -158.6,196.4 -158.6,196.3 -158.6,194.3 -158.6,192.2 -158.6,190.2 -158.6,190.1 -158.6,188.1 
		-156.4,188.1 -156.4,186 -156.4,184 -156.4,183.9 -156.4,181.9 -156.4,179.9 -154.2,179.9 -154.2,177.8 -154.2,175.7 -154.2,173.6 
			"/>
	<rect x="-158.6" y="210.8" class="st5" width="2.2" height="2.1"/>
	<rect x="-160.8" y="208.7" class="st5" width="2.2" height="2.1"/>
	<polygon class="st6" points="-160.8,206.7 -163,206.7 -163,208.7 -165.2,208.7 -167.4,208.7 -169.6,208.7 -171.8,208.7 -174,208.7 
		-176.2,208.7 -178.4,208.7 -178.4,210.8 -176.2,210.8 -174,210.8 -171.8,210.8 -169.6,210.8 -167.4,210.8 -165.2,210.8 -163,210.8 
		-160.8,210.8 -160.8,208.7 -158.6,208.7 -158.6,210.8 -156.4,210.8 -156.4,208.7 -156.4,206.7 -158.6,206.7 	"/>
	<polygon class="st7" points="-160.8,173.6 -160.8,173.7 -163,173.7 -165.2,173.7 -165.2,175.7 -165.2,177.8 -165.2,179.8 
		-165.2,179.9 -165.2,181.9 -163,181.9 -160.8,181.9 -160.8,179.9 -160.8,179.8 -160.8,177.8 -160.8,175.7 -158.6,175.7 
		-156.4,175.7 -156.4,173.7 -156.4,173.6 -156.4,171.6 -158.6,171.6 -160.8,171.6 	"/>
	<polygon class="st5" points="-165.2,210.8 -167.4,210.8 -169.6,210.8 -171.8,210.8 -174,210.8 -176.2,210.8 -178.4,210.8 
		-178.4,212.9 -176.2,212.9 -174,212.9 -171.8,212.9 -169.6,212.9 -167.4,212.9 -165.2,212.9 -163,212.9 -160.8,212.9 -160.8,210.8 
		-163,210.8 	"/>
	<polygon class="st7" points="-163,208.7 -163,206.7 -163,206.6 -163,204.6 -163,202.5 -163,200.5 -163,200.4 -163,198.4 
		-163,196.4 -163,196.3 -163,194.3 -163,192.2 -165.2,192.2 -167.4,192.2 -167.4,194.3 -167.4,196.3 -167.4,196.4 -167.4,198.4 
		-167.4,200.4 -167.4,200.5 -167.4,202.5 -167.4,204.6 -167.4,206.6 -167.4,206.7 -167.4,208.7 -165.2,208.7 	"/>
	<polygon class="st1" points="-167.4,212.9 -167.4,214.9 -167.4,217 -165.2,217 -163,217 -163,214.9 -163,212.9 -165.2,212.9 	"/>
	<polygon class="st2" points="-165.2,173.6 -165.2,171.6 -167.4,171.6 -169.6,171.6 -169.6,173.6 -169.6,173.7 -169.6,175.7 
		-167.4,175.7 -165.2,175.7 -165.2,173.7 	"/>
	<polygon class="st2" points="-169.6,163.3 -171.8,163.3 -171.8,165.4 -171.8,167.4 -171.8,167.5 -169.6,167.5 -167.4,167.5 
		-167.4,167.4 -167.4,165.4 -167.4,163.3 	"/>
	<polygon class="st5" points="-169.6,163.3 -167.4,163.3 -167.4,165.4 -165.2,165.4 -165.2,167.4 -165.2,167.5 -165.2,169.5 
		-165.2,171.6 -165.2,173.6 -165.2,173.7 -163,173.7 -160.8,173.7 -160.8,173.6 -160.8,171.6 -158.6,171.6 -158.6,169.5 
		-160.8,169.5 -160.8,167.4 -163,167.4 -163,165.4 -163,163.3 -165.2,163.3 -165.2,161.2 -167.4,161.2 -169.6,161.2 -169.6,161.3 	
		"/>
	<polygon class="st7" points="-171.8,184 -171.8,183.9 -171.8,181.9 -171.8,179.9 -174,179.9 -176.2,179.9 -176.2,181.9 
		-176.2,183.9 -176.2,184 -174,184 	"/>
	<polygon class="st2" points="-171.8,173.6 -171.8,171.6 -171.8,169.5 -174,169.5 -176.2,169.5 -178.4,169.5 -178.4,171.6 
		-176.2,171.6 -176.2,173.6 -176.2,173.7 -174,173.7 -171.8,173.7 	"/>
	<polygon class="st8" points="-171.8,163.3 -169.6,163.3 -169.6,161.3 -169.6,161.2 -169.6,159.2 -167.4,159.2 -167.4,157.2 
		-167.4,157.1 -167.4,155.1 -169.6,155.1 -169.6,153 -171.8,153 -174,153 -176.2,153 -176.2,155.1 -174,155.1 -171.8,155.1 
		-171.8,157.1 -171.8,157.2 -171.8,159.2 -174,159.2 -176.2,159.2 -176.2,161.2 -176.2,161.3 -176.2,163.3 -174,163.3 	"/>
	<polygon class="st1" points="-171.8,159.2 -171.8,157.2 -171.8,157.1 -171.8,155.1 -174,155.1 -176.2,155.1 -176.2,157.1 
		-176.2,157.2 -176.2,159.2 -174,159.2 	"/>
	<polygon class="st1" points="-176.2,212.9 -176.2,214.9 -178.4,214.9 -178.4,217 -176.2,217 -174,217 -171.8,217 -171.8,214.9 
		-171.8,212.9 -174,212.9 	"/>
	<polygon class="st8" points="-176.2,157.1 -178.4,157.1 -178.4,159.2 -176.2,159.2 -176.2,157.2 	"/>
	<polygon class="st1" points="-178.4,173.7 -178.4,173.6 -178.4,171.6 -178.4,169.5 -176.2,169.5 -174,169.5 -171.8,169.5 
		-171.8,171.6 -171.8,173.6 -171.8,173.7 -174,173.7 -174,175.7 -171.8,175.7 -171.8,177.8 -169.6,177.8 -167.4,177.8 -165.2,177.8 
		-165.2,175.7 -167.4,175.7 -169.6,175.7 -169.6,173.7 -169.6,173.6 -169.6,171.6 -167.4,171.6 -165.2,171.6 -165.2,169.5 
		-165.2,167.5 -165.2,167.4 -165.2,165.4 -167.4,165.4 -167.4,167.4 -167.4,167.5 -169.6,167.5 -171.8,167.5 -171.8,167.4 
		-171.8,165.4 -171.8,163.3 -174,163.3 -176.2,163.3 -178.4,163.3 -180.6,163.3 -180.6,165.4 -180.6,167.4 -180.6,167.5 
		-180.6,169.5 -182.8,169.5 -182.8,171.6 -182.8,173.6 -182.8,173.7 -182.8,175.7 -185,175.7 -185,177.8 -185,179.8 -185,179.9 
		-185,181.9 -185,183.9 -185,184 -185,186 -185,188.1 -182.8,188.1 -182.8,190.2 -180.6,190.2 -180.6,188.1 -180.6,186 -180.6,184 
		-180.6,183.9 -180.6,181.9 -180.6,179.9 -180.6,179.8 -180.6,177.8 -180.6,175.7 -180.6,173.7 	"/>
</g>
<g>
	<g id="XMLID_1_">
		<g>
			<rect x="47.9" y="151.1" class="st9" width="1.8" height="2"/>
			<rect x="47.9" y="149.1" class="st9" width="1.8" height="2"/>
			<rect x="47.9" y="147.1" class="st9" width="1.8" height="2"/>
			<rect x="46.1" y="151.1" class="st9" width="1.8" height="2"/>
			<rect x="46.1" y="149.1" class="st9" width="1.8" height="2"/>
			<rect x="46.1" y="147.1" class="st9" width="1.8" height="2"/>
			<rect x="44.3" y="151.1" class="st9" width="1.8" height="2"/>
			<rect x="44.3" y="149.1" class="st9" width="1.8" height="2"/>
			<rect x="44.3" y="147.1" class="st9" width="1.8" height="2"/>
			<rect x="44.3" y="129.1" class="st9" width="1.8" height="2"/>
			<rect x="44.3" y="127.1" class="st9" width="1.8" height="2"/>
			<rect x="44.3" y="125.1" class="st9" width="1.8" height="2"/>
			<rect x="44.3" y="123.1" class="st9" width="1.8" height="2"/>
			<rect x="44.3" y="121.1" class="st9" width="1.8" height="2"/>
			<rect x="44.3" y="119.1" class="st9" width="1.8" height="2"/>
			<rect x="44.3" y="117.1" class="st9" width="1.8" height="2"/>
			<rect x="44.3" y="115.1" class="st9" width="1.8" height="2"/>
			<rect x="44.3" y="113.1" class="st9" width="1.8" height="2"/>
			<rect x="44.3" y="111.1" class="st9" width="1.8" height="2"/>
			<rect x="44.3" y="109.1" class="st9" width="1.8" height="2"/>
			<rect x="44.3" y="107.1" class="st9" width="1.8" height="2"/>
			<rect x="42.5" y="151.1" class="st9" width="1.8" height="2"/>
			<rect x="42.5" y="149.1" class="st9" width="1.8" height="2"/>
			<rect x="42.5" y="147.1" class="st9" width="1.8" height="2"/>
			<rect x="42.5" y="145.1" class="st9" width="1.8" height="2"/>
			<rect x="42.5" y="143.1" class="st9" width="1.8" height="2"/>
			<rect x="42.5" y="141.1" class="st9" width="1.8" height="2"/>
			<rect x="42.5" y="129.1" class="st9" width="1.8" height="2"/>
			<rect x="42.5" y="127.1" class="st9" width="1.8" height="2"/>
			<rect x="42.5" y="125.1" class="st9" width="1.8" height="2"/>
			<rect x="42.5" y="123.1" class="st9" width="1.8" height="2"/>
			<rect x="42.5" y="121.1" class="st9" width="1.8" height="2"/>
			<rect x="42.5" y="119.1" class="st10" width="1.8" height="2"/>
			<rect x="42.5" y="117.1" class="st10" width="1.8" height="2"/>
			<rect x="42.5" y="115.1" class="st10" width="1.8" height="2"/>
			<rect x="42.5" y="113.1" class="st10" width="1.8" height="2"/>
			<rect x="42.5" y="111.1" class="st11" width="1.8" height="2"/>
			<rect x="42.5" y="109.1" class="st11" width="1.8" height="2"/>
			<rect x="42.5" y="107.1" class="st9" width="1.8" height="2"/>
			<rect x="42.5" y="105.1" class="st9" width="1.8" height="2"/>
			<rect x="40.7" y="149.1" class="st9" width="1.8" height="2"/>
			<rect x="40.7" y="147.1" class="st9" width="1.8" height="2"/>
			<rect x="40.7" y="145.1" class="st9" width="1.8" height="2"/>
			<rect x="40.7" y="143.1" class="st9" width="1.8" height="2"/>
			<rect x="40.7" y="141.1" class="st9" width="1.8" height="2"/>
			<rect x="40.7" y="139.1" class="st9" width="1.8" height="2"/>
			<rect x="40.7" y="137.1" class="st9" width="1.8" height="2"/>
			<rect x="40.7" y="135.1" class="st9" width="1.8" height="2"/>
			<rect x="40.7" y="133.1" class="st9" width="1.8" height="2"/>
			<rect x="40.7" y="131.1" class="st9" width="1.8" height="2"/>
			<rect x="40.7" y="129.1" class="st9" width="1.8" height="2"/>
			<rect x="40.7" y="127.1" class="st9" width="1.8" height="2"/>
			<rect x="40.7" y="125.1" class="st9" width="1.8" height="2"/>
			<rect x="40.7" y="123.1" class="st9" width="1.8" height="2"/>
			<rect x="40.7" y="121.1" class="st9" width="1.8" height="2"/>
			<rect x="40.7" y="119.1" class="st10" width="1.8" height="2"/>
			<rect x="40.7" y="117.1" class="st10" width="1.8" height="2"/>
			<rect x="40.7" y="115.1" class="st10" width="1.8" height="2"/>
			<rect x="40.7" y="113.1" class="st10" width="1.8" height="2"/>
			<rect x="40.7" y="111.1" class="st11" width="1.8" height="2"/>
			<rect x="40.7" y="109.1" class="st11" width="1.8" height="2"/>
			<rect x="40.7" y="107.1" class="st9" width="1.8" height="2"/>
			<rect x="40.7" y="105.1" class="st9" width="1.8" height="2"/>
			<rect x="40.7" y="99.1" class="st9" width="1.8" height="2"/>
			<rect x="38.9" y="149.1" class="st9" width="1.8" height="2"/>
			<rect x="38.9" y="147.1" class="st9" width="1.8" height="2"/>
			<rect x="38.9" y="145.1" class="st9" width="1.8" height="2"/>
			<rect x="38.9" y="143.1" class="st9" width="1.8" height="2"/>
			<rect x="38.9" y="141.1" class="st9" width="1.8" height="2"/>
			<rect x="38.9" y="139.1" class="st9" width="1.8" height="2"/>
			<rect x="38.9" y="137.1" class="st9" width="1.8" height="2"/>
			<rect x="38.9" y="135.1" class="st9" width="1.8" height="2"/>
			<rect x="38.9" y="133.1" class="st9" width="1.8" height="2"/>
			<rect x="38.9" y="131.1" class="st9" width="1.8" height="2"/>
			<rect x="38.9" y="129.1" class="st9" width="1.8" height="2"/>
			<rect x="38.9" y="127.1" class="st9" width="1.8" height="2"/>
			<rect x="38.9" y="125.1" class="st9" width="1.8" height="2"/>
			<rect x="38.9" y="123.1" class="st9" width="1.8" height="2"/>
			<rect x="38.9" y="121.1" class="st10" width="1.8" height="2"/>
			<rect x="38.9" y="119.1" class="st10" width="1.8" height="2"/>
			<rect x="38.9" y="117.1" class="st12" width="1.8" height="2"/>
			<rect x="38.9" y="115.1" class="st12" width="1.8" height="2"/>
			<rect x="38.9" y="113.1" class="st12" width="1.8" height="2"/>
			<rect x="38.9" y="111.1" class="st11" width="1.8" height="2"/>
			<rect x="38.9" y="109.1" class="st11" width="1.8" height="2"/>
			<rect x="38.9" y="107.1" class="st9" width="1.8" height="2"/>
			<rect x="38.9" y="105.1" class="st9" width="1.8" height="2"/>
			<rect x="38.9" y="99.1" class="st9" width="1.8" height="2"/>
			<rect x="38.9" y="97.1" class="st9" width="1.8" height="2"/>
			<rect x="37.1" y="149.1" class="st9" width="1.8" height="2"/>
			<rect x="37.1" y="147.1" class="st9" width="1.8" height="2"/>
			<rect x="37.1" y="145.1" class="st9" width="1.8" height="2"/>
			<rect x="37.1" y="143.1" class="st9" width="1.8" height="2"/>
			<rect x="37.1" y="141.1" class="st9" width="1.8" height="2"/>
			<rect x="37.1" y="139.1" class="st9" width="1.8" height="2"/>
			<rect x="37.1" y="137.1" class="st9" width="1.8" height="2"/>
			<rect x="37.1" y="135.1" class="st9" width="1.8" height="2"/>
			<rect x="37.1" y="133.1" class="st9" width="1.8" height="2"/>
			<rect x="37.1" y="131.1" class="st9" width="1.8" height="2"/>
			<rect x="37.1" y="129.1" class="st9" width="1.8" height="2"/>
			<rect x="37.1" y="127.1" class="st9" width="1.8" height="2"/>
			<rect x="37.1" y="125.1" class="st9" width="1.8" height="2"/>
			<rect x="37.1" y="123.1" class="st9" width="1.8" height="2"/>
			<rect x="37.1" y="121.1" class="st10" width="1.8" height="2"/>
			<rect x="37.1" y="119.1" class="st10" width="1.8" height="2"/>
			<rect x="37.1" y="117.1" class="st12" width="1.8" height="2"/>
			<rect x="37.1" y="115.1" class="st12" width="1.8" height="2"/>
			<rect x="37.1" y="113.1" class="st12" width="1.8" height="2"/>
			<rect x="37.1" y="111.1" class="st9" width="1.8" height="2"/>
			<rect x="37.1" y="109.1" class="st9" width="1.8" height="2"/>
			<rect x="37.1" y="107.1" class="st9" width="1.8" height="2"/>
			<rect x="37.1" y="105.1" class="st13" width="1.8" height="2"/>
			<rect x="37.1" y="103.1" class="st13" width="1.8" height="2"/>
			<rect x="37.1" y="101.1" class="st13" width="1.8" height="2"/>
			<rect x="37.1" y="97.1" class="st9" width="1.8" height="2"/>
			<rect x="37.1" y="95.1" class="st9" width="1.8" height="2"/>
			<rect x="35.3" y="153.1" class="st13" width="1.8" height="2"/>
			<rect x="35.3" y="151.1" class="st13" width="1.8" height="2"/>
			<rect x="35.3" y="149.1" class="st13" width="1.8" height="2"/>
			<rect x="35.3" y="147.1" class="st13" width="1.8" height="2"/>
			<rect x="35.3" y="145.1" class="st9" width="1.8" height="2"/>
			<rect x="35.3" y="143.1" class="st9" width="1.8" height="2"/>
			<rect x="35.3" y="141.1" class="st9" width="1.8" height="2"/>
			<rect x="35.3" y="139.1" class="st9" width="1.8" height="2"/>
			<rect x="35.3" y="137.1" class="st9" width="1.8" height="2"/>
			<rect x="35.3" y="135.1" class="st9" width="1.8" height="2"/>
			<rect x="35.3" y="133.1" class="st9" width="1.8" height="2"/>
			<rect x="35.3" y="131.1" class="st9" width="1.8" height="2"/>
			<rect x="35.3" y="129.1" class="st9" width="1.8" height="2"/>
			<rect x="35.3" y="127.1" class="st9" width="1.8" height="2"/>
			<rect x="35.3" y="125.1" class="st9" width="1.8" height="2"/>
			<rect x="35.3" y="123.1" class="st9" width="1.8" height="2"/>
			<rect x="35.3" y="121.1" class="st9" width="1.8" height="2"/>
			<rect x="35.3" y="119.1" class="st9" width="1.8" height="2"/>
			<rect x="35.3" y="117.1" class="st12" width="1.8" height="2"/>
			<rect x="35.3" y="115.1" class="st12" width="1.8" height="2"/>
			<rect x="35.3" y="113.1" class="st12" width="1.8" height="2"/>
			<rect x="35.3" y="111.1" class="st9" width="1.8" height="2"/>
			<rect x="35.3" y="109.1" class="st9" width="1.8" height="2"/>
			<rect x="35.3" y="107.1" class="st9" width="1.8" height="2"/>
			<rect x="35.3" y="105.1" class="st10" width="1.8" height="2"/>
			<rect x="35.3" y="103.1" class="st13" width="1.8" height="2"/>
			<rect x="35.3" y="101.1" class="st13" width="1.8" height="2"/>
			<rect x="35.3" y="99.1" class="st13" width="1.8" height="2"/>
			<rect x="35.3" y="97.1" class="st12" width="1.8" height="2"/>
			<rect x="35.3" y="95.1" class="st12" width="1.8" height="2"/>
			<rect x="35.3" y="93.1" class="st9" width="1.8" height="2"/>
			<rect x="35.3" y="91.1" class="st9" width="1.8" height="2"/>
			<rect x="33.4" y="153.1" class="st13" width="1.8" height="2"/>
			<rect x="33.4" y="151.1" class="st13" width="1.8" height="2"/>
			<rect x="33.4" y="149.1" class="st13" width="1.8" height="2"/>
			<rect x="33.4" y="147.1" class="st13" width="1.8" height="2"/>
			<rect x="33.4" y="145.1" class="st13" width="1.8" height="2"/>
			<rect x="33.4" y="143.1" class="st1" width="1.8" height="2"/>
			<rect x="33.4" y="141.1" class="st1" width="1.8" height="2"/>
			<rect x="33.4" y="139.1" class="st1" width="1.8" height="2"/>
			<rect x="33.4" y="137.1" class="st1" width="1.8" height="2"/>
			<rect x="33.4" y="135.1" class="st1" width="1.8" height="2"/>
			<rect x="33.4" y="133.1" class="st1" width="1.8" height="2"/>
			<rect x="33.4" y="131.1" class="st11" width="1.8" height="2"/>
			<rect x="33.4" y="129.1" class="st11" width="1.8" height="2"/>
			<rect x="33.4" y="127.1" class="st11" width="1.8" height="2"/>
			<rect x="33.4" y="125.1" class="st11" width="1.8" height="2"/>
			<rect x="33.4" y="123.1" class="st9" width="1.8" height="2"/>
			<rect x="33.4" y="121.1" class="st9" width="1.8" height="2"/>
			<rect x="33.4" y="119.1" class="st9" width="1.8" height="2"/>
			<rect x="33.4" y="117.1" class="st12" width="1.8" height="2"/>
			<rect x="33.4" y="115.1" class="st12" width="1.8" height="2"/>
			<rect x="33.4" y="113.1" class="st9" width="1.8" height="2"/>
			<rect x="33.4" y="111.1" class="st9" width="1.8" height="2"/>
			<rect x="33.4" y="109.1" class="st9" width="1.8" height="2"/>
			<rect x="33.4" y="107.1" class="st9" width="1.8" height="2"/>
			<rect x="33.4" y="105.1" class="st10" width="1.8" height="2"/>
			<rect x="33.4" y="103.1" class="st10" width="1.8" height="2"/>
			<rect x="33.4" y="101.1" class="st10" width="1.8" height="2"/>
			<rect x="33.4" y="99.1" class="st10" width="1.8" height="2"/>
			<rect x="33.4" y="97.1" class="st10" width="1.8" height="2"/>
			<rect x="33.4" y="95.1" class="st12" width="1.8" height="2"/>
			<rect x="33.4" y="93.1" class="st12" width="1.8" height="2"/>
			<rect x="33.4" y="91.1" class="st9" width="1.8" height="2"/>
			<rect x="33.4" y="89.1" class="st9" width="1.8" height="2"/>
			<rect x="31.6" y="153.1" class="st13" width="1.8" height="2"/>
			<rect x="31.6" y="151.1" class="st13" width="1.8" height="2"/>
			<rect x="31.6" y="149.1" class="st13" width="1.8" height="2"/>
			<rect x="31.6" y="147.1" class="st13" width="1.8" height="2"/>
			<rect x="31.6" y="145.1" class="st10" width="1.8" height="2"/>
			<rect x="31.6" y="143.1" class="st1" width="1.8" height="2"/>
			<rect x="31.6" y="141.1" class="st1" width="1.8" height="2"/>
			<rect x="31.6" y="139.1" class="st1" width="1.8" height="2"/>
			<rect x="31.6" y="137.1" class="st1" width="1.8" height="2"/>
			<rect x="31.6" y="135.1" class="st1" width="1.8" height="2"/>
			<rect x="31.6" y="133.1" class="st1" width="1.8" height="2"/>
			<rect x="31.6" y="131.1" class="st11" width="1.8" height="2"/>
			<rect x="31.6" y="129.1" class="st11" width="1.8" height="2"/>
			<rect x="31.6" y="127.1" class="st11" width="1.8" height="2"/>
			<rect x="31.6" y="125.1" class="st11" width="1.8" height="2"/>
			<rect x="31.6" y="123.1" class="st12" width="1.8" height="2"/>
			<rect x="31.6" y="121.1" class="st12" width="1.8" height="2"/>
			<rect x="31.6" y="119.1" class="st12" width="1.8" height="2"/>
			<rect x="31.6" y="117.1" class="st12" width="1.8" height="2"/>
			<rect x="31.6" y="115.1" class="st12" width="1.8" height="2"/>
			<rect x="31.6" y="113.1" class="st9" width="1.8" height="2"/>
			<rect x="31.6" y="111.1" class="st9" width="1.8" height="2"/>
			<rect x="31.6" y="109.1" class="st9" width="1.8" height="2"/>
			<rect x="31.6" y="107.1" class="st10" width="1.8" height="2"/>
			<rect x="31.6" y="105.1" class="st10" width="1.8" height="2"/>
			<rect x="31.6" y="103.1" class="st10" width="1.8" height="2"/>
			<rect x="31.6" y="101.1" class="st10" width="1.8" height="2"/>
			<rect x="31.6" y="99.1" class="st10" width="1.8" height="2"/>
			<rect x="31.6" y="97.1" class="st10" width="1.8" height="2"/>
			<rect x="31.6" y="95.1" class="st12" width="1.8" height="2"/>
			<rect x="31.6" y="93.1" class="st12" width="1.8" height="2"/>
			<rect x="31.6" y="91.1" class="st12" width="1.8" height="2"/>
			<rect x="31.6" y="89.1" class="st9" width="1.8" height="2"/>
			<rect x="29.8" y="153.1" class="st13" width="1.8" height="2"/>
			<rect x="29.8" y="151.1" class="st13" width="1.8" height="2"/>
			<rect x="29.8" y="149.1" class="st13" width="1.8" height="2"/>
			<rect x="29.8" y="147.1" class="st13" width="1.8" height="2"/>
			<rect x="29.8" y="145.1" class="st10" width="1.8" height="2"/>
			<rect x="29.8" y="143.1" class="st10" width="1.8" height="2"/>
			<rect x="29.8" y="141.1" class="st10" width="1.8" height="2"/>
			<rect x="29.8" y="139.1" class="st1" width="1.8" height="2"/>
			<rect x="29.8" y="137.1" class="st1" width="1.8" height="2"/>
			<rect x="29.8" y="135.1" class="st1" width="1.8" height="2"/>
			<rect x="29.8" y="133.1" class="st1" width="1.8" height="2"/>
			<rect x="29.8" y="131.1" class="st5" width="1.8" height="2"/>
			<rect x="29.8" y="129.1" class="st5" width="1.8" height="2"/>
			<rect x="29.8" y="127.1" class="st5" width="1.8" height="2"/>
			<rect x="29.8" y="125.1" class="st11" width="1.8" height="2"/>
			<rect x="29.8" y="123.1" class="st12" width="1.8" height="2"/>
			<rect x="29.8" y="121.1" class="st12" width="1.8" height="2"/>
			<rect x="29.8" y="119.1" class="st12" width="1.8" height="2"/>
			<rect x="29.8" y="117.1" class="st12" width="1.8" height="2"/>
			<rect x="29.8" y="115.1" class="st9" width="1.8" height="2"/>
			<rect x="29.8" y="113.1" class="st9" width="1.8" height="2"/>
			<rect x="29.8" y="111.1" class="st9" width="1.8" height="2"/>
			<rect x="29.8" y="109.1" class="st12" width="1.8" height="2"/>
			<rect x="29.8" y="107.1" class="st10" width="1.8" height="2"/>
			<rect x="29.8" y="105.1" class="st13" width="1.8" height="2"/>
			<rect x="29.8" y="99.1" class="st10" width="1.8" height="2"/>
			<rect x="29.8" y="97.1" class="st10" width="1.8" height="2"/>
			<rect x="29.8" y="95.1" class="st12" width="1.8" height="2"/>
			<rect x="29.8" y="93.1" class="st12" width="1.8" height="2"/>
			<rect x="29.8" y="91.1" class="st9" width="1.8" height="2"/>
			<rect x="28" y="153.1" class="st13" width="1.8" height="2"/>
			<rect x="28" y="151.1" class="st13" width="1.8" height="2"/>
			<rect x="28" y="149.1" class="st13" width="1.8" height="2"/>
			<rect x="28" y="147.1" class="st13" width="1.8" height="2"/>
			<rect x="28" y="145.1" class="st10" width="1.8" height="2"/>
			<rect x="28" y="143.1" class="st10" width="1.8" height="2"/>
			<rect x="28" y="141.1" class="st10" width="1.8" height="2"/>
			<rect x="28" y="139.1" class="st1" width="1.8" height="2"/>
			<rect x="28" y="137.1" class="st1" width="1.8" height="2"/>
			<rect x="28" y="135.1" class="st1" width="1.8" height="2"/>
			<rect x="28" y="133.1" class="st1" width="1.8" height="2"/>
			<rect x="28" y="131.1" class="st5" width="1.8" height="2"/>
			<rect x="28" y="129.1" class="st5" width="1.8" height="2"/>
			<rect x="28" y="127.1" class="st5" width="1.8" height="2"/>
			<rect x="28" y="125.1" class="st11" width="1.8" height="2"/>
			<rect x="28" y="123.1" class="st12" width="1.8" height="2"/>
			<rect x="28" y="121.1" class="st12" width="1.8" height="2"/>
			<rect x="28" y="119.1" class="st12" width="1.8" height="2"/>
			<rect x="28" y="117.1" class="st12" width="1.8" height="2"/>
			<rect x="28" y="115.1" class="st9" width="1.8" height="2"/>
			<rect x="28" y="113.1" class="st9" width="1.8" height="2"/>
			<rect x="28" y="111.1" class="st9" width="1.8" height="2"/>
			<rect x="28" y="109.1" class="st12" width="1.8" height="2"/>
			<rect x="28" y="107.1" class="st10" width="1.8" height="2"/>
			<rect x="28" y="105.1" class="st13" width="1.8" height="2"/>
			<rect x="28" y="99.1" class="st10" width="1.8" height="2"/>
			<rect x="28" y="97.1" class="st10" width="1.8" height="2"/>
			<rect x="28" y="95.1" class="st12" width="1.8" height="2"/>
			<rect x="28" y="93.1" class="st12" width="1.8" height="2"/>
			<rect x="28" y="91.1" class="st9" width="1.8" height="2"/>
			<rect x="26.2" y="153.1" class="st13" width="1.8" height="2"/>
			<rect x="26.2" y="151.1" class="st13" width="1.8" height="2"/>
			<rect x="26.2" y="149.1" class="st13" width="1.8" height="2"/>
			<rect x="26.2" y="147.1" class="st13" width="1.8" height="2"/>
			<rect x="26.2" y="145.1" class="st10" width="1.8" height="2"/>
			<rect x="26.2" y="143.1" class="st10" width="1.8" height="2"/>
			<rect x="26.2" y="141.1" class="st10" width="1.8" height="2"/>
			<rect x="26.2" y="139.1" class="st1" width="1.8" height="2"/>
			<rect x="26.2" y="137.1" class="st1" width="1.8" height="2"/>
			<rect x="26.2" y="135.1" class="st1" width="1.8" height="2"/>
			<rect x="26.2" y="133.1" class="st1" width="1.8" height="2"/>
			<rect x="26.2" y="131.1" class="st5" width="1.8" height="2"/>
			<rect x="26.2" y="129.1" class="st5" width="1.8" height="2"/>
			<rect x="26.2" y="127.1" class="st11" width="1.8" height="2"/>
			<rect x="26.2" y="125.1" class="st11" width="1.8" height="2"/>
			<rect x="26.2" y="123.1" class="st12" width="1.8" height="2"/>
			<rect x="26.2" y="121.1" class="st12" width="1.8" height="2"/>
			<rect x="26.2" y="119.1" class="st12" width="1.8" height="2"/>
			<rect x="26.2" y="117.1" class="st12" width="1.8" height="2"/>
			<rect x="26.2" y="115.1" class="st9" width="1.8" height="2"/>
			<rect x="26.2" y="113.1" class="st9" width="1.8" height="2"/>
			<rect x="26.2" y="111.1" class="st9" width="1.8" height="2"/>
			<rect x="26.2" y="109.1" class="st12" width="1.8" height="2"/>
			<rect x="26.2" y="107.1" class="st9" width="1.8" height="2"/>
			<rect x="26.2" y="105.1" class="st9" width="1.8" height="2"/>
			<rect x="26.2" y="95.1" class="st12" width="1.8" height="2"/>
			<rect x="24.4" y="153.1" class="st10" width="1.8" height="2"/>
			<rect x="24.4" y="151.1" class="st13" width="1.8" height="2"/>
			<rect x="24.4" y="131.1" class="st11" width="1.8" height="2"/>
			<rect x="24.4" y="129.1" class="st11" width="1.8" height="2"/>
			<rect x="24.4" y="127.1" class="st11" width="1.8" height="2"/>
			<rect x="24.4" y="125.1" class="st11" width="1.8" height="2"/>
			<rect x="24.4" y="123.1" class="st12" width="1.8" height="2"/>
			<rect x="24.4" y="121.1" class="st12" width="1.8" height="2"/>
			<rect x="24.4" y="119.1" class="st12" width="1.8" height="2"/>
			<rect x="24.4" y="117.1" class="st12" width="1.8" height="2"/>
			<rect x="24.4" y="115.1" class="st9" width="1.8" height="2"/>
			<rect x="24.4" y="113.1" class="st9" width="1.8" height="2"/>
			<rect x="24.4" y="111.1" class="st9" width="1.8" height="2"/>
			<rect x="24.4" y="109.1" class="st9" width="1.8" height="2"/>
			<rect x="24.4" y="107.1" class="st9" width="1.8" height="2"/>
			<rect x="22.6" y="153.1" class="st10" width="1.8" height="2"/>
			<rect x="22.6" y="125.1" class="st9" width="1.8" height="2"/>
			<rect x="22.6" y="123.1" class="st9" width="1.8" height="2"/>
			<rect x="22.6" y="121.1" class="st9" width="1.8" height="2"/>
			<rect x="22.6" y="119.1" class="st9" width="1.8" height="2"/>
			<rect x="22.6" y="117.1" class="st9" width="1.8" height="2"/>
			<rect x="22.6" y="115.1" class="st9" width="1.8" height="2"/>
			<rect x="22.6" y="113.1" class="st9" width="1.8" height="2"/>
			<rect x="22.6" y="111.1" class="st9" width="1.8" height="2"/>
			<rect x="22.6" y="109.1" class="st9" width="1.8" height="2"/>
			<rect x="20.8" y="123.1" class="st9" width="1.8" height="2"/>
			<rect x="20.8" y="121.1" class="st9" width="1.8" height="2"/>
			<rect x="20.8" y="119.1" class="st9" width="1.8" height="2"/>
			<rect x="20.8" y="117.1" class="st9" width="1.8" height="2"/>
			<rect x="20.8" y="115.1" class="st9" width="1.8" height="2"/>
			<rect x="20.8" y="113.1" class="st9" width="1.8" height="2"/>
			<rect x="20.8" y="111.1" class="st9" width="1.8" height="2"/>
			<rect x="20.8" y="109.1" class="st9" width="1.8" height="2"/>
			<rect x="19" y="119.1" class="st9" width="1.8" height="2"/>
			<rect x="19" y="117.1" class="st9" width="1.8" height="2"/>
			<rect x="19" y="115.1" class="st9" width="1.8" height="2"/>
			<rect x="19" y="113.1" class="st9" width="1.8" height="2"/>
			<rect x="19" y="111.1" class="st10" width="1.8" height="2"/>
			<rect x="19" y="109.1" class="st9" width="1.8" height="2"/>
			<rect x="17.2" y="113.1" class="st9" width="1.8" height="2"/>
			<rect x="17.2" y="111.1" class="st10" width="1.8" height="2"/>
			<rect x="17.2" y="109.1" class="st10" width="1.8" height="2"/>
			<rect x="15.4" y="111.1" class="st1" width="1.8" height="2"/>
			<rect x="15.4" y="109.1" class="st10" width="1.8" height="2"/>
			<rect x="13.6" y="111.1" class="st1" width="1.8" height="2"/>
			<rect x="13.6" y="109.1" class="st10" width="1.8" height="2"/>
			<rect x="11.8" y="109.1" class="st10" width="1.8" height="2"/>
			<rect x="11.8" y="107.1" class="st10" width="1.8" height="2"/>
			<rect x="10" y="109.1" class="st10" width="1.8" height="2"/>
			<rect x="10" y="107.1" class="st10" width="1.8" height="2"/>
		</g>
	</g>
</g>
<g>
	<polygon class="st0" points="-131.1,182 -131.1,184 -131.1,184 -131.1,186 -128.9,186 -128.9,184 -128.9,184 -128.9,182 
		-128.9,180 -131.1,180 	"/>
	<polygon class="st14" points="-128.9,186 -131.1,186 -131.1,188.1 -128.9,188.1 -126.7,188.1 -126.7,186 -126.7,184 -128.9,184 	
		"/>
	<polygon class="st1" points="-128.9,182 -128.9,184 -128.9,184 -126.7,184 -126.7,184 -126.7,182 -126.7,180 -128.9,180 	"/>
	<polygon class="st7" points="-128.9,171.6 -128.9,173.6 -128.9,173.8 -128.9,175.8 -128.9,177.8 -128.9,179.8 -128.9,180 
		-126.7,180 -126.7,179.8 -126.7,177.8 -126.7,175.8 -126.7,173.8 -126.7,173.6 -126.7,171.6 	"/>
	<polygon class="st1" points="-131.1,188.1 -131.1,190.1 -131.1,190.3 -131.1,192.3 -128.9,192.3 -126.7,192.3 -126.7,190.3 
		-126.7,190.1 -126.7,188.1 -128.9,188.1 	"/>
	<polygon class="st7" points="-133.3,194.3 -133.3,196.3 -133.3,196.5 -133.3,198.5 -133.3,200.5 -133.3,200.5 -133.3,202.5 
		-133.3,204.6 -131.1,204.6 -131.1,206.6 -131.1,206.8 -131.1,208.8 -131.1,210.8 -133.3,210.8 -133.3,212.8 -133.3,213 -133.3,215 
		-131.1,215 -128.9,215 -128.9,213 -128.9,212.8 -128.9,210.8 -128.9,208.8 -128.9,206.8 -128.9,206.6 -128.9,204.6 -128.9,202.5 
		-131.1,202.5 -131.1,200.5 -131.1,200.5 -131.1,198.5 -131.1,196.5 -131.1,196.3 -131.1,194.3 -131.1,192.3 -133.3,192.3 	"/>
	<polygon class="st3" points="-131.1,190.1 -131.1,188.1 -131.1,186 -131.1,184 -133.3,184 -135.5,184 -137.7,184 -139.9,184 
		-142.1,184 -142.1,186 -144.3,186 -144.3,184 -146.5,184 -146.5,186 -146.5,188.1 -146.5,190.1 -146.5,190.3 -146.5,192.3 
		-146.5,194.3 -146.5,196.3 -148.7,196.3 -148.7,198.5 -148.7,200.5 -148.7,200.5 -148.7,202.5 -148.7,204.6 -148.7,206.6 
		-148.7,206.8 -148.7,208.8 -148.7,210.8 -148.7,213 -146.5,213 -146.5,215 -144.3,215 -142.1,215 -139.9,215 -137.7,215 
		-135.5,215 -133.3,215 -133.3,213 -133.3,212.8 -133.3,210.8 -131.1,210.8 -131.1,208.8 -131.1,206.8 -131.1,206.6 -131.1,204.6 
		-133.3,204.6 -133.3,202.5 -133.3,200.5 -133.3,200.5 -133.3,198.5 -133.3,196.5 -133.3,196.3 -133.3,194.3 -133.3,192.3 
		-131.1,192.3 -131.1,190.3 	"/>
	<polygon class="st14" points="-131.1,182 -131.1,180 -133.3,180 -135.5,180 -137.7,180 -139.9,180 -142.1,180 -142.1,182 
		-142.1,184 -142.1,184 -139.9,184 -137.7,184 -135.5,184 -133.3,184 -131.1,184 -131.1,184 	"/>
	<polygon class="st3" points="-131.1,169.5 -133.3,169.5 -133.3,171.6 -135.5,171.6 -135.5,173.6 -135.5,173.8 -137.7,173.8 
		-139.9,173.8 -139.9,175.8 -139.9,177.8 -142.1,177.8 -142.1,179.8 -142.1,180 -139.9,180 -137.7,180 -135.5,180 -133.3,180 
		-131.1,180 -128.9,180 -128.9,179.8 -128.9,177.8 -128.9,175.8 -128.9,173.8 -128.9,173.6 -128.9,171.6 -131.1,171.6 	"/>
	<polygon class="st14" points="-135.5,217 -135.5,219 -133.3,219 -131.1,219 -131.1,217 -133.3,217 	"/>
	<polygon class="st1" points="-135.5,215 -135.5,217 -135.5,217 -133.3,217 -131.1,217 -131.1,217 -131.1,215 -133.3,215 	"/>
	<polygon class="st6" points="-137.7,165.5 -137.7,167.5 -137.7,167.5 -137.7,169.5 -139.9,169.5 -139.9,171.6 -139.9,173.6 
		-139.9,173.8 -137.7,173.8 -135.5,173.8 -135.5,173.6 -135.5,171.6 -133.3,171.6 -133.3,169.5 -131.1,169.5 -131.1,171.6 
		-128.9,171.6 -128.9,169.5 -128.9,167.5 -131.1,167.5 -131.1,165.5 -131.1,163.3 -133.3,163.3 -135.5,163.3 -135.5,165.5 	"/>
	<polygon class="st14" points="-137.7,157.3 -135.5,157.3 -135.5,157.1 -135.5,155.1 -137.7,155.1 -139.9,155.1 -139.9,153 
		-142.1,153 -142.1,155.1 -142.1,157.1 -142.1,157.3 -139.9,157.3 	"/>
	<polygon class="st8" points="-137.7,155.1 -135.5,155.1 -135.5,153 -137.7,153 -139.9,153 -139.9,155.1 	"/>
	<polygon class="st3" points="-139.9,173.6 -139.9,171.6 -139.9,169.5 -137.7,169.5 -137.7,167.5 -137.7,167.5 -137.7,165.5 
		-139.9,165.5 -142.1,165.5 -142.1,167.5 -142.1,167.5 -142.1,169.5 -142.1,171.6 -142.1,173.6 -142.1,173.8 -139.9,173.8 	"/>
	<polygon class="st1" points="-139.9,165.5 -137.7,165.5 -135.5,165.5 -135.5,163.3 -135.5,161.3 -135.5,161.3 -135.5,159.3 
		-135.5,157.3 -137.7,157.3 -139.9,157.3 -142.1,157.3 -142.1,159.3 -142.1,161.3 -139.9,161.3 -139.9,163.3 -142.1,163.3 
		-142.1,165.5 	"/>
	<polygon class="st6" points="-142.1,182 -142.1,180 -142.1,179.8 -142.1,177.8 -144.3,177.8 -144.3,179.8 -144.3,180 -146.5,180 
		-146.5,182 -146.5,184 -146.5,184 -144.3,184 -144.3,186 -142.1,186 -142.1,184 -142.1,184 	"/>
	<polygon class="st14" points="-144.3,177.8 -142.1,177.8 -139.9,177.8 -139.9,175.8 -139.9,173.8 -142.1,173.8 -144.3,173.8 
		-144.3,175.8 	"/>
	<polygon class="st14" points="-146.5,217 -146.5,217 -148.7,217 -148.7,219 -146.5,219 -144.3,219 -142.1,219 -142.1,217 
		-144.3,217 	"/>
	<polygon class="st1" points="-146.5,215 -146.5,217 -146.5,217 -144.3,217 -142.1,217 -142.1,217 -142.1,215 -144.3,215 	"/>
	<polygon class="st3" points="-144.3,179.8 -144.3,177.8 -146.5,177.8 -146.5,179.8 -146.5,180 -144.3,180 	"/>
	<polygon class="st7" points="-144.3,175.8 -144.3,173.8 -146.5,173.8 -146.5,175.8 -146.5,177.8 -144.3,177.8 	"/>
	<polygon class="st6" points="-146.5,169.5 -146.5,171.6 -146.5,173.6 -146.5,173.8 -144.3,173.8 -142.1,173.8 -142.1,173.6 
		-142.1,171.6 -142.1,169.5 -142.1,167.5 -142.1,167.5 -142.1,165.5 -142.1,163.3 -144.3,163.3 -146.5,163.3 -146.5,165.5 
		-146.5,167.5 -146.5,167.5 	"/>
	<polygon class="st1" points="-146.5,188.1 -146.5,186 -146.5,184 -146.5,184 -146.5,182 -146.5,180 -146.5,179.8 -146.5,177.8 
		-148.7,177.8 -148.7,179.8 -148.7,180 -148.7,182 -148.7,184 -148.7,184 -148.7,186 -150.9,186 -150.9,188.1 -148.7,188.1 
		-148.7,190.3 -146.5,190.3 -146.5,190.1 	"/>
	<polygon class="st3" points="-146.5,175.8 -146.5,173.8 -146.5,173.6 -146.5,171.6 -146.5,169.5 -146.5,167.5 -146.5,167.5 
		-148.7,167.5 -148.7,169.5 -148.7,171.6 -148.7,173.6 -150.9,173.6 -150.9,175.8 -150.9,177.8 -148.7,177.8 -146.5,177.8 	"/>
</g>
</svg>
