<?xml version="1.0" encoding="utf-8"?>
<!-- Generator: Adobe Illustrator 19.0.0, SVG Export Plug-In . SVG Version: 6.00 Build 0)  -->
<svg version="1.1" id="Layer_1" xmlns="http://www.w3.org/2000/svg" xmlns:xlink="http://www.w3.org/1999/xlink" x="0px" y="0px"
	 width="271px" height="66px" viewBox="-139 153 271 66" style="enable-background:new -139 153 271 66;" xml:space="preserve">
<style type="text/css">
	.st0{fill:none;}
	.st1{fill:#C69C6D;}
	.st2{fill:#A67C52;}
	.st3{fill:#FFFFFF;}
	.st4{fill:#FF7BAC;}
	.st5{fill:#E6E6E6;}
	.st6{fill:#C1272D;}
	.st7{fill:#CCCCCC;}
	.st8{fill:#42210B;}
	.st9{fill:#F15A24;}
	.st10{fill:#DDC0A2;}
	.st11{fill:#29ABE2;}
	.st12{fill:#FBB03B;}
	.st13{fill:#FCEE21;}
	.st14{fill:#CEBC17;}
	.st15{fill:#E4C50C;}
	.st16{fill:#3FCBEE;}
	.st17{fill:#BCB3E8;}
	.st18{fill:#D2CAEF;}
	.st19{fill:#FDFB1F;}
	.st20{fill:#F60A90;}
	.st21{fill:#684D3A;}
	.st22{fill:#514938;}
	.st23{fill:#E6E7F1;}
	.st24{fill:#D5D8E1;}
	.st25{fill:#E34335;}
	.st26{fill:#DA5E40;}
	.st27{fill:#2F231B;}
	.st28{fill:#768C66;}
	.st29{fill:#FFD4B9;}
	.st30{fill:#DBC4C7;}
	.st31{fill:#020202;}
	.st32{fill:#2262D3;}
	.st33{fill:#297AEF;}
	.st34{fill:#F7B05C;}
	.st35{fill:#F4274A;}
	.st36{fill:#FF1AD4;}
	.st37{fill:#303030;}
	.st38{fill:#7F1C28;}
	.st39{fill:#110D0B;}
	.st40{fill:#A53C4D;}
</style>
<g>
	<polygon class="st0" points="-121.5,174.9 -121.5,174.7 -121.5,174.3 -121.4,174.3 -121.4,174.7 -121.4,174.9 	"/>
	<polygon class="st0" points="-121.5,174.7 -121.5,174.9 -121.4,174.9 -121.4,174.7 -121.4,174.3 -121.5,174.3 	"/>
	<polygon class="st0" points="-132.5,183.6 -132.5,183.6 -132.5,183.5 	"/>
	<polygon class="st0" points="-132.5,183.6 -132.5,183.6 -132.5,183.5 	"/>
	<polygon class="st0" points="-121.5,183.6 -121.5,183.6 -121.5,183.5 	"/>
	<polygon class="st0" points="-121.5,183.6 -121.5,183.6 -121.5,183.5 	"/>
	<polygon class="st0" points="-134.7,177.2 -134.6,177.2 -132.5,177.2 -132.4,178.9 -134.6,179 	"/>
	<polygon class="st0" points="-134.6,177.2 -134.7,177.2 -134.6,179 -132.4,178.9 -132.5,177.2 	"/>
	<polygon class="st0" points="-130.2,170.5 -128.1,170.5 -128.1,172.2 -130.2,172.4 	"/>
	<polygon class="st0" points="-128.1,170.5 -130.2,170.5 -130.2,172.4 -128.1,172.2 	"/>
	<polygon class="st0" points="-132.4,176.8 -132.4,172.6 -130.3,172.6 -130.2,174.3 -130.2,174.9 -130.3,174.9 -130.2,176.8 	"/>
	<polygon class="st0" points="-130.3,174.9 -130.2,174.9 -130.2,174.7 -130.2,174.3 -130.3,172.6 -132.4,172.6 -132.4,176.8 
		-130.2,176.8 	"/>
	<polygon class="st0" points="-121.5,155.6 -121.5,155.4 -121.5,155 -121.4,155 -121.4,155.4 -121.4,155.6 	"/>
	<polygon class="st0" points="-121.4,155 -121.5,155 -121.5,155.4 -121.5,155.6 -121.4,155.6 -121.4,155.4 	"/>
	<path class="st0" d="M-121.5,164.3v-0.1V164.3z"/>
	<path class="st0" d="M-121.5,164.3v-0.1V164.3z"/>
	<polygon class="st0" points="-121.5,164.2 -121.5,164 -121.5,163.7 -121.4,163.7 -121.4,164 -121.4,164.2 	"/>
	<polygon class="st0" points="-121.5,164 -121.5,164.2 -121.4,164.2 -121.4,164 -121.4,163.7 -121.5,163.7 	"/>
	<polygon class="st0" points="-132.5,183.5 -132.5,183.3 -132.5,183 -132.4,183 -132.4,183.3 -132.4,183.5 	"/>
	<polygon class="st0" points="-132.4,183.3 -132.4,183 -132.5,183 -132.5,183.3 -132.5,183.5 -132.4,183.5 	"/>
	<path class="st0" d="M-108.3,183.6v-0.1V183.6z"/>
	<path class="st0" d="M-108.3,183.6v-0.1V183.6z"/>
	<polygon class="st0" points="-121.5,183.5 -121.5,183.3 -121.5,183 -121.4,183 -121.4,183.3 -121.4,183.5 	"/>
	<polygon class="st0" points="-121.4,183.3 -121.4,183 -121.5,183 -121.5,183.3 -121.5,183.5 -121.4,183.5 	"/>
	<polygon class="st0" points="-112.7,180.9 -114.9,181 -114.9,180.9 -114.9,178.9 -117.1,179 -117.1,178.9 -117,178.9 -117,177.2 
		-114.9,177.2 -114.9,176.8 -114.9,174.7 -117,174.7 -117,172.6 -117,170.5 -117.1,170.5 -117.1,170.4 -117,170.4 -117,168.5 
		-114.9,168.5 -114.9,170.5 -114.9,172.6 -112.7,172.6 -112.7,174.3 -112.7,177.2 -110.5,177.2 -110.5,179.1 -110.5,180.9 
		-112.7,181 	"/>
	<polygon class="st0" points="-114.9,174.9 -114.9,176.8 -114.9,177.2 -117,177.2 -117,178.9 -117.1,178.9 -117.1,179 -114.9,178.9 
		-114.9,179 -114.9,180.9 -114.9,181 -112.7,180.9 -112.7,181 -110.5,180.9 -110.5,179.1 -110.5,179 -110.5,178.9 -110.5,177.2 
		-112.7,177.2 -112.7,176.8 -112.7,174.9 -112.7,174.7 -112.7,174.3 -112.7,172.6 -114.9,172.6 -114.9,172.4 -114.9,170.5 
		-114.9,170.4 -114.9,168.5 -117,168.5 -117,170.4 -117.1,170.4 -117.1,170.5 -117,170.5 -117,172.6 -117,174.7 -114.9,174.7 	"/>
	<polygon class="st0" points="-108.3,183.5 -108.3,183.3 -108.3,183 -108.2,183 -108.2,183.3 -108.2,183.5 	"/>
	<polygon class="st0" points="-108.3,183.3 -108.3,183.5 -108.2,183.5 -108.2,183.3 -108.2,183 -108.3,183 	"/>
	<path class="st1" d="M-136.9,185.9l0-2.6l-2.1,0l0-2.4l2.1-0.1l0-6.2l2.2,0l0-4.3l2.2-0.1l0-2.1l2.3,0l0-4.2l8.8,0l0-2.1l2.2,0
		l0,2.1l4.3,0l0,2.1l2.2,0l0.1,4.4l2.3-0.1l0,4.3l2.1,0l0,6.3l2.2,0l0,5H-136.9z M-119.2,181.1l0,2.2l8.7,0l0-2.4v-3.7l-2.2,0l0-4.6
		l-2.2,0l0-4.1l-2.1,0l0,2l-4.4,0l0,2.1l4.4,0l0,4.6l-8.9,0l0-6.7l-2.2,0h-2.1l0,1.9l-2.2,0l0,4.8l-2.3,0l0,1.9l4.5,0l0-1.9l2.2,0
		l0,1.9l2.1,0l0,4.2l4.5,0l0-2.2H-119.2z"/>
	<path class="st1" d="M-106,185.9V181h-2.2l0,0l0-6.3h-2.1l0-4.3l-2.3,0l0-4.3h-2.2V164h-4.3v-2.1h-2.2v2.1h-8.8v4.2l-2.3,0l0,2.1
		l-2.2,0l0,4.4h-2.2v6.2l-2.1,0v2.4h2.1v2.6 M-125.9,183.3v-4.2h-2.1v-1.9l-2.2,0v1.9l-4.5,0l0-1.9h2.3l0-4.8l2.2,0l0,0v-1.9h2.1
		h2.2v6.7l8.9,0l0-4.6h-4.4v-2.1h4.4l0-2h2.1v4.1h2.2v4.6h2.2v3.7v2.4h-8.7v-2.2h-2.2v2.2H-125.9z"/>
	<polygon class="st2" points="-119.2,183.3 -119.2,181.1 -117,181.1 -117,179 -114.9,179 -114.9,180.9 -110.5,180.9 -110.5,183.3 	
		"/>
	<polygon class="st2" points="-114.9,180.9 -114.9,179 -117,179 -117,181.1 -119.2,181.1 -119.2,183.3 -110.5,183.3 -110.5,180.9 	
		"/>
	<polygon class="st2" points="-117,177.2 -117,176.8 -117,174.7 -114.9,174.7 -114.9,174.9 -114.9,177.2 	"/>
	<polygon class="st2" points="-114.9,177.2 -114.9,176.8 -114.9,174.9 -114.9,174.7 -117,174.7 -117,176.8 -117,177.2 	"/>
	<polygon class="st1" points="-119.2,181.1 -119.2,179.1 -117,179.1 -117,181.1 	"/>
	<polygon class="st1" points="-117,181.1 -117,179.1 -119.2,179.1 -119.2,181.1 	"/>
	<polygon class="st2" points="-121.4,172.6 -121.4,170.5 -117,170.5 -117,172.6 	"/>
	<polygon class="st2" points="-121.4,170.5 -121.4,172.6 -117,172.6 -117,170.5 	"/>
	<polygon class="st1" points="-119.2,159.8 -119.2,157.9 -117.2,157.9 -117.2,159.8 	"/>
	<polygon class="st1" points="-119.2,159.8 -117.2,159.8 -117.2,157.9 -119.2,157.9 	"/>
	<polygon points="-121.4,159.8 -121.4,157.9 -119.2,157.9 -119.2,159.8 	"/>
	<polygon points="-119.2,157.9 -121.4,157.9 -121.4,159.8 -119.2,159.8 	"/>
	<polygon class="st3" points="-125.9,183.3 -125.9,179.1 -128,179.1 -128,177.2 -117,177.2 -117,179.1 -119.2,179.1 -119.2,181.1 
		-121.4,181.1 -121.4,183.3 	"/>
	<polygon class="st3" points="-121.4,181.1 -119.2,181.1 -119.2,179.1 -117,179.1 -117,177.2 -128,177.2 -128,179.1 -125.9,179.1 
		-125.9,183.3 -121.4,183.3 	"/>
	<polygon class="st3" points="-123.7,164 -123.7,161.9 -121.4,161.9 -121.4,159.8 -119.2,159.8 -119.2,161.9 -121.4,161.9 
		-121.4,164 	"/>
	<polygon class="st3" points="-121.4,161.9 -119.2,161.9 -119.2,159.8 -121.4,159.8 -121.4,161.9 -123.7,161.9 -123.7,164 
		-121.4,164 	"/>
	<polygon class="st4" points="-123.7,161.9 -123.7,159.8 -121.4,159.8 -121.4,161.9 	"/>
	<polygon class="st4" points="-121.4,161.9 -121.4,159.8 -123.7,159.8 -123.7,161.9 	"/>
	<polygon class="st3" points="-121.4,157.9 -121.4,155.4 -125.9,155.4 -125.9,153 -119.2,153 -119.2,157.9 	"/>
	<polygon class="st3" points="-121.4,155.4 -121.4,157.9 -119.2,157.9 -119.2,153 -125.9,153 -125.9,155.4 	"/>
	<polygon class="st3" points="-125.9,161.9 -125.9,161.8 -125.9,159.8 -123.7,159.8 -123.7,161.9 	"/>
	<polygon class="st3" points="-123.7,159.8 -123.7,159.8 -125.9,159.8 -125.9,161.8 -125.9,161.9 -123.7,161.9 	"/>
	<polygon points="-125.9,159.8 -125.9,157.9 -123.7,157.9 -123.7,159.8 	"/>
	<polygon points="-123.7,159.8 -123.7,157.9 -123.7,157.9 -125.9,157.9 -125.9,159.8 	"/>
	<polygon class="st1" points="-123.7,159.8 -123.7,157.9 -125.9,157.9 -125.9,155.4 -121.4,155.4 -121.4,159.8 	"/>
	<polygon class="st1" points="-123.7,157.9 -123.7,159.8 -121.4,159.8 -121.4,155.4 -125.9,155.4 -125.9,157.9 	"/>
	<polygon class="st2" points="-128,177.2 -128,174.7 -130.2,174.7 -130.2,172.4 -128.1,172.4 -128.1,170.5 -125.9,170.5 
		-125.9,177.2 	"/>
	<polygon class="st2" points="-125.9,170.5 -128.1,170.5 -128.1,172.4 -130.2,172.4 -130.2,172.4 -130.2,174.7 -128,174.7 
		-128,177.2 -125.9,177.2 	"/>
	<polygon class="st3" points="-132.4,179.1 -132.4,176.8 -130.2,176.8 -130.2,174.7 -128,174.7 -128,177.2 -130.2,177.2 
		-130.2,179.1 	"/>
	<polygon class="st3" points="-128,174.7 -130.2,174.7 -130.2,176.8 -132.4,176.8 -132.4,179.1 -130.2,179.1 -130.2,177.2 
		-128,177.2 	"/>
</g>
<g>
	<polygon class="st5" points="-99.4,208.7 -99.4,190.1 -97.2,190.1 -97.2,184 -92.8,184 -92.8,179.9 -97.2,179.9 -97.2,177.8 
		-99.4,177.8 -99.4,175.7 -101.6,175.7 -101.6,173.7 -99.4,173.7 -99.4,171.6 -97.2,171.6 -97.2,173.7 -95,173.7 -95,175.7 
		-92.8,175.7 -92.8,177.8 -86.2,177.8 -86.2,181.9 -81.8,181.9 -81.8,175.7 -77.4,175.7 -77.4,173.6 -75.2,173.6 -75.2,179.9 
		-77.4,179.9 -77.4,188.1 -79.6,188.1 -79.6,202.5 -77.4,202.5 -77.4,206.7 -84,206.7 -84,192.2 -88.4,192.2 -88.4,208.7 	"/>
	<polygon class="st5" points="-77.4,173.6 -77.4,175.7 -81.8,175.7 -81.8,181.9 -86.2,181.9 -86.2,177.8 -92.8,177.8 -92.8,175.7 
		-95,175.7 -95,173.7 -97.2,173.7 -97.2,171.6 -99.4,171.6 -99.4,173.7 -101.6,173.7 -101.6,175.7 -99.4,175.7 -99.4,177.8 
		-97.2,177.8 -97.2,179.9 -92.8,179.9 -92.8,184 -97.2,184 -97.2,190.1 -99.4,190.1 -99.4,208.7 -88.4,208.7 -88.4,192.2 -84,192.2 
		-84,206.7 -77.4,206.7 -77.4,202.5 -79.6,202.5 -79.6,188.1 -77.4,188.1 -77.4,179.9 -75.2,179.9 -75.2,173.6 	"/>
	<polygon class="st5" points="-79.6,212.9 -79.6,210.8 -77.4,210.8 -77.4,212.9 	"/>
	<rect x="-79.6" y="210.8" class="st5" width="2.2" height="2.1"/>
	<polygon class="st5" points="-81.8,210.8 -81.8,208.7 -79.6,208.7 -79.6,210.8 	"/>
	<rect x="-81.8" y="208.7" class="st5" width="2.2" height="2.1"/>
	<polygon class="st6" points="-79.6,210.8 -79.6,208.7 -81.8,208.7 -81.8,210.8 -99.4,210.8 -99.4,208.7 -84,208.7 -84,206.7 
		-77.4,206.7 -77.4,210.8 	"/>
	<polygon class="st6" points="-84,206.7 -84,208.7 -99.4,208.7 -99.4,210.8 -81.8,210.8 -81.8,208.7 -79.6,208.7 -79.6,210.8 
		-77.4,210.8 -77.4,206.7 	"/>
	<polygon class="st7" points="-86.2,181.9 -86.2,173.7 -81.8,173.7 -81.8,171.6 -77.4,171.6 -77.4,175.7 -81.8,175.7 -81.8,181.9 	
		"/>
	<polygon class="st7" points="-81.8,173.7 -86.2,173.7 -86.2,181.9 -81.8,181.9 -81.8,175.7 -77.4,175.7 -77.4,171.6 -81.8,171.6 	
		"/>
	<polygon class="st5" points="-99.4,212.9 -99.4,210.8 -81.8,210.8 -81.8,212.9 	"/>
	<polygon class="st5" points="-99.4,210.8 -99.4,212.9 -81.8,212.9 -81.8,210.8 	"/>
	<polygon class="st7" points="-88.4,208.7 -88.4,192.2 -84,192.2 -84,208.7 	"/>
	<polygon class="st7" points="-84,208.7 -84,192.2 -88.4,192.2 -88.4,208.7 	"/>
	<polygon class="st1" points="-88.4,217 -88.4,212.9 -84,212.9 -84,217 	"/>
	<polygon class="st1" points="-88.4,212.9 -88.4,217 -84,217 -84,212.9 	"/>
	<polygon class="st2" points="-90.6,175.7 -90.6,171.6 -86.2,171.6 -86.2,175.7 	"/>
	<polygon class="st2" points="-86.2,171.6 -90.6,171.6 -90.6,175.7 -86.2,175.7 	"/>
	<polygon class="st2" points="-92.8,167.5 -92.8,163.3 -88.4,163.3 -88.4,167.5 	"/>
	<polygon class="st2" points="-92.8,163.3 -92.8,167.5 -88.4,167.5 -88.4,163.3 	"/>
	<polygon class="st5" points="-86.2,173.7 -86.2,165.4 -88.4,165.4 -88.4,163.3 -90.6,163.3 -90.6,161.2 -86.2,161.2 -86.2,163.3 
		-84,163.3 -84,167.4 -81.8,167.4 -81.8,169.5 -79.6,169.5 -79.6,171.6 -81.8,171.6 -81.8,173.7 	"/>
	<polygon class="st5" points="-90.6,163.3 -88.4,163.3 -88.4,165.4 -86.2,165.4 -86.2,173.7 -81.8,173.7 -81.8,171.6 -79.6,171.6 
		-79.6,169.5 -81.8,169.5 -81.8,167.4 -84,167.4 -84,163.3 -86.2,163.3 -86.2,161.2 -90.6,161.2 	"/>
	<polygon class="st7" points="-97.2,184 -97.2,183.9 -97.2,179.9 -92.8,179.9 -92.8,184 	"/>
	<polygon class="st7" points="-92.8,184 -92.8,183.9 -92.8,179.9 -97.2,179.9 -97.2,183.9 -97.2,184 	"/>
	<polygon class="st2" points="-97.2,173.7 -97.2,171.6 -99.4,171.6 -99.4,169.5 -92.8,169.5 -92.8,173.7 	"/>
	<polygon class="st2" points="-92.8,169.5 -99.4,169.5 -99.4,171.6 -97.2,171.6 -97.2,173.7 -92.8,173.7 	"/>
	<polygon class="st8" points="-97.2,163.3 -97.2,159.2 -92.8,159.2 -92.8,155.1 -97.2,155.1 -97.2,153 -90.6,153 -90.6,155.1 
		-88.4,155.1 -88.4,157.1 -88.4,159.2 -90.6,159.2 -90.6,163.3 	"/>
	<polygon class="st8" points="-90.6,163.3 -90.6,159.2 -88.4,159.2 -88.4,157.1 -88.4,155.1 -90.6,155.1 -90.6,153 -97.2,153 
		-97.2,155.1 -92.8,155.1 -92.8,159.2 -97.2,159.2 -97.2,163.3 	"/>
	<polygon class="st1" points="-97.2,159.2 -97.2,155.1 -92.8,155.1 -92.8,159.2 	"/>
	<polygon class="st1" points="-92.8,159.2 -92.8,155.1 -97.2,155.1 -97.2,159.2 	"/>
	<polygon class="st1" points="-99.4,217 -99.4,214.9 -97.2,214.9 -97.2,212.9 -92.8,212.9 -92.8,217 	"/>
	<polygon class="st1" points="-97.2,212.9 -97.2,214.9 -99.4,214.9 -99.4,217 -92.8,217 -92.8,212.9 	"/>
	<polygon class="st8" points="-99.4,159.2 -99.4,157.1 -97.2,157.1 -97.2,159.2 	"/>
	<polygon class="st8" points="-97.2,157.1 -99.4,157.1 -99.4,159.2 -97.2,159.2 	"/>
	<polygon class="st1" points="-103.8,190.2 -103.8,188.1 -106,188.1 -106,175.7 -103.8,175.7 -103.8,169.5 -101.6,169.5 
		-101.6,163.3 -92.8,163.3 -92.8,167.5 -88.4,167.5 -88.4,165.4 -86.2,165.4 -86.2,171.6 -90.6,171.6 -90.6,175.7 -86.2,175.7 
		-86.2,177.8 -92.8,177.8 -92.8,175.7 -95,175.7 -95,173.7 -92.8,173.7 -92.8,169.5 -99.4,169.5 -99.4,173.7 -101.6,173.7 
		-101.6,190.2 	"/>
	<polygon class="st1" points="-99.4,173.7 -99.4,169.5 -92.8,169.5 -92.8,173.7 -95,173.7 -95,175.7 -92.8,175.7 -92.8,177.8 
		-86.2,177.8 -86.2,175.7 -90.6,175.7 -90.6,171.6 -86.2,171.6 -86.2,165.4 -88.4,165.4 -88.4,167.5 -92.8,167.5 -92.8,163.3 
		-101.6,163.3 -101.6,169.5 -103.8,169.5 -103.8,175.7 -106,175.7 -106,188.1 -103.8,188.1 -103.8,190.2 -101.6,190.2 -101.6,173.7 
			"/>
</g>
<g>
	<polygon class="st0" points="119.3,165 119.3,163 121.1,163 121.1,165 	"/>
	<rect x="119.3" y="163" class="st0" width="1.8" height="2"/>
	<polygon class="st9" points="131.8,217 124.6,217 124.6,215 119.3,215 119.3,211 117.5,211 117.5,189 115.7,189 115.7,183 
		119.3,183 119.3,187 122.9,187 122.9,185 126.4,185 126.4,173 121.1,173 121.1,177 117.5,177 117.5,179 113.9,179 113.9,181 
		106.8,181 106.8,191 105,191 105,189 103.2,189 103.2,185 101.4,185 101.4,179 99.7,179 99.7,177 103.2,177 103.2,175 101.5,175 
		101.5,173 106.8,173 106.8,171 108.6,171 108.6,169 110.4,169 110.4,173 108.6,173 108.6,175 113.9,175 113.9,173 115.7,173 
		115.7,171 121.1,171 121.1,169 126.4,169 126.4,171 128.2,171 128.2,195 124.7,195 124.7,205 126.4,205 126.4,211 131.8,211 
		131.8,211 126.4,211 126.4,205 124.7,205 124.7,195 128.2,195 128.2,171 126.4,171 126.4,169 121.1,169 121.1,171 115.7,171 
		115.7,173 113.9,173 113.9,175 108.6,175 108.6,173 110.4,173 110.4,169 108.6,169 108.6,171 106.8,171 106.8,173 101.5,173 
		101.5,175 103.2,175 103.2,177 99.7,177 99.7,179 101.4,179 101.4,185 103.2,185 103.2,189 105,189 105,191 106.8,191 106.8,181 
		113.9,181 113.9,179 117.5,179 117.5,177 121.1,177 121.1,173 126.4,173 126.4,185 122.9,185 122.9,187 119.3,187 119.3,183 
		115.7,183 115.7,189 117.5,189 117.5,211 119.3,211 119.3,215 124.6,215 124.6,217 131.8,217 	"/>
	<polyline class="st9" points="131.8,211 126.4,211 126.4,205 124.7,205 124.7,195 128.2,195 128.2,171 126.4,171 126.4,169 
		121.1,169 121.1,171 115.7,171 115.7,173 113.9,173 113.9,175 108.6,175 108.6,173 110.4,173 110.4,169 110.3,169 108.6,169 
		108.6,171 106.8,171 106.8,173 101.5,173 101.5,175 103.2,175 103.2,177 99.7,177 99.7,179 101.4,179 101.4,185 103.2,185 
		103.2,189 105,189 105,191 106.8,191 106.8,181 113.9,181 113.9,179 117.5,179 117.5,177 121.1,177 121.1,173 124.6,173 126.4,173 
		126.4,185 122.9,185 122.9,187 119.3,187 119.3,183 115.7,183 115.7,189 117.5,189 117.5,211 119.3,211 119.3,215 124.6,215 
		124.6,217 131.8,217 	"/>
	<polygon class="st10" points="119.3,187 119.3,183 122.9,183 122.9,177 126.4,177 126.4,185 122.9,185 122.9,187 	"/>
	<polygon class="st10" points="122.9,177 122.9,183 119.3,183 119.3,187 122.9,187 122.9,185 126.4,185 126.4,177 	"/>
	<polygon class="st11" points="121.1,177 121.1,173 126.4,173 126.4,177 	"/>
	<rect x="121.1" y="173" class="st11" width="5.3" height="4"/>
	<polygon class="st9" points="121.1,165 121.1,163 119.3,163 119.3,159 121.1,159 121.1,161 122.9,161 122.9,163 124.7,163 
		124.7,165 	"/>
	<polygon class="st9" points="119.3,163 121.1,163 121.1,165 124.7,165 124.7,163 122.9,163 122.9,161 121.1,161 121.1,159 
		119.3,159 	"/>
	<polygon class="st12" points="119.3,219 119.3,219 119.3,211 117.5,211 117.5,209 115.7,209 115.7,211 108.6,211 108.6,215 
		106.8,215 106.8,217 108.6,217 108.6,219 108.6,219 108.6,217 106.8,217 106.8,215 108.6,215 108.6,211 115.7,211 115.7,209 
		117.5,209 117.5,211 119.3,211 	"/>
	<polyline class="st12" points="119.3,219 119.3,211 117.5,211 117.5,209 115.7,209 115.7,211 112.1,211 110.3,211 108.6,211 
		108.6,215 106.8,215 106.8,217 108.6,217 108.6,219 	"/>
	<polygon class="st12" points="119.3,171 119.3,169 117.5,169 117.5,163 119.3,163 119.3,165 121.1,165 121.1,171 	"/>
	<polygon class="st12" points="119.3,163 117.5,163 117.5,169 119.3,169 119.3,171 121.1,171 121.1,165 119.3,165 	"/>
	<polygon class="st9" points="117.5,159 117.5,157 115.7,157 115.7,155 113.9,155 113.9,153 117.5,153 117.5,155 119.3,155 
		119.3,157 119.3,159 	"/>
	<polygon class="st9" points="115.7,157 117.5,157 117.5,159 119.3,159 119.3,157 119.3,155 117.5,155 117.5,153 113.9,153 
		113.9,155 115.7,155 	"/>
	<polygon class="st10" points="110.4,173 110.4,171 113.9,171 113.9,165 110.3,165 110.3,161 117.5,161 117.5,169 119.3,169 
		119.3,171 115.7,171 115.7,173 	"/>
	<polygon class="st10" points="110.4,171 110.4,173 115.7,173 115.7,171 119.3,171 119.3,169 117.5,169 117.5,161 110.3,161 
		110.3,165 113.9,165 113.9,171 	"/>
	<polygon class="st13" points="108.6,175 108.6,173 113.9,173 113.9,175 	"/>
	<rect x="108.6" y="173" class="st13" width="5.3" height="2"/>
	<polygon class="st12" points="110.4,171 110.4,169 112.1,169 113.9,169 113.9,171 	"/>
	<polygon class="st12" points="112.1,171 112.1,171 113.9,171 113.9,169 112.1,169 112.1,169 110.4,169 110.4,171 	"/>
	<polygon class="st13" points="117.5,163 117.5,161 108.6,161 108.6,159 110.3,159 110.3,157 113.9,157 113.9,155 115.7,155 
		115.7,157 117.5,157 117.5,159 119.3,159 119.3,163 	"/>
	<polygon class="st13" points="117.5,161 117.5,163 119.3,163 119.3,159 117.5,159 117.5,157 115.7,157 115.7,155 113.9,155 
		113.9,157 110.3,157 110.3,159 108.6,159 108.6,161 	"/>
	<polygon class="st9" points="110.3,157 110.3,155 113.9,155 113.9,157 	"/>
	<rect x="110.3" y="155" class="st9" width="3.6" height="2"/>
	<polygon class="st10" points="108.6,211 108.6,205 113.9,205 113.9,209 115.7,209 115.7,211 	"/>
	<polygon class="st10" points="115.7,211 115.7,209 113.9,209 113.9,205 108.6,205 108.6,211 	"/>
	<polygon class="st1" points="113.9,209 113.9,205 108.6,205 108.6,197 117.5,197 117.5,209 	"/>
	<polygon class="st1" points="113.9,205 113.9,209 117.5,209 117.5,197 108.6,197 108.6,205 	"/>
	<polygon class="st5" points="108.6,197 108.6,193 110.4,193 110.4,191 113.9,191 113.9,197 	"/>
	<polygon class="st5" points="113.9,197 113.9,191 110.4,191 110.4,193 108.6,193 108.6,197 	"/>
	<polygon class="st13" points="106.8,189 106.8,181 113.9,181 113.9,179 117.5,179 117.5,177 122.9,177 122.9,183 115.7,183 
		115.7,189 	"/>
	<polygon class="st13" points="115.7,189 115.7,183 122.9,183 122.9,177 117.5,177 117.5,179 113.9,179 113.9,181 106.8,181 
		106.8,189 	"/>
	<polygon class="st10" points="105,219 105,217 108.6,217 108.6,219 	"/>
	<rect x="105" y="217" class="st10" width="3.6" height="2"/>
	<polygon class="st11" points="113.9,197 113.9,191 110.4,191 110.4,193 108.6,193 108.6,197 106.8,197 106.8,189 117.5,189 
		117.5,197 	"/>
	<polygon class="st11" points="108.6,193 110.4,193 110.4,191 113.9,191 113.9,197 117.5,197 117.5,189 106.8,189 106.8,197 
		108.6,197 	"/>
	<polygon class="st10" points="99.7,177 99.7,175 92.6,175 92.6,171 96.2,171 96.2,173 101.5,173 101.5,175 103.2,175 103.2,177 	
		"/>
	<polygon class="st10" points="103.2,177 103.2,175 101.5,175 101.5,173 96.2,173 96.2,171 92.6,171 92.6,175 99.7,175 99.7,177 	
		"/>
	<polygon class="st1" points="96.1,177 96.1,175 99.7,175 99.7,177 	"/>
	<rect x="96.1" y="175" class="st1" width="3.6" height="2"/>
</g>
<g>
	<polygon class="st0" points="-52.1,186 -52.1,184 -52.1,180 -49.9,180 -49.9,182 -49.9,186 	"/>
	<polygon class="st0" points="-52.1,182 -52.1,184 -52.1,184 -52.1,186 -49.9,186 -49.9,184 -49.9,184 -49.9,182 -49.9,180 
		-52.1,180 	"/>
	<polygon class="st14" points="-52.1,188.1 -52.1,186 -49.9,186 -49.9,184 -47.7,184 -47.7,188.1 	"/>
	<polygon class="st14" points="-49.9,186 -52.1,186 -52.1,188.1 -47.7,188.1 -47.7,184 -49.9,184 	"/>
	<polygon class="st1" points="-49.9,184 -49.9,180 -47.7,180 -47.7,184 	"/>
	<polygon class="st1" points="-49.9,184 -49.9,184 -47.7,184 -47.7,184 -47.7,180 -49.9,180 	"/>
	<polygon class="st7" points="-49.9,180 -49.9,171.6 -47.7,171.6 -47.7,180 	"/>
	<polygon class="st7" points="-49.9,171.6 -49.9,180 -47.7,180 -47.7,171.6 	"/>
	<polygon class="st1" points="-52.1,192.3 -52.1,188.1 -47.7,188.1 -47.7,192.3 	"/>
	<polygon class="st1" points="-52.1,188.1 -52.1,192.3 -47.7,192.3 -47.7,188.1 	"/>
	<polygon class="st7" points="-54.3,215 -54.3,210.8 -52.1,210.8 -52.1,204.6 -54.3,204.6 -54.3,192.3 -52.1,192.3 -52.1,202.5 
		-49.9,202.5 -49.9,215 	"/>
	<polygon class="st7" points="-54.3,204.6 -52.1,204.6 -52.1,210.8 -54.3,210.8 -54.3,215 -49.9,215 -49.9,202.5 -52.1,202.5 
		-52.1,192.3 -54.3,192.3 	"/>
	<polygon class="st3" points="-67.5,215 -67.5,213 -69.7,213 -69.7,196.3 -67.5,196.3 -67.5,184 -65.3,184 -65.3,186 -63.1,186 
		-63.1,184 -52.1,184 -52.1,192.3 -54.3,192.3 -54.3,204.6 -52.1,204.6 -52.1,210.8 -54.3,210.8 -54.3,215 	"/>
	<polygon class="st3" points="-52.1,184 -63.1,184 -63.1,186 -65.3,186 -65.3,184 -67.5,184 -67.5,196.3 -69.7,196.3 -69.7,213 
		-67.5,213 -67.5,215 -54.3,215 -54.3,210.8 -52.1,210.8 -52.1,204.6 -54.3,204.6 -54.3,192.3 -52.1,192.3 	"/>
	<polygon class="st14" points="-63.1,184 -63.1,180 -52.1,180 -52.1,184 	"/>
	<polygon class="st14" points="-52.1,180 -63.1,180 -63.1,184 -63.1,184 -52.1,184 -52.1,184 	"/>
	<polygon class="st3" points="-63.1,180 -63.1,177.8 -60.9,177.8 -60.9,173.8 -56.5,173.8 -56.5,171.6 -54.3,171.6 -54.3,169.5 
		-52.1,169.5 -52.1,171.6 -49.9,171.6 -49.9,180 	"/>
	<polygon class="st3" points="-52.1,169.5 -54.3,169.5 -54.3,171.6 -56.5,171.6 -56.5,173.8 -60.9,173.8 -60.9,177.8 -63.1,177.8 
		-63.1,180 -49.9,180 -49.9,171.6 -52.1,171.6 	"/>
	<polygon class="st14" points="-56.5,219 -56.5,217 -52.1,217 -52.1,219 	"/>
	<polygon class="st14" points="-56.5,217 -56.5,219 -52.1,219 -52.1,217 	"/>
	<polygon class="st1" points="-56.5,217 -56.5,215 -52.1,215 -52.1,217 	"/>
	<polygon class="st1" points="-56.5,215 -56.5,217 -56.5,217 -52.1,217 -52.1,217 -52.1,215 	"/>
	<polygon class="st6" points="-60.9,173.8 -60.9,169.5 -58.7,169.5 -58.7,165.5 -56.5,165.5 -56.5,163.3 -52.1,163.3 -52.1,167.5 
		-49.9,167.5 -49.9,171.6 -52.1,171.6 -52.1,169.5 -54.3,169.5 -54.3,171.6 -56.5,171.6 -56.5,173.8 	"/>
	<polygon class="st6" points="-58.7,165.5 -58.7,169.5 -60.9,169.5 -60.9,173.8 -56.5,173.8 -56.5,171.6 -54.3,171.6 -54.3,169.5 
		-52.1,169.5 -52.1,171.6 -49.9,171.6 -49.9,167.5 -52.1,167.5 -52.1,163.3 -56.5,163.3 -56.5,165.5 	"/>
	<polygon class="st14" points="-63.1,157.3 -63.1,153 -60.9,153 -60.9,155.1 -56.5,155.1 -56.5,157.3 	"/>
	<polygon class="st14" points="-56.5,157.3 -56.5,155.1 -60.9,155.1 -60.9,153 -63.1,153 -63.1,157.3 	"/>
	<polygon class="st8" points="-60.9,155.1 -60.9,153 -56.5,153 -56.5,155.1 	"/>
	<polygon class="st8" points="-56.5,155.1 -56.5,153 -60.9,153 -60.9,155.1 	"/>
	<polygon class="st3" points="-63.1,173.8 -63.1,165.5 -58.7,165.5 -58.7,169.5 -60.9,169.5 -60.9,173.8 	"/>
	<polygon class="st3" points="-60.9,169.5 -58.7,169.5 -58.7,165.5 -63.1,165.5 -63.1,173.8 -60.9,173.8 	"/>
	<polygon class="st1" points="-63.1,165.5 -63.1,163.3 -60.9,163.3 -60.9,161.3 -63.1,161.3 -63.1,157.3 -56.5,157.3 -56.5,165.5 	
		"/>
	<polygon class="st1" points="-56.5,165.5 -56.5,157.3 -63.1,157.3 -63.1,161.3 -60.9,161.3 -60.9,163.3 -63.1,163.3 -63.1,165.5 	
		"/>
	<polygon class="st6" points="-65.3,186 -65.3,184 -67.5,184 -67.5,180 -65.3,180 -65.3,177.8 -63.1,177.8 -63.1,186 	"/>
	<polygon class="st6" points="-63.1,177.8 -65.3,177.8 -65.3,180 -67.5,180 -67.5,184 -67.5,184 -65.3,184 -65.3,186 -63.1,186 	"/>
	<polygon class="st14" points="-65.3,177.8 -65.3,173.8 -60.9,173.8 -60.9,177.8 	"/>
	<polygon class="st14" points="-65.3,177.8 -60.9,177.8 -60.9,173.8 -65.3,173.8 	"/>
	<polygon class="st14" points="-69.7,219 -69.7,217 -63.1,217 -63.1,219 	"/>
	<polygon class="st14" points="-69.7,217 -69.7,219 -63.1,219 -63.1,217 	"/>
	<polygon class="st1" points="-67.5,217 -67.5,215 -63.1,215 -63.1,217 	"/>
	<polygon class="st1" points="-67.5,215 -67.5,217 -67.5,217 -63.1,217 -63.1,217 -63.1,215 	"/>
	<polygon class="st3" points="-67.5,180 -67.5,177.8 -65.3,177.8 -65.3,180 	"/>
	<polygon class="st3" points="-65.3,177.8 -67.5,177.8 -67.5,180 -65.3,180 	"/>
	<polygon class="st7" points="-67.5,177.8 -67.5,173.8 -65.3,173.8 -65.3,177.8 	"/>
	<polygon class="st7" points="-65.3,173.8 -67.5,173.8 -67.5,177.8 -65.3,177.8 	"/>
	<polygon class="st6" points="-67.5,173.8 -67.5,163.3 -63.1,163.3 -63.1,173.8 	"/>
	<polygon class="st6" points="-67.5,173.8 -63.1,173.8 -63.1,163.3 -67.5,163.3 	"/>
	<polygon class="st1" points="-69.7,190.3 -69.7,188.1 -71.9,188.1 -71.9,186 -69.7,186 -69.7,177.8 -67.5,177.8 -67.5,190.3 	"/>
	<polygon class="st1" points="-67.5,177.8 -69.7,177.8 -69.7,186 -71.9,186 -71.9,188.1 -69.7,188.1 -69.7,190.3 -67.5,190.3 	"/>
	<polygon class="st3" points="-71.9,177.8 -71.9,175.8 -71.9,173.6 -69.7,173.6 -69.7,171.6 -69.7,167.5 -67.5,167.5 -67.5,169.5 
		-67.5,177.8 	"/>
	<polygon class="st3" points="-67.5,175.8 -67.5,173.8 -67.5,173.6 -67.5,171.6 -67.5,169.5 -67.5,167.5 -67.5,167.5 -69.7,167.5 
		-69.7,169.5 -69.7,171.6 -69.7,173.6 -71.9,173.6 -71.9,175.8 -71.9,177.8 -69.7,177.8 -67.5,177.8 	"/>
</g>
<g>
	<polygon class="st0" points="-32.2,196.3 -32.3,194.3 -32.3,188 -34.5,188.1 -34.6,186 -34.6,179.9 -32.2,179.8 -32.2,181.9 
		-32.2,186.1 -29.9,186 -29.9,188 -29.9,196.3 	"/>
	<polygon class="st0" points="-29.9,188.1 -29.9,186.1 -32.2,186.1 -32.2,184 -32.2,181.9 -32.2,179.9 -34.5,179.9 -34.5,181.9 
		-34.5,184 -34.5,186 -34.5,186.1 -34.5,188.1 -32.2,188.1 -32.2,190.1 -32.2,190.2 -32.2,192.2 -32.2,194.3 -32.2,196.3 
		-29.9,196.3 -29.9,194.3 -29.9,192.2 -29.9,190.2 -29.9,190.1 	"/>
	<polygon class="st15" points="-13.8,200.5 -13.9,196.4 -11.5,196.3 -11.5,200.5 	"/>
	<rect x="-13.8" y="196.4" class="st15" width="2.3" height="4.1"/>
	<polygon class="st16" points="-16.1,202.6 -16.2,200.5 -18.4,200.5 -18.5,198.4 -16.1,198.3 -16.2,181.9 -18.4,181.9 -18.5,177.8 
		-16.1,177.7 -16.2,173.7 -13.8,173.6 -13.9,169.6 -16.1,169.6 -16.1,171.6 -18.4,171.6 -18.5,167.5 -13.8,167.4 -13.8,169.5 
		-11.5,169.4 -11.5,179.9 -13.8,179.9 -13.8,188 -11.5,188 -11.5,196.4 -13.8,196.4 -13.8,200.5 -11.5,200.4 -11.5,202.6 	"/>
	<polygon class="st16" points="-13.8,169.5 -13.8,167.5 -18.4,167.5 -18.4,171.6 -16.1,171.6 -16.1,169.6 -13.8,169.6 -13.8,173.7 
		-16.1,173.7 -16.1,177.8 -18.4,177.8 -18.4,181.9 -16.1,181.9 -16.1,198.4 -18.4,198.4 -18.4,200.5 -16.1,200.5 -16.1,202.6 
		-11.5,202.6 -11.5,200.5 -13.8,200.5 -13.8,196.4 -11.5,196.4 -11.5,188.1 -13.8,188.1 -13.8,179.9 -11.5,179.9 -11.5,169.5 	"/>
	<polygon class="st15" points="-16.1,204.6 -16.2,202.5 -11.5,202.5 -11.5,204.6 	"/>
	<rect x="-16.1" y="202.6" class="st15" width="4.6" height="2"/>
	<polygon class="st17" points="-16.1,173.7 -16.2,169.6 -13.8,169.5 -13.8,173.7 	"/>
	<rect x="-16.1" y="169.6" class="st17" width="2.3" height="4.1"/>
	<polygon class="st18" points="-18.4,219.1 -18.5,212.8 -16.1,212.7 -16.1,219.1 	"/>
	<polygon class="st18" points="-18.4,219.1 -16.1,219.1 -16.1,212.8 -18.4,212.8 -18.4,212.9 	"/>
	<polygon class="st15" points="-18.4,210.8 -18.5,208.7 -16.1,208.6 -16.1,210.8 	"/>
	<rect x="-18.4" y="208.7" class="st15" width="2.3" height="2.1"/>
	<polygon class="st15" points="-18.4,202.6 -18.5,200.5 -16.1,200.4 -16.1,202.6 	"/>
	<rect x="-18.4" y="200.5" class="st15" width="2.3" height="2.1"/>
	<polygon class="st17" points="-18.4,177.8 -18.5,175.7 -16.1,175.6 -16.1,177.8 	"/>
	<rect x="-18.4" y="175.7" class="st17" width="2.3" height="2.1"/>
	<polygon class="st19" points="-20.7,214.9 -20.8,212.9 -23,212.9 -23.1,208.7 -25.3,208.7 -25.4,206.7 -27.6,206.7 -27.7,204.5 
		-29.9,204.6 -30,190.2 -25.3,190.1 -25.3,200.5 -23,200.4 -23,202.5 -20.7,202.5 -20.8,190.2 -16.1,190.1 -16.1,198.4 -18.4,198.4 
		-18.4,202.5 -16.1,202.5 -16.1,208.7 -18.4,208.7 -18.4,214.9 	"/>
	<polygon class="st19" points="-18.4,202.6 -18.4,198.4 -16.1,198.4 -16.1,190.2 -20.7,190.2 -20.7,202.6 -23,202.6 -23,200.5 
		-25.3,200.5 -25.3,190.2 -29.9,190.2 -29.9,204.6 -27.6,204.6 -27.6,206.7 -25.3,206.7 -25.3,208.7 -23,208.7 -23,212.9 
		-20.7,212.9 -20.7,214.9 -18.4,214.9 -18.4,208.7 -16.1,208.7 -16.1,202.6 	"/>
	<polygon class="st15" points="-20.7,190.2 -20.8,188 -16.1,188 -16.1,190.2 	"/>
	<rect x="-20.7" y="188.1" class="st15" width="4.6" height="2.1"/>
	<polygon class="st20" points="-23,202.6 -23.1,200.5 -25.3,200.5 -25.4,188 -29.9,188.1 -30,184 -25.3,183.9 -25.3,186.1 
		-20.7,186 -20.8,184 -16.1,183.9 -16.1,188 -20.7,188.1 -20.7,202.6 	"/>
	<polygon class="st20" points="-20.7,184 -20.7,186.1 -25.3,186.1 -25.3,184 -29.9,184 -29.9,188.1 -25.3,188.1 -25.3,200.5 
		-23,200.5 -23,202.6 -20.7,202.6 -20.7,188.1 -16.1,188.1 -16.1,184 	"/>
	<polygon class="st15" points="-25.3,186.1 -25.4,186 -25.4,184 -27.6,184 -27.7,181.9 -16.1,181.8 -16.1,184 -20.7,184 
		-20.7,186.1 	"/>
	<polygon class="st15" points="-27.6,181.9 -27.6,184 -25.3,184 -25.3,186 -25.3,186.1 -20.7,186.1 -20.7,186 -20.7,184 -16.1,184 
		-16.1,181.9 	"/>
	<polygon class="st18" points="-27.6,181.9 -27.7,177.8 -27.7,175.7 -25.3,175.6 -25.3,177.8 -23,177.7 -23,179.9 -18.4,179.8 
		-18.4,181.9 	"/>
	<polygon class="st18" points="-23,179.9 -23,177.8 -23,177.8 -25.3,177.8 -25.3,175.7 -27.6,175.7 -27.6,177.8 -27.6,181.9 
		-18.4,181.9 -18.4,179.9 	"/>
	<polygon class="st17" points="-23,179.9 -23.1,177.8 -20.7,177.7 -18.4,177.7 -18.4,179.9 	"/>
	<polygon class="st17" points="-23,177.8 -23,179.9 -20.7,179.9 -18.4,179.9 -18.4,177.8 -20.7,177.8 	"/>
	<polygon class="st18" points="-23,177.8 -23.1,175.7 -25.3,175.7 -25.4,173.7 -20.7,173.6 -20.8,171.6 -16.1,171.5 -16.1,175.7 
		-18.4,175.7 -18.4,177.8 	"/>
	<polygon class="st18" points="-20.7,173.7 -25.3,173.7 -25.3,175.7 -23,175.7 -23,177.8 -18.4,177.8 -18.4,175.7 -16.1,175.7 
		-16.1,171.6 -20.7,171.6 	"/>
	<polygon class="st15" points="-20.7,171.6 -20.8,169.6 -25.3,169.6 -25.3,171.6 -27.6,171.6 -27.7,167.5 -18.4,167.4 -18.4,171.6 	
		"/>
	<polygon class="st15" points="-27.6,167.5 -27.6,171.6 -25.3,171.6 -25.3,169.6 -20.7,169.6 -20.7,171.6 -18.4,171.6 -18.4,167.5 	
		"/>
	<polygon class="st18" points="-20.7,167.5 -20.8,165.4 -25.3,165.4 -25.3,167.5 -27.6,167.5 -27.7,163.4 -25.3,163.3 -25.4,161.3 
		-23,161.2 -23,163.4 -18.4,163.3 -18.4,167.5 	"/>
	<polygon class="st18" points="-18.4,163.4 -23,163.4 -23,161.3 -23,161.3 -25.3,161.3 -25.3,163.4 -27.6,163.4 -27.6,167.5 
		-25.3,167.5 -25.3,165.4 -20.7,165.4 -20.7,167.5 -18.4,167.5 	"/>
	<polygon class="st21" points="-18.4,167.5 -18.5,163.4 -20.7,163.4 -20.8,159.2 -18.4,159.1 -18.4,163.3 -16.1,163.2 -16.1,167.5 	
		"/>
	<polygon class="st21" points="-20.7,163.4 -18.4,163.4 -18.4,167.5 -16.1,167.5 -16.1,163.3 -18.4,163.3 -18.4,159.2 -20.7,159.2 	
		"/>
	<polygon class="st15" points="-23,214.9 -23.1,212.9 -20.7,212.8 -20.7,214.9 	"/>
	<rect x="-23" y="212.9" class="st15" width="2.3" height="2"/>
	<polygon class="st17" points="-23,163.4 -23.1,161.3 -20.7,161.2 -20.7,163.4 	"/>
	<rect x="-23" y="161.3" class="st17" width="2.3" height="2.1"/>
	<polygon class="st18" points="-23,161.3 -23.1,159.2 -20.7,159.1 -20.7,161.3 	"/>
	<rect x="-23" y="159.2" class="st18" width="2.3" height="2.1"/>
	<polygon class="st18" points="-20.7,219.1 -25.4,219.1 -25.4,217 -25.3,217 -25.3,219 -20.8,219 -20.8,217 -20.7,217 	"/>
	<polyline class="st18" points="-25.3,217 -25.3,219.1 -20.7,219.1 -20.7,217 	"/>
	<polygon class="st15" points="-25.3,212.9 -25.4,208.7 -23,208.6 -23,212.9 	"/>
	<rect x="-25.3" y="208.7" class="st15" width="2.3" height="4.2"/>
	<polygon class="st17" points="-25.3,177.8 -25.4,175.7 -23,175.6 -23,177.8 	"/>
	<polygon class="st17" points="-23,177.8 -23,177.8 -23,175.7 -25.3,175.7 -25.3,177.8 	"/>
	<polygon class="st15" points="-25.3,173.7 -25.4,171.6 -20.7,171.5 -20.7,173.7 	"/>
	<rect x="-25.3" y="171.6" class="st15" width="4.6" height="2.1"/>
	<polygon class="st18" points="-25.3,171.6 -25.4,169.6 -20.7,169.5 -20.7,171.6 	"/>
	<rect x="-25.3" y="169.6" class="st18" width="4.6" height="2"/>
	<polygon class="st4" points="-25.3,167.5 -25.4,165.4 -20.7,165.3 -20.7,167.5 	"/>
	<polygon class="st4" points="-20.7,167.5 -20.7,165.4 -25.3,165.4 -25.3,167.5 	"/>
	<polygon class="st19" points="-29.9,217 -30,212.8 -25.3,212.7 -25.3,212.9 -23,212.8 -23,214.9 -20.7,214.8 -20.7,217 	"/>
	<polygon class="st19" points="-23,212.9 -25.3,212.9 -25.3,212.8 -29.9,212.8 -29.9,217 -20.7,217 -20.7,214.9 -23,214.9 	"/>
	<polygon class="st15" points="-25.3,190.2 -30,190.2 -30,188 -25.3,188 -25.3,188.1 -29.9,188.1 -29.9,190.1 -25.3,190.1 	"/>
	<polyline class="st15" points="-25.3,188.1 -29.9,188.1 -29.9,190.2 -25.3,190.2 	"/>
	<polygon class="st15" points="-27.6,175.7 -27.7,173.7 -25.3,173.6 -25.3,175.7 	"/>
	<rect x="-27.6" y="173.7" class="st15" width="2.3" height="2"/>
	<polygon class="st18" points="-27.6,173.7 -27.7,171.6 -25.3,171.5 -25.3,173.7 	"/>
	<rect x="-27.6" y="171.6" class="st18" width="2.3" height="2.1"/>
	<polygon class="st17" points="-27.6,163.4 -27.7,161.3 -25.3,161.2 -25.3,163.4 	"/>
	<rect x="-27.6" y="161.3" class="st17" width="2.3" height="2.1"/>
	<polygon class="st18" points="-27.6,161.3 -27.7,159.2 -25.3,159.1 -25.3,161.3 	"/>
	<rect x="-27.6" y="159.2" class="st18" width="2.3" height="2.1"/>
	<polygon class="st15" points="-25.3,161.3 -25.4,159.2 -29.9,159.2 -30,157.2 -32.2,157.2 -32.3,155.1 -34.5,155.1 -34.6,153 
		-29.9,152.9 -29.9,157.1 -27.6,157 -27.7,155.1 -23,155 -23,157.1 -20.7,157 -20.7,159.2 -23,159.2 -23,161.3 	"/>
	<polygon class="st15" points="-25.3,159.2 -25.3,161.3 -23,161.3 -23,161.3 -23,159.2 -20.7,159.2 -20.7,157.1 -23,157.1 
		-23,155.1 -27.6,155.1 -27.6,157.1 -29.9,157.1 -29.9,153 -34.5,153 -34.5,155.1 -32.2,155.1 -32.2,157.2 -29.9,157.2 -29.9,159.2 
			"/>
	<polygon class="st17" points="-29.9,177.8 -30,171.6 -27.6,171.5 -27.6,177.8 	"/>
	<rect x="-29.9" y="171.6" class="st17" width="2.3" height="6.2"/>
	<polygon class="st21" points="-29.9,167.5 -30,159.2 -27.6,159.1 -27.6,167.5 	"/>
	<rect x="-29.9" y="159.2" class="st21" width="2.3" height="8.3"/>
	<polygon class="st15" points="-32.2,198.4 -32.3,196.3 -29.9,196.2 -29.9,198.4 	"/>
	<rect x="-32.2" y="196.3" class="st15" width="2.3" height="2.1"/>
	<polygon class="st16" points="-32.2,186.1 -32.3,175.7 -29.9,175.6 -29.9,177.8 -27.6,177.7 -27.6,184 -29.9,184 -29.9,186.1 	"/>
	<polygon class="st16" points="-32.2,186.1 -29.9,186.1 -29.9,184 -27.6,184 -27.6,177.8 -29.9,177.8 -29.9,175.7 -32.2,175.7 	"/>
	<polygon class="st15" points="-34.5,173.7 -34.6,171.6 -32.2,171.5 -32.2,173.7 	"/>
	<rect x="-34.5" y="171.6" class="st15" width="2.3" height="2.1"/>
	<polygon class="st18" points="-36.8,181.9 -36.9,175.7 -34.5,175.6 -34.6,173.7 -32.2,173.6 -32.3,171.6 -34.5,171.6 -34.6,169.6 
		-29.9,169.5 -30,167.5 -27.6,167.4 -27.6,171.6 -29.9,171.6 -29.9,175.7 -32.2,175.7 -32.2,179.9 -34.5,179.9 -34.5,181.9 	"/>
	<polygon class="st18" points="-34.5,179.9 -32.2,179.9 -32.2,175.7 -29.9,175.7 -29.9,171.6 -27.6,171.6 -27.6,167.5 -29.9,167.5 
		-29.9,169.6 -34.5,169.6 -34.5,171.6 -32.2,171.6 -32.2,173.7 -34.5,173.7 -34.5,175.7 -36.8,175.7 -36.8,181.9 -34.5,181.9 	"/>
	<polygon class="st15" points="-39.1,169.6 -39.2,167.5 -29.9,167.4 -29.9,169.6 	"/>
	<rect x="-39.1" y="167.5" class="st15" width="9.2" height="2.1"/>
	<polygon class="st18" points="-34.5,167.5 -34.6,165.4 -32.2,165.3 -32.2,167.5 	"/>
	<rect x="-34.5" y="165.4" class="st18" width="2.3" height="2.1"/>
	<polygon class="st15" points="-36.8,200.5 -36.9,194.3 -39.1,194.3 -39.2,190.2 -36.8,190.1 -36.8,192.2 -34.5,192.1 -34.5,198.4 
		-32.2,198.3 -32.2,200.5 	"/>
	<polygon class="st15" points="-34.5,192.2 -36.8,192.2 -36.8,190.2 -39.1,190.2 -39.1,194.3 -36.8,194.3 -36.8,200.5 -32.2,200.5 
		-32.2,198.4 -34.5,198.4 	"/>
	<polygon class="st16" points="-34.5,198.4 -34.6,192.2 -36.8,192.2 -36.9,190.2 -39.1,190.2 -39.2,186 -36.8,185.9 -36.9,181.9 
		-34.5,181.8 -34.5,188 -32.2,188 -32.2,198.4 	"/>
	<polygon class="st16" points="-32.2,188.1 -34.5,188.1 -34.5,181.9 -36.8,181.9 -36.8,186 -39.1,186 -39.1,190.2 -36.8,190.2 
		-36.8,192.2 -34.5,192.2 -34.5,198.4 -32.2,198.4 	"/>
</g>
<g>
	<polygon class="st22" points="15.8,213 15.8,210.9 10,210.9 10,208.8 4.1,208.8 4.1,198.5 6,198.5 6,184.1 8,184.1 8.1,206.8 
		15.8,206.8 15.9,208.8 25.6,208.8 25.7,213 	"/>
	<polygon class="st22" points="15.8,208.8 15.8,206.8 8,206.8 8,184.1 6,184.1 6,198.5 4.1,198.5 4.1,208.8 10,208.8 10,210.9 
		15.8,210.9 15.8,213 25.6,213 25.6,208.8 	"/>
	<polygon class="st23" points="17.8,219.1 17.8,217.1 19.8,217.1 19.8,215 21.7,215 21.7,213 25.6,213 25.7,217.1 21.7,217.1 
		21.8,219.1 	"/>
	<polygon class="st23" points="21.7,213 21.7,215 19.8,215 19.8,217.1 17.8,217.1 17.8,219.1 21.7,219.1 21.7,217.1 25.6,217.1 
		25.6,213 	"/>
	<polygon class="st24" points="19.8,215 19.8,213 21.7,213 21.8,215 	"/>
	<rect x="19.8" y="213" class="st24" width="1.9" height="2"/>
	<polygon class="st24" points="17.8,217.1 17.8,215 19.8,215 19.9,217.1 	"/>
	<rect x="17.8" y="215" class="st24" width="2" height="2.1"/>
	<polygon class="st25" points="17.8,194.4 17.8,188.2 19.8,188.2 19.9,194.4 	"/>
	<rect x="17.8" y="188.2" class="st25" width="2" height="6.2"/>
	<polygon class="st24" points="15.8,219.1 15.8,217.1 17.8,217.1 17.9,219.1 	"/>
	<rect x="15.8" y="217.1" class="st24" width="2" height="2"/>
	<polygon class="st26" points="15.8,208.8 15.8,206.8 8,206.8 8,184.1 10,184.1 10.1,196.5 11.9,196.5 11.9,190.3 13.9,190.3 
		14,198.5 15.8,198.5 15.8,188.2 13.9,188.2 13.9,180 11.9,180 11.9,177.9 13.9,177.9 13.9,173.8 19.8,173.8 19.9,175.8 21.7,175.8 
		21.8,184.1 19.8,184.1 19.9,188.2 17.8,188.2 17.9,194.4 19.8,194.4 19.9,200.5 21.7,200.5 21.8,206.7 23.7,206.7 23.8,208.8 	"/>
	<polygon class="st26" points="13.9,173.8 13.9,177.9 11.9,177.9 11.9,180 13.9,180 13.9,188.2 15.8,188.2 15.8,198.5 13.9,198.5 
		13.9,190.3 11.9,190.3 11.9,196.5 10,196.5 10,184.1 8,184.1 8,206.8 15.8,206.8 15.8,208.8 23.7,208.8 23.7,206.7 21.7,206.7 
		21.7,200.5 19.8,200.5 19.8,194.4 17.8,194.4 17.8,188.2 19.8,188.2 19.8,184.1 21.7,184.1 21.7,175.8 19.8,175.8 19.8,173.8 	"/>
	<polygon class="st26" points="13.9,219.1 13.9,217.1 15.8,217.1 15.9,219.1 	"/>
	<rect x="13.9" y="217.1" class="st26" width="1.9" height="2"/>
	<polygon class="st24" points="13.9,217.1 13.9,215 15.8,215 15.9,217.1 	"/>
	<rect x="13.9" y="215" class="st24" width="1.9" height="2.1"/>
	<polygon class="st23" points="13.9,173.8 13.9,171.7 15.8,171.7 15.9,173.8 	"/>
	<rect x="13.9" y="171.7" class="st23" width="1.9" height="2.1"/>
	<polygon class="st27" points="15.8,173.8 15.8,171.7 13.9,171.7 13.9,165.5 15.8,165.5 15.9,169.6 17.8,169.6 17.9,171.7 
		19.8,171.7 19.9,173.8 	"/>
	<polygon class="st27" points="13.9,171.7 15.8,171.7 15.8,173.8 19.8,173.8 19.8,171.7 17.8,171.7 17.8,169.6 15.8,169.6 
		15.8,165.5 13.9,165.5 	"/>
	<polygon class="st28" points="11.9,219.1 11.9,217.1 10,217.1 10,215 13.9,215 14,219.1 	"/>
	<polygon class="st28" points="13.9,215 10,215 10,217.1 11.9,217.1 11.9,219.1 13.9,219.1 	"/>
	<polygon class="st27" points="11.9,165.5 11.9,163.4 13.9,163.4 14,165.5 	"/>
	<rect x="11.9" y="163.4" class="st27" width="2" height="2.1"/>
	<polygon class="st23" points="8,219.1 8,216.9 6,216.9 6,215 8,215 8,212.9 4.1,212.9 4.1,210.9 2.1,210.9 2.1,208.8 0.2,208.8 
		0.2,188.2 2.1,188.2 2.1,184.1 0.2,184.1 0.3,186.1 -3.8,186.1 -3.8,184 -1.8,184 -1.8,182 0.1,182 0.1,179.9 2.1,179.9 2.1,177.9 
		4.1,177.9 4.2,180 6,180 6.1,182 4.1,182 4.2,188.2 6,188.2 6.1,198.5 4.1,198.5 4.2,208.8 10,208.8 10.1,210.9 15.8,210.9 
		15.9,213 19.8,213 19.9,215 17.8,215 17.9,217.1 15.8,217.1 15.8,215 10,215 10.1,217.1 11.9,217.1 12,219.1 	"/>
	<polygon class="st23" points="10,217.1 10,215 15.8,215 15.8,217.1 17.8,217.1 17.8,215 19.8,215 19.8,213 15.8,213 15.8,210.9 
		10,210.9 10,208.8 4.1,208.8 4.1,198.5 6,198.5 6,188.2 4.1,188.2 4.1,182 6,182 6,180 4.1,180 4.1,177.9 2.1,177.9 2.1,179.9 
		0.1,179.9 0.1,182 -1.8,182 -1.8,184 -3.8,184 -3.8,186.1 0.2,186.1 0.2,184.1 2.1,184.1 2.1,188.2 0.2,188.2 0.2,208.8 2.1,208.8 
		2.1,210.9 4.1,210.9 4.1,212.9 8,212.9 8,215 6,215 6,216.9 8,216.9 8,219.1 11.9,219.1 11.9,217.1 	"/>
	<polygon class="st25" points="13.9,198.5 13.9,190.3 11.9,190.3 12,196.5 10,196.5 10,177.9 11.9,177.9 12,180 13.9,180 14,188.2 
		15.8,188.2 15.9,198.5 	"/>
	<polygon class="st25" points="10,196.5 11.9,196.5 11.9,190.3 13.9,190.3 13.9,198.5 15.8,198.5 15.8,188.2 13.9,188.2 13.9,180 
		11.9,180 11.9,177.9 10,177.9 	"/>
	<polygon class="st22" points="8,184.1 8,184 8,177.9 10,177.9 10.1,180 10.1,184.1 	"/>
	<polygon class="st22" points="10,184.1 10,184 10,182 10,180 10,179.9 10,177.9 9.9,177.9 8,177.9 8,179.9 8,180 8,182 8,184 
		8,184.1 9.9,184.1 	"/>
	<polygon class="st27" points="8,177.9 8,175.8 6,175.8 6,171.7 11.9,171.7 12,173.8 13.9,173.8 14,177.9 	"/>
	<polygon class="st27" points="8,177.9 13.9,177.9 13.9,173.8 11.9,173.8 11.9,171.7 6,171.7 6,175.8 8,175.8 	"/>
	<path class="st29" d="M11.9,173.8l0-2.1l-5.9,0l0-2.1l0-2l0-2.1l2,0l0-2.1l3.9,0l0,2.1l2,0l0,8.4H11.9z M10.1,169.6l1.9,0l0-2
		l-1.9,0L10.1,169.6z"/>
	<path class="st29" d="M11.9,171.7v2.1h2v-8.3h-2v-2.1H8v2.1H6l0,2.2l0,1.9v2.1L11.9,171.7L11.9,171.7z"/>
	<polygon class="st24" points="6,219 6,216.9 8,216.9 8.1,219 	"/>
	<rect x="6" y="216.9" class="st24" width="2" height="2.1"/>
	<polygon class="st30" points="4.1,188.2 4.1,182 6,182 6,177.9 8,177.9 8.1,184.1 6,184.1 6.1,188.2 	"/>
	<polygon class="st30" points="8,177.9 6,177.9 6,182 4.1,182 4.1,188.2 6,188.2 6,184.1 8,184.1 	"/>
	<polygon class="st23" points="6,177.9 6,175.8 8,175.8 8.1,177.9 	"/>
	<rect x="6" y="175.8" class="st23" width="2" height="2.1"/>
	<polygon class="st23" points="4.1,219 4.1,216.9 6,216.9 6.1,219 	"/>
	<rect x="4.1" y="216.9" class="st23" width="1.9" height="2.1"/>
	<polygon class="st29" points="4.1,180 4.1,177.9 4,175.8 6,175.8 6.1,180 	"/>
	<polygon class="st29" points="4.1,180 6,180 6,175.8 4,175.8 4,177.9 4.1,177.9 	"/>
	<polygon class="st26" points="2.1,219 2.1,216.9 4.1,216.9 4.2,219 	"/>
	<rect x="2.1" y="216.9" class="st26" width="2" height="2.1"/>
	<polygon class="st23" points="2.1,216.9 2.1,215 4.1,215 4.2,216.9 	"/>
	<rect x="2.1" y="215" class="st23" width="2" height="1.9"/>
	<polygon class="st28" points="0.2,219 0.2,216.9 -1.8,216.9 -1.8,215 2.1,215 2.2,219 	"/>
	<polygon class="st28" points="2.1,215 -1.8,215 -1.8,216.9 0.2,216.9 0.2,219 2.1,219 	"/>
	<polygon class="st23" points="-1.8,219 -1.8,216.9 0.2,216.9 0.3,219 	"/>
	<rect x="-1.8" y="216.9" class="st23" width="2" height="2.1"/>
	<polygon class="st24" points="4.1,216.9 4.1,215 2.1,215 2.1,210.9 4.1,210.9 4.2,212.9 8,212.9 8.1,215 6,215 6.1,216.9 	"/>
	<polygon class="st24" points="2.1,215 4.1,215 4.1,216.9 6,216.9 6,215 8,215 8,212.9 4.1,212.9 4.1,210.9 2.1,210.9 	"/>
	<polygon class="st23" points="-1.8,215 -1.8,210.9 2.1,210.9 2.2,215 	"/>
	<rect x="-1.8" y="210.9" class="st23" width="3.9" height="4.1"/>
	<polygon class="st30" points="-1.8,200.6 -1.8,198.5 -3.8,198.5 -3.8,192.3 -1.8,192.3 -1.7,196.5 0.2,196.5 0.3,200.6 	"/>
	<polygon class="st30" points="-1.8,200.6 0.2,200.6 0.2,196.5 -1.8,196.5 -1.8,192.3 -3.8,192.3 -3.8,198.5 -1.8,198.5 	"/>
	<polygon class="st24" points="-1.8,196.5 -1.8,192.3 0.2,192.3 0.3,196.5 	"/>
	<rect x="-1.8" y="192.3" class="st24" width="2" height="4.2"/>
	<polygon class="st30" points="-1.8,192.3 -1.8,190.3 0.2,190.3 0.3,192.3 	"/>
	<rect x="-1.8" y="190.3" class="st30" width="2" height="2"/>
	<polygon class="st24" points="-1.8,190.3 -1.8,186.1 0.2,186.1 0.2,184.1 2.1,184.1 2.2,188.2 0.2,188.2 0.3,190.3 	"/>
	<polygon class="st24" points="-1.8,190.3 0.2,190.3 0.2,188.2 2.1,188.2 2.1,184.1 0.2,184.1 0.2,186.1 -1.8,186.1 	"/>
	<polygon class="st24" points="-3.7,213 -3.7,208.8 -1.8,208.8 -1.8,200.6 0.2,200.6 0.3,208.8 2.1,208.8 2.2,210.9 -1.8,210.9 
		-1.7,213 	"/>
	<polygon class="st24" points="-1.8,210.9 2.1,210.9 2.1,208.8 0.2,208.8 0.2,200.6 -1.8,200.6 -1.8,208.8 -3.7,208.8 -3.7,213 
		-1.8,213 	"/>
	<polygon class="st23" points="-3.7,192.3 -3.7,190.3 -1.8,190.3 -1.7,192.3 	"/>
	<rect x="-3.7" y="190.3" class="st23" width="1.9" height="2"/>
	<polygon class="st23" points="-7.7,213 -7.7,204.7 -5.7,204.7 -5.7,202.6 -3.8,202.6 -3.8,198.5 -1.8,198.5 -1.7,208.8 -3.7,208.8 
		-3.6,213 	"/>
	<polygon class="st23" points="-3.7,208.8 -1.8,208.8 -1.8,198.5 -3.8,198.5 -3.8,202.6 -5.7,202.6 -5.7,204.7 -7.7,204.7 -7.7,213 
		-3.7,213 	"/>
	<polygon class="st29" points="-5.7,192.3 -5.7,188.2 -3.7,188.2 -3.6,192.3 	"/>
	<rect x="-5.7" y="188.2" class="st29" width="2" height="4.1"/>
	<polygon class="st30" points="-3.7,190.3 -3.7,188.2 -5.7,188.2 -5.7,186.1 -1.8,186.1 -1.7,190.3 	"/>
	<polygon class="st30" points="-3.7,188.2 -3.7,190.3 -1.8,190.3 -1.8,186.1 -5.7,186.1 -5.7,188.2 	"/>
	<polygon class="st31" points="6,169.4 6,167.7 7.7,167.6 7.8,169.4 	"/>
	<polygon class="st31" points="10,169.4 10,167.6 11.7,167.6 11.7,169.4 	"/>
</g>
<g>
	<polygon class="st32" points="85.9,188.2 85.8,184 87.8,184 87.8,188.2 	"/>
	<polygon class="st32" points="85.9,188.1 85.9,188.1 87.8,188.1 87.8,184 85.9,184 	"/>
	<polygon class="st33" points="84.1,198.4 84,186 82.1,186 82,184 84.1,184 84,181.9 85.9,181.9 85.8,177.9 84.1,177.8 84,173.7 
		87.8,173.7 87.8,184 85.9,184.1 85.9,198.4 	"/>
	<polygon class="st33" points="84.1,173.7 84.1,177.8 85.9,177.8 85.9,177.8 85.9,181.9 84.1,181.9 84.1,184 82.1,184 82.1,186 
		84.1,186 84.1,198.4 85.9,198.4 85.9,184 87.8,184 87.8,173.7 	"/>
	<polygon class="st32" points="84.1,173.7 84,169.5 85.9,169.5 85.9,173.7 	"/>
	<rect x="84.1" y="169.5" class="st32" width="1.8" height="4.2"/>
	<polygon class="st29" points="80.2,219 80.2,217 84.1,217 84.1,219 	"/>
	<rect x="80.2" y="217" class="st29" width="3.9" height="2"/>
	<polygon class="st33" points="84.1,219 84,210.8 82.1,210.8 82,208.7 85.9,208.7 85.9,219 	"/>
	<polygon class="st33" points="82.1,210.8 84.1,210.8 84.1,219 85.9,219 85.9,208.7 82.1,208.7 	"/>
	<path class="st32" d="M74.5,219l0-4.1l-1.9,0l0-10.3l-1.9,0l0-2.1l-1.9,0l0-6.1l1.9,0l0-0.1v-2l-1.9,0l0-2.1l-1.9,0l0-8.2l2,0
		l0,4.1l1.8,0l0,2.1l1.9,0l0,4.1l5.7,0l0-2.1l1.9,0l0-2l1.9,0l0-4.2l2,0l0,22.7l-2,0l0,2.1l2,0l0,6.2l-3.9,0l0,2H74.5z M80.2,204.6
		l1.8,0l0-2.1l-1.8,0l0-2l-3.8,0l0-2.1l-1.9,0l0-2l-3.8,0l0,2l1.9,0l0,2.1l1.9,0l0,2l5.6,0L80.2,204.6z"/>
	<polygon class="st32" points="84.1,186 82.1,186 82.1,190.2 80.2,190.2 80.2,192.2 78.3,192.2 78.3,194.3 72.6,194.3 72.6,190.2 
		70.7,190.2 70.7,188.1 68.9,188.1 68.9,184 66.9,184 66.9,192.2 68.8,192.2 68.8,194.3 70.7,194.3 70.7,196.3 70.7,196.4 
		74.5,196.4 74.5,198.4 76.4,198.4 76.4,200.5 80.2,200.5 80.2,202.5 82.1,202.5 82.1,204.6 80.2,204.6 80.2,202.5 80.2,202.5 
		74.5,202.5 74.5,200.5 72.6,200.5 72.6,198.4 70.7,198.4 70.7,196.4 68.8,196.4 68.8,202.5 70.7,202.5 70.7,204.6 72.6,204.6 
		72.6,214.9 74.5,214.9 74.5,219 80.2,219 80.2,219 80.2,217 84.1,217 84.1,210.8 82.1,210.8 82.1,208.7 84.1,208.7 	"/>
	<polygon class="st34" points="84.1,181.9 82,181.9 82,179.9 82.1,179.9 82.1,181.9 84,181.9 84,179.9 84.1,179.9 	"/>
	<polyline class="st34" points="82.1,179.9 82.1,181.9 84.1,181.9 84.1,179.9 	"/>
	<polygon class="st32" points="84.1,181.9 84,179.9 82.1,179.9 82,177.8 85.9,177.8 85.9,181.9 	"/>
	<polygon class="st32" points="82.1,177.8 82.1,179.9 84.1,179.9 84.1,181.9 85.9,181.9 85.9,177.8 85.9,177.8 	"/>
	<polygon class="st35" points="82.1,177.8 82,175.7 84.1,175.7 84.1,177.8 	"/>
	<polygon class="st33" points="80.2,173.7 80.2,171.6 82.1,171.6 82,169.5 84.1,169.5 84.1,173.7 	"/>
	<polygon class="st33" points="82.1,169.5 82.1,171.6 80.2,171.6 80.2,173.7 84.1,173.7 84.1,169.5 	"/>
	<polygon class="st34" points="82.1,169.5 82,167.4 84.1,167.4 84.1,169.5 	"/>
	<rect x="82.1" y="167.4" class="st34" width="2" height="2.1"/>
	<polygon class="st33" points="80.2,204.6 80.2,202.5 82.1,202.5 82.1,204.6 	"/>
	<rect x="80.2" y="202.5" class="st33" width="1.9" height="2.1"/>
	<polygon class="st33" points="80.2,190.2 80.2,186 82.1,186 82.1,190.2 	"/>
	<rect x="80.2" y="186" class="st33" width="1.9" height="4.2"/>
	<polygon class="st32" points="76.4,192.2 76.4,190.2 74.5,190.2 74.5,188.1 76.4,188.1 76.4,186 78.3,186 78.3,184 80.2,184 
		80.2,179.9 82.1,179.9 82.1,181.9 84.1,181.9 84.1,184 82.1,184 82.1,186 80.2,186 80.2,190.2 78.3,190.2 78.3,192.2 	"/>
	<polygon class="st32" points="82.1,181.9 82.1,179.9 80.2,179.9 80.2,184 78.3,184 78.3,186 76.4,186 76.4,188.1 74.5,188.1 
		74.5,190.2 76.4,190.2 76.4,192.2 78.3,192.2 78.3,190.2 80.2,190.2 80.2,190.2 80.2,190.1 80.2,186 82.1,186 82.1,184 84.1,184 
		84.1,181.9 	"/>
	<polygon class="st34" points="80.2,179.9 80.2,177.8 82.1,177.8 82.1,179.9 	"/>
	<rect x="80.2" y="177.8" class="st34" width="1.9" height="2.1"/>
	<polygon class="st29" points="80.2,177.8 80.2,175.7 78.3,175.7 78.3,173.7 80.2,173.7 84.1,173.7 84.1,175.7 84,175.7 82.1,175.7 
		82.1,177.8 	"/>
	<polygon class="st29" points="80.2,173.7 78.3,173.7 78.3,175.7 80.2,175.7 80.2,177.8 82.1,177.8 82.1,175.7 84,175.7 84.1,175.7 
		84.1,173.7 	"/>
	<polygon class="st33" points="80.2,169.5 80.2,165.4 82.1,165.4 82.1,169.5 	"/>
	<rect x="80.2" y="165.4" class="st33" width="1.9" height="4.1"/>
	<polygon class="st33" points="78.3,192.2 78.3,190.2 80.2,190.2 80.2,192.2 	"/>
	<polygon class="st33" points="78.3,190.2 78.3,192.2 80.2,192.2 80.2,190.2 80.2,190.2 	"/>
	<polygon class="st36" points="74.5,175.7 74.5,171.6 76.4,171.6 78.3,171.6 78.3,173.7 76.4,173.7 76.4,175.7 	"/>
	<polygon class="st36" points="78.3,171.6 76.4,171.6 74.5,171.6 74.5,175.7 76.4,175.7 76.4,173.7 78.3,173.7 	"/>
	<polygon class="st35" points="76.4,169.5 76.4,167.5 80.2,167.5 80.2,169.5 	"/>
	<rect x="76.4" y="167.5" class="st35" width="3.8" height="2"/>
	<polygon class="st33" points="72.6,194.3 72.6,190.2 70.7,190.2 70.7,188.1 68.9,188.1 68.9,184 70.7,184 70.7,186 74.5,186 
		74.5,184 76.4,184 76.4,181.9 78.3,181.9 78.3,177.8 80.2,177.8 80.2,181.9 80.2,184 78.3,184 78.3,186 76.4,186 76.4,188.1 
		74.5,188.1 74.5,190.2 76.4,190.2 76.4,192.2 78.3,192.2 78.3,194.3 	"/>
	<polygon class="st33" points="76.4,190.2 74.5,190.2 74.5,188.1 76.4,188.1 76.4,186 78.3,186 78.3,184 80.2,184 80.2,181.9 
		80.2,177.8 80.2,177.8 78.3,177.8 78.3,181.9 76.4,181.9 76.4,184 74.5,184 74.5,186 70.7,186 70.7,184 68.9,184 68.9,188.1 
		70.7,188.1 70.7,190.2 72.6,190.2 72.6,194.3 78.3,194.3 78.3,192.2 76.4,192.2 	"/>
	<polygon class="st34" points="78.3,173.7 78.3,171.6 70.7,171.6 70.7,169.5 74.5,169.5 74.5,167.5 76.4,167.5 76.4,169.5 
		82.1,169.5 82.1,171.6 80.2,171.6 80.2,173.7 	"/>
	<polygon class="st34" points="78.3,171.6 78.3,173.7 80.2,173.7 80.2,173.7 80.2,171.6 82.1,171.6 82.1,169.5 76.4,169.5 
		76.4,167.5 74.5,167.5 74.5,169.5 70.7,169.5 70.7,171.6 	"/>
	<polygon class="st29" points="72.6,167.5 72.6,161.3 74.5,161.3 74.5,157.2 78.3,157.2 78.3,163.4 74.5,163.4 74.5,165.4 
		78.3,165.4 78.3,167.5 	"/>
	<polygon class="st29" points="72.6,167.5 78.3,167.5 78.3,165.4 74.5,165.4 74.5,163.4 78.3,163.4 78.3,157.2 74.5,157.2 
		74.5,161.3 72.6,161.3 	"/>
	<polygon class="st21" points="78.3,167.5 78.3,165.4 74.5,165.4 74.5,163.4 78.3,163.4 78.3,157.2 74.5,157.2 74.5,161.3 
		72.6,161.3 72.6,157.1 74.5,157.1 74.5,155.1 78.3,155.1 78.3,157.1 80.2,157.1 80.2,167.5 	"/>
	<polygon class="st21" points="74.5,157.2 78.3,157.2 78.3,163.4 74.5,163.4 74.5,165.4 78.3,165.4 78.3,167.5 80.2,167.5 
		80.2,157.1 78.3,157.1 78.3,155.1 74.5,155.1 74.5,157.1 72.6,157.1 72.6,161.3 74.5,161.3 	"/>
	<polygon class="st33" points="72.6,219 72.6,217 70.7,217 70.7,204.6 72.6,204.6 72.6,214.9 74.5,214.9 74.5,219 	"/>
	<polygon class="st33" points="72.6,214.9 72.6,204.6 70.7,204.6 70.7,217 72.6,217 72.6,219 74.5,219 74.5,214.9 	"/>
	<polygon class="st34" points="76.4,179.9 76.4,177.8 74.5,177.8 74.5,179.9 72.6,179.9 72.6,177.8 72.6,175.7 76.4,175.7 
		76.4,173.7 78.3,173.7 78.3,175.7 80.2,175.7 80.2,177.8 78.3,177.8 78.3,179.9 	"/>
	<polygon class="st34" points="74.5,177.8 76.4,177.8 76.4,179.9 78.3,179.9 78.3,177.8 80.2,177.8 80.2,177.8 80.2,175.7 
		78.3,175.7 78.3,173.7 76.4,173.7 76.4,175.7 72.6,175.7 72.6,177.8 72.6,179.9 74.5,179.9 	"/>
	<polygon class="st35" points="70.7,169.5 70.7,167.5 74.5,167.5 74.5,169.5 	"/>
	<rect x="70.7" y="167.5" class="st35" width="3.8" height="2"/>
	<polygon class="st29" points="70.7,219 70.7,217 72.6,217 72.6,219 	"/>
	<rect x="70.7" y="217" class="st29" width="1.9" height="2"/>
	<polygon class="st33" points="74.5,202.5 74.5,200.5 72.6,200.5 72.6,198.4 70.7,198.4 70.7,196.4 74.5,196.4 74.5,198.4 
		76.4,198.4 76.4,200.5 80.2,200.5 80.2,202.5 	"/>
	<polygon class="st33" points="72.6,198.4 72.6,200.5 74.5,200.5 74.5,202.5 80.2,202.5 80.2,202.5 80.2,200.5 76.4,200.5 
		76.4,198.4 74.5,198.4 74.5,196.4 70.7,196.4 70.7,198.4 	"/>
	<polygon class="st35" points="70.7,186 70.7,181.9 72.6,181.9 72.6,179.9 74.5,179.9 74.5,177.8 76.4,177.8 76.4,179.9 78.3,179.9 
		78.3,181.9 76.4,181.9 76.4,184 74.5,184 74.5,186 	"/>
	<polygon class="st35" points="70.7,186 74.5,186 74.5,184 76.4,184 76.4,181.9 78.3,181.9 78.3,179.9 76.4,179.9 76.4,177.8 
		74.5,177.8 74.5,179.9 72.6,179.9 72.6,181.9 70.7,181.9 	"/>
	<polygon class="st34" points="70.7,181.9 70.7,179.9 72.6,179.9 72.6,181.9 	"/>
	<rect x="70.7" y="179.9" class="st34" width="1.9" height="2"/>
	<polygon class="st29" points="70.7,177.8 70.7,175.7 72.6,175.7 72.6,177.8 	"/>
	<rect x="70.7" y="175.7" class="st29" width="1.9" height="2.1"/>
	<polygon class="st21" points="70.7,167.5 70.7,161.3 72.6,161.3 72.6,167.5 	"/>
	<rect x="70.7" y="161.3" class="st21" width="1.9" height="6.2"/>
	<polygon class="st33" points="68.8,204.6 68.8,202.5 70.7,202.5 70.7,204.6 	"/>
	<rect x="68.8" y="202.5" class="st33" width="1.9" height="2.1"/>
	<polygon class="st33" points="68.8,196.4 68.8,194.3 70.7,194.3 70.7,196.4 	"/>
	<rect x="68.8" y="194.3" class="st33" width="1.9" height="2.1"/>
	<polygon class="st34" points="68.9,184 68.9,181.9 70.7,181.9 70.7,184 	"/>
	<rect x="68.9" y="181.9" class="st34" width="1.8" height="2.1"/>
	<polygon class="st35" points="66.9,184 66.9,171.6 68.9,171.6 68.9,169.5 70.7,169.5 70.7,171.6 72.6,171.6 72.6,175.7 70.7,175.7 
		70.7,177.8 72.6,177.8 72.6,179.9 70.7,179.9 70.7,181.9 68.9,181.9 68.9,184 	"/>
	<polygon class="st35" points="68.9,184 68.9,181.9 70.7,181.9 70.7,179.9 72.6,179.9 72.6,177.8 70.7,177.8 70.7,175.7 74.6,175.7 
		74.6,171.6 70.7,171.6 70.7,169.5 68.9,169.5 68.9,171.6 66.9,171.6 66.9,184 	"/>
	<polygon class="st34" points="68.9,169.5 68.9,167.4 70.7,167.4 70.7,169.5 	"/>
	<rect x="68.9" y="167.4" class="st34" width="1.8" height="2.1"/>
	<polygon class="st33" points="66.9,171.6 66.9,167.4 68.8,167.4 68.8,165.4 70.7,165.4 70.7,167.4 68.9,167.4 68.9,171.6 	"/>
	<polygon class="st33" points="68.9,171.6 68.9,167.4 70.7,167.4 70.7,165.4 68.8,165.4 68.8,167.4 66.9,167.4 66.9,171.6 	"/>
	<g>
		<polygon class="st32" points="66.9,219 66.9,202.5 68.8,202.5 68.8,204.6 70.7,204.6 70.7,219 		"/>
		<polygon class="st32" points="68.8,204.6 68.8,202.5 66.9,202.5 66.9,219 70.7,219 70.7,204.6 		"/>
		<polygon class="st32" points="65,219 65,210.8 66.9,210.8 66.9,219 		"/>
		<rect x="65" y="210.8" class="st32" width="1.9" height="8.2"/>
	</g>
	<polygon class="st33" points="65,188.1 65,177.8 66.9,177.8 66.9,188.1 	"/>
	<rect x="65" y="177.8" class="st33" width="1.9" height="10.3"/>
	<polygon class="st33" points="65,175.7 65,171.6 66.9,171.6 66.9,175.7 	"/>
	<rect x="65" y="171.6" class="st33" width="1.9" height="4.1"/>
	<polygon class="st32" points="63.1,179.9 63.1,175.7 66.9,175.7 66.9,177.8 65,177.8 65,179.9 	"/>
	<polygon class="st32" points="63.1,175.7 63.1,179.9 65,179.9 65,177.8 66.9,177.8 66.9,175.7 	"/>
	<rect x="68.9" y="171.6" class="st29" width="1.9" height="4.2"/>
	<polygon class="st29" points="70.6,175.7 70.6,171.6 72.5,171.6 72.5,175.7 	"/>
	<polygon class="st34" points="72.5,176.8 74.6,176.8 74.6,171.6 72.5,171.6 	"/>
</g>
<g>
	<polygon class="st31" points="46.2,188.1 46.2,181.9 48.1,181.9 48.1,179.9 44.3,179.9 44.3,181.9 42.4,181.9 42.4,173.7 
		44.3,173.7 44.3,171.6 46.2,171.6 46.2,173.7 48.1,173.7 48.1,171.6 51.9,171.6 51.9,173.7 50.1,173.7 50.1,177.8 51.9,177.8 
		51.9,175.7 53.8,175.7 53.8,184 51.9,184 51.9,186 51.9,188.1 	"/>
	<polygon class="st31" points="51.9,175.7 51.9,177.8 50.1,177.8 50.1,173.7 51.9,173.7 51.9,171.6 48.1,171.6 48.1,173.7 
		46.2,173.7 46.2,171.6 44.3,171.6 44.3,173.7 42.4,173.7 42.4,181.9 44.3,181.9 44.3,179.9 48.1,179.9 48.1,181.9 46.2,181.9 
		46.2,188.1 51.9,188.1 51.9,186 51.9,184 53.8,184 53.8,175.7 	"/>
	<polygon class="st37" points="50.1,177.8 50.1,173.7 51.9,173.7 51.9,177.8 	"/>
	<rect x="50.1" y="173.7" class="st37" width="1.8" height="4.1"/>
	<polygon class="st37" points="46.2,190.2 46.2,188.1 50.1,188.1 50.1,190.2 	"/>
	<rect x="46.2" y="188.1" class="st37" width="3.9" height="2.1"/>
	<polygon class="st38" points="40.5,219 40.5,200.5 36.7,200.5 36.7,198.4 40.5,198.4 40.5,196.4 42.4,196.4 42.4,198.4 48.1,198.4 
		48.1,200.4 48.1,200.5 42.4,200.5 42.4,219 	"/>
	<polygon class="st38" points="48.1,198.4 42.4,198.4 42.4,196.4 40.5,196.4 40.5,198.4 36.7,198.4 36.7,200.4 36.7,200.5 
		40.5,200.5 40.5,219 42.4,219 42.4,200.5 48.1,200.5 48.1,200.4 	"/>
	<polygon class="st31" points="48.1,200.5 48.1,198.4 42.4,198.4 42.4,196.4 40.5,196.4 40.5,198.4 34.8,198.4 34.8,196.3 
		34.8,194.3 34.9,194.3 34.9,192.2 32.9,192.2 32.9,184.1 33.8,184.1 33.8,178 32.9,178 32.9,175.7 34.9,175.7 34.9,173.6 
		34.8,173.6 34.8,171.6 38.6,171.6 38.6,173.7 40.5,173.7 40.5,181.9 38.6,181.9 38.6,186 42.4,186 42.4,188.1 42.4,192.2 
		44.3,192.2 44.3,188.1 46.2,188.1 46.2,190.2 50.1,190.2 50.1,200.5 	"/>
	<polygon class="st31" points="46.2,190.2 46.2,188.1 44.3,188.1 44.3,192.2 42.4,192.2 42.4,188.1 42.4,186 38.6,186 38.6,181.9 
		40.5,181.9 40.5,173.7 38.6,173.7 38.6,171.6 34.8,171.6 34.8,173.6 34.9,173.6 34.9,175.7 32.9,175.7 32.9,178 33.8,178 
		33.8,184.1 32.9,184.1 32.9,192.2 34.9,192.2 34.9,194.3 34.8,194.3 34.8,196.3 34.8,196.4 34.8,198.4 40.5,198.4 40.5,196.4 
		42.4,196.4 42.4,198.4 48.1,198.4 48.1,200.5 50.1,200.5 50.1,190.2 	"/>
	<polygon class="st22" points="46.2,181.9 46.2,179.9 48.1,179.9 48.1,181.9 	"/>
	<rect x="46.2" y="179.9" class="st22" width="1.9" height="2"/>
	<polygon class="st29" points="42.4,188.1 42.4,186 44.3,186 44.3,184 46.2,184 46.2,188.1 	"/>
	<polygon class="st29" points="44.3,186 42.4,186 42.4,188.1 46.2,188.1 46.2,184 44.3,184 	"/>
	<polygon class="st22" points="44.3,184 44.3,181.9 46.2,181.9 46.2,184 	"/>
	<rect x="44.3" y="181.9" class="st22" width="1.9" height="2.1"/>
	<polygon class="st3" points="44.3,181.9 44.3,179.9 46.2,179.9 46.2,181.9 	"/>
	<rect x="44.3" y="179.9" class="st3" width="1.9" height="2"/>
	<polygon class="st39" points="46.2,165.4 46.2,161.3 44.3,161.3 44.3,155.1 46.2,155.1 46.2,159.2 48.1,159.2 48.1,165.4 	"/>
	<polygon class="st39" points="44.3,161.3 46.2,161.3 46.2,165.4 48.1,165.4 48.1,159.2 46.2,159.2 46.2,155.1 44.3,155.1 	"/>
	<polygon class="st37" points="42.4,219 42.4,217 48.1,217 48.1,219 	"/>
	<rect x="42.4" y="217" class="st37" width="5.7" height="2"/>
	<polygon class="st40" points="42.4,217 42.4,200.5 48.1,200.5 48.1,217 	"/>
	<rect x="42.4" y="200.5" class="st40" width="5.7" height="16.5"/>
	<polygon class="st37" points="42.4,192.2 42.4,188.1 44.3,188.1 44.3,192.2 	"/>
	<rect x="42.4" y="188.1" class="st37" width="1.9" height="4.1"/>
	<polygon class="st22" points="38.6,186 38.6,184 44.3,184 44.3,186 	"/>
	<rect x="38.6" y="184" class="st22" width="5.7" height="2"/>
	<polygon class="st37" points="34.7,219 34.7,217 40.5,217 40.5,219 	"/>
	<rect x="34.7" y="217" class="st37" width="5.8" height="2"/>
	<polygon class="st3" points="38.6,184 38.6,181.9 44.3,181.9 44.3,184 	"/>
	<rect x="38.6" y="181.9" class="st3" width="5.7" height="2.1"/>
	<polygon class="st37" points="40.5,181.9 40.5,173.7 38.6,173.7 38.6,171.6 44.3,171.6 44.3,173.7 42.4,173.7 42.4,181.9 	"/>
	<polygon class="st37" points="38.6,171.6 38.6,173.7 40.5,173.7 40.5,181.9 42.4,181.9 42.4,173.7 44.3,173.7 44.3,171.6 	"/>
	<polygon class="st29" points="38.6,167.5 38.6,165.4 40.5,165.4 40.5,167.5 	"/>
	<rect x="38.6" y="165.4" class="st29" width="1.9" height="2.1"/>
	<polygon class="st39" points="40.5,167.5 40.5,165.4 38.6,165.4 38.6,163.4 44.3,163.4 44.3,165.4 42.4,165.4 42.4,167.5 	"/>
	<polygon class="st39" points="40.5,167.5 42.4,167.5 42.4,165.4 44.3,165.4 44.3,163.4 38.6,163.4 38.6,165.4 40.5,165.4 	"/>
	<polygon class="st29" points="40.5,169.5 40.5,167.5 42.4,167.5 42.4,165.4 44.3,165.4 44.3,163.4 38.6,163.4 38.6,155.1 
		44.3,155.1 44.3,161.3 46.2,161.3 46.2,167.5 44.3,167.5 44.3,169.5 	"/>
	<polygon class="st29" points="44.3,163.4 44.3,165.4 42.4,165.4 42.4,167.5 40.5,167.5 40.5,169.5 44.3,169.5 44.3,167.5 
		46.2,167.5 46.2,161.3 44.3,161.3 44.3,155.1 38.6,155.1 38.6,163.4 	"/>
	<polygon class="st40" points="36.7,217 36.7,200.5 40.5,200.5 40.5,217 	"/>
	<rect x="36.7" y="200.5" class="st40" width="3.8" height="16.5"/>
	<g>
		<polygon class="st31" points="36.7,161.3 36.7,157.2 38.6,157.2 38.6,161.3 		"/>
		<rect x="36.7" y="157.2" class="st31" width="1.9" height="4.1"/>
		<path class="st39" d="M38.6,159.2"/>
		<path class="st39" d="M38.6,159.2"/>
	</g>
	<polygon class="st3" points="46.2,173.7 46.2,171.6 32.9,171.6 32.9,169.5 34.8,169.5 34.8,167.4 38.6,167.4 38.6,167.5 
		40.5,167.5 40.5,169.5 44.3,169.5 44.3,167.5 46.2,167.5 46.2,165.4 48.1,165.4 48.1,163.3 51.9,163.3 51.9,167.5 50.1,167.5 
		50.1,169.5 48.1,169.5 48.1,173.7 	"/>
	<polygon class="st3" points="46.2,171.6 46.2,173.7 48.1,173.7 48.1,169.5 50.1,169.5 50.1,167.5 51.9,167.5 51.9,163.3 
		48.1,163.3 48.1,165.4 46.2,165.4 46.2,167.5 44.3,167.5 44.3,169.5 40.5,169.5 40.5,167.5 38.6,167.5 38.6,167.4 34.8,167.4 
		34.8,169.5 32.9,169.5 32.9,171.6 	"/>
	<polygon class="st29" points="32.9,194.3 32.9,192.2 34.9,192.2 34.9,194.3 	"/>
	<rect x="32.9" y="192.2" class="st29" width="2" height="2.1"/>
	<polygon class="st37" points="32.9,175.7 32.9,173.6 34.9,173.6 34.9,175.7 	"/>
	<polygon class="st37" points="34.9,175.7 34.9,173.6 34.8,173.6 32.9,173.6 32.9,175.7 34.8,175.7 	"/>
	<polygon class="st39" points="29.1,198.4 29.1,196.3 31,196.3 31,194.3 32.9,194.3 32.9,196.4 31,196.4 31,198.4 	"/>
	<polygon class="st39" points="31,196.3 29.1,196.3 29.1,198.4 31,198.4 31,196.4 32.9,196.4 32.9,194.3 31,194.3 	"/>
	<polygon class="st39" points="31.9,184.1 31.9,178 33.8,178 33.8,184.1 	"/>
	<rect x="31.9" y="178" class="st39" width="1.9" height="6.1"/>
</g>
</svg>
