<?xml version="1.0" encoding="utf-8"?>
<!-- Generator: Adobe Illustrator 19.0.0, SVG Export Plug-In . SVG Version: 6.00 Build 0)  -->
<svg version="1.1" id="Layer_1" xmlns="http://www.w3.org/2000/svg" xmlns:xlink="http://www.w3.org/1999/xlink" x="0px" y="0px"
	 width="22px" height="36px" viewBox="0.1 5 22 36" style="enable-background:new 0.1 5 22 36;" xml:space="preserve">
<style type="text/css">
	.st0{fill:#CFB194;}
	.st1{fill:#4D4D4D;}
	.st2{fill:#3F3F3F;}
	.st3{fill:#FFDA00;}
	.st4{fill:#FFCE61;}
	.st5{fill:#CD8363;}
	.st6{fill:#E58F70;}
	.st7{fill:#C96B4D;}
	.st8{fill:#FCE4D2;}
	.st9{fill:#FFF8F3;}
</style>
<g id="XMLID_1_">
	<rect id="XMLID_34_" x="13.4" y="16.2" class="st0" width="8.9" height="2.3"/>
	<polygon id="XMLID_4_" class="st0" points="20,16.2 17.9,16.2 15.6,16.2 13.4,16.2 13.4,18.4 15.6,18.4 15.6,18.4 17.8,18.4 
		17.9,18.4 20,18.4 22.3,18.4 22.3,16.2 	"/>
	<rect id="XMLID_33_" x="17.8" y="23" class="st1" width="4.4" height="2.3"/>
	<polygon id="XMLID_19_" class="st2" points="17.8,23 17.8,25.1 20,25.1 22.3,25.1 22.3,23 20,23 	"/>
	<rect id="XMLID_18_" x="17.8" y="20.7" class="st3" width="4.4" height="2.3"/>
	<polygon id="XMLID_20_" class="st4" points="17.8,20.7 17.8,23 20,23 22.3,23 22.3,20.7 20,20.7 	"/>
	<rect id="XMLID_17_" x="17.8" y="18.4" class="st1" width="4.4" height="2.3"/>
	<polygon id="XMLID_21_" class="st2" points="17.9,18.4 17.8,18.4 17.8,20.7 20,20.7 22.3,20.7 22.3,18.4 20,18.4 	"/>
	<rect id="XMLID_16_" x="15.6" y="18.4" class="st5" width="2.3" height="2.3"/>
	<polygon id="XMLID_22_" class="st6" points="15.6,18.4 15.6,18.4 15.6,20.7 15.6,20.7 17.8,20.7 17.8,18.4 	"/>
	<path id="XMLID_13_" class="st7" d="M2.2,40.9v-2.3H0V27.4h2.3v-4.5H0v-4.5h2.3v-4.5h2.3v2.3h8.9v2.4h2.3v4.5h-2.3v-2.3h-2.3v4.5
		H8.9V41L2.2,40.9L2.2,40.9z M4.4,23v-2.3H2.2V23H4.4z"/>
	<polygon id="XMLID_23_" class="st7" points="15.6,18.4 13.4,18.4 13.4,16.2 11.2,16.2 11.1,16.2 8.9,16.2 6.7,16.2 4.4,16.2 
		4.4,14 2.2,14 2.2,16.1 2.2,16.2 2.2,18.4 0,18.4 0,20.7 0,23 2.2,23 2.2,20.7 4.4,20.7 4.4,23 2.2,23 2.2,25.1 2.2,27.4 0,27.4 
		0,29.6 0,31.9 0,34.1 0,36.3 0,38.6 2.2,38.6 2.2,40.9 4.5,40.9 6.7,40.9 8.9,40.9 8.9,38.6 8.9,38.6 8.9,36.3 8.9,34.1 8.9,31.9 
		8.9,29.6 8.9,27.4 8.9,25.1 11.1,25.1 11.1,22.9 11.1,20.7 13.4,20.7 13.4,22.9 13.4,23 15.6,23 15.6,20.7 15.6,20.7 	"/>
	<rect id="XMLID_12_" x="11.1" y="27.4" class="st7" width="2.3" height="9"/>
	<polygon id="XMLID_24_" class="st7" points="11.1,29.6 11.1,31.9 11.1,34.1 11.1,36.3 11.1,36.4 13.4,36.4 13.4,34.1 13.4,31.9 
		13.4,29.6 13.4,27.4 11.1,27.4 	"/>
	<polygon id="XMLID_11_" class="st5" points="8.9,38.6 8.9,25.1 11.1,25.1 11.1,20.7 13.4,20.7 13.4,27.4 11.1,27.4 11.1,38.6 	"/>
	<polygon id="XMLID_25_" class="st6" points="13.4,20.7 11.1,20.7 11.1,22.9 11.1,25.1 8.9,25.1 8.9,27.4 8.9,29.6 8.9,31.9 
		8.9,34.1 8.9,36.3 8.9,38.6 8.9,38.6 11.1,38.6 11.1,36.4 11.1,36.3 11.1,34.1 11.1,31.9 11.1,29.6 11.1,27.4 13.4,27.4 13.4,25.1 
		13.4,23 13.4,22.9 	"/>
	<polygon id="XMLID_10_" class="st8" points="11.1,16.2 11.1,14 8.9,14 8.9,11.7 13.4,11.7 13.4,16.2 	"/>
	<polygon id="XMLID_26_" class="st9" points="11.1,11.7 8.9,11.7 8.9,14 11.1,14 11.1,16.2 11.2,16.2 13.4,16.2 13.4,14 13.4,11.7 
		11.2,11.7 	"/>
	<rect id="XMLID_9_" x="8.9" y="9.5" width="2.3" height="2.3"/>
	<polygon id="XMLID_27_" points="11.1,9.5 8.9,9.5 8.9,11.7 8.9,11.7 11.1,11.7 	"/>
	<polygon id="XMLID_8_" class="st0" points="4.4,16.2 4.4,9.5 6.7,9.5 6.7,7.2 13.4,7.2 13.4,11.7 11.1,11.7 11.1,9.5 8.9,9.5 
		8.9,14 11.1,14 11.1,16.2 	"/>
	<polygon id="XMLID_28_" class="st0" points="6.7,7.2 6.7,9.5 4.4,9.5 4.4,11.7 4.4,14 4.4,14 4.4,16.2 6.7,16.2 8.9,16.2 
		11.1,16.2 11.1,14 8.9,14 8.9,11.7 8.9,11.7 8.9,9.5 11.1,9.5 11.1,11.7 11.2,11.7 13.4,11.7 13.4,9.4 13.4,7.2 11.2,7.2 11.1,7.2 
		8.9,7.2 	"/>
	<rect id="XMLID_7_" x="2.2" y="20.7" class="st5" width="2.3" height="2.3"/>
	<rect id="XMLID_29_" x="2.2" y="20.7" class="st6" width="2.3" height="2.3"/>
	<polygon id="XMLID_6_" class="st8" points="2.2,14 2.2,11.7 0,11.7 0,9.5 2.2,9.5 2.2,7.2 4.4,7.2 4.4,5 11.1,5 11.1,7.2 6.7,7.2 
		6.7,9.5 4.4,9.5 4.4,14 	"/>
	<polygon id="XMLID_30_" class="st9" points="4.4,14 4.4,11.7 4.4,9.5 6.7,9.5 6.7,7.2 8.9,7.2 11.1,7.2 11.1,5 8.9,5 6.7,5 4.4,5 
		4.4,7.2 2.2,7.2 2.2,9.5 0,9.5 0,11.7 2.2,11.7 2.2,14 	"/>
	<rect id="XMLID_5_" x="0" y="23" class="st5" width="2.3" height="4.5"/>
	<polygon id="XMLID_31_" class="st6" points="2.2,25.1 2.2,23 0,23 0,25.1 0,27.4 2.2,27.4 	"/>
	<rect id="XMLID_3_" x="0" y="16.2" class="st5" width="2.3" height="2.3"/>
	<rect id="XMLID_32_" x="0" y="16.2" class="st6" width="2.3" height="2.3"/>
</g>
</svg>
