<?xml version="1.0" encoding="utf-8"?>
<!-- Generator: Adobe Illustrator 19.0.0, SVG Export Plug-In . SVG Version: 6.00 Build 0)  -->
<svg version="1.1" id="Layer_1" xmlns="http://www.w3.org/2000/svg" xmlns:xlink="http://www.w3.org/1999/xlink" x="0px" y="0px"
	 width="320px" height="512.5px" viewBox="0 0 320 512.5" style="enable-background:new 0 0 320 512.5;" xml:space="preserve">
<style type="text/css">
	.st0{fill:#CFB194;}
	.st1{fill:#4D4D4D;}
	.st2{fill:#FFDA00;}
	.st3{fill:#CD8363;}
	.st4{fill:#C96B4D;}
	.st5{fill:#FCE4D2;}
</style>
<g id="XMLID_1_">
	<rect id="XMLID_34_" x="191.5" y="161" class="st0" width="128" height="32"/>
	<polygon id="XMLID_4_" class="st0" points="288,161 256,161 224,161 191.5,161 191.5,193 223.5,193 224,193 255.5,193 256,193 
		288,193 319.5,193 319.5,161 	"/>
	<rect id="XMLID_33_" x="255.5" y="257" class="st1" width="64" height="32"/>
	<polygon id="XMLID_19_" class="st1" points="255.5,257 255.5,289 288,289 319.5,289 319.5,257 288,257 	"/>
	<rect id="XMLID_18_" x="255.5" y="225" class="st2" width="64" height="32"/>
	<polygon id="XMLID_20_" class="st2" points="255.5,225 255.5,257 288,257 319.5,257 319.5,225 288,225 	"/>
	<rect id="XMLID_17_" x="255.5" y="193" class="st1" width="64" height="32"/>
	<polygon id="XMLID_21_" class="st1" points="256,193 255.5,193 255.5,225 288,225 319.5,225 319.5,193 288,193 	"/>
	<rect id="XMLID_16_" x="223.5" y="193" class="st3" width="32" height="32"/>
	<polygon id="XMLID_22_" class="st3" points="224,193 223.5,193 223.5,224.5 223.5,225 255.5,225 255.5,193 	"/>
	<path id="XMLID_13_" class="st4" d="M31.5,513v-32h-32V321h32v-64h-32v-64h32v-64h32v32h128v32h32v64h-32v-32h-32v64h-32v224H31.5z
		 M63.5,257v-32h-32v32H63.5z"/>
	<polygon id="XMLID_23_" class="st4" points="223.5,193 191.5,193 191.5,161 160,161 159.5,161 128,161 96,161 63.5,161 63.5,129 
		31.5,129 31.5,160.5 31.5,161 31.5,193 -0.5,193 -0.5,224.5 -0.5,257 31.5,257 31.5,225 63.5,225 63.5,257 31.5,257 31.5,288.5 
		31.5,321 -0.5,321 -0.5,352.5 -0.5,384.5 -0.5,416.5 -0.5,448.5 -0.5,481 31.5,481 31.5,513 64,513 96,513 127.5,513 127.5,481 
		127.5,480.5 127.5,448.5 127.5,416.5 127.5,384.5 127.5,352.5 127.5,320.5 127.5,289 159.5,289 159.5,256.5 159.5,225 191.5,225 
		191.5,256.5 191.5,257 223.5,257 223.5,225 223.5,224.5 	"/>
	<rect id="XMLID_12_" x="159.5" y="321" class="st4" width="32" height="128"/>
	<polygon id="XMLID_24_" class="st4" points="159.5,352.5 159.5,384.5 159.5,416.5 159.5,448.5 159.5,449 191.5,449 191.5,416.5 
		191.5,384.5 191.5,352.5 191.5,321 159.5,321 	"/>
	<polygon id="XMLID_11_" class="st3" points="127.5,481 127.5,289 159.5,289 159.5,225 191.5,225 191.5,321 159.5,321 159.5,481 	
		"/>
	<polygon id="XMLID_25_" class="st3" points="191.5,225 159.5,225 159.5,256.5 159.5,289 127.5,289 127.5,320.5 127.5,352.5 
		127.5,384.5 127.5,416.5 127.5,448.5 127.5,480.5 127.5,481 159.5,481 159.5,449 159.5,448.5 159.5,416.5 159.5,384.5 159.5,352.5 
		159.5,321 191.5,321 191.5,288.5 191.5,257 191.5,256.5 	"/>
	<polygon id="XMLID_10_" class="st5" points="159.5,161 159.5,129 127.5,129 127.5,97 191.5,97 191.5,161 	"/>
	<polygon id="XMLID_26_" class="st5" points="159.5,97 127.5,97 127.5,129 159.5,129 159.5,161 160,161 191.5,161 191.5,128.5 
		191.5,97 160,97 	"/>
	<rect id="XMLID_9_" x="127.5" y="65" width="32" height="32"/>
	<polygon id="XMLID_27_" points="159.5,65 127.5,65 127.5,96.5 127.5,97 159.5,97 	"/>
	<polygon id="XMLID_8_" class="st0" points="63.5,161 63.5,65 95.5,65 95.5,33 191.5,33 191.5,97 159.5,97 159.5,65 127.5,65 
		127.5,129 159.5,129 159.5,161 	"/>
	<polygon id="XMLID_28_" class="st0" points="95.5,33 95.5,65 63.5,65 63.5,96.5 63.5,128.5 63.5,129 63.5,161 96,161 128,161 
		159.5,161 159.5,129 127.5,129 127.5,97 127.5,96.5 127.5,65 159.5,65 159.5,97 160,97 191.5,97 191.5,64.5 191.5,33 160,33 
		159.5,33 128,33 	"/>
	<rect id="XMLID_7_" x="31.5" y="225" class="st3" width="32" height="32"/>
	<rect id="XMLID_29_" x="31.5" y="225" class="st3" width="32" height="32"/>
	<polygon id="XMLID_6_" class="st5" points="31.5,129 31.5,97 -0.5,97 -0.5,65 31.5,65 31.5,33 63.5,33 63.5,1 159.5,1 159.5,33 
		95.5,33 95.5,65 63.5,65 63.5,129 	"/>
	<polygon id="XMLID_30_" class="st5" points="63.5,128.5 63.5,96.5 63.5,65 95.5,65 95.5,33 128,33 159.5,33 159.5,1 128,1 96,1 
		63.5,1 63.5,33 31.5,33 31.5,65 -0.5,65 -0.5,97 31.5,97 31.5,129 63.5,129 	"/>
	<rect id="XMLID_5_" x="-0.5" y="257" class="st3" width="32" height="64"/>
	<polygon id="XMLID_31_" class="st3" points="31.5,288.5 31.5,257 -0.5,257 -0.5,288.5 -0.5,321 31.5,321 	"/>
	<rect id="XMLID_3_" x="-0.5" y="161" class="st3" width="32" height="32"/>
	<rect id="XMLID_32_" x="-0.5" y="161" class="st3" width="32" height="32"/>
</g>
</svg>
