<?xml version="1.0" encoding="utf-8"?>
<!-- Generator: Adobe Illustrator 19.0.0, SVG Export Plug-In . SVG Version: 6.00 Build 0)  -->
<svg version="1.1" id="Layer_1" xmlns="http://www.w3.org/2000/svg" xmlns:xlink="http://www.w3.org/1999/xlink" x="0px" y="0px"
	 width="26.7px" height="42.7px" viewBox="-398.8 263.5 26.7 42.7" style="enable-background:new -398.8 263.5 26.7 42.7;"
	 xml:space="preserve">
<style type="text/css">
	.st0{fill:#CFB194;}
	.st1{fill:#4D4D4D;}
	.st2{fill:#FFDA00;}
	.st3{fill:#CD8363;}
	.st4{fill:#C96B4D;}
	.st5{fill:#FCE4D2;}
</style>
<g id="XMLID_1_">
	<rect id="XMLID_34_" x="-382.8" y="276.9" class="st0" width="10.7" height="2.7"/>
	<polygon id="XMLID_4_" class="st0" points="-374.8,276.9 -377.4,276.9 -380.1,276.9 -382.8,276.9 -382.8,279.5 -380.1,279.5 
		-380.1,279.5 -377.5,279.5 -377.4,279.5 -374.8,279.5 -372.1,279.5 -372.1,276.9 	"/>
	<rect id="XMLID_33_" x="-377.5" y="284.9" class="st1" width="5.3" height="2.7"/>
	<polygon id="XMLID_19_" class="st1" points="-377.5,284.9 -377.5,287.5 -374.8,287.5 -372.1,287.5 -372.1,284.9 -374.8,284.9 	"/>
	<rect id="XMLID_18_" x="-377.5" y="282.2" class="st2" width="5.3" height="2.7"/>
	<polygon id="XMLID_20_" class="st2" points="-377.5,282.2 -377.5,284.9 -374.8,284.9 -372.1,284.9 -372.1,282.2 -374.8,282.2 	"/>
	<rect id="XMLID_17_" x="-377.5" y="279.5" class="st1" width="5.3" height="2.7"/>
	<polygon id="XMLID_21_" class="st1" points="-377.4,279.5 -377.5,279.5 -377.5,282.2 -374.8,282.2 -372.1,282.2 -372.1,279.5 
		-374.8,279.5 	"/>
	<rect id="XMLID_16_" x="-380.1" y="279.5" class="st3" width="2.7" height="2.7"/>
	<polygon id="XMLID_22_" class="st3" points="-380.1,279.5 -380.1,279.5 -380.1,282.2 -380.1,282.2 -377.5,282.2 -377.5,279.5 	"/>
	<path id="XMLID_13_" class="st4" d="M-396.1,306.2v-2.7h-2.7v-13.3h2.7v-5.3h-2.7v-5.3h2.7v-5.3h2.7v2.7h10.7v2.7h2.7v5.3h-2.7
		v-2.7h-2.7v5.3h-2.7v18.7H-396.1z M-393.5,284.9v-2.7h-2.7v2.7H-393.5z"/>
	<polygon id="XMLID_23_" class="st4" points="-380.1,279.5 -382.8,279.5 -382.8,276.9 -385.4,276.9 -385.5,276.9 -388.1,276.9 
		-390.8,276.9 -393.5,276.9 -393.5,274.2 -396.1,274.2 -396.1,276.8 -396.1,276.9 -396.1,279.5 -398.8,279.5 -398.8,282.2 
		-398.8,284.9 -396.1,284.9 -396.1,282.2 -393.5,282.2 -393.5,284.9 -396.1,284.9 -396.1,287.5 -396.1,290.2 -398.8,290.2 
		-398.8,292.8 -398.8,295.5 -398.8,298.2 -398.8,300.8 -398.8,303.5 -396.1,303.5 -396.1,306.2 -393.4,306.2 -390.8,306.2 
		-388.1,306.2 -388.1,303.5 -388.1,303.5 -388.1,300.8 -388.1,298.2 -388.1,295.5 -388.1,292.8 -388.1,290.2 -388.1,287.5 
		-385.5,287.5 -385.5,284.8 -385.5,282.2 -382.8,282.2 -382.8,284.8 -382.8,284.9 -380.1,284.9 -380.1,282.2 -380.1,282.2 	"/>
	<rect id="XMLID_12_" x="-385.5" y="290.2" class="st4" width="2.7" height="10.7"/>
	<polygon id="XMLID_24_" class="st4" points="-385.5,292.8 -385.5,295.5 -385.5,298.2 -385.5,300.8 -385.5,300.9 -382.8,300.9 
		-382.8,298.2 -382.8,295.5 -382.8,292.8 -382.8,290.2 -385.5,290.2 	"/>
	<polygon id="XMLID_11_" class="st3" points="-388.1,303.5 -388.1,287.5 -385.5,287.5 -385.5,282.2 -382.8,282.2 -382.8,290.2 
		-385.5,290.2 -385.5,303.5 	"/>
	<polygon id="XMLID_25_" class="st3" points="-382.8,282.2 -385.5,282.2 -385.5,284.8 -385.5,287.5 -388.1,287.5 -388.1,290.2 
		-388.1,292.8 -388.1,295.5 -388.1,298.2 -388.1,300.8 -388.1,303.5 -388.1,303.5 -385.5,303.5 -385.5,300.9 -385.5,300.8 
		-385.5,298.2 -385.5,295.5 -385.5,292.8 -385.5,290.2 -382.8,290.2 -382.8,287.5 -382.8,284.9 -382.8,284.8 	"/>
	<polygon id="XMLID_10_" class="st5" points="-385.5,276.9 -385.5,274.2 -388.1,274.2 -388.1,271.5 -382.8,271.5 -382.8,276.9 	"/>
	<polygon id="XMLID_26_" class="st5" points="-385.5,271.5 -388.1,271.5 -388.1,274.2 -385.5,274.2 -385.5,276.9 -385.4,276.9 
		-382.8,276.9 -382.8,274.2 -382.8,271.5 -385.4,271.5 	"/>
	<rect id="XMLID_9_" x="-388.1" y="268.9" width="2.7" height="2.7"/>
	<polygon id="XMLID_27_" points="-385.5,268.9 -388.1,268.9 -388.1,271.5 -388.1,271.5 -385.5,271.5 	"/>
	<polygon id="XMLID_8_" class="st0" points="-393.5,276.9 -393.5,268.9 -390.8,268.9 -390.8,266.2 -382.8,266.2 -382.8,271.5 
		-385.5,271.5 -385.5,268.9 -388.1,268.9 -388.1,274.2 -385.5,274.2 -385.5,276.9 	"/>
	<polygon id="XMLID_28_" class="st0" points="-390.8,266.2 -390.8,268.9 -393.5,268.9 -393.5,271.5 -393.5,274.2 -393.5,274.2 
		-393.5,276.9 -390.8,276.9 -388.1,276.9 -385.5,276.9 -385.5,274.2 -388.1,274.2 -388.1,271.5 -388.1,271.5 -388.1,268.9 
		-385.5,268.9 -385.5,271.5 -385.4,271.5 -382.8,271.5 -382.8,268.8 -382.8,266.2 -385.4,266.2 -385.5,266.2 -388.1,266.2 	"/>
	<rect id="XMLID_7_" x="-396.1" y="282.2" class="st3" width="2.7" height="2.7"/>
	<rect id="XMLID_29_" x="-396.1" y="282.2" class="st3" width="2.7" height="2.7"/>
	<polygon id="XMLID_6_" class="st5" points="-396.1,274.2 -396.1,271.5 -398.8,271.5 -398.8,268.9 -396.1,268.9 -396.1,266.2 
		-393.5,266.2 -393.5,263.5 -385.5,263.5 -385.5,266.2 -390.8,266.2 -390.8,268.9 -393.5,268.9 -393.5,274.2 	"/>
	<polygon id="XMLID_30_" class="st5" points="-393.5,274.2 -393.5,271.5 -393.5,268.9 -390.8,268.9 -390.8,266.2 -388.1,266.2 
		-385.5,266.2 -385.5,263.5 -388.1,263.5 -390.8,263.5 -393.5,263.5 -393.5,266.2 -396.1,266.2 -396.1,268.9 -398.8,268.9 
		-398.8,271.5 -396.1,271.5 -396.1,274.2 -393.5,274.2 	"/>
	<rect id="XMLID_5_" x="-398.8" y="284.9" class="st3" width="2.7" height="5.3"/>
	<polygon id="XMLID_31_" class="st3" points="-396.1,287.5 -396.1,284.9 -398.8,284.9 -398.8,287.5 -398.8,290.2 -396.1,290.2 	"/>
	<rect id="XMLID_3_" x="-398.8" y="276.9" class="st3" width="2.7" height="2.7"/>
	<rect id="XMLID_32_" x="-398.8" y="276.9" class="st3" width="2.7" height="2.7"/>
</g>
</svg>
