<?xml version="1.0" encoding="utf-8"?>
<!-- Generator: Adobe Illustrator 19.0.0, SVG Export Plug-In . SVG Version: 6.00 Build 0)  -->
<svg version="1.1" id="Layer_1" xmlns="http://www.w3.org/2000/svg" xmlns:xlink="http://www.w3.org/1999/xlink" x="0px" y="0px"
	 width="22px" height="22px" viewBox="0 0 22 22" style="enable-background:new 0 0 22 22;" xml:space="preserve">
<style type="text/css">
	.st0{fill:#FFD400;}
	.st1{fill:#FCEE21;}
</style>
<g id="XMLID_23_">
	<g id="XMLID_33_">
		<rect id="XMLID_42_" x="6" y="19" class="st0" width="3" height="3"/>
		<rect id="XMLID_57_" x="15" y="6" class="st0" width="3" height="3"/>
		<rect id="XMLID_56_" x="15" y="3" class="st0" width="3" height="3"/>
		<rect id="XMLID_55_" x="15" class="st0" width="3" height="3"/>
		<rect id="XMLID_54_" x="12" y="19" class="st0" width="3" height="3"/>
		<rect id="XMLID_53_" x="12" y="9" class="st0" width="3" height="3"/>
		<rect id="XMLID_52_" x="12" y="6" class="st0" width="3" height="3"/>
		<rect id="XMLID_51_" x="12" y="3" class="st1" width="3" height="3"/>
		<rect id="XMLID_50_" x="12" class="st1" width="3" height="3"/>
		<rect id="XMLID_49_" x="9" y="19" class="st0" width="3" height="3"/>
		<rect id="XMLID_48_" x="9" y="15" class="st1" width="3" height="4"/>
		<rect id="XMLID_47_" x="9" y="12" class="st1" width="3" height="3"/>
		<rect id="XMLID_46_" x="9" y="9" class="st0" width="3" height="3"/>
		<rect id="XMLID_45_" x="9" y="6" class="st1" width="3" height="3"/>
		<rect id="XMLID_44_" x="9" y="3" class="st1" width="3" height="3"/>
		<rect id="XMLID_43_" x="9" class="st1" width="3" height="3"/>
		<rect id="XMLID_41_" x="6" y="9" class="st1" width="3" height="3"/>
		<rect id="XMLID_40_" x="6" y="6" class="st1" width="3" height="3"/>
		<rect id="XMLID_39_" x="6" y="3" class="st1" width="3" height="3"/>
		<rect id="XMLID_38_" x="6" class="st1" width="3" height="3"/>
		<rect id="XMLID_37_" x="3" y="6" class="st1" width="3" height="3"/>
		<rect id="XMLID_36_" x="3" y="3" class="st1" width="3" height="3"/>
		<rect id="XMLID_35_" x="3" class="st1" width="3" height="3"/>
	</g>
	<g id="XMLID_34_">
	</g>
</g>
</svg>
