<?xml version="1.0" encoding="utf-8"?>
<!-- Generator: Adobe Illustrator 19.0.0, SVG Export Plug-In . SVG Version: 6.00 Build 0)  -->
<svg version="1.1" id="Layer_1" xmlns="http://www.w3.org/2000/svg" xmlns:xlink="http://www.w3.org/1999/xlink" x="0px" y="0px"
	 width="110px" height="22px" viewBox="44 12 110 22" style="enable-background:new 44 12 110 22;" xml:space="preserve">
<style type="text/css">
	.st0{fill:#FF0000;}
	.st1{fill:#FFF200;}
	.st2{fill:#16E900;}
	.st3{fill:#B99200;}
	.st4{fill:#947500;}
	.st5{fill:#55BF00;}
	.st6{fill:none;}
	.st7{fill:#7F5E00;}
	.st8{fill:#CCBD00;}
	.st9{fill:#A57600;}
	.st10{fill:#684A00;}
</style>
<rect id="XMLID_6_" x="87.9" y="12" class="st0" width="22" height="22"/>
<rect id="XMLID_5_" x="109.9" y="12" class="st1" width="11" height="11"/>
<g>
	<rect x="64.6" y="12" class="st2" width="1.3" height="1.3"/>
	<polygon class="st3" points="62,26.3 62,22.4 64.7,22.4 64.7,23.6 65.9,23.6 65.9,26.3 	"/>
	<path class="st4" d="M63.3,34v-2.6h-2.5V34H44V22.4h2.5v-2.5H44v-1.3h1.3V16h2.6v2.6h3.8V16h12.9v2.6h1.3v5.2h-1.3v-1.3h-2.5v3.8
		H66V34H63.3L63.3,34z M47.9,32.6v-1.2h-1.4v-2.5h-1.2v3.8L47.9,32.6L47.9,32.6z M53,28.8V25h-5.1v2.5h2.5v1.3H53L53,28.8z
		 M59.5,22.4v-2.5h-1.3v-2.6h-3.8v2.5h2.5v2.5L59.5,22.4L59.5,22.4z"/>
	<polygon class="st5" points="64.7,18.5 64.7,16 51.8,16 51.8,18.5 47.9,18.5 47.9,16 45.3,16 45.3,14.6 44,14.6 44,12 46.6,12 
		46.6,13.3 49.2,13.3 49.2,12 51.8,12 51.8,13.3 53.1,13.3 53.1,12 57,12 57,13.3 59.6,13.3 59.6,14.6 60.9,14.6 60.9,13.3 
		62.1,13.3 62.1,12 64.7,12 64.7,13.3 66,13.3 66,18.5 	"/>
	<rect x="60.8" y="31.4" class="st3" width="2.6" height="2.6"/>
	<polygon class="st3" points="63.3,31.4 60.8,31.4 60.8,34 63.3,34 	"/>
	<polygon class="st2" points="59.5,14.6 59.5,13.3 56.9,13.3 56.9,12 62.1,12 62.1,13.3 60.8,13.3 60.8,14.6 	"/>
	<polygon class="st2" points="59.5,13.3 59.5,14.6 60.9,14.6 60.9,13.3 62.1,13.3 62.1,12.1 56.9,12.1 56.9,13.3 	"/>
	<polygon class="st3" points="56.9,22.4 56.9,19.8 54.4,19.8 54.4,17.2 58.2,17.2 58.2,19.8 59.6,19.8 59.6,22.4 	"/>
	<polygon class="st3" points="54.4,19.8 56.9,19.8 56.9,22.4 59.5,22.4 59.5,19.8 58.2,19.8 58.2,17.2 54.4,17.2 	"/>
	<rect x="51.7" y="12" class="st2" width="1.4" height="1.3"/>
	<rect x="51.7" y="12.1" class="st2" width="1.3" height="1.3"/>
	<polygon class="st3" points="50.4,28.9 50.4,27.6 47.9,27.6 47.9,25 53.1,25 53.1,28.9 	"/>
	<polygon class="st3" points="45.3,32.7 45.3,28.8 46.6,28.8 46.6,31.4 48,31.4 48,32.7 	"/>
	<polygon class="st3" points="46.6,31.4 46.6,28.8 45.3,28.8 45.3,32.7 47.9,32.7 47.9,31.4 	"/>
	<rect x="46.6" y="12" class="st2" width="2.6" height="1.3"/>
	<polygon class="st2" points="47.9,13.3 49.2,13.3 49.2,12.1 47.9,12.1 46.6,12.1 46.6,13.3 	"/>
	<rect x="44" y="19.8" class="st3" width="2.6" height="2.6"/>
	<polygon class="st3" points="46.6,22.4 46.6,19.8 44.2,19.8 44.1,19.8 44.1,22.4 44.2,22.4 	"/>
	<rect x="44" y="15.9" class="st5" width="1.3" height="2.6"/>
	<polygon class="st5" points="45.3,18.5 45.3,17.2 45.3,15.9 44.2,15.9 44.1,15.9 44.1,17.2 44.1,18.5 44.2,18.5 	"/>
	<rect x="44" y="14.6" class="st2" width="1.3" height="1.3"/>
	<polygon class="st2" points="45.3,15.9 45.3,14.6 44.2,14.6 44.1,14.6 44.1,15.9 44.2,15.9 	"/>
</g>
<g>
	<polygon class="st3" points="83.8,26.3 83.8,22.4 86.5,22.4 86.5,23.6 87.7,23.6 87.7,26.3 	"/>
	<path class="st4" d="M85.1,34v-2.6h-2.5V34H65.9V22.4h2.5v-2.5h-2.5V12h21.9v11.7h-1.3v-1.3H84v3.8h3.9V34H85.1L85.1,34z
		 M69.8,32.6v-1.2h-1.4v-2.5h-1.2v3.8L69.8,32.6L69.8,32.6z M74.9,28.8V25h-5.2v2.5h2.5v1.3H74.9L74.9,28.8z M81.3,22.4v-2.5H80
		v-2.6h-3.8v2.5h2.5v2.5L81.3,22.4L81.3,22.4z"/>
	<g id="XMLID_1_">
		<polygon class="st3" points="74.1,16 70.1,16 70.1,12.1 72.8,12.1 72.8,13.3 74.1,13.3 		"/>
	</g>
	<rect x="82.6" y="31.4" class="st3" width="2.6" height="2.6"/>
	<polygon class="st3" points="85.1,31.4 82.6,31.4 82.6,34 85.1,34 	"/>
	<polygon class="st3" points="78.7,22.4 78.7,19.8 76.3,19.8 76.3,17.2 80,17.2 80,19.8 81.4,19.8 81.4,22.4 	"/>
	<polygon class="st3" points="76.3,19.8 78.7,19.8 78.7,22.4 81.3,22.4 81.3,19.8 80,19.8 80,17.2 76.3,17.2 	"/>
	<polygon class="st3" points="72.3,28.9 72.3,27.6 69.8,27.6 69.8,25 75,25 75,28.9 	"/>
	<polygon class="st3" points="67.2,32.7 67.2,28.8 68.5,28.8 68.5,31.4 69.9,31.4 69.9,32.7 	"/>
	<polygon class="st3" points="68.5,31.4 68.5,28.8 67.2,28.8 67.2,32.7 69.8,32.7 69.8,31.4 	"/>
	<rect x="65.9" y="19.8" class="st3" width="2.6" height="2.6"/>
	<polygon class="st3" points="68.5,22.4 68.5,19.8 66.1,19.8 66,19.8 66,22.4 66.1,22.4 	"/>
</g>
<g>
	<rect x="125.8" y="21.8" class="st6" width="2.4" height="2.4"/>
	<path class="st1" d="M130.7,21.8v-2.5h-7.3v2.5H121v2.4h2.4v2.5h7.3v-2.5h4.9v2.5h2.4v-2.5h2.5v2.5h2.4v-4.9H130.7z M125.8,24.2
		v-2.4h2.4v2.4H125.8z"/>
</g>
<g>
	<path class="st7" d="M152.8,12h-1.1h-1.1h-1.1h-1.1h-1.1h-1.1h-1.1H144h-1.1v1.3v1.3v1.3v1.3v1.3v1.3v1.3v1.3v1.3V25v1.3v1.3v1.3
		v1.3v1.3v1.3V34h1.1h1.1h1.1h1.1h1.1h1.1h1.1h1.1h1.1h1.1v-1.3v-1.3v-1.3v-1.3v-1.3v-1.3v-1.3v-1.3v-1.3V21v-1.3v-1.3v-1.3v-1.3
		v-1.3v-1.3V12H152.8z"/>
	<rect x="151.7" y="23.7" class="st8" width="1.1" height="1.3"/>
	<polygon class="st9" points="149.5,23.7 149.5,24.9 149.5,26.2 149.5,27.5 149.5,28.8 149.5,30.1 149.5,31.4 150.6,31.4 
		151.7,31.4 151.7,30.1 150.6,30.1 150.6,28.8 150.6,27.5 150.6,26.2 150.6,24.9 150.6,23.7 150.6,22.3 149.5,22.3 	"/>
	<polygon class="st9" points="149.5,15.9 149.5,17.2 149.5,18.5 149.5,19.8 149.5,21.1 150.6,21.1 151.7,21.1 151.7,19.8 
		150.6,19.8 150.6,18.5 150.6,17.2 150.6,15.9 150.6,14.6 150.6,13.3 149.5,13.3 149.5,14.6 	"/>
	<polygon class="st9" points="147.3,31.4 147.3,30.1 146.2,30.1 146.2,28.8 146.2,27.5 146.2,26.2 146.2,24.9 146.2,23.7 
		146.2,22.3 145.1,22.3 145.1,23.7 145.1,24.9 145.1,26.2 145.1,27.5 145.1,28.8 145.1,30.1 145.1,31.4 146.2,31.4 	"/>
	<polygon class="st9" points="145.1,15.9 145.1,17.2 145.1,18.5 145.1,19.8 145.1,21.1 146.2,21.1 147.3,21.1 147.3,19.8 
		146.2,19.8 146.2,18.5 146.2,17.2 146.2,15.9 146.2,14.6 146.2,13.3 145.1,13.3 145.1,14.6 	"/>
</g>
<g>
	<g id="XMLID_2_">
		<g>
			<rect x="142.9" y="12" class="st10" width="1.1" height="1.3"/>
			<rect x="152.8" y="32.7" class="st10" width="1.1" height="1.3"/>
			<rect x="152.8" y="31.4" class="st10" width="1.1" height="1.3"/>
			<rect x="152.8" y="30.1" class="st10" width="1.1" height="1.3"/>
			<rect x="152.8" y="28.8" class="st10" width="1.1" height="1.3"/>
			<rect x="152.8" y="27.5" class="st10" width="1.1" height="1.3"/>
			<rect x="152.8" y="26.2" class="st10" width="1.1" height="1.3"/>
			<rect x="152.8" y="24.9" class="st10" width="1.1" height="1.3"/>
			<rect x="152.8" y="23.6" class="st10" width="1.1" height="1.3"/>
			<rect x="152.8" y="22.4" class="st10" width="1.1" height="1.3"/>
			<rect x="152.8" y="21.1" class="st10" width="1.1" height="1.3"/>
			<rect x="152.8" y="19.8" class="st10" width="1.1" height="1.3"/>
			<rect x="152.8" y="18.5" class="st10" width="1.1" height="1.3"/>
			<rect x="152.8" y="17.2" class="st10" width="1.1" height="1.3"/>
			<rect x="152.8" y="15.9" class="st10" width="1.1" height="1.3"/>
			<rect x="152.8" y="14.6" class="st10" width="1.1" height="1.3"/>
			<rect x="152.8" y="13.3" class="st10" width="1.1" height="1.3"/>
			<rect x="152.8" y="12" class="st10" width="1.1" height="1.3"/>
			<rect x="151.7" y="12" class="st10" width="1.1" height="1.3"/>
			<rect x="150.6" y="12" class="st10" width="1.1" height="1.3"/>
			<rect x="149.5" y="13.3" class="st7" width="1.1" height="1.3"/>
			<rect x="149.5" y="12" class="st10" width="1.1" height="1.3"/>
			<rect x="148.4" y="12" class="st10" width="1.1" height="1.3"/>
			<rect x="147.3" y="12" class="st10" width="1.1" height="1.3"/>
			<rect x="146.2" y="12" class="st10" width="1.1" height="1.3"/>
			<rect x="145.1" y="13.3" class="st7" width="1.1" height="1.3"/>
			<rect x="145.1" y="12" class="st10" width="1.1" height="1.3"/>
			<rect x="144" y="12" class="st10" width="1.1" height="1.3"/>
		</g>
	</g>
</g>
</svg>
