<?xml version="1.0" encoding="utf-8"?>
<!-- Generator: Adobe Illustrator 19.0.0, SVG Export Plug-In . SVG Version: 6.00 Build 0)  -->
<svg version="1.1" id="Layer_1" xmlns="http://www.w3.org/2000/svg" xmlns:xlink="http://www.w3.org/1999/xlink" x="0px" y="0px"
	 width="110px" height="22px" viewBox="22.5 12 110 22" style="enable-background:new 22.5 12 110 22;" xml:space="preserve">
<style type="text/css">
	.st0{fill:#FF0000;}
	.st1{fill:#FFF200;}
	.st2{fill:#16E900;}
	.st3{fill:#B99200;}
	.st4{fill:#947500;}
	.st5{fill:#55BF00;}
	.st6{fill:none;}
	.st7{fill:#7F5E00;}
	.st8{fill:#CCBD00;}
	.st9{fill:#A57600;}
	.st10{fill:#684A00;}
</style>
<rect id="XMLID_6_" x="66.5" y="12" class="st0" width="22" height="22"/>
<rect id="XMLID_5_" x="88.5" y="12" class="st1" width="11" height="11"/>
<g>
	<rect x="43.2" y="12" class="st2" width="1.3" height="1.3"/>
	<polygon class="st3" points="40.6,26.3 40.6,22.4 43.3,22.4 43.3,23.6 44.5,23.6 44.5,26.3 	"/>
	<path class="st4" d="M41.9,34v-2.6h-2.5V34H22.6V22.4h2.5v-2.5h-2.5v-1.3h1.3V16h2.6v2.6h3.8V16h12.9v2.6h1.3v5.2h-1.3v-1.3h-2.5
		v3.8h3.9V34H41.9L41.9,34z M26.5,32.6v-1.2h-1.4v-2.5h-1.2v3.8L26.5,32.6L26.5,32.6z M31.6,28.8V25h-5.1v2.5H29v1.3H31.6L31.6,28.8
		z M38.1,22.4v-2.5h-1.3v-2.6H33v2.5h2.5v2.5L38.1,22.4L38.1,22.4z"/>
	<polygon class="st5" points="43.3,18.5 43.3,16 30.4,16 30.4,18.5 26.5,18.5 26.5,16 23.9,16 23.9,14.6 22.6,14.6 22.6,12 25.2,12 
		25.2,13.3 27.8,13.3 27.8,12 30.4,12 30.4,13.3 31.7,13.3 31.7,12 35.6,12 35.6,13.3 38.2,13.3 38.2,14.6 39.5,14.6 39.5,13.3 
		40.7,13.3 40.7,12 43.3,12 43.3,13.3 44.6,13.3 44.6,18.5 	"/>
	<rect x="39.4" y="31.4" class="st3" width="2.6" height="2.6"/>
	<polygon class="st3" points="41.9,31.4 39.4,31.4 39.4,34 41.9,34 	"/>
	<polygon class="st2" points="38.1,14.6 38.1,13.3 35.5,13.3 35.5,12 40.7,12 40.7,13.3 39.4,13.3 39.4,14.6 	"/>
	<polygon class="st2" points="38.1,13.3 38.1,14.6 39.5,14.6 39.5,13.3 40.7,13.3 40.7,12.1 35.5,12.1 35.5,13.3 	"/>
	<polygon class="st3" points="35.5,22.4 35.5,19.8 33,19.8 33,17.2 36.8,17.2 36.8,19.8 38.2,19.8 38.2,22.4 	"/>
	<polygon class="st3" points="33,19.8 35.5,19.8 35.5,22.4 38.1,22.4 38.1,19.8 36.8,19.8 36.8,17.2 33,17.2 	"/>
	<rect x="30.3" y="12" class="st2" width="1.4" height="1.3"/>
	<rect x="30.3" y="12.1" class="st2" width="1.3" height="1.3"/>
	<polygon class="st3" points="29,28.9 29,27.6 26.5,27.6 26.5,25 31.7,25 31.7,28.9 	"/>
	<polygon class="st3" points="23.9,32.7 23.9,28.8 25.2,28.8 25.2,31.4 26.6,31.4 26.6,32.7 	"/>
	<polygon class="st3" points="25.2,31.4 25.2,28.8 23.9,28.8 23.9,32.7 26.5,32.7 26.5,31.4 	"/>
	<rect x="25.2" y="12" class="st2" width="2.6" height="1.3"/>
	<polygon class="st2" points="26.5,13.3 27.8,13.3 27.8,12.1 26.5,12.1 25.2,12.1 25.2,13.3 	"/>
	<rect x="22.6" y="19.8" class="st3" width="2.6" height="2.6"/>
	<polygon class="st3" points="25.2,22.4 25.2,19.8 22.8,19.8 22.7,19.8 22.7,22.4 22.8,22.4 	"/>
	<rect x="22.6" y="15.9" class="st5" width="1.3" height="2.6"/>
	<polygon class="st5" points="23.9,18.5 23.9,17.2 23.9,15.9 22.8,15.9 22.7,15.9 22.7,17.2 22.7,18.5 22.8,18.5 	"/>
	<rect x="22.6" y="14.6" class="st2" width="1.3" height="1.3"/>
	<polygon class="st2" points="23.9,15.9 23.9,14.6 22.8,14.6 22.7,14.6 22.7,15.9 22.8,15.9 	"/>
</g>
<g>
	<polygon class="st3" points="62.4,26.3 62.4,22.4 65.1,22.4 65.1,23.6 66.3,23.6 66.3,26.3 	"/>
	<path class="st4" d="M63.7,34v-2.6h-2.5V34H44.5V22.4H47v-2.5h-2.5V12h21.9v11.7h-1.3v-1.3h-2.5v3.8h3.9V34H63.7L63.7,34z
		 M48.4,32.6v-1.2H47v-2.5h-1.2v3.8L48.4,32.6L48.4,32.6z M53.5,28.8V25h-5.2v2.5h2.5v1.3H53.5L53.5,28.8z M59.9,22.4v-2.5h-1.3
		v-2.6h-3.8v2.5h2.5v2.5L59.9,22.4L59.9,22.4z"/>
	<g id="XMLID_1_">
		<polygon class="st3" points="52.7,16 48.7,16 48.7,12.1 51.4,12.1 51.4,13.3 52.7,13.3 		"/>
	</g>
	<rect x="61.2" y="31.4" class="st3" width="2.6" height="2.6"/>
	<polygon class="st3" points="63.7,31.4 61.2,31.4 61.2,34 63.7,34 	"/>
	<polygon class="st3" points="57.3,22.4 57.3,19.8 54.9,19.8 54.9,17.2 58.6,17.2 58.6,19.8 60,19.8 60,22.4 	"/>
	<polygon class="st3" points="54.9,19.8 57.3,19.8 57.3,22.4 59.9,22.4 59.9,19.8 58.6,19.8 58.6,17.2 54.9,17.2 	"/>
	<polygon class="st3" points="50.9,28.9 50.9,27.6 48.4,27.6 48.4,25 53.6,25 53.6,28.9 	"/>
	<polygon class="st3" points="45.8,32.7 45.8,28.8 47.1,28.8 47.1,31.4 48.5,31.4 48.5,32.7 	"/>
	<polygon class="st3" points="47.1,31.4 47.1,28.8 45.8,28.8 45.8,32.7 48.4,32.7 48.4,31.4 	"/>
	<rect x="44.5" y="19.8" class="st3" width="2.6" height="2.6"/>
	<polygon class="st3" points="47.1,22.4 47.1,19.8 44.7,19.8 44.6,19.8 44.6,22.4 44.7,22.4 	"/>
</g>
<g>
	<rect x="104.4" y="21.8" class="st6" width="2.4" height="2.4"/>
	<path class="st1" d="M109.3,21.8v-2.5h-7.3v2.5h-2.4v2.4h2.4v2.5h7.3v-2.5h4.9v2.5h2.4v-2.5h2.5v2.5h2.4v-4.9H109.3z M104.4,24.2
		v-2.4h2.4v2.4H104.4z"/>
</g>
<g>
	<path class="st7" d="M131.4,12h-1.1h-1.1h-1.1H127h-1.1h-1.1h-1.1h-1.1h-1.1v1.3v1.3v1.3v1.3v1.3v1.3v1.3v1.3v1.3v1.3v1.3v1.3v1.3
		v1.3v1.3v1.3V34h1.1h1.1h1.1h1.1h1.1h1.1h1.1h1.1h1.1h1.1v-1.3v-1.3v-1.3v-1.3v-1.3v-1.3v-1.3v-1.3v-1.3v-1.3v-1.3v-1.3v-1.3v-1.3
		v-1.3v-1.3V12H131.4z"/>
	<rect x="130.3" y="23.7" class="st8" width="1.1" height="1.3"/>
	<polygon class="st9" points="128.1,23.7 128.1,24.9 128.1,26.2 128.1,27.5 128.1,28.8 128.1,30.1 128.1,31.4 129.2,31.4 
		130.3,31.4 130.3,30.1 129.2,30.1 129.2,28.8 129.2,27.5 129.2,26.2 129.2,24.9 129.2,23.7 129.2,22.3 128.1,22.3 	"/>
	<polygon class="st9" points="128.1,15.9 128.1,17.2 128.1,18.5 128.1,19.8 128.1,21.1 129.2,21.1 130.3,21.1 130.3,19.8 
		129.2,19.8 129.2,18.5 129.2,17.2 129.2,15.9 129.2,14.6 129.2,13.3 128.1,13.3 128.1,14.6 	"/>
	<polygon class="st9" points="125.9,31.4 125.9,30.1 124.8,30.1 124.8,28.8 124.8,27.5 124.8,26.2 124.8,24.9 124.8,23.7 
		124.8,22.3 123.7,22.3 123.7,23.7 123.7,24.9 123.7,26.2 123.7,27.5 123.7,28.8 123.7,30.1 123.7,31.4 124.8,31.4 	"/>
	<polygon class="st9" points="123.7,15.9 123.7,17.2 123.7,18.5 123.7,19.8 123.7,21.1 124.8,21.1 125.9,21.1 125.9,19.8 
		124.8,19.8 124.8,18.5 124.8,17.2 124.8,15.9 124.8,14.6 124.8,13.3 123.7,13.3 123.7,14.6 	"/>
</g>
<g>
	<g id="XMLID_2_">
		<g>
			<rect x="121.5" y="12" class="st10" width="1.1" height="1.3"/>
			<rect x="131.4" y="32.7" class="st10" width="1.1" height="1.3"/>
			<rect x="131.4" y="31.4" class="st10" width="1.1" height="1.3"/>
			<rect x="131.4" y="30.1" class="st10" width="1.1" height="1.3"/>
			<rect x="131.4" y="28.8" class="st10" width="1.1" height="1.3"/>
			<rect x="131.4" y="27.5" class="st10" width="1.1" height="1.3"/>
			<rect x="131.4" y="26.2" class="st10" width="1.1" height="1.3"/>
			<rect x="131.4" y="24.9" class="st10" width="1.1" height="1.3"/>
			<rect x="131.4" y="23.6" class="st10" width="1.1" height="1.3"/>
			<rect x="131.4" y="22.4" class="st10" width="1.1" height="1.3"/>
			<rect x="131.4" y="21.1" class="st10" width="1.1" height="1.3"/>
			<rect x="131.4" y="19.8" class="st10" width="1.1" height="1.3"/>
			<rect x="131.4" y="18.5" class="st10" width="1.1" height="1.3"/>
			<rect x="131.4" y="17.2" class="st10" width="1.1" height="1.3"/>
			<rect x="131.4" y="15.9" class="st10" width="1.1" height="1.3"/>
			<rect x="131.4" y="14.6" class="st10" width="1.1" height="1.3"/>
			<rect x="131.4" y="13.3" class="st10" width="1.1" height="1.3"/>
			<rect x="131.4" y="12" class="st10" width="1.1" height="1.3"/>
			<rect x="130.3" y="12" class="st10" width="1.1" height="1.3"/>
			<rect x="129.2" y="12" class="st10" width="1.1" height="1.3"/>
			<rect x="128.1" y="13.3" class="st7" width="1.1" height="1.3"/>
			<rect x="128.1" y="12" class="st10" width="1.1" height="1.3"/>
			<rect x="127" y="12" class="st10" width="1.1" height="1.3"/>
			<rect x="125.9" y="12" class="st10" width="1.1" height="1.3"/>
			<rect x="124.8" y="12" class="st10" width="1.1" height="1.3"/>
			<rect x="123.7" y="13.3" class="st7" width="1.1" height="1.3"/>
			<rect x="123.7" y="12" class="st10" width="1.1" height="1.3"/>
			<rect x="122.6" y="12" class="st10" width="1.1" height="1.3"/>
		</g>
		<g>
		</g>
	</g>
</g>
</svg>
