<?xml version="1.0" encoding="utf-8"?>
<!-- Generator: Adobe Illustrator 19.0.0, SVG Export Plug-In . SVG Version: 6.00 Build 0)  -->
<svg version="1.1" id="Layer_1" xmlns="http://www.w3.org/2000/svg" xmlns:xlink="http://www.w3.org/1999/xlink" x="0px" y="0px"
	 width="198px" height="22px" viewBox="-175 175 198 22" style="enable-background:new -175 175 198 22;" xml:space="preserve">
<style type="text/css">
	.st0{fill:#FFFFFF;}
	.st1{fill:none;}
	.st2{fill:#FFF200;}
	.st3{fill:#7F5E00;}
	.st4{fill:#CCBD00;}
	.st5{fill:#A57600;}
	.st6{fill:#684A00;}
	.st7{fill:#16E900;}
	.st8{fill:#B99200;}
	.st9{fill:#CCC217;}
	.st10{fill:#55BF00;}
	.st11{fill:#FF0000;}
	.st12{fill:#FF5E48;}
	.st13{fill:#474747;}
	.st14{fill:#878787;}
	.st15{fill:#B3DBE0;}
	.st16{fill:#FCEE21;}
	.st17{fill:#FFD400;}
</style>
<path class="st0" d="M-41.9,177.5l1.5-1.5l8.1,0.4l1.5-0.6l6.1,0.4l2.8,2.8v5l-0.6,1.1c0,0-0.1,1.7,0.3,2.1c0.3,0.4,0.3,0.4,0.3,0.4
	l-0.2,6.8l-1.6,1.8l-6.5-0.4l-1.7,0l-1.2,0.9l-6.3-1l-2.4-2.6v-5.9l0.4-0.8l-0.3-2.1V177.5z"/>
<g>
	<rect x="-93.3" y="184.8" class="st1" width="2.4" height="2.4"/>
	<path class="st2" d="M-88.4,184.8v-2.5h-7.3v2.5h-2.4v2.4h2.4v2.5h7.3v-2.5h4.9v2.5h2.4v-2.5h2.5v2.5h2.4v-4.9H-88.4z M-93.3,187.2
		v-2.4h2.4v2.4H-93.3z"/>
</g>
<g>
	<path class="st3" d="M-76,175v22h11v-22H-76z"/>
	<rect x="-67.2" y="186.7" class="st4" width="1.1" height="1.3"/>
	<polygon class="st5" points="-69.4,194.4 -67.2,194.4 -67.2,193.1 -68.3,193.1 -68.3,185.3 -69.4,185.3 	"/>
	<polygon class="st5" points="-69.4,184.1 -67.2,184.1 -67.2,182.8 -68.3,182.8 -68.3,176.3 -69.4,176.3 	"/>
	<polygon class="st5" points="-71.6,194.4 -71.6,193.1 -72.7,193.1 -72.7,185.3 -73.8,185.3 -73.8,194.4 	"/>
	<polygon class="st5" points="-73.8,184.1 -71.6,184.1 -71.6,182.8 -72.7,182.8 -72.7,176.3 -73.8,176.3 	"/>
</g>
<g>
	<g id="XMLID_9_">
		<g>
			<rect x="-69.4" y="176.3" class="st3" width="1.1" height="1.3"/>
			<rect x="-73.8" y="176.3" class="st3" width="1.1" height="1.3"/>
			<polygon class="st6" points="-76,175 -76,176.3 -66.1,176.3 -66.1,197 -65,197 -65,175 			"/>
		</g>
	</g>
</g>
<g>
	<polygon class="st7" points="-154.3,176.2 -154.3,175 -153.1,175 -153,176.2 	"/>
	<rect x="-154.3" y="175" class="st7" width="1.2" height="1.2"/>
	<polygon class="st8" points="-153,197.1 -153.1,197.1 -153.1,192.2 -156.7,192.2 -156.7,193.4 -159.2,193.4 -159.2,192.2 
		-160.4,192.2 -160.4,193.4 -162.8,193.4 -162.8,194.6 -169,194.6 -169,193.4 -170.1,193.4 -170.1,194.6 -172.6,194.6 -172.6,195.9 
		-175,195.9 -175,197.1 -175,197.1 -175,195.8 -172.6,195.8 -172.6,194.6 -170.2,194.6 -170.2,193.4 -168.9,193.4 -168.9,194.6 
		-162.9,194.6 -162.9,193.4 -160.4,193.4 -160.4,192.1 -159.1,192.1 -159.1,193.4 -156.8,193.4 -156.8,192.1 -153,192.1 	"/>
	<polyline class="st8" points="-153.1,197 -153.1,192.2 -156.7,192.2 -156.7,193.4 -159.2,193.4 -159.2,192.2 -160.4,192.2 
		-160.4,193.4 -162.8,193.4 -162.8,194.6 -168.9,194.6 -168.9,193.4 -170.1,193.4 -170.1,194.6 -172.6,194.6 -172.6,195.8 
		-175,195.8 -175,197 	"/>
	<polygon class="st9" points="-175,195.9 -175,193.4 -172.6,193.4 -172.6,192.2 -170.1,192.1 -170.2,190.9 -168.9,190.9 
		-168.9,192.2 -162.8,192.1 -162.9,190.9 -160.4,190.9 -160.4,189.7 -159.2,189.7 -159.1,190.9 -156.7,190.9 -156.8,189.7 
		-153.1,189.7 -153,192.2 -156.7,192.2 -156.7,193.4 -159.2,193.4 -159.2,192.2 -160.4,192.2 -160.4,193.4 -162.8,193.4 
		-162.8,194.6 -168.9,194.6 -169,193.4 -170.1,193.4 -170.1,194.6 -172.6,194.6 -172.6,195.9 	"/>
	<polygon class="st9" points="-156.7,189.7 -156.7,190.9 -159.2,190.9 -159.2,189.7 -160.4,189.7 -160.4,190.9 -162.8,190.9 
		-162.8,192.2 -168.9,192.2 -168.9,190.9 -170.1,190.9 -170.1,192.2 -172.6,192.2 -172.6,193.4 -175,193.4 -175,195.8 -172.6,195.8 
		-172.6,194.6 -170.1,194.6 -170.1,193.4 -168.9,193.4 -168.9,194.6 -162.8,194.6 -162.8,193.4 -160.4,193.4 -160.4,192.2 
		-159.2,192.2 -159.2,193.4 -156.7,193.4 -156.7,192.2 -153.1,192.2 -153.1,189.7 	"/>
	<polygon class="st8" points="-175,193.4 -175,189.7 -173.8,189.7 -173.8,188.5 -166.5,188.5 -166.5,187.2 -165.3,187.2 -165.3,186 
		-164,185.9 -164,187.2 -156.7,187.2 -156.8,186 -153.1,185.9 -153,189.7 -156.7,189.8 -156.7,190.9 -159.2,191 -159.2,189.7 
		-160.4,189.8 -160.4,190.9 -162.8,191 -162.8,192.2 -168.9,192.2 -169,190.9 -170.1,191 -170.1,192.2 -172.6,192.2 -172.6,193.4 	
		"/>
	<polygon class="st8" points="-156.7,186 -156.7,187.2 -164,187.2 -164,186 -165.3,186 -165.3,187.2 -166.5,187.2 -166.5,188.5 
		-173.8,188.5 -173.8,189.7 -175,189.7 -175,193.4 -172.6,193.4 -172.6,192.2 -170.1,192.2 -170.1,190.9 -168.9,190.9 -168.9,192.2 
		-162.8,192.2 -162.8,190.9 -160.4,190.9 -160.4,189.7 -159.2,189.7 -159.2,190.9 -156.7,190.9 -156.7,189.7 -153.1,189.7 
		-153.1,186 	"/>
	<polygon class="st9" points="-175,189.8 -175,187.2 -173.8,187.2 -173.8,186 -166.5,185.9 -166.5,184.7 -165.3,184.7 -165.3,183.5 
		-164,183.5 -164,184.7 -156.7,184.7 -156.8,183.5 -153.1,183.5 -153,186 -156.7,186 -156.7,187.2 -164,187.2 -164.1,186 
		-165.3,186 -165.2,187.2 -166.5,187.2 -166.5,188.5 -173.8,188.5 -173.8,189.8 	"/>
	<polygon class="st9" points="-156.7,183.5 -156.7,184.7 -164,184.7 -164,183.5 -165.3,183.5 -165.3,184.7 -166.5,184.7 -166.5,186 
		-173.8,186 -173.8,187.2 -175,187.2 -175,189.7 -173.8,189.7 -173.8,188.5 -166.5,188.5 -166.5,187.2 -165.3,187.2 -165.3,186 
		-164,186 -164,187.2 -156.7,187.2 -156.7,186 -153.1,186 -153.1,183.5 	"/>
	<polygon class="st8" points="-175,187.2 -175,182.3 -173.8,182.3 -173.8,179.9 -171.4,179.8 -171.3,182.3 -167.7,182.3 
		-167.7,179.9 -154.3,179.8 -154.3,182.3 -153.1,182.3 -153,183.5 -156.7,183.6 -156.7,184.7 -164,184.8 -164.1,183.5 -165.3,183.6 
		-165.2,184.7 -166.5,184.8 -166.5,186 -173.8,186 -173.8,187.2 	"/>
	<polygon class="st8" points="-154.3,179.9 -167.7,179.9 -167.7,182.3 -171.4,182.3 -171.4,179.9 -173.8,179.9 -173.8,182.3 
		-175,182.3 -175,187.2 -173.8,187.2 -173.8,186 -166.5,186 -166.5,184.7 -165.3,184.7 -165.3,183.5 -164,183.5 -164,184.7 
		-156.7,184.7 -156.7,183.5 -153.1,183.5 -153.1,182.3 -154.3,182.3 	"/>
	<polygon class="st10" points="-154.3,182.3 -154.3,179.9 -167.7,179.9 -167.7,182.3 -171.4,182.3 -171.4,179.9 -173.8,179.9 
		-173.8,178.6 -175,178.7 -175,175 -172.6,175 -172.6,176.2 -170.1,176.2 -170.2,175 -167.7,175 -167.7,176.2 -166.5,176.2 
		-166.5,175 -162.8,175 -162.8,176.2 -159.2,176.2 -159.1,177.4 -158,177.4 -158,176.2 -156.7,176.2 -156.8,175 -154.3,175 
		-154.3,176.2 -153.1,176.2 -153,182.3 	"/>
	<polygon class="st10" points="-154.3,175 -156.7,175 -156.7,176.2 -158,176.2 -158,177.4 -159.2,177.4 -159.2,176.2 -162.8,176.2 
		-162.8,175 -166.5,175 -166.5,176.2 -167.7,176.2 -167.7,175 -170.1,175 -170.1,176.2 -172.6,176.2 -172.6,175 -175,175 
		-175,178.6 -173.8,178.6 -173.8,179.9 -171.4,179.9 -171.4,182.3 -167.7,182.3 -167.7,179.9 -154.3,179.9 -154.3,182.3 
		-153.1,182.3 -153.1,176.2 -154.3,176.2 	"/>
	<polygon class="st7" points="-157.9,177.4 -159.2,177.4 -159.2,176.2 -162.9,176.2 -162.9,175 -162.8,175 -162.8,176.2 
		-159.1,176.2 -159.1,177.4 -158,177.4 -158,176.2 -156.8,176.2 -156.8,175 -156.7,175 -156.7,176.2 -157.9,176.2 	"/>
	<polyline class="st7" points="-162.8,175 -162.8,176.2 -159.2,176.2 -159.2,177.4 -158,177.4 -158,176.2 -156.7,176.2 -156.7,175 	
		"/>
	<polygon class="st7" points="-167.7,176.2 -167.7,175 -166.5,175 -166.5,176.2 	"/>
	<rect x="-167.7" y="175" class="st7" width="1.2" height="1.2"/>
	<polygon class="st7" points="-172.6,176.2 -172.6,175 -170.1,175 -170.1,176.2 	"/>
	<rect x="-172.6" y="175" class="st7" width="2.4" height="1.2"/>
	<polygon class="st10" points="-175,182.3 -175,179.9 -173.8,179.8 -173.8,182.3 	"/>
	<rect x="-175" y="179.9" class="st10" width="1.2" height="2.4"/>
	<polygon class="st7" points="-175,179.9 -175,178.6 -173.8,178.6 -173.8,179.9 	"/>
	<rect x="-175" y="178.6" class="st7" width="1.2" height="1.2"/>
</g>
<g>
	<polygon class="st8" points="-131,197 -131.1,197 -131.1,192.2 -134.7,192.2 -134.7,193.4 -137.2,193.4 -137.2,192.2 -138.4,192.2 
		-138.4,193.4 -140.8,193.4 -140.8,194.6 -147,194.6 -147,193.4 -148.1,193.4 -148.1,194.6 -150.6,194.6 -150.6,195.8 -153,195.8 
		-153,197 -153,197 -153,195.8 -150.6,195.8 -150.6,194.6 -148.2,194.6 -148.2,193.3 -146.9,193.3 -146.9,194.6 -140.9,194.6 
		-140.9,193.3 -138.4,193.3 -138.4,192.1 -137.1,192.1 -137.1,193.3 -134.8,193.3 -134.8,192.1 -131,192.1 	"/>
	<polyline class="st8" points="-131.1,197 -131.1,192.1 -134.7,192.1 -134.7,193.4 -137.2,193.4 -137.2,192.1 -138.4,192.1 
		-138.4,193.4 -140.8,193.4 -140.8,194.6 -146.9,194.6 -146.9,193.4 -148.1,193.4 -148.1,194.6 -150.6,194.6 -150.6,195.8 
		-153,195.8 -153,197 	"/>
	<polygon class="st9" points="-153,195.8 -153,193.4 -150.6,193.3 -150.6,192.1 -148.1,192.1 -148.2,190.8 -146.9,190.8 
		-146.9,192.1 -140.8,192.1 -140.9,190.8 -138.4,190.8 -138.4,189.6 -137.2,189.6 -137.1,190.8 -134.7,190.8 -134.8,189.6 
		-131.1,189.6 -131,192.1 -134.7,192.2 -134.7,193.4 -137.2,193.4 -137.2,192.1 -138.4,192.2 -138.4,193.4 -140.8,193.4 
		-140.8,194.6 -146.9,194.6 -147,193.4 -148.1,193.4 -148.1,194.6 -150.6,194.6 -150.6,195.8 	"/>
	<polygon class="st9" points="-134.7,189.6 -134.7,190.8 -137.2,190.8 -137.2,189.6 -138.4,189.6 -138.4,190.8 -140.8,190.8 
		-140.8,192.1 -146.9,192.1 -146.9,190.8 -148.1,190.8 -148.1,192.1 -150.6,192.1 -150.6,193.4 -153,193.4 -153,195.8 -150.6,195.8 
		-150.6,194.6 -148.1,194.6 -148.1,193.4 -146.9,193.4 -146.9,194.6 -140.8,194.6 -140.8,193.4 -138.4,193.4 -138.4,192.1 
		-137.2,192.1 -137.2,193.4 -134.7,193.4 -134.7,192.1 -131.1,192.1 -131.1,189.6 	"/>
	<polygon class="st8" points="-153,193.4 -153,189.6 -151.8,189.6 -151.8,188.4 -144.5,188.3 -144.5,187.2 -143.3,187.1 
		-143.3,185.9 -142,185.9 -142,187.2 -134.7,187.1 -134.8,185.9 -131.1,185.9 -131,189.6 -134.7,189.6 -134.7,190.8 -137.2,191 
		-137.2,189.6 -138.4,189.6 -138.4,190.8 -140.8,191 -140.8,192.1 -146.9,192.2 -147,190.8 -148.1,191 -148.1,192.1 -150.6,192.2 
		-150.6,193.4 	"/>
	<polygon class="st8" points="-134.7,185.9 -134.7,187.2 -142,187.2 -142,185.9 -143.3,185.9 -143.3,187.2 -144.5,187.2 
		-144.5,188.4 -151.8,188.4 -151.8,189.6 -153,189.6 -153,193.4 -150.6,193.4 -150.6,192.1 -148.1,192.1 -148.1,190.8 -146.9,190.8 
		-146.9,192.1 -140.8,192.1 -140.8,190.8 -138.4,190.8 -138.4,189.6 -137.2,189.6 -137.2,190.8 -134.7,190.8 -134.7,189.6 
		-131.1,189.6 -131.1,185.9 	"/>
	<polygon class="st9" points="-153,189.6 -153,187.2 -151.8,187.1 -151.8,185.9 -144.5,185.9 -144.5,184.7 -143.3,184.7 
		-143.3,183.5 -142,183.5 -142,184.7 -134.7,184.7 -134.8,183.5 -131.1,183.5 -131,185.9 -134.7,186 -134.7,187.2 -142,187.2 
		-142.1,185.9 -143.3,186 -143.2,187.2 -144.5,187.2 -144.5,188.4 -151.8,188.4 -151.8,189.6 	"/>
	<polygon class="st9" points="-134.7,183.5 -134.7,184.7 -142,184.7 -142,183.5 -143.3,183.5 -143.3,184.7 -144.5,184.7 
		-144.5,185.9 -151.8,185.9 -151.8,187.2 -153,187.2 -153,189.6 -151.8,189.6 -151.8,188.4 -144.5,188.4 -144.5,187.2 -143.3,187.2 
		-143.3,185.9 -142,185.9 -142,187.2 -134.7,187.2 -134.7,185.9 -131.1,185.9 -131.1,183.5 	"/>
</g>
<g>
	<polygon class="st8" points="-150.6,180 -153,180 -153,175 -153,175 -153,179.9 -150.6,179.9 -150.6,178.7 -148.2,178.7 
		-148.2,177.4 -143.2,177.4 -143.2,178.7 -142.1,178.7 -142.1,177.4 -140.9,177.4 -140.9,176.2 -139.6,176.2 -139.6,177.4 
		-136,177.4 -136,176.2 -131.1,176.2 -131.1,175 -131,175 -131,176.3 -135.9,176.3 -135.9,177.5 -139.6,177.5 -139.6,176.3 
		-140.8,176.3 -140.8,177.5 -142,177.5 -142,178.7 -143.3,178.7 -143.3,177.5 -148.1,177.5 -148.1,178.7 -150.6,178.7 	"/>
	<polyline class="st8" points="-131.1,175 -131.1,176.3 -136,176.3 -136,177.5 -139.6,177.5 -139.6,176.3 -140.8,176.3 
		-140.8,177.5 -142,177.5 -142,178.7 -143.3,178.7 -143.3,177.5 -148.1,177.5 -148.1,178.7 -150.6,178.7 -150.6,179.9 -153,179.9 
		-153,175 	"/>
	<polygon class="st8" points="-153,187.3 -153,182.4 -150.6,182.3 -150.6,181.1 -148.1,181.1 -148.2,179.9 -143.3,179.9 
		-143.2,181.1 -142,181.1 -142.1,179.9 -140.8,179.9 -140.9,178.7 -139.6,178.7 -139.6,179.9 -136,179.9 -136,178.7 -131.1,178.7 
		-131,183.6 -134.7,183.6 -134.7,184.8 -142,184.8 -142.1,183.6 -143.3,183.6 -143.2,184.8 -144.5,184.8 -144.5,186 -151.8,186.1 
		-151.8,187.3 	"/>
	<polygon class="st8" points="-136,178.7 -136,179.9 -139.6,179.9 -139.6,178.7 -140.8,178.7 -140.8,179.9 -142,179.9 -142,181.1 
		-143.3,181.1 -143.3,179.9 -148.1,179.9 -148.1,181.1 -150.6,181.1 -150.6,182.4 -153,182.4 -153,187.3 -151.8,187.3 -151.8,186 
		-144.5,186 -144.5,184.8 -143.3,184.8 -143.3,183.6 -142,183.6 -142,184.8 -134.7,184.8 -134.7,183.6 -131.1,183.6 -131.1,178.7 	
		"/>
	<polygon class="st9" points="-153,182.4 -153,179.9 -150.6,179.9 -150.6,178.7 -148.1,178.7 -148.2,177.5 -143.3,177.4 
		-143.2,178.7 -142,178.7 -142.1,177.5 -140.8,177.4 -140.9,176.3 -139.6,176.2 -139.6,177.5 -136,177.4 -136,176.3 -131.1,176.2 
		-131,178.7 -136,178.7 -135.9,179.9 -139.6,180 -139.6,178.7 -140.8,178.7 -140.8,179.9 -142,180 -142,181.1 -143.3,181.2 
		-143.3,179.9 -148.1,180 -148.1,181.1 -150.6,181.2 -150.6,182.4 	"/>
	<polygon class="st9" points="-136,176.3 -136,177.5 -139.6,177.5 -139.6,176.3 -140.8,176.3 -140.8,177.5 -142,177.5 -142,178.7 
		-143.3,178.7 -143.3,177.5 -148.1,177.5 -148.1,178.7 -150.6,178.7 -150.6,179.9 -153,179.9 -153,182.4 -150.6,182.4 -150.6,181.1 
		-148.1,181.1 -148.1,179.9 -143.3,179.9 -143.3,181.1 -142,181.1 -142,179.9 -140.8,179.9 -140.8,178.7 -139.6,178.7 -139.6,179.9 
		-136,179.9 -136,178.7 -131.1,178.7 -131.1,176.3 	"/>
</g>
<g>
	<path class="st11" d="M-110.3,197v-1.2h-1.2v-1.2h-3.6v1.2h-1.2v1.2H-131v-22h22v22H-110.3z M-127.3,192h3.6v-1.2h1.3v-3.6h-1.2
		V186h-3.6v1.2h-1.2v3.6h1.2L-127.3,192z M-117.6,183.5h2.4v-1.2h1.2v-2.4h-1.2v-1.2h-2.4v1.2h-1.2v2.4h1.2V183.5z"/>
	<path class="st11" d="M-131,175v21.9h14.6v-1.2h1.2v-1.2h3.7v1.2h1.2v1.2h1.2V175 M-128.6,187.2h1.2V186h3.7v1.2h1.2v3.7h-1.2v1.2
		h-3.7v-1.2h-1.2V187.2z M-114,179.9v2.4h-1.2v1.2h-2.4v-1.2h-1.2v-2.4h1.2v-1.2h2.4v1.2H-114z"/>
	<polygon class="st12" points="-111.5,197 -111.5,195.7 -110.3,195.7 -110.3,197 	"/>
	<rect x="-111.5" y="195.7" class="st12" width="1.2" height="1.2"/>
	<polygon class="st11" points="-115.2,197 -115.2,195.7 -111.5,195.7 -111.5,197 	"/>
	<rect x="-115.2" y="195.7" class="st11" width="3.7" height="1.2"/>
	<polygon class="st12" points="-115.2,195.8 -115.2,193.3 -111.5,193.3 -111.5,195.8 	"/>
	<rect x="-115.2" y="193.3" class="st12" width="3.7" height="2.4"/>
	<polygon class="st12" points="-115.2,182.3 -115.2,179.9 -114,179.8 -113.9,182.3 	"/>
	<rect x="-115.2" y="179.9" class="st12" width="1.2" height="2.4"/>
	<polygon class="st12" points="-116.4,197 -116.4,195.7 -115.2,195.7 -115.1,197 	"/>
	<rect x="-116.4" y="195.7" class="st12" width="1.2" height="1.2"/>
	<polygon class="st12" points="-117.6,179.9 -117.6,177.4 -115.2,177.4 -115.1,179.9 	"/>
	<rect x="-117.6" y="177.4" class="st12" width="2.4" height="2.4"/>
	<polygon class="st12" points="-117.6,184.8 -117.6,182.3 -115.2,182.3 -115.1,184.8 	"/>
	<rect x="-117.6" y="182.3" class="st12" width="2.4" height="2.4"/>
	<polygon class="st11" points="-117.6,182.3 -117.6,179.9 -115.2,179.8 -115.1,182.3 	"/>
	<rect x="-117.6" y="179.9" class="st11" width="2.4" height="2.4"/>
	<polygon class="st12" points="-118.8,182.3 -118.9,179.9 -117.6,179.8 -117.6,182.3 	"/>
	<rect x="-118.8" y="179.9" class="st12" width="1.2" height="2.4"/>
	<polygon class="st12" points="-123.7,190.9 -123.7,187.2 -122.5,187.1 -122.5,190.9 	"/>
	<rect x="-123.7" y="187.2" class="st12" width="1.2" height="3.7"/>
	<polygon class="st12" points="-127.4,193.3 -127.4,190.9 -123.7,190.8 -123.7,193.3 	"/>
	<rect x="-127.4" y="190.9" class="st12" width="3.7" height="2.4"/>
	<polygon class="st12" points="-127.4,187.2 -127.4,184.8 -123.7,184.7 -123.7,187.2 	"/>
	<rect x="-127.4" y="184.8" class="st12" width="3.7" height="2.4"/>
	<polygon class="st11" points="-127.4,190.9 -127.4,187.2 -123.7,187.1 -123.7,190.9 	"/>
	<rect x="-127.4" y="187.2" class="st11" width="3.7" height="3.7"/>
	<polygon class="st12" points="-128.6,190.9 -128.6,187.2 -127.4,187.1 -127.3,190.9 	"/>
	<rect x="-128.6" y="187.2" class="st12" width="1.2" height="3.7"/>
</g>
<g>
	<path class="st13" d="M-65.1,196.9V175h1.2h20.8v1.2V197h-22V196.9z M-45.5,188.3v1.3v4.9h1.2v-1.2v-6.2h-1.2v-1.2h-1.2h-6.1v1.2
		h1.2h3.7v1.2h1.2H-45.5z M-55.2,188.3v1.3v4.9h1.2v-1.2v-6.2h-1.2v-1.2h-1.2h-7.3v1.2h1.2h4.9v1.2h1.2H-55.2z M-45.5,178.6v1.2v4.9
		h1.2v-1.2v-6.1h-1.2v-1.2h-1.2H-54v1.2h6.1v1.3h1.2L-45.5,178.6L-45.5,178.6z M-55.2,178.6v1.2v4.9h1.2v-1.2v-6.1h-1.2v-1.2h-1.2
		h-7.3v1.2h1.2h4.9v1.3h1.2L-55.2,178.6L-55.2,178.6L-55.2,178.6z"/>
	<path class="st13" d="M-64.9,175v21.7h21.6v-21.6L-64.9,175z M-63.7,185.9h8.4v1.2h1.2v7.2h-1.2v-6h-2.4v-1.2h-6
		C-63.7,187.1-63.7,185.9-63.7,185.9z M-44.2,194.4h-1.2v-6h-2.4v-1.3h-4.9v-1.2h7.2v1.2h1.2L-44.2,194.4z M-44.2,184.7h-1.2v-6
		h-2.4v-1.2h-6.1v7.2h-1.2v-6h-2.4v-1.2h-6.2v-1.2h8.4v1.2h1.2v-1.2h8.4v1.2h1.2L-44.2,184.7z"/>
	<polygon class="st14" points="-45.5,194.5 -45.5,188.4 -47.9,188.4 -47.9,187.1 -52.8,187.2 -52.8,185.9 -45.5,185.9 -45.4,187.1 
		-44.2,187.1 -44.2,194.5 	"/>
	<polygon class="st14" points="-45.5,185.9 -52.8,185.9 -52.8,187.1 -47.9,187.1 -47.9,188.4 -45.5,188.4 -45.5,194.5 -44.2,194.5 
		-44.2,187.1 -45.5,187.1 	"/>
	<polygon class="st14" points="-45.5,184.7 -45.5,183.5 -45.5,178.6 -46.7,178.6 -47.9,178.6 -47.9,177.4 -49.1,177.4 -54,177.4 
		-54,176.2 -52.8,176.1 -45.5,176.1 -45.4,177.4 -44.2,177.4 -44.2,178.6 -44.2,184.7 	"/>
	<polygon class="st14" points="-45.5,176.2 -54,176.2 -54,177.4 -47.9,177.4 -47.9,178.6 -45.5,178.6 -45.5,184.7 -44.2,184.7 
		-44.2,177.4 -45.5,177.4 	"/>
	<polygon class="st14" points="-55.2,184.7 -55.2,183.5 -55.2,178.6 -56.4,178.6 -57.6,178.6 -57.7,177.4 -58.9,177.4 -63.7,177.4 
		-63.8,176.2 -62.5,176.1 -55.2,176.1 -55.2,177.4 -54,177.4 -54,178.6 -54,184.7 	"/>
	<polygon class="st14" points="-55.2,176.2 -63.7,176.2 -63.7,177.4 -57.6,177.4 -57.6,178.6 -55.2,178.6 -55.2,184.7 -54,184.7 
		-54,177.4 -55.2,177.4 	"/>
	<polygon class="st14" points="-55.2,194.5 -55.2,193.2 -55.2,188.4 -56.4,188.4 -57.6,188.4 -57.7,187.1 -58.9,187.2 -63.7,187.2 
		-63.8,185.9 -62.5,185.9 -55.2,185.9 -55.2,187.1 -54,187.1 -54,188.4 -54,194.5 	"/>
	<polygon class="st14" points="-57.6,187.1 -57.6,188.4 -55.2,188.4 -55.2,194.5 -54,194.5 -54,187.1 -55.2,187.1 -55.2,185.9 
		-63.7,185.9 -63.7,187.1 	"/>
</g>
<rect x="-109.1" y="175" class="st2" width="11" height="11"/>
<g>
	<rect x="-23.4" y="177.4" class="st15" width="1.2" height="1.2"/>
	<rect x="-22.2" y="187.2" class="st15" width="1.2" height="7.3"/>
	<polygon class="st15" points="-22.2,178.7 -22.2,183.6 -23.4,183.6 -23.4,187.2 -22.2,187.2 -22.2,184.8 -21,184.8 -21,178.7 	"/>
	<rect x="-23.4" y="194.6" class="st15" width="1.2" height="1.2"/>
	<rect x="-24.7" y="176.2" class="st15" width="1.2" height="1.2"/>
	<polygon class="st15" points="-28.4,195.8 -28.4,194.6 -32,194.6 -32,195.8 -29.6,195.8 -29.6,197 -23.5,197 -23.5,195.8 	"/>
	<rect x="-32" y="175" class="st15" width="7.3" height="1.2"/>
	<polygon class="st15" points="-34.5,176.2 -34.5,175 -40.6,175 -40.6,176.2 -35.7,176.2 -35.7,177.4 -32,177.4 -32,176.2 	"/>
	<rect x="-39.3" y="195.8" class="st15" width="7.3" height="1.2"/>
	<rect x="-40.6" y="194.6" class="st15" width="1.2" height="1.2"/>
	<rect x="-41.8" y="193.3" class="st15" width="1.2" height="1.2"/>
	<rect x="-41.8" y="176.2" class="st15" width="1.2" height="1.2"/>
	<polygon class="st15" points="-40.6,184.8 -41.8,184.8 -41.8,187.2 -43,187.2 -43,193.3 -41.8,193.3 -41.8,188.4 -40.6,188.4 	"/>
	<rect x="-43" y="177.4" class="st15" width="1.2" height="7.4"/>
</g>
<g>
	<path class="st16" d="M-21,175v22H1v-22H-21z"/>
	<g>
		<polygon class="st1" points="-7.6,184.8 -7.6,183.6 -6.3,183.6 -6.3,183.5 -6.3,183.2 -6.3,182.3 -5.1,182.3 -5.1,181.1 
			-3.9,181.1 -3.9,179.9 -2.7,179.9 -2.7,178.7 -2.7,178.6 -3.9,178.6 -5.1,178.6 -6,178.6 -6.3,178.6 -6.4,178.6 -7.6,178.6 
			-8.8,178.6 -9,178.6 -10,178.6 -11.2,178.6 -11.9,178.6 -12.4,178.6 -14.8,178.6 -17.4,178.6 -17.4,178.7 -17.4,179.9 
			-17.4,181.1 -17.4,181.6 -17.4,182.3 -17.4,183.5 -17.4,183.6 -17.4,184.8 -17.4,184.8 -17.4,186 -17.4,186 -17.4,187.2 
			-17.4,188.1 -17.4,188.4 -17.4,191.3 -17.4,193.3 -17.3,193.3 -16.1,193.3 -16.1,192.1 -14.9,192.1 -14.9,190.9 -13.7,190.9 
			-13.7,189.7 -12.5,189.7 -12.4,189.7 -12.4,188.5 -11.2,188.5 -11.2,188.4 -11.2,187.2 -10,187.2 -10,186 -8.8,186 -8.8,184.8 		
			"/>
		<path class="st17" d="M-18.6,177.4v17.1h17.1v-17.1H-18.6z M-10,186v1.2h-1.2v1.3h-1.2v1.2h-1.3v1.2h-1.2v1.2h-1.2v1.2h-1.3v-14.7
			h14.7v1.3h-1.2v1.2h-1.2v1.2h-1.2v1.3h-1.3v1.2h-1.2v1.2L-10,186L-10,186z"/>
	</g>
</g>
<g id="XMLID_34_">
</g>
<g>
	<polygon class="st17" points="16,175 16,178 16,181 13,181 13,184 10,184 10,187 13,187 16,187 16,184 19,184 19,181 19,178 
		19,175 	"/>
	<polygon class="st16" points="10,190 10,194 13,194 13,190 13,187 10,187 	"/>
	<polygon class="st16" points="13,184 13,181 16,181 16,178 16,175 13,175 10,175 7,175 4,175 4,178 4,181 4,184 7,184 7,187 
		10,187 10,184 	"/>
	<polygon class="st17" points="7,194 7,197 10,197 13,197 16,197 16,194 13,194 10,194 	"/>
</g>
</svg>
