<?xml version="1.0" encoding="utf-8"?>
<!-- Generator: Adobe Illustrator 19.0.0, SVG Export Plug-In . SVG Version: 6.00 Build 0)  -->
<svg version="1.1" id="Layer_1" xmlns="http://www.w3.org/2000/svg" xmlns:xlink="http://www.w3.org/1999/xlink" x="0px" y="0px"
	 width="77px" height="22px" viewBox="-3.5 12 77 22" style="enable-background:new -3.5 12 77 22;" xml:space="preserve">
<style type="text/css">
	.st0{fill:#FF0000;}
	.st1{fill:#FFF200;}
	.st2{fill:#16E900;}
	.st3{fill:#B99200;}
	.st4{fill:#947500;}
	.st5{fill:#55BF00;}
</style>
<rect id="XMLID_6_" x="40.5" y="12" class="st0" width="22" height="22"/>
<rect id="XMLID_5_" x="62.5" y="12" class="st1" width="11" height="11"/>
<g>
	<rect x="17.1" y="12" class="st2" width="1.3" height="1.3"/>
	<rect x="17.2" y="12.1" class="st2" width="1.3" height="1.3"/>
	<polygon class="st3" points="14.5,26.3 14.5,22.4 17.2,22.4 17.2,23.6 18.4,23.6 18.4,26.3 	"/>
	<polygon class="st3" points="17.2,22.4 15.9,22.4 14.5,22.4 14.5,23.6 14.5,24.9 14.5,26.3 15.9,26.3 17.2,26.3 18.5,26.3 
		18.5,24.9 18.5,23.6 17.2,23.6 	"/>
	<path class="st4" d="M15.8,34v-2.6h-2.5V34H-3.5V22.4H-1v-2.5h-2.5v-1.3h1.3v-2.6h2.6v2.6h3.8v-2.6h12.9v2.6h1.3v5.2h-1.3v-1.3
		h-2.5v3.8h3.9V34L15.8,34L15.8,34z M0.4,32.6v-1.2H-1v-2.5h-1.2v3.8H0.4z M5.5,28.8V25H0.4v2.5h2.5v1.3L5.5,28.8L5.5,28.8z
		 M12,22.4v-2.5h-1.3v-2.6H6.9v2.5h2.5v2.5L12,22.4L12,22.4z"/>
	<polygon class="st5" points="17.2,18.5 17.2,16 4.3,16 4.3,18.5 0.4,18.5 0.4,16 -2.2,16 -2.2,14.6 -3.5,14.6 -3.5,12 -0.9,12 
		-0.9,13.3 1.7,13.3 1.7,12 4.3,12 4.3,13.3 5.6,13.3 5.6,12 9.5,12 9.5,13.3 12.1,13.3 12.1,14.6 13.4,14.6 13.4,13.3 14.6,13.3 
		14.6,12 17.3,12 17.3,13.3 18.5,13.3 18.5,18.5 	"/>
	<rect x="13.3" y="31.4" class="st3" width="2.6" height="2.6"/>
	<polygon class="st3" points="15.8,32.7 15.8,31.4 14.5,31.4 13.3,31.4 13.3,32.7 13.3,33.8 13.3,34 14.5,34 15.8,34 15.8,33.8 	"/>
	<polygon class="st2" points="12,14.6 12,13.3 9.4,13.3 9.4,12 14.6,12 14.6,13.3 13.3,13.3 13.3,14.6 	"/>
	<polygon class="st2" points="10.8,13.3 12,13.3 12,14.6 13.4,14.6 13.4,13.3 14.6,13.3 14.6,12.1 13.4,12.1 12,12.1 10.8,12.1 
		9.4,12.1 9.4,13.3 	"/>
	<polygon class="st3" points="9.4,22.4 9.4,19.8 6.9,19.8 6.9,17.2 10.7,17.2 10.7,19.8 12.1,19.8 12.1,22.4 	"/>
	<polygon class="st3" points="6.9,19.8 8.2,19.8 9.4,19.8 9.4,21.1 9.4,22.4 10.7,22.4 12,22.4 12,21.1 12,19.8 10.7,19.8 
		10.7,18.5 10.7,17.2 9.4,17.2 8.2,17.2 6.9,17.2 6.9,18.5 	"/>
	<rect x="4.2" y="12" class="st2" width="1.4" height="1.3"/>
	<rect x="4.2" y="12.1" class="st2" width="1.3" height="1.3"/>
	<polygon class="st3" points="2.9,28.9 2.9,27.6 0.4,27.6 0.4,25 5.6,25 5.6,28.9 	"/>
	<polygon class="st3" points="-2.2,32.7 -2.2,28.8 -0.9,28.8 -0.9,31.4 0.5,31.4 0.5,32.7 	"/>
	<polygon class="st3" points="-0.9,31.4 -0.9,30 -0.9,28.8 -2.2,28.8 -2.2,30 -2.2,31.4 -2.2,32.7 -0.9,32.7 0.4,32.7 0.4,31.4 	"/>
	<rect x="-0.9" y="12" class="st2" width="2.6" height="1.3"/>
	<polygon class="st2" points="0.4,13.3 1.7,13.3 1.7,12.1 0.4,12.1 -0.9,12.1 -0.9,13.3 	"/>
	<rect x="-3.5" y="19.8" class="st3" width="2.6" height="2.6"/>
	<polygon class="st3" points="-2.2,22.4 -0.9,22.4 -0.9,21.1 -0.9,19.8 -2.2,19.8 -3.3,19.8 -3.4,19.8 -3.4,21.1 -3.4,22.4 
		-3.3,22.4 	"/>
	<rect x="-3.5" y="15.9" class="st5" width="1.3" height="2.6"/>
	<polygon class="st5" points="-2.2,18.5 -2.2,17.2 -2.2,15.9 -3.3,15.9 -3.4,15.9 -3.4,17.2 -3.4,18.5 -3.3,18.5 	"/>
	<rect x="-3.5" y="14.6" class="st2" width="1.3" height="1.3"/>
	<polygon class="st2" points="-2.2,15.9 -2.2,14.6 -3.3,14.6 -3.4,14.6 -3.4,15.9 -3.3,15.9 	"/>
</g>
<g>
	<polygon class="st3" points="36.5,26.3 36.5,22.4 39.2,22.4 39.2,23.6 40.4,23.6 40.4,26.3 	"/>
	<polygon class="st3" points="39.2,22.4 37.9,22.4 36.5,22.4 36.5,23.6 36.5,24.9 36.5,26.3 37.9,26.3 39.2,26.3 40.5,26.3 
		40.5,24.9 40.5,23.6 39.2,23.6 	"/>
	<path class="st4" d="M37.8,34v-2.6h-2.5V34H18.5V22.4H21v-2.5h-2.5V12h22v11.7h-1.3v-1.3h-2.5v3.8h3.9V34L37.8,34L37.8,34z
		 M22.4,32.6v-1.2H21v-2.5h-1.2v3.8H22.4z M27.5,28.8V25h-5.2v2.5h2.5v1.3L27.5,28.8L27.5,28.8z M34,22.4v-2.5h-1.3v-2.6h-3.8v2.5
		h2.5v2.5L34,22.4L34,22.4z"/>
	<g id="XMLID_1_">
		<polygon class="st3" points="26.7,14.6 26.7,16 25.4,16 24.1,16 22.7,16 22.7,14.6 22.7,13.3 22.7,12.1 24.1,12.1 25.4,12.1 
			25.4,13.3 26.7,13.3 		"/>
	</g>
	<rect x="35.3" y="31.4" class="st3" width="2.6" height="2.6"/>
	<polygon class="st3" points="37.8,32.7 37.8,31.4 36.5,31.4 35.3,31.4 35.3,32.7 35.3,33.8 35.3,34 36.5,34 37.8,34 37.8,33.8 	"/>
	<polygon class="st3" points="31.4,22.4 31.4,19.8 28.9,19.8 28.9,17.2 32.7,17.2 32.7,19.8 34.1,19.8 34.1,22.4 	"/>
	<polygon class="st3" points="28.9,19.8 30.2,19.8 31.4,19.8 31.4,21.1 31.4,22.4 32.7,22.4 34,22.4 34,21.1 34,19.8 32.7,19.8 
		32.7,18.5 32.7,17.2 31.4,17.2 30.2,17.2 28.9,17.2 28.9,18.5 	"/>
	<polygon class="st3" points="24.9,28.9 24.9,27.6 22.4,27.6 22.4,25 27.6,25 27.6,28.9 	"/>
	<polygon class="st3" points="19.8,32.7 19.8,28.8 21.1,28.8 21.1,31.4 22.5,31.4 22.5,32.7 	"/>
	<polygon class="st3" points="21.1,31.4 21.1,30 21.1,28.8 19.8,28.8 19.8,30 19.8,31.4 19.8,32.7 21.1,32.7 22.4,32.7 22.4,31.4 	
		"/>
	<rect x="18.5" y="19.8" class="st3" width="2.6" height="2.6"/>
	<polygon class="st3" points="19.8,22.4 21.1,22.4 21.1,21.1 21.1,19.8 19.8,19.8 18.7,19.8 18.6,19.8 18.6,21.1 18.6,22.4 
		18.7,22.4 	"/>
</g>
</svg>
