<?xml version="1.0" encoding="utf-8"?>
<!-- Generator: Adobe Illustrator 19.0.0, SVG Export Plug-In . SVG Version: 6.00 Build 0)  -->
<svg version="1.1" id="Layer_1" xmlns="http://www.w3.org/2000/svg" xmlns:xlink="http://www.w3.org/1999/xlink" x="0px" y="0px"
	 width="132px" height="22px" viewBox="44.4 38.8 132 22" style="enable-background:new 44.4 38.8 132 22;" xml:space="preserve">
<style type="text/css">
	.st0{fill:none;}
	.st1{fill:#FFF200;}
	.st2{fill:#7F5E00;}
	.st3{fill:#CCBD00;}
	.st4{fill:#A57600;}
	.st5{fill:#684A00;}
	.st6{fill:#16E900;}
	.st7{fill:#B99200;}
	.st8{fill:#CCC217;}
	.st9{fill:#55BF00;}
	.st10{fill:#FF0000;}
	.st11{fill:#FF5E48;}
	.st12{fill:#474747;}
	.st13{fill:#878787;}
</style>
<g>
	<rect x="126.1" y="48.6" class="st0" width="2.4" height="2.4"/>
	<path class="st1" d="M131,48.6v-2.5h-7.3v2.5h-2.4V51h2.4v2.5h7.3V51h4.9v2.5h2.4V51h2.5v2.5h2.4v-4.9H131z M126.1,51v-2.4h2.4V51
		H126.1z"/>
</g>
<g>
	<path class="st2" d="M153.2,38.7h-1.1H151h-1.1h-1.1h-1.1h-1.1h-1.1h-1.1h-1.1V40v1.3v1.3v1.3v1.3v1.3v1.3v1.3v1.3v1.3V53v1.3v1.3
		v1.3v1.3v1.3v1.2h1.1h1.1h1.1h1.1h1.1h1.1h1.1h1.1h1.1h1.1v-1.3v-1.3v-1.3v-1.3v-1.3v-1.3v-1.3v-1.3V49v-1.3v-1.3v-1.3v-1.3v-1.3
		v-1.3v-1.3v-1.2H153.2z"/>
	<rect x="152.1" y="50.4" class="st3" width="1.1" height="1.3"/>
	<polygon class="st4" points="149.9,50.4 149.9,51.6 149.9,52.9 149.9,54.2 149.9,55.5 149.9,56.8 149.9,58.1 151,58.1 152.1,58.1 
		152.1,56.8 151,56.8 151,55.5 151,54.2 151,52.9 151,51.6 151,50.4 151,49 149.9,49 	"/>
	<polygon class="st4" points="149.9,42.6 149.9,43.9 149.9,45.2 149.9,46.5 149.9,47.8 151,47.8 152.1,47.8 152.1,46.5 151,46.5 
		151,45.2 151,43.9 151,42.6 151,41.3 151,40 149.9,40 149.9,41.3 	"/>
	<polygon class="st4" points="147.7,58.1 147.7,56.8 146.6,56.8 146.6,55.5 146.6,54.2 146.6,52.9 146.6,51.6 146.6,50.4 146.6,49 
		145.5,49 145.5,50.4 145.5,51.6 145.5,52.9 145.5,54.2 145.5,55.5 145.5,56.8 145.5,58.1 146.6,58.1 	"/>
	<polygon class="st4" points="145.5,42.6 145.5,43.9 145.5,45.2 145.5,46.5 145.5,47.8 146.6,47.8 147.7,47.8 147.7,46.5 
		146.6,46.5 146.6,45.2 146.6,43.9 146.6,42.6 146.6,41.3 146.6,40 145.5,40 145.5,41.3 	"/>
</g>
<g>
	<g id="XMLID_9_">
		<g>
			<rect x="143.3" y="38.9" class="st5" width="1.1" height="1.3"/>
			<rect x="153.2" y="59.6" class="st5" width="1.1" height="1.3"/>
			<rect x="153.2" y="58.3" class="st5" width="1.1" height="1.3"/>
			<rect x="153.2" y="57" class="st5" width="1.1" height="1.3"/>
			<rect x="153.2" y="55.7" class="st5" width="1.1" height="1.3"/>
			<rect x="153.2" y="54.4" class="st5" width="1.1" height="1.3"/>
			<rect x="153.2" y="53.1" class="st5" width="1.1" height="1.3"/>
			<rect x="153.2" y="51.8" class="st5" width="1.1" height="1.3"/>
			<rect x="153.2" y="50.5" class="st5" width="1.1" height="1.3"/>
			<rect x="153.2" y="49.3" class="st5" width="1.1" height="1.3"/>
			<rect x="153.2" y="48" class="st5" width="1.1" height="1.3"/>
			<rect x="153.2" y="46.7" class="st5" width="1.1" height="1.3"/>
			<rect x="153.2" y="45.4" class="st5" width="1.1" height="1.3"/>
			<rect x="153.2" y="44.1" class="st5" width="1.1" height="1.3"/>
			<rect x="153.2" y="42.8" class="st5" width="1.1" height="1.3"/>
			<rect x="153.2" y="41.5" class="st5" width="1.1" height="1.3"/>
			<rect x="153.2" y="40.2" class="st5" width="1.1" height="1.3"/>
			<rect x="153.2" y="38.9" class="st5" width="1.1" height="1.3"/>
			<rect x="152.1" y="38.9" class="st5" width="1.1" height="1.3"/>
			<rect x="151" y="38.9" class="st5" width="1.1" height="1.3"/>
			<rect x="149.9" y="40.2" class="st2" width="1.1" height="1.3"/>
			<rect x="149.9" y="38.9" class="st5" width="1.1" height="1.3"/>
			<rect x="148.8" y="38.9" class="st5" width="1.1" height="1.3"/>
			<rect x="147.7" y="38.9" class="st5" width="1.1" height="1.3"/>
			<rect x="146.6" y="38.9" class="st5" width="1.1" height="1.3"/>
			<rect x="145.5" y="40.2" class="st2" width="1.1" height="1.3"/>
			<rect x="145.5" y="38.9" class="st5" width="1.1" height="1.3"/>
			<rect x="144.4" y="38.9" class="st5" width="1.1" height="1.3"/>
		</g>
	</g>
</g>
<g>
	<polygon class="st6" points="65.1,40 65.1,38.8 66.3,38.8 66.4,40 	"/>
	<rect x="65.1" y="38.8" class="st6" width="1.2" height="1.2"/>
	<polygon class="st7" points="66.4,60.8 66.3,60.8 66.3,55.9 62.7,55.9 62.7,57.1 60.2,57.1 60.2,55.9 59,55.9 59,57.1 56.6,57.1 
		56.6,58.3 50.4,58.3 50.4,57.1 49.3,57.1 49.3,58.3 46.8,58.3 46.8,59.6 44.4,59.6 44.4,60.8 44.4,60.8 44.4,59.5 46.8,59.5 
		46.8,58.3 49.2,58.3 49.2,57.1 50.5,57.1 50.5,58.3 56.5,58.3 56.5,57.1 59,57.1 59,55.8 60.3,55.8 60.3,57.1 62.6,57.1 62.6,55.8 
		66.4,55.8 	"/>
	<polyline class="st7" points="66.3,60.7 66.3,55.9 62.7,55.9 62.7,57.1 60.2,57.1 60.2,55.9 59,55.9 59,57.1 56.6,57.1 56.6,58.3 
		50.5,58.3 50.5,57.1 49.3,57.1 49.3,58.3 46.8,58.3 46.8,59.5 44.4,59.5 44.4,60.7 	"/>
	<polygon class="st8" points="44.4,59.6 44.4,57.1 46.8,57.1 46.8,55.9 49.3,55.8 49.2,54.6 50.5,54.6 50.5,55.9 56.6,55.8 
		56.5,54.6 59,54.6 59,53.4 60.2,53.4 60.3,54.6 62.7,54.6 62.6,53.4 66.3,53.4 66.4,55.9 62.7,55.9 62.7,57.1 60.2,57.1 60.2,55.9 
		59,55.9 59,57.1 56.6,57.1 56.6,58.3 50.5,58.3 50.4,57.1 49.3,57.1 49.3,58.3 46.8,58.3 46.8,59.6 	"/>
	<polygon class="st8" points="62.7,53.4 62.7,54.6 60.2,54.6 60.2,53.4 59,53.4 59,54.6 56.6,54.6 56.6,55.9 50.5,55.9 50.5,54.6 
		49.3,54.6 49.3,55.9 46.8,55.9 46.8,57.1 44.4,57.1 44.4,59.5 46.8,59.5 46.8,58.3 49.3,58.3 49.3,57.1 50.5,57.1 50.5,58.3 
		56.6,58.3 56.6,57.1 59,57.1 59,55.9 60.2,55.9 60.2,57.1 62.7,57.1 62.7,55.9 66.3,55.9 66.3,53.4 	"/>
	<polygon class="st7" points="44.4,57.1 44.4,53.4 45.6,53.4 45.6,52.2 52.9,52.2 52.9,51 54.1,51 54.1,49.8 55.4,49.7 55.4,51 
		62.7,51 62.6,49.8 66.3,49.7 66.4,53.4 62.7,53.5 62.7,54.6 60.2,54.7 60.2,53.4 59,53.5 59,54.6 56.6,54.7 56.6,55.9 50.5,55.9 
		50.4,54.6 49.3,54.7 49.3,55.9 46.8,55.9 46.8,57.1 	"/>
	<polygon class="st7" points="62.7,49.8 62.7,51 55.4,51 55.4,49.8 54.1,49.8 54.1,51 52.9,51 52.9,52.2 45.6,52.2 45.6,53.4 
		44.4,53.4 44.4,57.1 46.8,57.1 46.8,55.9 49.3,55.9 49.3,54.6 50.5,54.6 50.5,55.9 56.6,55.9 56.6,54.6 59,54.6 59,53.4 60.2,53.4 
		60.2,54.6 62.7,54.6 62.7,53.4 66.3,53.4 66.3,49.8 	"/>
	<polygon class="st8" points="44.4,53.5 44.4,51 45.6,51 45.6,49.8 52.9,49.7 52.9,48.5 54.1,48.5 54.1,47.3 55.4,47.3 55.4,48.5 
		62.7,48.5 62.6,47.3 66.3,47.3 66.4,49.8 62.7,49.8 62.7,51 55.4,51 55.3,49.8 54.1,49.8 54.2,51 52.9,51 52.9,52.2 45.6,52.2 
		45.6,53.5 	"/>
	<polygon class="st8" points="62.7,47.3 62.7,48.5 55.4,48.5 55.4,47.3 54.1,47.3 54.1,48.5 52.9,48.5 52.9,49.8 45.6,49.8 45.6,51 
		44.4,51 44.4,53.4 45.6,53.4 45.6,52.2 52.9,52.2 52.9,51 54.1,51 54.1,49.8 55.4,49.8 55.4,51 62.7,51 62.7,49.8 66.3,49.8 
		66.3,47.3 	"/>
	<polygon class="st7" points="44.4,51 44.4,46.1 45.6,46.1 45.6,43.7 48,43.6 48.1,46.1 51.7,46.1 51.7,43.7 65.1,43.6 65.1,46.1 
		66.3,46.1 66.4,47.3 62.7,47.4 62.7,48.5 55.4,48.6 55.3,47.3 54.1,47.4 54.2,48.5 52.9,48.6 52.9,49.8 45.6,49.8 45.6,51 	"/>
	<polygon class="st7" points="65.1,43.7 51.7,43.7 51.7,46.1 48,46.1 48,43.7 45.6,43.7 45.6,46.1 44.4,46.1 44.4,51 45.6,51 
		45.6,49.8 52.9,49.8 52.9,48.5 54.1,48.5 54.1,47.3 55.4,47.3 55.4,48.5 62.7,48.5 62.7,47.3 66.3,47.3 66.3,46.1 65.1,46.1 	"/>
	<polygon class="st9" points="65.1,46.1 65.1,43.7 51.7,43.7 51.7,46.1 48,46.1 48,43.7 45.6,43.7 45.6,42.4 44.4,42.5 44.4,38.8 
		46.8,38.8 46.8,40 49.3,40 49.2,38.8 51.7,38.8 51.7,40 52.9,40 52.9,38.8 56.6,38.8 56.6,40 60.2,40 60.3,41.2 61.4,41.2 61.4,40 
		62.7,40 62.6,38.8 65.1,38.8 65.1,40 66.3,40 66.4,46.1 	"/>
	<polygon class="st9" points="65.1,38.8 62.7,38.8 62.7,40 61.4,40 61.4,41.2 60.2,41.2 60.2,40 56.6,40 56.6,38.8 52.9,38.8 
		52.9,40 51.7,40 51.7,38.8 49.3,38.8 49.3,40 46.8,40 46.8,38.8 44.4,38.8 44.4,42.4 45.6,42.4 45.6,43.7 48,43.7 48,46.1 
		51.7,46.1 51.7,43.7 65.1,43.7 65.1,46.1 66.3,46.1 66.3,40 65.1,40 	"/>
	<polygon class="st6" points="61.5,41.2 60.2,41.2 60.2,40 56.5,40 56.5,38.8 56.6,38.8 56.6,40 60.3,40 60.3,41.2 61.4,41.2 
		61.4,40 62.6,40 62.6,38.8 62.7,38.8 62.7,40 61.5,40 	"/>
	<polyline class="st6" points="56.6,38.8 56.6,40 60.2,40 60.2,41.2 61.4,41.2 61.4,40 62.7,40 62.7,38.8 	"/>
	<polygon class="st6" points="51.7,40 51.7,38.8 52.9,38.8 52.9,40 	"/>
	<rect x="51.7" y="38.8" class="st6" width="1.2" height="1.2"/>
	<polygon class="st6" points="46.8,40 46.8,38.8 49.3,38.8 49.3,40 	"/>
	<rect x="46.8" y="38.8" class="st6" width="2.4" height="1.2"/>
	<polygon class="st9" points="44.4,46.1 44.4,43.7 45.6,43.6 45.6,46.1 	"/>
	<rect x="44.4" y="43.7" class="st9" width="1.2" height="2.4"/>
	<polygon class="st6" points="44.4,43.7 44.4,42.4 45.6,42.4 45.6,43.7 	"/>
	<rect x="44.4" y="42.4" class="st6" width="1.2" height="1.2"/>
</g>
<g>
	<polygon class="st7" points="88.4,60.7 88.3,60.7 88.3,55.9 84.7,55.9 84.7,57.1 82.2,57.1 82.2,55.9 81,55.9 81,57.1 78.6,57.1 
		78.6,58.3 72.4,58.3 72.4,57.1 71.3,57.1 71.3,58.3 68.8,58.3 68.8,59.5 66.4,59.5 66.4,60.7 66.4,60.7 66.4,59.5 68.8,59.5 
		68.8,58.3 71.2,58.3 71.2,57 72.5,57 72.5,58.3 78.5,58.3 78.5,57 81,57 81,55.8 82.3,55.8 82.3,57 84.6,57 84.6,55.8 88.4,55.8 	
		"/>
	<polyline class="st7" points="88.3,60.7 88.3,55.8 84.7,55.8 84.7,57.1 82.2,57.1 82.2,55.8 81,55.8 81,57.1 78.6,57.1 78.6,58.3 
		72.5,58.3 72.5,57.1 71.3,57.1 71.3,58.3 68.8,58.3 68.8,59.5 66.4,59.5 66.4,60.7 	"/>
	<polygon class="st8" points="66.4,59.5 66.4,57.1 68.8,57 68.8,55.8 71.3,55.8 71.2,54.6 72.5,54.6 72.5,55.8 78.6,55.8 78.5,54.6 
		81,54.6 81,53.4 82.2,53.4 82.3,54.6 84.7,54.6 84.6,53.4 88.3,53.4 88.4,55.8 84.7,55.9 84.7,57.1 82.2,57.1 82.2,55.8 81,55.9 
		81,57.1 78.6,57.1 78.6,58.3 72.5,58.3 72.4,57.1 71.3,57.1 71.3,58.3 68.8,58.3 68.8,59.5 	"/>
	<polygon class="st8" points="84.7,53.4 84.7,54.6 82.2,54.6 82.2,53.4 81,53.4 81,54.6 78.6,54.6 78.6,55.8 72.5,55.8 72.5,54.6 
		71.3,54.6 71.3,55.8 68.8,55.8 68.8,57.1 66.4,57.1 66.4,59.5 68.8,59.5 68.8,58.3 71.3,58.3 71.3,57.1 72.5,57.1 72.5,58.3 
		78.6,58.3 78.6,57.1 81,57.1 81,55.8 82.2,55.8 82.2,57.1 84.7,57.1 84.7,55.8 88.3,55.8 88.3,53.4 	"/>
	<polygon class="st7" points="66.4,57.1 66.4,53.4 67.6,53.4 67.6,52.2 74.9,52.1 74.9,51 76.1,50.9 76.1,49.7 77.4,49.7 77.4,51 
		84.7,50.9 84.6,49.7 88.3,49.7 88.4,53.4 84.7,53.4 84.7,54.6 82.2,54.7 82.2,53.4 81,53.4 81,54.6 78.6,54.7 78.6,55.8 72.5,55.9 
		72.4,54.6 71.3,54.7 71.3,55.8 68.8,55.9 68.8,57.1 	"/>
	<polygon class="st7" points="84.7,49.7 84.7,51 77.4,51 77.4,49.7 76.1,49.7 76.1,51 74.9,51 74.9,52.2 67.6,52.2 67.6,53.4 
		66.4,53.4 66.4,57.1 68.8,57.1 68.8,55.8 71.3,55.8 71.3,54.6 72.5,54.6 72.5,55.8 78.6,55.8 78.6,54.6 81,54.6 81,53.4 82.2,53.4 
		82.2,54.6 84.7,54.6 84.7,53.4 88.3,53.4 88.3,49.7 	"/>
	<polygon class="st8" points="66.4,53.4 66.4,51 67.6,50.9 67.6,49.7 74.9,49.7 74.9,48.5 76.1,48.5 76.1,47.3 77.4,47.3 77.4,48.5 
		84.7,48.5 84.6,47.3 88.3,47.3 88.4,49.7 84.7,49.8 84.7,51 77.4,51 77.3,49.7 76.1,49.8 76.2,51 74.9,51 74.9,52.2 67.6,52.2 
		67.6,53.4 	"/>
	<polygon class="st8" points="84.7,47.3 84.7,48.5 77.4,48.5 77.4,47.3 76.1,47.3 76.1,48.5 74.9,48.5 74.9,49.7 67.6,49.7 67.6,51 
		66.4,51 66.4,53.4 67.6,53.4 67.6,52.2 74.9,52.2 74.9,51 76.1,51 76.1,49.7 77.4,49.7 77.4,51 84.7,51 84.7,49.7 88.3,49.7 
		88.3,47.3 	"/>
</g>
<g>
	<polygon class="st7" points="68.8,43.7 66.4,43.7 66.4,38.7 66.4,38.7 66.4,43.6 68.8,43.6 68.8,42.4 71.2,42.4 71.2,41.1 
		76.2,41.1 76.2,42.4 77.3,42.4 77.3,41.1 78.5,41.1 78.5,39.9 79.8,39.9 79.8,41.1 83.4,41.1 83.4,39.9 88.3,39.9 88.3,38.7 
		88.4,38.7 88.4,40 83.5,40 83.5,41.2 79.8,41.2 79.8,40 78.6,40 78.6,41.2 77.4,41.2 77.4,42.4 76.1,42.4 76.1,41.2 71.3,41.2 
		71.3,42.4 68.8,42.4 	"/>
	<polyline class="st7" points="88.3,38.7 88.3,40 83.4,40 83.4,41.2 79.8,41.2 79.8,40 78.6,40 78.6,41.2 77.4,41.2 77.4,42.4 
		76.1,42.4 76.1,41.2 71.3,41.2 71.3,42.4 68.8,42.4 68.8,43.6 66.4,43.6 66.4,38.7 	"/>
	<polygon class="st7" points="66.4,51 66.4,46.1 68.8,46 68.8,44.8 71.3,44.8 71.2,43.6 76.1,43.6 76.2,44.8 77.4,44.8 77.3,43.6 
		78.6,43.6 78.5,42.4 79.8,42.4 79.8,43.6 83.4,43.6 83.4,42.4 88.3,42.4 88.4,47.3 84.7,47.3 84.7,48.5 77.4,48.5 77.3,47.3 
		76.1,47.3 76.2,48.5 74.9,48.5 74.9,49.7 67.6,49.8 67.6,51 	"/>
	<polygon class="st7" points="83.4,42.4 83.4,43.6 79.8,43.6 79.8,42.4 78.6,42.4 78.6,43.6 77.4,43.6 77.4,44.8 76.1,44.8 
		76.1,43.6 71.3,43.6 71.3,44.8 68.8,44.8 68.8,46.1 66.4,46.1 66.4,51 67.6,51 67.6,49.7 74.9,49.7 74.9,48.5 76.1,48.5 76.1,47.3 
		77.4,47.3 77.4,48.5 84.7,48.5 84.7,47.3 88.3,47.3 88.3,42.4 	"/>
	<polygon class="st8" points="66.4,46.1 66.4,43.6 68.8,43.6 68.8,42.4 71.3,42.4 71.2,41.2 76.1,41.1 76.2,42.4 77.4,42.4 
		77.3,41.2 78.6,41.1 78.5,40 79.8,39.9 79.8,41.2 83.4,41.1 83.4,40 88.3,39.9 88.4,42.4 83.4,42.4 83.5,43.6 79.8,43.7 79.8,42.4 
		78.6,42.4 78.6,43.6 77.4,43.7 77.4,44.8 76.1,44.9 76.1,43.6 71.3,43.7 71.3,44.8 68.8,44.9 68.8,46.1 	"/>
	<polygon class="st8" points="83.4,40 83.4,41.2 79.8,41.2 79.8,40 78.6,40 78.6,41.2 77.4,41.2 77.4,42.4 76.1,42.4 76.1,41.2 
		71.3,41.2 71.3,42.4 68.8,42.4 68.8,43.6 66.4,43.6 66.4,46.1 68.8,46.1 68.8,44.8 71.3,44.8 71.3,43.6 76.1,43.6 76.1,44.8 
		77.4,44.8 77.4,43.6 78.6,43.6 78.6,42.4 79.8,42.4 79.8,43.6 83.4,43.6 83.4,42.4 88.3,42.4 88.3,40 	"/>
</g>
<g>
	<path class="st10" d="M109.1,60.8l0-1.2l-1.2,0l0-1.2l-3.6,0l0,1.2l-1.2,0l0,1.2l-14.7,0l0-22l22,0l0,22H109.1z M92.1,55.8l3.6,0
		l0-1.2l1.3,0l0-3.6l-1.2,0l0-1.2l-3.6,0l0,1.2l-1.2,0v3.6l1.2,0L92.1,55.8z M101.8,47.3l2.4,0l0-1.2l1.2,0l0-2.4l-1.2,0l0-1.2
		l-2.4,0l0,1.2l-1.2,0v2.4l1.2,0L101.8,47.3z"/>
	<path class="st10" d="M88.4,38.8v21.9H103v-1.2h1.2v-1.2h3.7v1.2h1.2v1.2h1.2V38.8 M90.8,51H92v-1.2h3.7V51h1.2v3.7h-1.2v1.2H92
		v-1.2h-1.2V51z M105.4,43.7v2.4h-1.2v1.2h-2.4v-1.2h-1.2v-2.4h1.2v-1.2h2.4v1.2H105.4z"/>
	<polygon class="st11" points="107.9,60.8 107.9,59.5 109.1,59.5 109.1,60.8 	"/>
	<rect x="107.9" y="59.5" class="st11" width="1.2" height="1.2"/>
	<polygon class="st10" points="104.2,60.8 104.2,59.5 107.9,59.5 107.9,60.8 	"/>
	<rect x="104.2" y="59.5" class="st10" width="3.7" height="1.2"/>
	<polygon class="st11" points="104.2,59.6 104.2,57.1 107.9,57.1 107.9,59.6 	"/>
	<rect x="104.2" y="57.1" class="st11" width="3.7" height="2.4"/>
	<polygon class="st11" points="104.2,46.1 104.2,43.7 105.4,43.6 105.5,46.1 	"/>
	<rect x="104.2" y="43.7" class="st11" width="1.2" height="2.4"/>
	<polygon class="st11" points="103,60.8 103,59.5 104.2,59.5 104.3,60.8 	"/>
	<rect x="103" y="59.5" class="st11" width="1.2" height="1.2"/>
	<polygon class="st11" points="101.8,43.7 101.8,41.2 104.2,41.2 104.3,43.7 	"/>
	<rect x="101.8" y="41.2" class="st11" width="2.4" height="2.4"/>
	<polygon class="st11" points="101.8,48.6 101.8,46.1 104.2,46.1 104.3,48.6 	"/>
	<rect x="101.8" y="46.1" class="st11" width="2.4" height="2.4"/>
	<polygon class="st10" points="101.8,46.1 101.8,43.7 104.2,43.6 104.3,46.1 	"/>
	<rect x="101.8" y="43.7" class="st10" width="2.4" height="2.4"/>
	<polygon class="st11" points="100.6,46.1 100.5,43.7 101.8,43.6 101.8,46.1 	"/>
	<rect x="100.6" y="43.7" class="st11" width="1.2" height="2.4"/>
	<polygon class="st11" points="95.7,54.7 95.7,51 96.9,50.9 96.9,54.7 	"/>
	<rect x="95.7" y="51" class="st11" width="1.2" height="3.7"/>
	<polygon class="st11" points="92,57.1 92,54.7 95.7,54.6 95.7,57.1 	"/>
	<rect x="92" y="54.7" class="st11" width="3.7" height="2.4"/>
	<polygon class="st11" points="92,51 92,48.6 95.7,48.5 95.7,51 	"/>
	<rect x="92" y="48.6" class="st11" width="3.7" height="2.4"/>
	<polygon class="st10" points="92,54.7 92,51 95.7,50.9 95.7,54.7 	"/>
	<rect x="92" y="51" class="st10" width="3.7" height="3.7"/>
	<polygon class="st11" points="90.8,54.7 90.8,51 92,50.9 92.1,54.7 	"/>
	<rect x="90.8" y="51" class="st11" width="1.2" height="3.7"/>
</g>
<g>
	<path class="st12" d="M154.3,60.8l0-1.2V38.9l1.2,0h20.7l0,1.2v20.8H154.3z M173.8,52.2l0,1.3v4.9l1.2,0l0-1.2V51l-1.2,0l0-1.2
		l-1.2,0h-6.1V51l1.2,0h3.7l0,1.2l1.2,0H173.8z M164.1,52.2l0,1.3v4.9l1.2,0l0-1.2V51l-1.2,0l0-1.2l-1.2,0h-7.3V51l1.2,0h4.9l0,1.2
		l1.2,0H164.1z M173.8,42.5l0,1.2v4.9l1.2,0l0-1.2v-6.1l-1.2,0l0-1.2l-1.2,0h-7.3l0,1.2h6.1l0,1.3l1.2,0H173.8z M164.1,42.5l0,1.2
		v4.9l1.2,0l0-1.2v-6.1l-1.2,0l0-1.2l-1.2,0h-7.3v1.2l1.2,0h4.9l0,1.3l1.2,0H164.1z"/>
	<path class="st12" d="M175.1,38.9h-1.2h-1.2h-1.2h-1.2H169h-1.2h-1.2h-1.2h-1.2h-1.2h-1.2h-1.2h-1.2H158h-1.2h-1.2h-1.2v1.2v1.2
		v1.2v1.2V45v1.2v1.2v1.2v1.2V51v1.2v1.2v1.2v1.2v1.2v1.2v1.2v1.2h1.2h1.2h1.2h1.2h1.2h1.2h1.2h1.2h1.2h1.2h1.2h1.2h1.2h1.2h1.2h1.2
		h1.2h1.2v-1.2v-1.2v-1.2v-1.2v-1.2v-1.2v-1.2V51v-1.2v-1.2v-1.2v-1.2V45v-1.2v-1.2v-1.2v-1.2v-1.2H175.1z M155.6,49.8h1.2h1.2h1.2
		h1.2h1.2h1.2h1.2V51h1.2v1.2v1.2v1.2v1.2v1.2v1.2h-1.2v-1.2v-1.2v-1.2v-1.2v-1.2h-1.2h-1.2V51h-1.2h-1.2H158h-1.2h-1.2V49.8z
		 M175.1,52.3v1.2v1.2v1.2v1.2v1.2h-1.2v-1.2v-1.2v-1.2v-1.2v-1.2h-1.2h-1.2V51h-1.2H169h-1.2h-1.2v-1.2h1.2h1.2h1.2h1.2h1.2h1.2V51
		h1.2V52.3z M175.1,42.5v1.2V45v1.2v1.2v1.2h-1.2v-1.2v-1.2V45v-1.2v-1.2h-1.2h-1.2v-1.2h-1.2H169h-1.2h-1.2h-1.2v1.2v1.2V45v1.2
		v1.2v1.2h-1.2v-1.2v-1.2V45v-1.2v-1.2h-1.2h-1.2v-1.2h-1.2h-1.2H158h-1.2h-1.2v-1.2h1.2h1.2h1.2h1.2h1.2h1.2h1.2v1.2h1.2v-1.2h1.2
		h1.2h1.2h1.2h1.2h1.2h1.2v1.2h1.2V42.5z"/>
	<polygon class="st13" points="173.8,58.4 173.8,57.1 173.8,52.3 172.6,52.3 171.4,52.3 171.4,51 170.2,51.1 166.5,51.1 166.5,49.8 
		167.7,49.8 173.8,49.8 173.9,51 175.1,51 175.1,52.3 175.1,58.4 	"/>
	<polygon class="st13" points="173.8,49.8 172.6,49.8 171.4,49.8 170.2,49.8 169,49.8 167.7,49.8 166.5,49.8 166.5,51 167.7,51 
		169,51 170.2,51 171.4,51 171.4,52.3 172.6,52.3 173.8,52.3 173.8,53.5 173.8,54.7 173.8,55.9 173.8,57.1 173.8,58.4 175.1,58.4 
		175.1,57.1 175.1,55.9 175.1,54.7 175.1,53.5 175.1,52.3 175.1,51 173.8,51 	"/>
	<polygon class="st13" points="173.8,48.6 173.8,47.4 173.8,42.5 172.6,42.5 171.4,42.5 171.4,41.3 170.2,41.3 165.3,41.3 
		165.3,40.1 166.5,40 173.8,40 173.9,41.3 175.1,41.3 175.1,42.5 175.1,48.6 	"/>
	<polygon class="st13" points="173.8,40.1 172.6,40.1 171.4,40.1 170.2,40.1 169,40.1 167.7,40.1 166.5,40.1 165.3,40.1 165.3,41.3 
		166.5,41.3 167.7,41.3 169,41.3 170.2,41.3 171.4,41.3 171.4,42.5 172.6,42.5 173.8,42.5 173.8,43.7 173.8,45 173.8,46.2 
		173.8,47.4 173.8,48.6 175.1,48.6 175.1,47.4 175.1,46.2 175.1,45 175.1,43.7 175.1,42.5 175.1,41.3 173.8,41.3 	"/>
	<polygon class="st13" points="164.1,48.6 164.1,47.4 164.1,42.5 162.9,42.5 161.7,42.5 161.6,41.3 160.4,41.3 155.6,41.3 
		155.5,40.1 156.8,40 164.1,40 164.1,41.3 165.3,41.3 165.3,42.5 165.3,48.6 	"/>
	<polygon class="st13" points="164.1,40.1 162.9,40.1 161.7,40.1 160.4,40.1 159.2,40.1 158,40.1 156.8,40.1 155.6,40.1 155.6,41.3 
		156.8,41.3 158,41.3 159.2,41.3 160.4,41.3 161.7,41.3 161.7,42.5 162.9,42.5 164.1,42.5 164.1,43.7 164.1,45 164.1,46.2 
		164.1,47.4 164.1,48.6 165.3,48.6 165.3,47.4 165.3,46.2 165.3,45 165.3,43.7 165.3,42.5 165.3,41.3 164.1,41.3 	"/>
	<polygon class="st13" points="164.1,58.4 164.1,57.1 164.1,52.3 162.9,52.3 161.7,52.3 161.6,51 160.4,51.1 155.6,51.1 155.5,49.8 
		156.8,49.8 164.1,49.8 164.1,51 165.3,51 165.3,52.3 165.3,58.4 	"/>
	<polygon class="st13" points="158,51 159.2,51 160.4,51 161.7,51 161.7,52.3 162.9,52.3 164.1,52.3 164.1,53.5 164.1,54.7 
		164.1,55.9 164.1,57.1 164.1,58.4 165.3,58.4 165.3,57.1 165.3,55.9 165.3,54.7 165.3,53.5 165.3,52.3 165.3,51 164.1,51 
		164.1,49.8 162.9,49.8 161.7,49.8 160.4,49.8 159.2,49.8 158,49.8 156.8,49.8 155.6,49.8 155.6,51 156.8,51 	"/>
</g>
<rect x="183.8" y="-8163.1" class="st0" width="0.1" height="16383"/>
<rect x="110.3" y="38.8" class="st1" width="11" height="11"/>
</svg>
