<?xml version="1.0" encoding="utf-8"?>
<!-- Generator: Adobe Illustrator 19.0.0, SVG Export Plug-In . SVG Version: 6.00 Build 0)  -->
<svg version="1.1" id="Layer_1" xmlns="http://www.w3.org/2000/svg" xmlns:xlink="http://www.w3.org/1999/xlink" x="0px" y="0px"
	 width="550px" height="370px" viewBox="0 0 550 370" style="enable-background:new 0 0 550 370;" xml:space="preserve">
<style type="text/css">
	.st0{fill:#06E8FF;}
	.st1{fill:#3DAEC1;}
	.st2{fill:#3F7582;}
	.st3{fill:#2F4A51;}
	.st4{fill:#6D6D6D;}
	.st5{fill:#353535;}
	.st6{fill:#2A2D2D;}
	.st7{fill:#233538;}
	.st8{fill:#4D4D4D;}
	.st9{fill:#5A5B5B;}
	.st10{fill:#1F292D;}
	.st11{fill:#242F33;}
	.st12{fill:none;}
	.st13{fill:#16E900;}
	.st14{fill:#CCC217;}
	.st15{fill:#55BF00;}
	.st16{fill:#B99200;}
	.st17{fill:#FFFFFF;}
</style>
<g id="XMLID_1_">
	<polygon id="XMLID_2_" class="st0" points="540,0 530,0 520,0 510,0 500,0 500,10 500,20 500,30 500,40 500,50 500,60 500,70 
		490,70 490,80 490,90 490,100 500,100 500,110 500,120 500,130 500,140 500,150 500,160 500,170 500,180 500,190 500,200 510,200 
		520,200 530,200 540,200 550,200 550,190 550,180 550,170 550,160 550,150 550,140 550,130 550,120 550,110 550,100 550,90 550,80 
		550,70 550,60 550,50 550,40 550,30 550,20 550,10 550,0 	"/>
	<polygon id="XMLID_2822_" class="st1" points="530,200 520,200 510,200 500,200 500,190 500,180 500,170 500,160 500,150 500,140 
		500,130 500,120 500,110 500,100 490,100 490,90 490,80 490,70 500,70 500,60 500,50 500,40 500,30 500,20 500,10 500,0 490,0 
		480,0 470,0 470,10 470,20 470,30 460,30 460,40 450,40 450,50 450,60 440,60 440,70 440,80 440,90 450,90 450,100 450,110 
		450,120 450,130 450,140 450,150 450,160 450,170 450,180 450,190 440,190 440,200 440,210 440,220 450,220 450,230 450,240 
		440,240 430,240 420,240 420,250 420,260 420,270 420,280 420,290 410,290 400,290 390,290 380,290 370,290 360,290 350,290 
		340,290 330,290 330,300 320,300 310,300 300,300 290,300 280,300 270,300 260,300 250,300 250,310 250,320 260,320 260,330 
		250,330 240,330 230,330 220,330 210,330 200,330 190,330 180,330 170,330 160,330 150,330 140,330 130,330 130,320 120,320 
		120,330 110,330 100,330 90,330 80,330 70,330 60,330 50,330 40,330 30,330 20,330 10,330 0,330 0,340 0,350 0,360 0,370 10,370 
		20,370 30,370 40,370 50,370 60,370 70,370 80,370 90,370 100,370 110,370 120,370 130,370 140,370 150,370 160,370 170,370 
		180,370 190,370 200,370 210,370 220,370 230,370 240,370 250,370 260,370 270,370 280,370 290,370 300,370 310,370 320,370 
		330,370 340,370 350,370 350,360 350,350 350,340 350,330 350,320 360,320 360,330 360,340 360,350 360,360 360,370 370,370 
		380,370 390,370 400,370 410,370 420,370 430,370 440,370 450,370 460,370 470,370 480,370 490,370 500,370 510,370 520,370 
		530,370 540,370 550,370 550,360 550,350 550,340 550,330 550,320 550,310 550,300 550,290 550,280 550,270 550,260 550,250 
		550,240 550,230 550,220 550,210 550,200 540,200 	"/>
	<polygon id="XMLID_2823_" class="st2" points="370,20 370,30 370,40 360,40 360,50 360,60 350,60 350,70 350,80 350,90 350,100 
		360,100 360,110 370,110 370,120 370,130 370,140 360,140 360,150 360,160 360,170 360,180 350,180 350,190 350,200 350,210 
		340,210 340,220 340,230 340,240 350,240 350,250 360,250 360,260 360,270 360,280 360,290 370,290 380,290 390,290 400,290 
		410,290 420,290 420,280 420,270 420,260 420,250 420,240 430,240 440,240 450,240 450,230 450,220 440,220 440,210 440,200 
		440,190 450,190 450,180 450,170 450,160 450,150 450,140 450,130 450,120 450,110 450,100 450,90 440,90 440,80 440,70 440,60 
		450,60 450,50 450,40 460,40 460,30 470,30 470,20 470,10 470,0 460,0 450,0 440,0 430,0 420,0 410,0 400,0 390,0 380,0 370,0 
		370,10 	"/>
	<polygon id="XMLID_2824_" class="st3" points="360,350 360,340 360,330 360,320 350,320 350,330 350,340 350,350 350,360 350,370 
		360,370 360,360 	"/>
	<rect id="XMLID_2825_" x="310" y="260" class="st4" width="10" height="10"/>
	<polygon id="XMLID_2826_" class="st5" points="300,280 290,280 290,270 280,270 280,260 270,260 260,260 260,250 250,250 250,240 
		240,240 240,230 230,230 230,240 220,240 210,240 200,240 190,240 180,240 180,230 170,230 160,230 160,220 150,220 150,230 
		140,230 140,240 140,250 130,250 120,250 120,260 120,270 120,280 130,280 130,290 130,300 130,310 140,310 150,310 160,310 
		170,310 180,310 180,320 190,320 200,320 210,320 220,320 230,320 240,320 250,320 250,310 250,300 260,300 270,300 280,300 
		290,300 300,300 300,290 	"/>
	<rect id="XMLID_2827_" x="290" y="240" class="st4" width="10" height="10"/>
	<rect id="XMLID_2828_" x="280" y="230" class="st4" width="10" height="10"/>
	<polygon id="XMLID_2829_" class="st4" points="270,220 260,220 260,230 270,230 280,230 280,220 	"/>
	<rect id="XMLID_2830_" x="250" y="240" class="st6" width="10" height="10"/>
	<rect id="XMLID_2831_" x="240" y="230" class="st6" width="10" height="10"/>
	<polygon id="XMLID_2832_" class="st4" points="230,140 220,140 210,140 200,140 190,140 190,150 200,150 210,150 220,150 230,150 
		240,150 240,140 	"/>
	<polygon id="XMLID_2833_" class="st3" points="220,20 220,30 220,40 220,50 220,60 210,60 210,70 210,80 220,80 220,90 230,90 
		230,100 230,110 240,110 240,120 250,120 250,130 260,130 260,140 270,140 280,140 280,150 290,150 290,160 290,170 280,170 
		280,180 270,180 270,190 270,200 260,200 260,210 260,220 270,220 280,220 280,230 290,230 290,240 300,240 300,250 310,250 
		310,260 320,260 320,270 330,270 330,280 330,290 340,290 350,290 360,290 360,280 360,270 360,260 360,250 350,250 350,240 
		340,240 340,230 340,220 340,210 350,210 350,200 350,190 350,180 360,180 360,170 360,160 360,150 360,140 370,140 370,130 
		370,120 370,110 360,110 360,100 350,100 350,90 350,80 350,70 350,60 360,60 360,50 360,40 370,40 370,30 370,20 370,10 370,0 
		360,0 350,0 340,0 330,0 320,0 310,0 300,0 290,0 280,0 270,0 260,0 250,0 240,0 230,0 220,0 220,10 	"/>
	<polygon id="XMLID_2835_" class="st5" points="140,210 150,210 160,210 170,210 180,210 190,210 200,210 210,210 210,200 210,190 
		200,190 190,190 190,180 180,180 170,180 160,180 150,180 140,180 130,180 130,190 130,200 130,210 	"/>
	<rect id="XMLID_2836_" x="110" y="120" class="st4" width="10" height="10"/>
	<polygon id="XMLID_2837_" class="st4" points="110,230 100,230 100,240 100,250 110,250 110,240 	"/>
	<rect id="XMLID_2838_" x="80" y="130" class="st4" width="10" height="10"/>
	<polygon id="XMLID_2839_" class="st4" points="80,180 70,180 70,190 60,190 60,200 70,200 70,210 80,210 80,200 80,190 	"/>
	<rect id="XMLID_2840_" x="70" y="120" class="st4" width="10" height="10"/>
	<rect id="XMLID_2841_" x="60" y="110" class="st4" width="10" height="10"/>
	<polygon id="XMLID_2842_" class="st7" points="60,20 60,30 70,30 70,40 70,50 80,50 80,60 90,60 90,70 100,70 110,70 110,80 
		120,80 120,90 130,90 140,90 140,100 150,100 150,110 150,120 160,120 170,120 170,130 180,130 180,140 190,140 200,140 210,140 
		220,140 230,140 240,140 240,150 240,160 240,170 240,180 230,180 230,190 240,190 240,200 250,200 250,210 260,210 260,200 
		270,200 270,190 270,180 280,180 280,170 290,170 290,160 290,150 280,150 280,140 270,140 260,140 260,130 250,130 250,120 
		240,120 240,110 230,110 230,100 230,90 220,90 220,80 210,80 210,70 210,60 220,60 220,50 220,40 220,30 220,20 220,10 220,0 
		210,0 200,0 190,0 180,0 170,0 160,0 150,0 140,0 130,0 120,0 110,0 100,0 90,0 80,0 70,0 60,0 60,10 	"/>
	<polygon id="XMLID_2843_" class="st4" points="50,280 60,280 70,280 70,290 80,290 80,280 80,270 70,270 60,270 50,270 40,270 
		40,280 	"/>
	<polygon id="XMLID_2844_" class="st8" points="30,220 30,210 30,200 30,190 20,190 20,200 20,210 20,220 20,230 30,230 	"/>
	<polygon id="XMLID_2845_" class="st4" points="20,130 20,140 30,140 30,130 30,120 20,120 	"/>
	<path id="XMLID_2848_" class="st9" d="M20,330h10h10h10h10h10h10h10h10h10h10v-10h10v10h10h10h10h10h10h10h10h10h10h10h10h10h10
		v-10h-10h-10h-10h-10h-10h-10h-10h-10v-10h-10h-10h-10h-10h-10v-10v-10v-10h-10v-10v-10v-10h-10h-10v-10v-10h10v-10h10v-10v-10h10
		v-10v-10h10h10h10h10h10h10v10h10h10v10v10h10h10v10h10v10h10v10h10v10v10h10h10v10h10v10h10v10v10h10h10h10v-10v-10v-10h-10h-10
		v-10v-10h-10h-10v-10h-10v-10h-10h-10v-10v-10h-10v-10h-10v-10h-10v-10h10v-10v-10v-10h-10h-10h-10h-10h-10v-10h-10h-10h-10h-10v10
		h-10v-10h-10v-10h-10h-10h-10H90v10H80v-10H70v-10H60v-10H50H40v10H30v10v10H20v10H10v-10h10v-10v-10v-10H10H0v10v10v10v10v10v10
		v10v10v10v10v10v10v10v10v10v10v10v10v10v10v10v10h10H20z M80,210H70v-10H60v-10h10v-10h10v10v10V210z M50,270h10h10h10v10v10H70
		v-10H60H50H40v-10H50z M10,240v-10h10v-10v-10v-10v-10h10v10v10v10v10H20v10v10H10V240z"/>
	<polygon id="XMLID_2851_" class="st8" points="20,240 20,230 10,230 10,240 10,250 20,250 	"/>
	<rect id="XMLID_2852_" x="10" y="140" class="st4" width="10" height="10"/>
	<polygon id="XMLID_2853_" class="st10" points="20,110 20,120 30,120 40,120 40,110 50,110 60,110 70,110 70,120 80,120 80,130 
		90,130 100,130 110,130 110,120 100,120 90,120 90,110 80,110 80,100 70,100 70,90 70,80 60,80 50,80 50,70 40,70 30,70 30,60 
		20,60 20,50 10,50 0,50 0,60 0,70 0,80 0,90 0,100 0,110 10,110 	"/>
	<polygon id="XMLID_2854_" class="st11" points="20,50 20,60 30,60 30,70 40,70 50,70 50,80 60,80 70,80 70,90 70,100 80,100 
		80,110 90,110 90,120 100,120 110,120 120,120 120,130 130,130 130,140 140,140 140,150 150,150 150,140 160,140 170,140 180,140 
		180,130 170,130 170,120 160,120 150,120 150,110 150,100 140,100 140,90 130,90 120,90 120,80 110,80 110,70 100,70 90,70 90,60 
		80,60 80,50 70,50 70,40 70,30 60,30 60,20 60,10 60,0 50,0 40,0 30,0 20,0 10,0 0,0 0,10 0,20 0,30 0,40 0,50 10,50 	"/>
</g>
<g id="XMLID_476_">
	<polygon id="XMLID_477_" class="st12" points="518,360 518,360 518,360 518.1,357.3 518,357.3 	"/>
	<polygon id="XMLID_972_" class="st12" points="474,360 474,360 474,360 474.1,357.3 474,357.3 	"/>
	<polygon id="XMLID_973_" class="st12" points="-7,360 -7,360 -7,360 -6.9,357.3 -7,357.3 	"/>
	<path id="XMLID_974_" class="st12" d="M44.4,348l0.2,2L44.4,348z"/>
	<polygon id="XMLID_975_" class="st12" points="506,346 506,343 505.8,343 	"/>
	<polygon id="XMLID_976_" class="st12" points="68,347.6 68,347.5 62,347.7 	"/>
	<polygon id="XMLID_977_" class="st12" points="506,357.5 506,355 505.8,355 	"/>
	<polygon id="XMLID_978_" class="st12" points="430,360 430,360 430,360 430.1,357.3 430,357.3 	"/>
	<polygon id="XMLID_979_" class="st12" points="462,357.5 462,355 461.8,355 	"/>
	<path id="XMLID_980_" class="st12" d="M525.4,216l0.2,2L525.4,216z"/>
	<path id="XMLID_981_" class="st12" d="M481.4,348l0.2,2L481.4,348z"/>
	<polygon id="XMLID_982_" class="st12" points="506,347.6 506,347.5 499,347.7 	"/>
	<polygon id="XMLID_983_" class="st12" points="324,302.3 309.4,302.5 309.4,302.5 	"/>
	<polygon id="XMLID_984_" class="st12" points="25,355 24.8,355 25,357.5 	"/>
	<polygon id="XMLID_985_" class="st12" points="34.6,331 34.6,331 34.6,331 34.8,333.1 	"/>
	<polygon id="XMLID_986_" class="st12" points="49.4,330.5 49.3,328.3 49.4,330.5 46.8,330.7 47,333 46.8,330.7 	"/>
	<polygon id="XMLID_987_" class="st12" points="49,328.3 51.8,328.1 49,328.3 49,328 49.1,328 49.2,328.2 49,328.2 	"/>
	<polygon id="XMLID_988_" class="st12" points="5.4,330.5 5.3,328.3 5.4,330.5 2.8,330.7 3,333 2.8,330.7 	"/>
	<polygon id="XMLID_989_" class="st12" points="156,317 156,312.2 156,316.8 	"/>
	<polygon id="XMLID_990_" class="st12" points="-9.4,331 -9.4,331 -9.4,331 -9.2,333.1 	"/>
	<polygon id="XMLID_991_" class="st12" points="68,328 59,328.3 68,328.1 	"/>
	<polygon id="XMLID_992_" class="st12" points="25,343 25,341 25,336 25,335.7 25,333 24.8,333 	"/>
	<polygon id="XMLID_993_" class="st12" points="24.8,328.3 25,333 25,328 24.8,328 24.8,328 15,328.3 24.8,328.1 	"/>
	<polygon id="XMLID_994_" class="st12" points="25,347.6 25,347.5 18,347.7 	"/>
	<polygon id="XMLID_995_" class="st12" points="5,328.3 7.8,328.1 5,328.3 5,328 5.1,328 5.2,328.2 5,328.2 	"/>
	<polygon id="XMLID_996_" class="st12" points="25,346 25,343 24.8,343 	"/>
	<path id="XMLID_997_" class="st12" d="M0.4,348l0.2,2L0.4,348z"/>
	<polygon id="XMLID_998_" class="st12" points="427.6,331 427.6,331 427.6,331 427.8,333.1 	"/>
	<polygon id="XMLID_999_" class="st12" points="530.4,330.5 530.3,328.3 530.4,330.5 527.8,330.7 528,333 527.8,330.7 	"/>
	<polygon id="XMLID_1000_" class="st12" points="518,316 518,316 518,316 518.1,313.3 518,313.3 	"/>
	<polygon id="XMLID_1001_" class="st12" points="530,328.3 532.8,328.1 530,328.3 530,328 530.1,328 530.2,328.2 530,328.2 	"/>
	<polygon id="XMLID_1002_" class="st12" points="474,316 474,316 474,316 474.1,313.3 474,313.3 	"/>
	<polygon id="XMLID_1003_" class="st12" points="462,347.6 462,347.5 455,347.7 	"/>
	<polygon id="XMLID_1004_" class="st12" points="506,335.7 506,333 505.8,333 506,343 506,341 506,336 	"/>
	<polygon id="XMLID_1005_" class="st12" points="331,299.9 324,300.1 331,300 	"/>
	<polygon id="XMLID_1006_" class="st12" points="368,302.2 353.4,302.4 353.4,302.4 	"/>
	<polygon id="XMLID_1007_" class="st12" points="506,313.5 506,311 505.8,311 	"/>
	<polygon id="XMLID_1008_" class="st12" points="353,299.8 353,299.8 350.7,300 351,302.2 351,300 	"/>
	<path id="XMLID_1009_" class="st12" d="M525.4,304l0.2,2L525.4,304z"/>
	<polygon id="XMLID_1010_" class="st12" points="396.5,303 396.5,300.2 396.4,300.3 	"/>
	<polygon id="XMLID_1011_" class="st12" points="515.6,331 515.6,331 515.6,331 515.8,333.1 	"/>
	<polygon id="XMLID_1012_" class="st12" points="131.5,300 133.8,299.8 133.8,299.8 131.4,300 131.6,302.2 129,302.4 131.6,302.2 	
		"/>
	<polygon id="XMLID_1013_" class="st12" points="461.8,328.3 462,333 462,328 461.8,328 461.8,328 452,328.3 461.8,328.1 	"/>
	<polygon id="XMLID_1014_" class="st12" points="462,346 462,343 461.8,343 	"/>
	<polygon id="XMLID_1015_" class="st12" points="442,328.3 444.8,328.1 442,328.3 442,328 442.1,328 442.2,328.2 442,328.2 	"/>
	<polygon id="XMLID_1016_" class="st12" points="481.7,211.1 484,210.9 484,210.9 481.6,211.1 481.7,213.3 479,213.5 481.7,213.3 	
		"/>
	<polygon id="XMLID_1017_" class="st12" points="486.4,330.5 486.3,328.3 486.4,330.5 483.8,330.7 484,333 483.8,330.7 	"/>
	<path id="XMLID_1018_" class="st12" d="M437.4,348l0.2,2L437.4,348z"/>
	<polygon id="XMLID_1019_" class="st12" points="505.8,328.3 506,333 506,328 505.8,328 505.8,328 496,328.3 505.8,328.1 	"/>
	<polygon id="XMLID_1020_" class="st12" points="471.6,331 471.6,331 471.6,331 471.8,333.1 	"/>
	<polygon id="XMLID_1021_" class="st12" points="442.4,330.5 442.3,328.3 442.4,330.5 439.8,330.7 440,333 439.8,330.7 	"/>
	<polygon id="XMLID_1022_" class="st12" points="486,328.3 488.8,328.1 486,328.3 486,328 486.1,328 486.2,328.2 486,328.2 	"/>
	<polygon id="XMLID_1023_" class="st12" points="462,335.7 462,333 461.8,333 462,343 462,341 462,336 	"/>
	<polygon id="XMLID_1024_" class="st12" points="499,213.3 484.3,213.5 484.3,213.5 	"/>
	<path id="XMLID_1025_" class="st12" d="M525.4,348l0.2,2L525.4,348z"/>
	<polygon id="XMLID_1026_" class="st12" points="506,259.6 506,259.5 499,259.7 	"/>
	<path id="XMLID_1027_" class="st12" d="M481.4,260l0.2,2L481.4,260z"/>
	<path id="XMLID_1028_" class="st12" d="M525.4,260l0.2,2L525.4,260z"/>
	<polygon id="XMLID_1029_" class="st12" points="506,269.5 506,267 505.8,267 	"/>
	<polygon id="XMLID_1030_" class="st12" points="156,298.7 156,297 155.8,297 	"/>
	<polygon id="XMLID_1031_" class="st12" points="200,298.7 200,297 199.8,297 	"/>
	<polygon id="XMLID_1032_" class="st12" points="506,303.6 506,303.5 499,303.7 	"/>
	<polygon id="XMLID_1033_" class="st12" points="474,272 474,272 474,272 474.1,269.3 474,269.3 	"/>
	<polygon id="XMLID_1034_" class="st12" points="462,313.5 462,311 461.8,311 	"/>
	<polygon id="XMLID_1035_" class="st12" points="430,316 430,316 430,316 430.1,313.3 430,313.3 	"/>
	<polygon id="XMLID_1036_" class="st12" points="486,240.3 488.8,240.1 486,240.3 486,240 486.1,240 486.2,240.2 486,240.2 	"/>
	<polygon id="XMLID_1037_" class="st12" points="505.8,240.3 506,245 506,240 505.8,240 505.8,240 496,240.3 505.8,240.1 	"/>
	<path id="XMLID_1038_" class="st12" d="M481.4,304l0.2,2L481.4,304z"/>
	<polygon id="XMLID_1039_" class="st12" points="244,298.7 244,297 243.8,297 	"/>
	<polygon id="XMLID_1040_" class="st12" points="486.4,286.5 486.3,284.3 486.4,286.5 483.8,286.7 484,289 483.8,286.7 	"/>
	<polygon id="XMLID_1041_" class="st12" points="471.6,243 471.6,243 471.6,243 471.8,245.1 	"/>
	<polygon id="XMLID_1042_" class="st12" points="486,284.3 488.8,284.1 486,284.3 486,284 486.1,284 486.2,284.2 486,284.2 	"/>
	<polygon id="XMLID_1043_" class="st12" points="442.4,286.5 442.3,284.3 442.4,286.5 439.8,286.7 440,289 439.8,286.7 	"/>
	<polygon id="XMLID_1044_" class="st12" points="506,299 506,297 506,292 506,291.7 506,289 505.8,289 	"/>
	<polygon id="XMLID_1045_" class="st12" points="505.8,284.3 506,289 506,284 505.8,284 505.8,284 496,284.3 505.8,284.1 	"/>
	<polygon id="XMLID_1046_" class="st12" points="462,303.6 462,303.5 455,303.7 	"/>
	<polygon id="XMLID_1047_" class="st12" points="462,299 462,297 462,292 462,291.7 462,289 461.8,289 	"/>
	<polygon id="XMLID_1048_" class="st12" points="461.8,284.3 462,289 462,284 461.8,284 461.8,284 452,284.3 461.8,284.1 	"/>
	<polygon id="XMLID_1049_" class="st12" points="442,284.3 444.8,284.1 442,284.3 442,284 442.1,284 442.2,284.2 442,284.2 	"/>
	<polygon id="XMLID_1050_" class="st12" points="462,302 462,299 461.8,299 	"/>
	<polygon id="XMLID_1051_" class="st12" points="506,258 506,255 505.8,255 	"/>
	<path id="XMLID_1052_" class="st12" d="M437.4,304l0.2,2L437.4,304z"/>
	<polygon id="XMLID_1053_" class="st12" points="437.7,255.1 440,254.9 440,254.9 437.6,255.1 437.7,257.3 435,257.5 437.7,257.3 	
		"/>
	<polygon id="XMLID_1054_" class="st12" points="200,299.8 193,300 200,299.9 	"/>
	<polygon id="XMLID_1055_" class="st12" points="244,299.8 237,300 244,299.9 	"/>
	<polygon id="XMLID_1056_" class="st12" points="156,299.8 149,300 156,299.9 	"/>
	<polygon id="XMLID_1057_" class="st12" points="530,240.3 532.8,240.1 530,240.3 530,240 530.1,240 530.2,240.2 530,240.2 	"/>
	<polygon id="XMLID_1058_" class="st12" points="530.4,242.5 530.3,240.3 530.4,242.5 527.8,242.7 528,245 527.8,242.7 	"/>
	<polygon id="XMLID_1059_" class="st12" points="281,302.2 266.3,302.4 266.3,302.4 	"/>
	<polygon id="XMLID_1060_" class="st12" points="515.6,243 515.6,243 515.6,243 515.8,245.1 	"/>
	<polygon id="XMLID_1061_" class="st12" points="175.5,300 177.8,299.8 177.8,299.8 175.4,300 175.6,302.2 173,302.4 175.6,302.2 	
		"/>
	<polygon id="XMLID_1062_" class="st12" points="518,228 518,228 518,228 518.1,225.3 518,225.3 	"/>
	<polygon id="XMLID_1063_" class="st12" points="200,309.8 200,307 200,305 199.8,305 	"/>
	<polygon id="XMLID_1064_" class="st12" points="244,309.8 244,307 244,305 243.8,305 	"/>
	<polygon id="XMLID_1065_" class="st12" points="263.6,300 266,299.8 266,299.8 263.6,300 263.7,302.2 261,302.4 263.7,302.2 	"/>
	<polygon id="XMLID_1066_" class="st12" points="219.5,300 221.8,299.8 221.8,299.8 219.4,300 219.6,302.2 217,302.4 219.6,302.2 	
		"/>
	<polygon id="XMLID_1067_" class="st12" points="455,257.3 440.3,257.5 440.3,257.5 	"/>
	<polygon id="XMLID_1068_" class="st12" points="506,247.7 506,245 505.8,245 506,255 506,253 506,248 	"/>
	<polygon id="XMLID_1069_" class="st12" points="200,297 200,293 200,292.4 200,290.2 200,290 200,285.2 200,285 199.8,285 	"/>
	<polygon id="XMLID_1070_" class="st12" points="530,284.3 532.8,284.1 530,284.3 530,284 530.1,284 530.2,284.2 530,284.2 	"/>
	<polygon id="XMLID_1071_" class="st12" points="244,297 244,293 244,292.4 244,290.2 244,290 244,285 243.8,285 	"/>
	<polygon id="XMLID_1072_" class="st12" points="518,272 518,272 518,272 518.1,269.3 518,269.3 	"/>
	<polygon id="XMLID_1073_" class="st12" points="176.7,106 167,106 167,116 167,126 176.7,126 187,126 187,136 187,146 187,156 
		196.7,156 206.7,156 216.7,156 226.7,156 237,156 237,146 246.7,146 256.7,146 266.7,146 276.7,146 287,146 287,156 287,166 
		296.7,166 306.7,166 316.7,166 326.7,166 336.7,166 346.7,166 356.7,166 366.7,166 376.7,166 387,166 387,156 387,146 387,136 
		387,126 387,116 376.7,116 366.7,116 356.7,116 346.7,116 336.7,116 326.7,116 316.7,116 306.7,116 296.7,116 286.7,116 276.7,116 
		266.7,116 256.7,116 246.7,116 236.7,116 226.7,116 216.7,116 206.7,116 197,116 197,106 186.7,106 	"/>
	<polygon id="XMLID_1074_" class="st12" points="515.6,287 515.6,287 515.6,287 515.8,289.1 	"/>
	<polygon id="XMLID_1075_" class="st12" points="471.6,287 471.6,287 471.6,287 471.8,289.1 	"/>
	<polygon id="XMLID_1076_" class="st12" points="156,297 156,293 156,292.4 156,290.2 156,290 156,285.2 156,285 155.8,285 	"/>
	<polygon id="XMLID_1077_" class="st12" points="530.4,286.5 530.3,284.3 530.4,286.5 527.8,286.7 528,289 527.8,286.7 	"/>
	<polygon id="XMLID_1078_" class="st12" points="156,309.8 156,307 156,305 155.8,305 	"/>
	<polygon id="XMLID_1079_" class="st12" points="427.6,287 427.6,287 427.6,287 427.8,289.1 	"/>
	<polygon id="XMLID_1080_" class="st12" points="486.4,242.5 486.3,240.3 486.4,242.5 483.8,242.7 484,245 483.8,242.7 	"/>
	<polygon id="XMLID_1081_" class="st12" points="199,347.6 199,347.5 193,347.7 	"/>
	<polygon id="XMLID_1082_" class="st12" points="375,347.6 375,347.5 368,347.7 	"/>
	<polygon id="XMLID_1083_" class="st12" points="299,360 299,360 299,360 299.1,357.3 299,357.3 	"/>
	<path id="XMLID_1084_" class="st12" d="M394.4,348l0.2,2L394.4,348z"/>
	<polygon id="XMLID_1085_" class="st12" points="375,357.5 375,355 374.8,355 	"/>
	<polygon id="XMLID_1086_" class="st12" points="343,360 343,360 343,360 343.1,357.3 343,357.3 	"/>
	<polygon id="XMLID_1087_" class="st12" points="311,328.3 313.8,328.1 311,328.3 311,328 311.1,328 311.2,328.2 311,328.2 	"/>
	<polygon id="XMLID_1088_" class="st12" points="331,347.6 331,347.5 324,347.7 	"/>
	<polygon id="XMLID_1089_" class="st12" points="418,347.6 418,347.5 412,347.7 	"/>
	<polygon id="XMLID_1090_" class="st12" points="330.8,328.3 331,333 331,328 330.8,328 330.8,328 321,328.3 330.8,328.1 	"/>
	<path id="XMLID_1091_" class="st12" d="M350.4,348l0.2,2L350.4,348z"/>
	<polygon id="XMLID_1092_" class="st12" points="331,357.5 331,355 330.8,355 	"/>
	<polygon id="XMLID_1093_" class="st12" points="375,346 375,343 374.8,343 	"/>
	<path id="XMLID_1094_" class="st12" d="M175.4,348l0.2,2L175.4,348z"/>
	<polygon id="XMLID_1095_" class="st12" points="374.8,328.3 375,333 375,328 374.8,328 374.8,328 365,328.3 374.8,328.1 	"/>
	<polygon id="XMLID_1096_" class="st12" points="340.6,331 340.6,331 340.6,331 340.8,333.1 	"/>
	<polygon id="XMLID_1097_" class="st12" points="387,360 387,360 387,360 387.1,357.3 387,357.3 	"/>
	<polygon id="XMLID_1098_" class="st12" points="355,328.3 357.8,328.1 355,328.3 355,328 355.1,328 355.2,328.2 355,328.2 	"/>
	<polygon id="XMLID_1099_" class="st12" points="506,302 506,299 505.8,299 	"/>
	<polygon id="XMLID_1100_" class="st12" points="168,360 168,360 168,360 168.1,357.3 168,357.3 	"/>
	<polygon id="XMLID_1101_" class="st12" points="311.4,330.5 311.3,328.3 311.4,330.5 308.8,330.7 309,333 308.8,330.7 	"/>
	<polygon id="XMLID_1102_" class="st12" points="156,355 155.8,355 156,357.5 	"/>
	<polygon id="XMLID_1103_" class="st12" points="331,335.7 331,333 330.8,333 331,343 331,341 331,336 	"/>
	<polygon id="XMLID_1104_" class="st12" points="124,360 124,360 124,360 124.1,357.3 124,357.3 	"/>
	<path id="XMLID_1105_" class="st12" d="M306.4,348l0.2,2L306.4,348z"/>
	<polygon id="XMLID_1106_" class="st12" points="242.8,328.3 243,333 243,328 242.8,328 242.8,328 233,328.3 242.8,328.1 	"/>
	<path id="XMLID_1107_" class="st12" d="M218.4,348l0.2,2L218.4,348z"/>
	<polygon id="XMLID_1108_" class="st12" points="243,346 243,343 242.8,343 	"/>
	<polygon id="XMLID_1109_" class="st12" points="530.4,198.5 530.3,196.3 530.4,198.5 527.8,198.7 528,201 527.8,198.7 	"/>
	<polygon id="XMLID_1110_" class="st12" points="267.4,330.5 267.3,328.3 267.4,330.5 264.8,330.7 265,333 264.8,330.7 	"/>
	<polygon id="XMLID_1111_" class="st12" points="208.6,331 208.6,331 208.6,331 208.8,333.1 	"/>
	<polygon id="XMLID_1112_" class="st12" points="243,335.7 243,333 242.8,333 243,343 243,341 243,336 	"/>
	<polygon id="XMLID_1113_" class="st12" points="223,328.3 225.8,328.1 223,328.3 223,328 223.1,328 223.2,328.2 223,328.2 	"/>
	<polygon id="XMLID_1114_" class="st12" points="252.6,331 252.6,331 252.6,331 252.8,333.1 	"/>
	<polygon id="XMLID_1115_" class="st12" points="286.8,328.3 287,333 287,328 286.8,328 286.8,328 277,328.3 286.8,328.1 	"/>
	<polygon id="XMLID_1116_" class="st12" points="267,328.3 269.8,328.1 267,328.3 267,328 267.1,328 267.2,328.2 267,328.2 	"/>
	<polygon id="XMLID_1117_" class="st12" points="255,360 255,360 255,360 255.1,357.3 255,357.3 	"/>
	<polygon id="XMLID_1118_" class="st12" points="287,347.6 287,347.5 280,347.7 	"/>
	<polygon id="XMLID_1119_" class="st12" points="296.6,331 296.6,331 296.6,331 296.8,333.1 	"/>
	<polygon id="XMLID_1120_" class="st12" points="243,347.6 243,347.5 236,347.7 	"/>
	<polygon id="XMLID_1121_" class="st12" points="223.4,330.5 223.3,328.3 223.4,330.5 220.8,330.7 221,333 220.8,330.7 	"/>
	<polygon id="XMLID_1122_" class="st12" points="287,357.5 287,355 286.8,355 	"/>
	<polygon id="XMLID_1123_" class="st12" points="331,346 331,343 330.8,343 	"/>
	<polygon id="XMLID_1124_" class="st12" points="287,346 287,343 286.8,343 	"/>
	<polygon id="XMLID_1125_" class="st12" points="211,360 211,360 211,360 211.1,357.3 211,357.3 	"/>
	<polygon id="XMLID_1126_" class="st12" points="287,335.7 287,333 286.8,333 287,343 287,341 287,336 	"/>
	<polygon id="XMLID_1127_" class="st12" points="243,357.5 243,355 242.8,355 	"/>
	<path id="XMLID_1128_" class="st12" d="M262.4,348l0.2,2L262.4,348z"/>
	<polygon id="XMLID_1129_" class="st12" points="80,360 80,360 80,360 80.1,357.3 80,357.3 	"/>
	<polygon id="XMLID_1130_" class="st12" points="515.6,199 515.6,199 515.6,199 515.8,201.1 	"/>
	<polygon id="XMLID_1131_" class="st12" points="112,346 112,343 111.8,343 	"/>
	<polygon id="XMLID_1132_" class="st12" points="111.8,328.3 112,333 112,328 111.8,328 111.8,328 102,328.3 111.8,328.1 	"/>
	<polygon id="XMLID_1133_" class="st12" points="77.6,331 77.6,331 77.6,331 77.8,333.1 	"/>
	<polygon id="XMLID_1134_" class="st12" points="92.4,330.5 92.3,328.3 92.4,330.5 89.8,330.7 90,333 89.8,330.7 	"/>
	<polygon id="XMLID_1135_" class="st12" points="136.4,330.5 136.3,328.3 136.4,330.5 133.8,330.7 134,333 133.8,330.7 	"/>
	<polygon id="XMLID_1136_" class="st12" points="136,328.3 138.8,328.1 136,328.3 136,328 136.1,328 136.2,328.2 136,328.2 	"/>
	<polygon id="XMLID_1137_" class="st12" points="155.8,328.3 156,333 156,328 155.8,328 155.8,328 146,328.3 155.8,328.1 	"/>
	<polygon id="XMLID_1138_" class="st12" points="121.6,331 121.6,331 121.6,331 121.8,333.1 	"/>
	<polygon id="XMLID_1139_" class="st12" points="112,335.7 112,333 111.8,333 112,343 112,341 112,336 	"/>
	<polygon id="XMLID_1140_" class="st12" points="92,328.3 94.8,328.1 92,328.3 92,328 92.1,328 92.2,328.2 92,328.2 	"/>
	<polygon id="XMLID_1141_" class="st12" points="309,299.9 309,299.9 306.7,300.1 307,302.3 307,300.1 	"/>
	<polygon id="XMLID_1142_" class="st12" points="37,360 37,360 37,360 37.1,357.3 37,357.3 	"/>
	<polygon id="XMLID_1143_" class="st12" points="244,317 244,317 244,312.2 244,316.9 	"/>
	<polygon id="XMLID_1144_" class="st12" points="200,317 200,312.2 200,316.8 	"/>
	<polygon id="XMLID_1145_" class="st12" points="525.4,167.1 525.6,169.3 523,169.5 525.6,169.3 525.5,167.1 527.8,166.9 
		527.8,166.9 	"/>
	<polygon id="XMLID_1146_" class="st12" points="399.4,330.5 399.3,328.3 399.4,330.5 396.8,330.7 397,333 396.8,330.7 	"/>
	<path id="XMLID_1147_" class="st12" d="M87.4,348l0.2,2L87.4,348z"/>
	<polygon id="XMLID_1148_" class="st12" points="399,328.3 401.8,328.1 399,328.3 399,328 399.1,328 399.2,328.2 399,328.2 	"/>
	<polygon id="XMLID_1149_" class="st12" points="112,347.6 112,347.5 105,347.7 	"/>
	<polygon id="XMLID_1150_" class="st12" points="156,347.6 156,347.5 149,347.7 	"/>
	<polygon id="XMLID_1151_" class="st12" points="180.4,330.5 180.3,328.3 180.4,330.5 177.8,330.7 178,333 177.8,330.7 	"/>
	<polygon id="XMLID_1152_" class="st12" points="156,343 155.8,343 156,346 	"/>
	<polygon id="XMLID_1153_" class="st12" points="384.6,331 384.6,331 384.6,331 384.8,333.1 	"/>
	<polygon id="XMLID_1154_" class="st12" points="418,328 409,328.3 418,328.1 	"/>
	<polygon id="XMLID_1155_" class="st12" points="375,335.7 375,333 374.8,333 375,343 375,341 375,336 	"/>
	<polygon id="XMLID_1156_" class="st12" points="530,196.3 532.8,196.1 530,196.3 530,196 530.1,196 530.2,196.2 530,196.2 	"/>
	<polygon id="XMLID_1157_" class="st12" points="355.4,330.5 355.3,328.3 355.4,330.5 352.8,330.7 353,333 352.8,330.7 	"/>
	<polygon id="XMLID_1158_" class="st12" points="112,355 111.8,355 112,357.5 	"/>
	<path id="XMLID_1159_" class="st12" d="M131.4,348l0.2,2L131.4,348z"/>
	<polygon id="XMLID_1160_" class="st12" points="156,336 156,335.7 156,333 155.8,333 156,343 156,341 	"/>
	<polygon id="XMLID_1161_" class="st12" points="180,328.3 182.8,328.1 180,328.3 180,328 180.1,328 180.2,328.2 180,328.2 	"/>
	<polygon id="XMLID_1162_" class="st12" points="199,328 190,328.3 199,328.1 	"/>
	<polygon id="XMLID_1163_" class="st12" points="165.6,331 165.6,331 165.6,331 165.8,333.1 	"/>
	<rect id="XMLID_1164_" x="504" y="194" class="st13" width="2" height="2"/>
	<polygon id="XMLID_1165_" class="st14" points="467,235.4 467,233 471.9,233 472,233 472,231 474.3,231 474.5,233 486.5,233 
		487,233 487,231 491,231 491,228 494,228 494,231 494.1,231 498.7,231 499,231 499,228 506,228 506,223.3 499,223.5 499,225.7 
		494,225.9 494,225.7 494,223.3 491,223.5 491,225.7 487,225.9 487,228 474.5,228 474.3,225.5 472,225.9 472,228 467,228 467,231 
		462,231 462,235.4 462,236 467,236 	"/>
	<polygon id="XMLID_1166_" class="st14" points="465,221 479,221 479,218 481.7,218 481.9,218 481.7,216 484.1,216 484.3,218 
		499,218 499,216 506,216 506,210.9 499,211.1 499,213.3 484,213.8 484,214 484.3,214 484.1,211.2 481.7,211.2 481.8,213.4 
		479,213.5 479,215.7 479,216 465,216 465,218 462,218 462,223 465,223 	"/>
	<polygon id="XMLID_1167_" class="st15" points="465,203.6 465,204 469,204 469,209 469.7,209 477,209 477,204 504,204 504,209 
		506,209 506,208.5 506,204 506,203.7 506,196.4 506,196 504,196 504,194 499,194 499,196 498.7,196 496,196 496,199 496.3,199 
		496,199 494.1,199 494,199 494,196 486.7,196 486,196 486,194 479,194 479,196 477,196 477,194 472,194 472,196 471.9,196 467,196 
		467,194 462,194 462,201 465,201 	"/>
	<polygon id="XMLID_1168_" class="st13" points="486.7,196 494,196 494,199 494.1,199 496,199 496,196 498.7,196 499,196 499,194 
		498.7,194 486.7,194 486,194 486,196 	"/>
	<line id="XMLID_1169_" class="st12" x1="496" y1="199" x2="496" y2="199"/>
	<rect id="XMLID_1170_" x="477" y="194" class="st13" width="2" height="2"/>
	<polygon id="XMLID_1171_" class="st13" points="471.9,196 472,196 472,194 471.9,194 467,194 467,196 	"/>
	<rect id="XMLID_1172_" x="462" y="204" class="st15" width="3" height="5"/>
	<polygon id="XMLID_1173_" class="st13" points="465,203.6 465,201 462,201 462,201.4 462,203.6 462,204 465,204 	"/>
	<polygon id="XMLID_1174_" class="st13" points="549.8,152 550,152 549.8,150 547,150 547,152 	"/>
	<polygon id="XMLID_1175_" class="st14" points="511,191.4 511,189 515.6,189 516,189 516,187 518,187 518.2,189 530,189 530,187 
		535,187 535,184 538,184 538,187 542.4,187 543,187 543,184 549.8,184 550,184 550,183.9 550,179.3 543,179.5 543,181.7 538,181.9 
		538,181.7 538,179.3 535,179.5 535,181.7 530,181.9 530,184 518.2,184 518.1,181.5 516,181.9 516,184 511,184 511,187 506,187 
		506,191.4 506,192 511,192 	"/>
	<polygon id="XMLID_1176_" class="st16" points="511,184 516,184 516,181.9 518.1,181.5 518.2,184 530,184 530,181.9 535,181.7 
		535,179.5 538,179.3 538,181.7 538,181.9 543,181.7 543,179.5 550,179.3 550,179.3 550.1,179.3 549.8,172 549.8,172 543,172 
		543,174 528,174 527.8,172 525.4,172 525.6,174 525.4,174 523,174 523,177 508,177 508,179 508,179.3 508,179 506,179 506,179.3 
		506,187 511,187 	"/>
	<polygon id="XMLID_1177_" class="st14" points="508,177 523,177 523,174 525.4,174 525.6,174 525.4,172 527.8,172 528,174 543,174 
		543,172 549.8,172 549.8,172 550,172 550,167 543,167.1 543,169.3 528.2,169.5 527.8,166.9 525.5,167.1 525.6,169.3 523,169.5 
		523,171.7 523,172 508,172 508,174 506,174 506,179 508,179 	"/>
	<line id="XMLID_1178_" class="st12" x1="506" y1="179" x2="506" y2="179"/>
	<line id="XMLID_1179_" class="st12" x1="508" y1="179" x2="508" y2="179"/>
	<polygon id="XMLID_1180_" class="st16" points="508,172 523,172 523,171.7 523,169.5 525.6,169.3 525.4,167.1 527.8,166.9 
		527.8,166.9 528.2,169.5 543,169.3 543,167.1 550,166.9 550.1,167.2 549.8,165 547,165 547,160 521,160 521,165 513.4,165 513,165 
		513,160 508,160 508,165 506,165 506,174 508,174 	"/>
	<polygon id="XMLID_1181_" class="st15" points="508,159.6 508,160 513,160 513,165 513.4,165 521,165 521,160 547,160 547,165 
		549.8,165 550,165 549.8,152 547,152 547,150 543,150 543,152 542.4,152 540,152 540,155 538,155 537.8,155 538,155 538,152 
		530.4,152 530,152 530,150 523,150 523,152 521,152 521,150 516,150 516,152 515.6,152 511,152 511,150 506,150 506,157 508,157 	
		"/>
	<polygon id="XMLID_1182_" class="st13" points="530.4,152 538,152 538,155 540,155 540,152 542.4,152 543,152 543,150 542.4,150 
		530.4,150 530,150 530,152 	"/>
	<line id="XMLID_1183_" class="st12" x1="538" y1="155" x2="538" y2="155"/>
	<rect id="XMLID_1184_" x="521" y="150" class="st13" width="2" height="2"/>
	<polygon id="XMLID_1185_" class="st13" points="515.6,152 516,152 516,150 515.6,150 511,150 511,152 	"/>
	<rect id="XMLID_1186_" x="506" y="160" class="st15" width="2" height="5"/>
	<polygon id="XMLID_1187_" class="st13" points="508,159.6 508,157 506,157 506,157.4 506,159.6 506,160 508,160 	"/>
	<rect id="XMLID_1188_" x="416" y="283" class="st13" width="2" height="2"/>
	<polygon id="XMLID_1189_" class="st14" points="411,314.7 406,314.9 406,314.7 406,312.3 404,312.5 404,314.7 399,314.9 399,317 
		386.8,317 386.4,314.5 384,314.9 384,317 379,317 379,320 375,320 375,325 379,325 379,324.4 379,322 384,322 384,320 386.6,320 
		386.8,322 398.8,322 399,322 399,320 404,320 404,317 406,317 406,320 406.4,320 411,320 411,317 418,317 418,312.3 411,312.5 	"/>
	<polygon id="XMLID_1190_" class="st13" points="406,285 406,288 406.4,288 408.6,288 409,288 409,285 411,285 411,283 399,283 
		399,285 	"/>
	<rect id="XMLID_1191_" x="389" y="283" class="st13" width="3" height="2"/>
	<rect id="XMLID_1192_" x="379" y="283" class="st13" width="5" height="2"/>
	<polygon id="XMLID_1193_" class="st13" points="377,290 375.3,290 375.3,293 377,293 377,292.6 	"/>
	<polygon id="XMLID_1194_" class="st13" points="375.2,285 375.4,285 375.2,283 375.2,283 375.2,282.9 375.2,283 373,283 373,285 	
		"/>
	<polygon id="XMLID_1195_" class="st14" points="375.4,312 377,312 377,310 392,310 392,307 394,307 394.2,307 394,305 396.4,305 
		396.6,307 411,307 411,305 418,305 418,299.9 411,300.1 411,302.3 397,302.8 397,303 396.5,303 396.4,300.2 394.1,300.2 
		394.4,302.4 392,302.5 392,304.7 392,305 377,305 377,307 375.3,307 	"/>
	<polygon id="XMLID_1196_" class="st14" points="363.2,320 367.8,320 368,320 368,317 375.2,317 375.4,317 375.2,312 368,312.4 
		368,314.6 363,314.8 363,314.6 363,312.2 361,312.4 361,314.6 356,314.8 356,317 343.6,317 343.3,314.5 341,314.8 341,317 336,317 
		336,320 331,320 331,324.3 331,325 336,325 336,324.3 336,322 341,322 341,320 343.4,320 343.6,322 355.6,322 356,322 356,320 
		361,320 361,317 363,317 363,320 	"/>
	<polygon id="XMLID_1197_" class="st14" points="331.4,312 334,312 334,310 348,310 348,307 350.8,307 351,307 350.8,305 353.2,305 
		353.4,307 368,307 368,305 375.2,305 375.4,305 375.2,299.9 368,300 368,302.2 353,302.2 353,302 353.4,302 353.3,299.6 351,300 
		351,302.2 348,302.4 348,304.6 348,305 334,305 334,307 331.3,307 	"/>
	<polygon id="XMLID_1198_" class="st13" points="363,285 363,288 363.2,288 365.4,288 366,288 366,285 367.8,285 368,285 368,283 
		367.8,283 356,283 356,285 	"/>
	<line id="XMLID_1199_" class="st12" x1="356" y1="285" x2="356" y2="285"/>
	<line id="XMLID_1200_" class="st12" x1="356" y1="283" x2="356" y2="283"/>
	<rect id="XMLID_1201_" x="346" y="283" class="st13" width="2" height="2"/>
	<rect id="XMLID_1202_" x="336" y="283" class="st13" width="5" height="2"/>
	<polygon id="XMLID_1203_" class="st13" points="334,290 331.3,290 331.3,293 334,293 334,292.5 	"/>
	<polygon id="XMLID_1204_" class="st13" points="331.2,285 331.4,285 331.2,283 331,283 329,283 329,285 	"/>
	<polygon id="XMLID_1205_" class="st14" points="319.2,320 323.8,320 324,320 324,317 331,317 331,312.2 324,312.4 324,314.6 
		319,314.8 319,314.6 319,312.2 317,312.4 317,314.6 312,314.8 312,317 299.6,317 299.3,314.5 297,314.8 297,317 292,317 292,320 
		288,320 288,325 292,325 292,324.4 292,322 297,322 297,320 299.4,320 299.6,322 311.6,322 312,322 312,320 317,320 317,317 
		319,317 319,320 	"/>
	<polygon id="XMLID_1206_" class="st13" points="319,285 319,288 319.2,288 321.4,288 322,288 322,285 323.8,285 324,285 324,283 
		323.8,283 312,283 312,285 	"/>
	<rect id="XMLID_1207_" x="302" y="283" class="st13" width="2" height="2"/>
	<rect id="XMLID_1208_" x="292" y="283" class="st13" width="5" height="2"/>
	<polygon id="XMLID_1209_" class="st13" points="290,290 288.1,290 288.1,293 290,293 290,292.5 	"/>
	<polygon id="XMLID_1210_" class="st13" points="288,285 288.2,285 288,283 288,283 288,282.9 288,283 286,283 286,285 	"/>
	<polygon id="XMLID_1211_" class="st14" points="288.2,312 290,312 290,310 304,310 304,307 306.8,307 307,307 306.8,305 309.2,305 
		309.4,307 324,307 324,305 331,305 331,304.9 331,300 324,300.1 324,302.3 309,302.2 309,302 309.4,302 309.3,299.6 307,300.1 
		307,302.3 304,302.5 304,304.7 304,305 290,305 290,307 288.1,307 288.3,312 	"/>
	<polygon id="XMLID_1212_" class="st14" points="244,324 249,324 249,322 253.8,322 254,322 254,319 256.2,319 256.4,322 268.4,322 
		269,322 269,319 273,319 273,317 276,317 276,319 280.6,319 281,319 281,317 288,317 288.2,317 288,312 281,312.3 281,314.5 
		276,314.7 276,314.5 276,312.1 273,312.3 273,314.5 269,314.7 269,317 256.4,317 256.2,314.5 254,314.7 254,317 249,317 249,319 
		244,319 	"/>
	<polygon id="XMLID_1213_" class="st14" points="244.1,312 247,312 247,310 261,310 261,307 263.6,307 263.8,307 263.6,305 266,305 
		266.2,307 281,307 281,305 288,305 288.2,305 288.1,299.9 281,300 281,302.2 266.3,302.4 266.3,302.4 266,299.8 266,299.8 
		263.6,300 263.7,302.2 261,302.4 261,304.6 261,305 247,305 247,307 244,307 244,309.8 	"/>
	<line id="XMLID_1214_" class="st12" x1="247" y1="312" x2="247" y2="312"/>
	<polygon id="XMLID_1215_" class="st15" points="247,290 247,292.4 247,293 251,293 251,297 251.6,297 259,297 259,293 286,293 
		286,297 288,297 288,297 290,297 290,293 288.1,293 288.1,290 290,290 290,292.5 290,293 295,293 295,297 302,297 302,293 329,293 
		329,297 331,297 331.2,297 331.4,297 334,297 334,293 331.3,293 331.3,290 334,290 334,292.5 334,293 339,293 339,297 346,297 
		346,293 373,293 373,297 375.2,297 375.2,298 377,298 377,293 375.3,293 375.3,290 377,290 377,292.6 377,293 382,293 382,298 
		389,298 389,293 416,293 416,298 418,298 418,297 418,292 418,291.7 418,285.4 418,285 416,285 416,283 411,283 411,285 409,285 
		409,288 408.6,288 406.4,288 406,288 406,285 399,285 399,283 392,283 392,285 389,285 389,283 384.2,283 384,283 384,285 379,285 
		379,283 375.2,283 375.2,283 375.4,285 375.2,285 373,285 373,283 368,283 368,285 367.8,285 366,285 366,288 365.4,288 363.2,288 
		363,288 363,285 356,285 355.8,285 356,285 356,283 355.8,283 348,283 348,285 346,285 346,283 341,283 341,285 336,285 336,283 
		331.2,283 331.4,285 331.2,285 329,285 329,283 324,283 324,285 323.8,285 322,285 322,288 321.4,288 319.2,288 319,288 319,285 
		312,285 312,283 311.8,283 304,283 304,285 302,285 302,283 297,283 297,285 292,285 292,283 288,283 288,283 288.2,285 288,285 
		286,285 286,283 281,283 281,285 280.6,285 278,285 278,288 278.2,288 278,288 276,288 276,285 268.6,285 268,285 268,283 261,283 
		261,285 259,285 259,283 254,283 254,285 253.8,285 249,285 249,283 244,283 244,285 244,290 	"/>
	<line id="XMLID_1216_" class="st12" x1="295" y1="297" x2="295" y2="297"/>
	<polygon id="XMLID_1217_" class="st13" points="268.6,285 276,285 276,288 278,288 278,285 280.6,285 281,285 281,283 280.6,283 
		268.6,283 268,283 268,285 	"/>
	<line id="XMLID_1218_" class="st12" x1="278" y1="288" x2="278" y2="288"/>
	<rect id="XMLID_1219_" x="259" y="283" class="st13" width="2" height="2"/>
	<polygon id="XMLID_1220_" class="st13" points="253.8,285 254,285 254,283 253.8,283 249,283 249,285 	"/>
	<rect id="XMLID_1221_" x="244" y="293" class="st15" width="3" height="4"/>
	<polygon id="XMLID_1222_" class="st13" points="247,290 244,290 244,290.2 244,292.4 244,293 247,293 247,292.4 	"/>
	<polygon id="XMLID_1223_" class="st13" points="243.8,285 244,285 243.8,283 241,283 241,285 	"/>
	<polygon id="XMLID_1224_" class="st14" points="200,324 205,324 205,322 209.6,322 210,322 210,319 212,319 212.2,322 224,322 
		224,319 229,319 229,317 232,317 232,319 236.4,319 237,319 237,317 243.8,317 244,317 244,316.9 244,316.8 244,312.2 244,312.1 
		237,312.3 237,314.5 232,314.7 232,314.5 232,312.1 229,312.3 229,314.5 224,314.7 224,317 212.2,317 212.1,314.5 210,314.7 
		210,317 205,317 205,319 200,319 	"/>
	<polygon id="XMLID_1225_" class="st14" points="200.1,312 202,312 202,310 217,310 217,307 219.4,307 219.6,307 219.4,305 
		221.8,305 222,307 237,307 237,305 243.8,305 243.8,305 244,305 244,299.9 244,299.9 237,300 237,302.2 222.2,302.4 221.8,299.8 
		219.5,300 219.6,302.2 217,302.4 217,304.6 217,305 202,305 202,307 200,307 200,309.8 	"/>
	<polygon id="XMLID_1226_" class="st15" points="200,290 202,290 202,292.4 202,293 207,293 207,297 207.4,297 215,297 215,293 
		241,293 241,297 243.8,297 244,297 243.8,285 241,285 241,283 237,283 237,285 236.4,285 234,285 234,288 232,288 231.8,288 
		232,288 232,285 224.4,285 224,285 224,283 217,283 217,285 215,285 215,283 210,283 210,285 209.6,285 205,285 205,283 200,283 
		200,285 200,285.2 	"/>
	<polygon id="XMLID_1227_" class="st13" points="224.4,285 232,285 232,288 234,288 234,285 236.4,285 237,285 237,283 236.4,283 
		224.4,283 224,283 224,285 	"/>
	<line id="XMLID_1228_" class="st12" x1="232" y1="288" x2="232" y2="288"/>
	<rect id="XMLID_1229_" x="215" y="283" class="st13" width="2" height="2"/>
	<polygon id="XMLID_1230_" class="st13" points="209.6,285 210,285 210,283 209.6,283 209.6,283 205,283 205,285 	"/>
	<rect id="XMLID_1231_" x="200" y="293" class="st15" width="2" height="4"/>
	<polygon id="XMLID_1232_" class="st13" points="202,290 200,290 200,290.2 200,292.4 200,293 202,293 202,292.4 	"/>
	<polygon id="XMLID_1233_" class="st13" points="199.8,285 200,285 199.8,283 197,283 197,285 	"/>
	<polygon id="XMLID_1234_" class="st14" points="161,322 165.6,322 166,322 166,319 168,319 168.2,322 180,322 180,319 185,319 
		185,317 188,317 188,319 192.4,319 193,319 193,317 199.8,317 200,317 200,317 200,316.8 200,312.2 200,312.1 193,312.3 193,314.5 
		188,314.7 188,314.5 188,312.1 185,312.3 185,314.5 180,314.7 180,317 168.2,317 168.1,314.5 166,314.7 166,317 161,317 161,319 
		156,319 156,324 161,324 	"/>
	<polygon id="XMLID_1235_" class="st14" points="156.1,312 158,312 158,310 173,310 173,307 175.4,307 175.6,307 175.4,305 
		177.8,305 178,307 193,307 193,305 199.8,305 199.8,305 200,305 200,299.9 200,299.9 193,300 193,302.2 178.2,302.4 177.8,299.8 
		175.5,300 175.6,302.2 173,302.4 173,304.6 173,305 158,305 158,307 156,307 156,309.8 	"/>
	<polygon id="XMLID_1236_" class="st15" points="156,290 158,290 158,292.4 158,293 163,293 163,297 163.4,297 171,297 171,293 
		197,293 197,297 199.8,297 200,297 199.8,285 197,285 197,283 193,283 193,285 192.4,285 190,285 190,288 188,288 187.8,288 
		188,288 188,285 180.4,285 180,285 180,283 173,283 173,285 171,285 171,283 166,283 166,285 165.6,285 161,285 161,283 156,283 
		156,285 156,285.2 	"/>
	<polygon id="XMLID_1237_" class="st13" points="180.4,285 188,285 188,288 190,288 190,285 192.4,285 193,285 193,283 192.4,283 
		180.4,283 180,283 180,285 	"/>
	<line id="XMLID_1238_" class="st12" x1="188" y1="288" x2="188" y2="288"/>
	<rect id="XMLID_1239_" x="171" y="283" class="st13" width="2" height="2"/>
	<polygon id="XMLID_1240_" class="st13" points="165.6,285 166,285 166,283 165.6,283 165.6,283 161,283 161,285 	"/>
	<rect id="XMLID_1241_" x="156" y="293" class="st15" width="2" height="4"/>
	<polygon id="XMLID_1242_" class="st13" points="158,290 156,290 156,290.2 156,292.4 156,293 158,293 158,292.4 	"/>
	<polygon id="XMLID_1243_" class="st13" points="155.8,285 156,285 155.8,283 153,283 153,285 	"/>
	<polygon id="XMLID_1244_" class="st14" points="117,322 121.6,322 122,322 122,319 124,319 124.2,322 136,322 136,319 141,319 
		141,317 144,317 144,319 148.4,319 149,319 149,317 155.8,317 156,317 156,317 156,316.8 156,312.2 156,312.1 149,312.3 149,314.5 
		144,314.7 144,314.5 144,312.1 141,312.3 141,314.5 136,314.7 136,317 124.2,317 124.1,314.5 122,314.7 122,317 117,317 117,319 
		112,319 112,324 117,324 	"/>
	<polygon id="XMLID_1245_" class="st14" points="114,310 129,310 129,307 131.4,307 131.6,307 131.4,305 133.8,305 134,307 149,307 
		149,305 155.8,305 155.8,305 156,305 156,299.9 156,299.9 149,300 149,302.2 134.2,302.4 133.8,299.8 131.5,300 131.6,302.2 
		129,302.4 129,304.6 129,305 114,305 114,307 112,307 112,312 114,312 	"/>
	<line id="XMLID_1246_" class="st12" x1="112" y1="312" x2="112" y2="312"/>
	<line id="XMLID_1247_" class="st12" x1="114" y1="312" x2="114" y2="312"/>
	<polygon id="XMLID_1248_" class="st15" points="114,292.4 114,293 119,293 119,297 119.4,297 127,297 127,293 153,293 153,297 
		155.8,297 156,297 155.8,285 153,285 153,283 149,283 149,285 148.4,285 146,285 146,288 144,288 143.8,288 144,288 144,285 
		136.4,285 136,285 136,283 129,283 129,285 127,285 127,283 122,283 122,285 121.6,285 117,285 117,283 112,283 112,290 114,290 	
		"/>
	<polygon id="XMLID_1249_" class="st13" points="136.4,285 144,285 144,288 146,288 146,285 148.4,285 149,285 149,283 148.4,283 
		136.4,283 136,283 136,285 	"/>
	<line id="XMLID_1250_" class="st12" x1="144" y1="288" x2="144" y2="288"/>
	<rect id="XMLID_1251_" x="127" y="283" class="st13" width="2" height="2"/>
	<polygon id="XMLID_1252_" class="st13" points="121.6,285 122,285 122,283 121.6,283 117,283 117,285 	"/>
	<rect id="XMLID_1253_" x="112" y="293" class="st15" width="2" height="4"/>
	<polygon id="XMLID_1254_" class="st13" points="114,292.4 114,290 112,290 112,290.2 112,292.4 112,293 114,293 	"/>
	<rect id="XMLID_1255_" x="460" y="238" class="st13" width="2" height="2"/>
	<polygon id="XMLID_1256_" class="st14" points="423,279.4 423,277 427.9,277 428,277 428,275 430.3,275 430.5,277 442.5,277 
		443,277 443,275 447,275 447,272 450,272 450,275 450.1,275 454.7,275 455,275 455,272 462,272 462,267.3 455,267.5 455,269.7 
		450,269.9 450,269.7 450,267.3 447,267.5 447,269.7 443,269.9 443,272 430.5,272 430.3,269.5 428,269.9 428,272 423,272 423,275 
		418,275 418,279.4 418,280 423,280 	"/>
	<polygon id="XMLID_1257_" class="st14" points="421,265 435,265 435,262 437.7,262 437.9,262 437.7,260 440.1,260 440.3,262 
		455,262 455,260 462,260 462,254.9 455,255.1 455,257.3 440,257.8 440,258 440.3,258 440.1,255.2 437.7,255.2 437.8,257.4 
		435,257.5 435,259.7 435,260 421,260 421,262 418,262 418,267 421,267 	"/>
	<polygon id="XMLID_1258_" class="st15" points="421,247.6 421,248 425,248 425,253 425.7,253 433,253 433,248 460,248 460,253 
		462,253 462,252.5 462,248 462,247.7 462,240.4 462,240 460,240 460,238 455,238 455,240 454.7,240 452,240 452,243 452.3,243 
		452,243 450.1,243 450,243 450,240 442.7,240 442,240 442,238 435,238 435,240 433,240 433,238 428,238 428,240 427.9,240 423,240 
		423,238 418,238 418,245 421,245 	"/>
	<polygon id="XMLID_1259_" class="st13" points="442.7,240 450,240 450,243 450.1,243 452,243 452,240 454.7,240 455,240 455,238 
		454.7,238 442.7,238 442,238 442,240 	"/>
	<line id="XMLID_1260_" class="st12" x1="452" y1="243" x2="452" y2="243"/>
	<rect id="XMLID_1261_" x="433" y="238" class="st13" width="2" height="2"/>
	<polygon id="XMLID_1262_" class="st13" points="427.9,240 428,240 428,238 427.9,238 423,238 423,240 	"/>
	<rect id="XMLID_1263_" x="418" y="248" class="st15" width="3" height="5"/>
	<polygon id="XMLID_1264_" class="st13" points="421,247.6 421,245 418,245 418,245.4 418,247.6 418,248 421,248 	"/>
	<polygon id="XMLID_1265_" class="st14" points="543,225.3 538,225.7 538,225.3 538,223 535,223 535,225.3 530,225.7 530,227.9 
		518,228 518,228 518,228.1 518,228.1 518,228 518,228 518,225.3 516,225.7 516,227.9 511,228.1 511,230.3 511,231 506,231 506,235 
		511,235 511,233 515.6,233 516,233 516,231 518,231 518.2,233 530,233 530,231 535,231 535,230.3 535,228.1 538,227.9 538,228.1 
		538,231 543,231 543,228.1 550,228 550.2,228 549.8,223 543,223 	"/>
	<polygon id="XMLID_1266_" class="st14" points="543,211 543,213 528,213 527.8,211 525.4,211 525.6,213 525.4,213 523,213 
		523,215.5 523,215.7 508,215.9 508,217.9 508,218 506,218 506,218.1 506,223 508,223 508,221 523,221 523,220.3 523,218 525.4,218 
		525.6,218 525.4,216 525.4,216 525.4,216 525.4,215.7 526.6,215.5 527.8,215.5 528,218 543,218 543,215.7 550,215.5 550.1,215.6 
		549.8,211 549.8,211 	"/>
	<polygon id="XMLID_1267_" class="st16" points="506,196.4 506,203.7 506,204 511,204 511,201 515.6,201 515.8,201 515.6,199 
		515.6,199 515.6,199 515.6,199 515.6,198.8 515.6,198.7 520.5,198.6 525.4,198.5 525.6,201 527.8,201 528,201 527.8,198.7 
		530.4,198.5 530.3,196.2 530.1,196 530,196 530,196.3 533,196.1 533,196.3 533,198.5 533,198.7 540,198.5 540,196.3 549.8,196 
		549.8,196 550,196 550,194 550,184.2 550,184 550,184 549.8,184 543,184 543,187 542.4,187 538,187 538,184 535,184 535,187 
		530,187 530,189 518.2,189 518,187 516,187 516,189 515.6,189 511,189 511,191.4 511,192 506,192 506,194 506,196 	"/>
	<polygon id="XMLID_1268_" class="st14" points="533,198.7 533,198.5 533,196.3 533,196.1 530.3,196.3 530.3,196.3 530.3,196.3 
		530.4,198.5 527.8,198.7 528,201 527.8,201 525.6,201 525.4,198.5 520.5,198.5 515.6,198.6 515.6,198.7 515.6,198.8 515.8,201 
		515.6,201 511,201 511,204 506,204 506,208.5 506,209 511,209 511,208.3 511,206.1 516,205.9 516,203.7 525,203.5 525,205.9 
		525,206.1 528,205.9 528,203.7 530,203.5 530,201 533,201 533,203.5 533,203.7 540.3,203.5 540,201 549.8,201 550,201 549.8,196.3 
		549.8,196.1 540,196.3 540,198.5 	"/>
	<polygon id="XMLID_1269_" class="st14" points="543,269.3 538,269.7 538,269.3 538,267 535,267 535,269.3 530,269.7 530,271.9 
		518,272 518,272 518,272.1 518,272.1 518,272 518,272 518,269.3 516,269.7 516,271.9 511,272.1 511,274.3 511,275 506,275 506,279 
		511,279 511,277 515.6,277 516,277 516,275 518,275 518.2,277 530,277 530,275 535,275 535,274.3 535,272.1 538,271.9 538,272.1 
		538,275 543,275 543,272.1 550,272 550.2,272 549.8,267 543,267 	"/>
	<polygon id="XMLID_1270_" class="st14" points="543,255 543,257 528,257 527.8,255 525.4,255 525.6,257 525.4,257 523,257 
		523,259.5 523,259.7 508,259.9 508,261.9 508,262 506,262 506,267 508,267 508,265 523,265 523,264.3 523,262 525.4,262 525.6,262 
		525.4,260 525.4,260 525.4,260 525.4,259.7 526.6,259.5 527.8,259.5 528,262 543,262 543,259.7 550,259.5 550.1,259.6 549.8,255 
		549.8,255 	"/>
	<polygon id="XMLID_1271_" class="st14" points="533,242.7 533,242.5 533,240.3 533,240.1 530.3,240.3 530.3,240.3 530.3,240.3 
		530.4,242.5 527.8,242.7 528,245 527.8,245 525.6,245 525.4,242.5 520.5,242.6 515.6,242.8 515.8,245 515.6,245 511,245 511,248 
		506,248 506,253 511,253 511,252.3 511,250.1 516,249.9 516,247.7 525,247.5 525,249.9 525,250.1 528,249.9 528,247.7 530,247.5 
		530,245 533,245 533,247.5 533,247.7 540.3,247.5 540,245 549.8,245 550,245 549.8,240.3 549.8,240.1 540,240.3 540,242.5 	"/>
	<polygon id="XMLID_1272_" class="st14" points="499,267 499,269.3 494,269.7 494,269.3 494,267 491,267 491,269.3 486,269.7 
		486,271.9 474,272 474,272 474,272.1 474,272.1 474,272 474,272 474,269.3 472,269.7 472,271.9 467,272.1 467,274.3 467,275 
		462,275 462,279 467,279 467,277 471.6,277 472,277 472,275 474,275 474.2,277 486,277 486,275 491,275 491,274.3 491,272.1 
		494,271.9 494,272.1 494,275 499,275 499,272.1 506.2,272 506,269.5 505.8,267 	"/>
	<polygon id="XMLID_1273_" class="st14" points="505.8,255 499,255 499,257 484,257 483.8,255 481.4,255 481.6,257 481.4,257 
		479,257 479,259.5 479,259.7 464,259.9 464,261.9 464,262 462,262 462,262.1 462,267 464,267 464,265 479,265 479,264.3 479,262 
		481.4,262 481.6,262 481.4,260 481.4,260 481.4,260 481.4,259.7 482.6,259.5 483.8,259.5 484,262 499,262 499,259.7 506,259.5 
		506,259.5 506.1,259.6 506,258 	"/>
	<polygon id="XMLID_1274_" class="st16" points="462,240.4 462,247.7 462,248 467,248 467,245 471.6,245 471.8,245 471.6,243 
		471.6,243 471.6,243 471.6,243 471.6,242.8 471.6,242.7 476.5,242.6 481.4,242.5 481.6,245 483.8,245 484,245 483.8,242.7 
		486.4,242.5 486.3,240.2 486.1,240 486,240 486,240.3 489,240.1 489,240.3 489,242.5 489,242.7 496,242.5 496,240.3 505.8,240 
		505.8,240 506,240 506,245 506,247.7 506,248 511,248 511,245 515.6,245 515.8,245 515.6,243 515.6,243 515.6,243 515.6,243 
		520.5,242.7 525.4,242.5 525.6,245 527.8,245 528,245 527.8,242.7 530.4,242.5 530.3,240.2 530.1,240 530,240 530,240.3 533,240.1 
		533,240.3 533,242.5 533,242.7 540,242.5 540,240.3 549.8,240 549.8,240 550,240 550,238 550,228 543,228.1 543,231 538,231 
		538,228.1 538,227.9 535,228.1 535,230.3 535,231 530,231 530,233 518.2,233 518,231 516,231 516,233 515.6,233 511,233 511,235 
		506,235 506,231 511,231 511,230.3 511,228.1 516,227.9 516,225.7 518,225.3 518.1,225.3 518,228.1 518,228 518,228 530,227.9 
		530,225.7 535,225.3 535,223 538,223 538,225.3 538,225.7 543,225.3 543,223 549.8,223 550,223 550,215.6 543,215.7 543,218 
		528,218 527.8,215.5 526.6,215.5 525.4,215.7 525.4,216 525.6,218 525.4,218 523,218 523,220.3 523,221 508,221 508,223 506,223 
		506,218.1 506,218 508,218 508,217.9 508,215.9 523,215.7 523,215.5 523,213 525.4,213 525.6,213 525.4,211 527.8,211 528,213 
		543,213 543,211 549.8,211 549.8,211 550,211 549.8,201 540,201 540.3,203.5 533,203.7 533,203.5 533,201 530,201 530,203.5 
		528,203.7 528,205.9 525,206.1 525,205.9 525,203.5 516,203.7 516,205.9 511,206.1 511,208.3 511,209 506,209 504,209 504,204 
		477,204 477,209 469.7,209 469,209 469,204 465,204 465,209 462,209 462,218 465,218 465,216 479,216 479,215.7 479,213.5 
		481.8,213.3 481.6,211.1 484,210.9 484,210.9 484.3,214 484.3,214 499,213.3 499,211.1 506,210.9 506,216 499,216 499,218 
		484.3,218 484.1,216 481.7,216 481.9,218 481.7,218 479,218 479,221 465,221 465,223 462,223 462,223.3 462,231 467,231 467,228 
		472,228 472,225.9 474.3,225.5 474.5,228 487,228 487,225.9 491,225.7 491,223.5 494,223.3 494,225.7 494,225.9 499,225.7 
		499,223.5 506,223.3 506,228 499,228 499,231 498.7,231 494.1,231 494,231 494,228 491,228 491,231 487,231 487,233 486.5,233 
		474.5,233 474.3,231 472,231 472,233 471.9,233 467,233 467,235.4 467,236 462,236 462,238 462,240 	"/>
	<polygon id="XMLID_1275_" class="st14" points="505.8,240.3 505.8,240.1 496,240.3 496,242.5 489,242.7 489,242.5 489,240.3 
		489,240.1 486.3,240.3 486.3,240.3 486.3,240.3 486.4,242.5 483.8,242.7 484,245 483.8,245 481.6,245 481.4,242.5 476.5,242.5 
		471.6,242.6 471.6,242.7 471.6,242.8 471.8,245 471.6,245 467,245 467,248 462,248 462,252.5 462,253 467,253 467,252.3 467,250.1 
		472,249.9 472,247.7 481,247.5 481,249.9 481,250.1 484,249.9 484,247.7 486,247.5 486,245 489,245 489,247.5 489,247.7 
		496.3,247.5 496,245 505.8,245 506,245 	"/>
	<polygon id="XMLID_1276_" class="st14" points="499,311 499,313.3 494,313.7 494,313.3 494,311 491,311 491,313.3 486,313.7 
		486,315.9 474,316 474,316 474,316.1 474,316.1 474,316 474,316 474,313.3 472,313.7 472,315.9 467,316.1 467,318.3 467,319 
		462,319 462,323 467,323 467,321 471.6,321 472,321 472,319 474,319 474.2,321 486,321 486,319 491,319 491,318.3 491,316.1 
		494,315.9 494,316.1 494,319 499,319 499,316.1 506,316 506,315.9 506,313.5 505.8,311 	"/>
	<polygon id="XMLID_1277_" class="st14" points="505.8,299 499,299 499,301 484,301 483.8,299 481.4,299 481.6,301 481.4,301 
		479,301 479,303.5 479,303.7 464,303.9 464,305.9 464,306 462,306 462,311 464,311 464,309 479,309 479,308.3 479,306 481.4,306 
		481.6,306 481.4,304 481.4,304 481.4,304 481.4,303.7 482.6,303.5 483.8,303.5 484,306 499,306 499,303.7 506,303.5 506,302 	"/>
	<polygon id="XMLID_1278_" class="st14" points="467,297 467,296.3 467,294.1 472,293.9 472,291.7 481,291.5 481,293.9 481,294.1 
		484,293.9 484,291.7 486,291.5 486,289 489,289 489,291.5 489,291.7 496.3,291.5 496,289 505.8,289 506,289 505.8,284.3 
		505.8,284.1 496,284.3 496,286.5 489,286.7 489,286.5 489,284.3 489,284.1 486.3,284.3 486.3,284.3 486.3,284.3 486.4,286.5 
		483.8,286.7 484,289 483.8,289 481.6,289 481.4,286.5 476.5,286.6 471.6,286.8 471.8,289 471.6,289 467,289 467,292 462,292 
		462,297 	"/>
	<polygon id="XMLID_1279_" class="st14" points="543,313.3 538,313.7 538,313.3 538,311 535,311 535,313.3 530,313.7 530,315.9 
		518,316 518,316 518,316.1 518,316.1 518,316 518,316 518,313.3 516,313.7 516,315.9 511,316.1 511,318.3 511,319 506,319 506,323 
		511,323 511,321 515.6,321 516,321 516,319 518,319 518.2,321 530,321 530,319 535,319 535,318.3 535,316.1 538,315.9 538,316.1 
		538,319 543,319 543,316.1 550,316 550.2,316 549.8,311 543,311 	"/>
	<polygon id="XMLID_1280_" class="st14" points="543,299 543,301 528,301 527.8,299 525.4,299 525.6,301 525.4,301 523,301 
		523,303.5 523,303.7 508,303.9 508,305.9 508,306 506,306 506,306.1 506,311 508,311 508,309 523,309 523,308.3 523,306 525.4,306 
		525.6,306 525.4,304 525.4,304 525.4,304 525.4,303.7 526.6,303.5 527.8,303.5 528,306 543,306 543,303.7 550,303.5 550.1,303.6 
		549.8,299 549.8,299 	"/>
	<polygon id="XMLID_1281_" class="st16" points="549.8,284 550,284 550,282 550,272 543,272.1 543,275 538,275 538,272.1 538,271.9 
		535,272.1 535,274.3 535,275 530,275 530,277 518.2,277 518,275 516,275 516,277 515.6,277 511,277 511,279 506,279 506,275 
		511,275 511,274.3 511,272.1 516,271.9 516,269.7 518,269.3 518.1,269.3 518,272.1 518,272 518,272 530,271.9 530,269.7 535,269.3 
		535,267 538,267 538,269.3 538,269.7 543,269.3 543,267 549.8,267 550,267 550,259.6 543,259.7 543,262 528,262 527.8,259.5 
		526.6,259.5 525.4,259.7 525.4,260 525.6,262 525.4,262 523,262 523,264.3 523,265 508,265 508,267 506,267 506,269.5 506.2,272 
		499,272.1 499,275 494,275 494,272.1 494,271.9 491,272.1 491,274.3 491,275 486,275 486,277 474.2,277 474,275 472,275 472,277 
		471.6,277 467,277 467,279 462,279 462,275 467,275 467,274.3 467,272.1 472,271.9 472,269.7 474,269.3 474.1,269.3 474,272.1 
		474,272 474,272 486,271.9 486,269.7 491,269.3 491,267 494,267 494,269.3 494,269.7 499,269.3 499,267 505.8,267 506,267 506,262 
		508,262 508,261.9 508,259.9 523,259.7 523,259.5 523,257 525.4,257 525.6,257 525.4,255 527.8,255 528,257 543,257 543,255 
		549.8,255 549.8,255 550,255 549.8,245 540,245 540.3,247.5 533,247.7 533,247.5 533,245 530,245 530,247.5 528,247.7 528,249.9 
		525,250.1 525,249.9 525,247.5 516,247.7 516,249.9 511,250.1 511,252.3 511,253 506,253 506,255 506,258 506.1,259.6 506,259.5 
		506,259.5 506,259.6 499,259.7 499,262 484,262 483.8,259.5 482.6,259.5 481.4,259.7 481.4,260 481.6,262 481.4,262 479,262 
		479,264.3 479,265 464,265 464,267 462,267 462,262.1 462,262 464,262 464,261.9 464,259.9 479,259.7 479,259.5 479,257 481.4,257 
		481.6,257 481.4,255 483.8,255 484,257 499,257 499,255 505.8,255 505.8,255 506,255 505.8,245 496,245 496.3,247.5 489,247.7 
		489,247.5 489,245 486,245 486,247.5 484,247.7 484,249.9 481,250.1 481,249.9 481,247.5 472,247.7 472,249.9 467,250.1 467,252.3 
		467,253 462,253 460,253 460,248 433,248 433,253 425.7,253 425,253 425,248 421,248 421,253 418,253 418,262 421,262 421,260 
		435,260 435,259.7 435,257.5 437.8,257.3 437.6,255.1 440,254.9 440,254.9 440.3,258 440.3,258 455,257.3 455,255.1 462,254.9 
		462,260 455,260 455,262 440.3,262 440.1,260 437.7,260 437.9,262 437.7,262 435,262 435,265 421,265 421,267 418,267 418,267.3 
		418,275 423,275 423,272 428,272 428,269.9 430.3,269.5 430.5,272 443,272 443,269.9 447,269.7 447,267.5 450,267.3 450,269.7 
		450,269.9 455,269.7 455,267.5 462,267.3 462,272 455,272 455,275 454.7,275 450.1,275 450,275 450,272 447,272 447,275 443,275 
		443,277 442.5,277 430.5,277 430.3,275 428,275 428,277 427.9,277 423,277 423,279.4 423,280 418,280 418,282 418,283 418,285 
		418,285.4 418,291.7 418,292 423,292 423,289 427.6,289 427.8,289 427.6,287 427.6,287 427.6,287 427.6,287 427.6,286.8 
		427.6,286.7 432.5,286.6 437.4,286.5 437.6,289 439.8,289 440,289 439.8,286.7 442.4,286.5 442.3,284.2 442.1,284 442,284 
		442,284.3 445,284.1 445,284.3 445,286.5 445,286.7 452,286.5 452,284.3 461.8,284 461.8,284 462,284 462,289 462,291.7 462,292 
		467,292 467,289 471.6,289 471.8,289 471.6,287 471.6,287 471.6,287 471.6,287 476.5,286.7 481.4,286.5 481.6,289 483.8,289 
		484,289 483.8,286.7 486.4,286.5 486.3,284.2 486.1,284 486,284 486,284.3 489,284.1 489,284.3 489,286.5 489,286.7 496,286.5 
		496,284.3 505.8,284 505.8,284 506,284 506,289 506,291.7 506,292 511,292 511,289 515.6,289 515.8,289 515.6,287 515.6,287 
		515.6,287 515.6,287 515.6,286.8 515.6,286.7 520.5,286.6 525.4,286.5 525.6,289 527.8,289 528,289 527.8,286.7 530.4,286.5 
		530.3,284.2 530.1,284 530,284 530,284.3 533,284.1 533,284.3 533,286.5 533,286.7 540,286.5 540,284.3 	"/>
	<path id="XMLID_1284_" class="st16" d="M540.3,291.5l-7.3,0.3v-0.2V289h-3v2.5l-2,0.2v2.2l-3,0.2v-0.2v-2.4l-9,0.2v2.2l-5,0.2v2.2
		v0.7h-5v2v3v1.5l0,0l-7,0.1v2.3h-15l-0.2-2.5l-1.2,0.1l-1.2,0.1v0.3l0.2,2h-0.2H479v2.3v0.7h-15v2h-2v2.5l0.2,2.5l-7.2,0.2v2.9h-5
		v-2.9v-0.2l-3,0.2v2.2v0.7h-5v2h-11.8l-0.2-2h-2v2h-0.4H423v2h-5v-4h5v-0.7v-2.2l5-0.2v-2.2l2-0.4h0.1v2.7l11.9-0.1v-2.2l5-0.4V311
		h3v2.3v0.4l5-0.4V311h6.8h0.2v-5h2v-0.1v-2l15-0.2v-0.2V301h2.4h0.2l-0.2-2h2.4l0.2,2h15v-2h6.8l0,0h0.2l-0.2-10H496l0.3,2.5
		l-7.3,0.3v-0.2V289h-3v2.5l-2,0.2v2.2l-3,0.2v-0.2v-2.4l-9,0.2v2.2l-5,0.2v2.2v0.7h-5v2v3l0.1,1.6H462l0,0l0,0l-7,0.1v2.3h-15
		l-0.2-2.5l-1.2,0.2l-1.2,0.3l0.2,2h-0.2H435v2.3v0.7h-15v2h-2v-4.9V306h2v-0.1v-2l15-0.2v-0.2V301h2.4h0.2l-0.2-2h2.4l0.2,2h15v-2
		h6.8l0,0h0.2l-0.2-10H452l0.3,2.5l-7.3,0.3v-0.2V289h-3v2.5l-2,0.2v2.2l-3,0.2v-0.2v-2.4l-9,0.2v2.2l-5,0.2v2.2v0.7h-5v1h-2v-5h-27
		v5h-7v-5h-5v5h-1.8v-1H373v-4h-27v4h-7v-4h-5v4h-2.6h-0.2H331h-2v-4h-27v4h-7h-0.2h0.2v-4h-5v4h-2l0,0h-2v-4h-27v4h-7.4H251v-4h-4
		v4h-3v1.7l-0.2-1.7H241v-4h-26v4h-7.6H207v-4h-5v4h-2v1.7l-0.2-1.7H197v-4h-26v4h-7.6H163v-4h-5v4h-2v1.7l-0.2-1.7H153v-4h-26v4
		h-7.6H119v-4h-5v4h-2v10h2v-2h15v-0.4v-2.2l2.6-0.2l-0.2-2.2l2.4-0.2l0,0l0.4,2.6l14.8-0.2V300l7-0.2v0.1l0,0v5.1v2h2v-2h15v-0.4
		v-2.2l2.6-0.2l-0.2-2.2l2.4-0.2l0,0l0.4,2.6l14.8-0.2V300l7-0.2v0.1l0,0v5.1v2h2v-2h15v-0.4v-2.2l2.6-0.2l-0.2-2.2l2.4-0.2l0,0
		l0.4,2.6l14.8-0.2V300l7-0.2v0.1l0,0v5.1v2h3v-2h14v-0.4v-2.2l2.7-0.2l-0.1-2.2l2.4-0.2l0,0h0.1l0.2,2.6l14.7-0.2V300l7.1-0.1
		l0.1,5.1H288h-7v2h-14.8l-0.2-2h-2.4l0.2,2h-0.2H261v3h-14v2v0.1V312h-2.9l-0.1-2.2l-0.2-4.8l0,0H237v2h-15l-0.2-2h-2.4l0.2,2h-0.2
		H217v3h-15v2h-1.9l-0.1-2.2l-0.2-4.8l0,0H193v2h-15l-0.2-2h-2.4l0.2,2h-0.2H173v3h-15v2h-1.9l-0.1-2.2l-0.2-4.8l0,0H149v2h-15
		l-0.2-2h-2.4l0.2,2h-0.2H129v3h-15v2v0.1V312h-2v0.1v6.9h5v-2h5v-2.3l2.1-0.2l0.1,2.5H136v-2.3l5-0.2v-2.2l3-0.2v2.4v0.2l5-0.2
		v-2.2l7-0.2v0.1v4.8l0,0h-0.2H149v2h-0.6H144v-2h-3v2h-5v3h-11.8l-0.2-3h-2v3h-0.4H117v2h-5v0.3v1.7h-0.2H69h-0.2H68H25h-0.2H-19
		v9.7v0.3h5v-3h4.6h0.2l-0.2-2l0,0l0,0l0,0v-0.2v-0.1l4.9-0.1l4.9-0.1l0.2,2.5h2.2H3l-0.2-2.3l2.6-0.2l-0.1-2.3L5.1,328H5v0.3l3-0.2
		v0.2v2.2v0.2l7-0.2v-2.2l9.8-0.4l0,0H25v5v2.7v0.3h5v-3h4.6h0.2l-0.2-2l0,0l0,0l0,0v-0.2v-0.1l4.9-0.1l4.9-0.1l0.2,2.5h2.2H47
		l-0.2-2.3l2.6-0.2l-0.1-2.3l-0.2-0.2H49v0.3l3-0.2v0.2v2.2v0.2l7-0.2v-2.2l9-0.3v0.1h0.8v0.2L69,333h-0.2H59l0.3,2.5l-7.3,0.3v-0.2
		V333h-3v2.5l-2,0.2v2.2l-3,0.2v-0.2v-2.4l-9,0.2v2.2l-5,0.2v2.2v0.7h-5v2v3l0.1,1.6H25l0,0l0,0l-7,0.1v2.3H3l-0.2-2.5l-1.2,0.2
		L0.4,348l0.2,2H0.4H-2v2.3v0.7h-15v2h-2v8h5v-0.7v-2.2l5-0.2v-2.2l2-0.4h0.1v2.7L5,359.9v-2.2l5-0.4V355h3v2.3v0.4l5-0.4V355h6.8
		H25v-5l0,0h2v-0.1v-2l15-0.2v-0.2V345h2.4h0.2l-0.2-2h2.4l0.2,2h15v-2h6.8l0,0l0.3,4.6H69h-1l0,0l-6,0.1v2.3H47l-0.2-2.5l-1.2,0.2
		l-1.2,0.3l0.2,2h-0.2H42v2.3v0.7H27v2h-2v2.5l0.2,2.5l-7.2,0.2v2.9h-5v-2.9V360l-3,0.2v2.2v0.7H5v2H-6.8l-0.2-2h-2v2h-0.4H-14v2h-5
		v3h43.8H25h43h0.8H69h42.8h0.2h43.8h0.2h43h0.8h0.2h42.8h0.2h43.8h0.2h43.8h0.2h43.8h0.2h43h0.8h0.2h42.8h0.2h43.8h0.2h43.8h0.2
		v-10l-7,0.1v2.9h-5v-2.9V360l-3,0.2v2.2v0.7h-5v2h-11.8l-0.2-2h-2v2h-0.4H511v2h-5v-4h5v-0.7v-2.2l5-0.2v-2.2l2-0.4h0.1v2.7
		L530,360v-2.2l5-0.4V355h3v2.3v0.4l5-0.4V355h6.8h0.2v-7.4l-7,0.1v2.3h-15l-0.2-2.5l-1.2,0.2l-1.2,0.3l0.2,2h-0.2H523v2.3v0.7h-15
		v2h-2v2.5v2.4v0.1l-7,0.1v2.9h-5v-2.9v-0.2l-3,0.2v2.2v0.7h-5v2h-11.8l-0.2-2h-2v2h-0.4H467v2h-5v-4h5v-0.7v-2.2l5-0.2v-2.2l2-0.4
		h0.1v2.7l11.9-0.1v-2.2l5-0.4V355h3v2.3v0.4l5-0.4V355h6.8h0.2v-4.9V350h2v-0.1v-2l15-0.2v-0.2V345h2.4h0.2l-0.2-2h2.4l0.2,2h15v-2
		h6.8l0,0h0.2l-0.2-10H540l0.3,2.5l-7.3,0.3v-0.2V333h-3v2.5l-2,0.2v2.2l-3,0.2v-0.2v-2.4l-9,0.2v2.2l-5,0.2v2.2v0.7h-5v2v3v1.5l0,0
		l-7,0.1v2.3h-15l-0.2-2.5l-1.2,0.2l-1.2,0.3l0.2,2h-0.2H479v2.3v0.7h-15v2h-2v2.5l0.2,2.5l-7.2,0.2v2.9h-5v-2.9v-0.2l-3,0.2v2.2
		v0.7h-5v2h-11.8l-0.2-2h-2v2h-0.4H423v2h-4v-4h4v-0.7v-2.2l5-0.2v-2.2l2-0.4h0.1v2.7l11.9-0.1v-2.2l5-0.4V355h3v2.3v0.4l5-0.4V355
		h6.8h0.2v-5l0,0h2v-0.1v-2l15-0.2v-0.2V345h2.4h0.2l-0.2-2h2.4l0.2,2h15v-2h6.8l0,0h0.2l-0.2-10H496l0.3,2.5l-7.3,0.3v-0.2V333h-3
		v2.5l-2,0.2v2.2l-3,0.2v-0.2v-2.4l-9,0.2v2.2l-5,0.2v2.2v0.7h-5v2v3l0.1,1.6H462l0,0l0,0l-7,0.1v2.3h-15l-0.2-2.5l-1.2,0.2
		l-1.2,0.3l0.2,2h-0.2H435v2.3v0.7h-15v2h-1v-5l0,0h1v-0.1v-2l15-0.2v-0.2V345h2.4h0.2l-0.2-2h2.4l0.2,2h15v-2h6.8l0,0h0.2l-0.2-10
		H452l0.3,2.5l-7.3,0.3v-0.2V333h-3v2.5l-2,0.2v2.2l-3,0.2v-0.2v-2.4l-9,0.2v2.2l-5,0.2v2.2v0.7h-4l-0.1-5h4.1v-3h4.6h0.2l-0.2-2
		l0,0l0,0l0,0v-0.2v-0.1l4.9-0.1l4.9-0.1l0.2,2.5h2.2h0.2l-0.2-2.3l2.6-0.2l-0.1-2.3l-0.2-0.2H442v0.3l3-0.2v0.2v2.2v0.2l7-0.2v-2.2
		l9.8-0.4l0,0h0.2v5v2.7v0.3h5v-3h4.6h0.2l-0.2-2l0,0l0,0l0,0v-0.2v-0.1l4.9-0.1l4.9-0.1l0.2,2.5h2.2h0.2l-0.2-2.3l2.6-0.2l-0.1-2.3
		l-0.2-0.2H486v0.3l3-0.2v0.2v2.2v0.2l7-0.2v-2.2l9.8-0.4l0,0h0.2v5v2.7v0.3h5v-3h4.6h0.2l-0.2-2l0,0l0,0l0,0v-0.2v-0.1l4.9-0.1
		l4.9-0.1l0.2,2.5h2.2h0.2l-0.2-2.3l2.6-0.2l-0.1-2.3l-0.2-0.2H530v0.3l3-0.2v0.2v2.2v0.2l7-0.2v-2.2l9.8-0.4l0,0h0.2v-2v-10l-7,0.1
		v2.9h-5v-2.9v-0.2l-3,0.2v2.2v0.7h-5v2h-11.8l-0.2-2h-2v2h-0.4H511v2h-5v-4h5V318v-2.2l5-0.2v-2.2l2-0.4h0.1l-0.1,2.7v0.3l0,0
		l12-0.1v-2.2l5-0.4V311h3v2.3v0.4l5-0.4V311h6.8h0.2v-7.4l-7,0.1v2.3h-15l-0.2-2.5l-1.2,0.1l-1.2,0.1v0.3l0.2,2h-0.2H523v2.3v0.7
		h-15v2h-2v2.5v2.4v0.1l-7,0.1v2.9h-5v-2.9v-0.2l-3,0.2v2.2v0.7h-5v2h-11.8l-0.2-2h-2v2h-0.4H467v2h-5v-4h5v-0.7v-2.2l5-0.2v-2.2
		l2-0.4h0.1L474,316l0,0l0,0l12-0.1v-2.2l5-0.4V311h3v2.3v0.4l5-0.4V311h6.8h0.2v-4.9V306h2v-0.1v-2l15-0.2v-0.2V301h2.4h0.2l-0.2-2
		h2.4l0.2,2h15v-2h6.8l0,0h0.2l-0.2-10H540L540.3,291.5z M418,317h-7v3h-4.6H406v-3h-2v3h-5v2h-0.2h-12l-0.2-2H384v2h-5v2.4v0.6h-4
		v-5h4v-3h5v-2.1l2.4-0.3l0.4,2.5H399V315l5-0.2v-2.2l2-0.2v2.4v0.2l5-0.2v-2.2l7-0.2V317z M361,317v3h-5v2h-0.4h-12l-0.2-2H341v2
		h-5v2.3v0.7h-5v-0.7V320h5v-3h5v-2.2l2.3-0.3l0.3,2.5H356v-2.2l5-0.2v-2.2l2-0.2v2.4v0.2l5-0.2v-2.2l7.2-0.3l0.2,5h-0.2H368v3h-0.2
		h-4.6H363v-3L361,317L361,317z M317,317v3h-5v2h-0.4h-12l-0.2-2H297v2h-5v2.4v0.6h-4v-5h4v-3h5v-2.2l2.3-0.3l0.3,2.5H312v-2.2
		l5-0.2v-2.2l2-0.2v2.4v0.2l5-0.2v-2.2l7-0.2v4.8h-7v3h-0.2h-4.6H319v-3L317,317L317,317z M377,305h15v-0.3v-2.2l2.4-0.2l-0.3-2.2
		l2.3-0.2h0.1l0.1,2.6l0,0l14.5-0.2v-2.2l7-0.2v5.1h-7v2h-14.4l-0.2-2H394l0.2,2H394h-2v3h-15v2h-1.6l-0.1-5h1.7V305z M334,307v-2
		h14v-0.4v-2.2l2.8-0.2l-0.2-2.2l2.4-0.2l0,0l0.4,2.2l0,0l14.6,0.2V300l7.2-0.1l0.2,5.1h-0.2H368v2h-14.6l-0.2-2h-2.4l0.2,2h-0.2
		H348v3h-14v2h-2.6l-0.1-5H334z M290,307v-2h14v-0.3v-2.2l2.8-0.2l-0.2-2.2l2.4-0.2l0,0l0.4,2.1l0,0l14.6,0.3v-2.2l7-0.2v0.1v4.9
		v0.1h-7v2h-14.6l-0.2-2h-2.4l0.2,2h-0.2H304v3h-14v2h-1.8h0.1l-0.2-5L290,307L290,307z M249,319v-2h5v-2.3l2.2-0.2l0.2,2.5H269
		v-2.3l4-0.2v-2.2l3-0.2v2.4v0.2l5-0.2v-2.2l7-0.3l0.2,5H288h-7v2h-0.4H276v-2h-3v2h-4v3h-0.6h-12l-0.2-3H254v3h-0.2H249v2h-5v-5
		L249,319L249,319z M205,319v-2h5v-2.3l2.1-0.2l0.1,2.5H224v-2.3l5-0.2v-2.2l3-0.2v2.4v0.2l5-0.2v-2.2l7-0.2v0.1v4.8l0,0l0,0h-0.2
		H237v2h-0.6H232v-2h-3v2h-5v3h-11.8l-0.2-3h-2v3h-0.4H205v2h-5v-5L205,319L205,319z M156,319h5v-2h5v-2.3l2.1-0.2l0.1,2.5H180v-2.3
		l5-0.2v-2.2l3-0.2v2.4v0.2l5-0.2v-2.2l7-0.2v0.1v4.8l0,0h-0.2H193v2h-0.6H188v-2h-3v2h-5v3h-11.8l-0.2-3h-2v3h-0.4H161v2h-5V319z
		 M62,360.1v2.9h-5v-2.9v-0.2l-3,0.2v2.2v0.7h-5v2H37.2l-0.2-2h-2v2h-0.4H30v2h-5v-4h5v-0.7v-2.2l5-0.2v-2.2l2-0.4h0.1v2.7l11.9-0.1
		v-2.2l5-0.4V355h3v2.3v0.4l5-0.4V355h6h0.8l0.4,5L62,360.1z M105,360.1v2.9h-5v-2.9v-0.2l-3,0.2v2.2v0.7h-5v2H80.2l-0.2-2h-2v2
		h-0.4H73v2h-4v-4h4v-0.7v-2.2l5-0.2v-2.2l2-0.4h0.1v2.7l11.9-0.1v-2.2l5-0.4V355h3v2.3v0.4l5-0.4V355h6.8h0.2v-5l0,0h2v-0.1v-2
		l15-0.2v-0.2V345h2.4h0.2l-0.2-2h2.4l0.2,2h15v-2h6.8l0,0h0.2l-0.2-10H146l0.3,2.5l-7.3,0.3v-0.2V333h-3v2.5l-2,0.2v2.2l-3,0.2
		v-0.2v-2.4l-9,0.2v2.2l-5,0.2v2.2v0.7h-5v2v3l0.1,1.6H112l0,0l0,0l-7,0.1v2.3H90l-0.2-2.5l-1.2,0.2l-1.2,0.3l0.2,2h-0.2H85v2.3v0.7
		H70v2h-1v-5l0,0h1v-0.1v-2l15-0.2v-0.2V345h2.4h0.2l-0.2-2h2.4l0.2,2h15v-2h6.8l0,0h0.2l-0.2-10H102l0.3,2.5l-7.3,0.3v-0.2V333h-3
		v2.5l-2,0.2v2.2l-3,0.2v-0.2v-2.4l-9,0.2v2.2l-5,0.2v2.2v0.7h-4l-0.1-5H73v-3h4.6h0.2l-0.2-2l0,0l0,0l0,0v-0.2v-0.1l4.9-0.1
		l4.9-0.1l0.2,2.5h2.2H90l-0.2-2.3l2.6-0.2l-0.1-2.3l-0.2-0.2H92v0.3l3-0.2v0.2v2.2v0.2l7-0.2v-2.2l9.8-0.4l0,0h0.2v5v2.7v0.3h5v-3
		h4.6h0.2l-0.2-2l0,0l0,0l0,0v-0.2v-0.1l4.9-0.1l4.9-0.1l0.2,2.5h2.2h0.2l-0.2-2.3l2.6-0.2l-0.1-2.3l-0.2-0.2H136v0.3l3-0.2v0.2v2.2
		v0.2l7-0.2v-2.2l9.8-0.4l0,0h0.2v5v2.7v0.3h5v-3h4.6h0.2l-0.2-2l0,0l0,0l0,0v-0.2v-0.1l4.9-0.1l4.9-0.1l0.2,2.5h2.2h0.2l-0.2-2.3
		l2.6-0.2l-0.1-2.3l-0.2-0.2H180v0.3l3-0.2v0.2v2.2v0.2l7-0.2v-2.2l9-0.3v0.1h0.8v0.2l0.2,4.7h-0.2H190l0.3,2.5l-7.3,0.3v-0.2V333
		h-3v2.5l-2,0.2v2.2l-3,0.2v-0.2v-2.4l-9,0.2v2.2l-5,0.2v2.2v0.7h-5v2v3l0.1,1.6H156l0,0l0,0l-7,0.1v2.3h-15l-0.2-2.5l-1.2,0.2
		l-1.2,0.3l0.2,2h-0.2H129v2.3v0.7h-15v2h-2v2.5l0.2,2.5L105,360.1z M149,360.1v2.9h-5v-2.9v-0.2l-3,0.2v2.2v0.7h-5v2h-11.8l-0.2-2
		h-2v2h-0.4H117v2h-5v-4h5v-0.7v-2.2l5-0.2v-2.2l2-0.4h0.1v2.7l11.9-0.1v-2.2l5-0.4V355h3v2.3v0.4l5-0.4V355h6.8h0.2v-5l0,0h2v-0.1
		v-2l15-0.2v-0.2V345h2.4h0.2l-0.2-2h2.4l0.2,2h15v-2h6.8l0,0l0.3,4.6H200h-1l0,0l-6,0.1v2.3h-15l-0.2-2.5l-1.2,0.2l-1.2,0.3l0.2,2
		h-0.2H173v2.3v0.7h-15v2h-2v2.5l0.2,2.5L149,360.1z M193,360.1v2.9h-5v-2.9v-0.2l-3,0.2v2.2v0.7h-5v2h-11.8l-0.2-2h-2v2h-0.4H161v2
		h-5v-4h5v-0.7v-2.2l5-0.2v-2.2l2-0.4h0.1v2.7l11.9-0.1v-2.2l5-0.4V355h3v2.3v0.4l5-0.4V355h6h0.8l0.4,5L193,360.1z M419.2,360
		l-7.2,0.2v2.9h-5v-2.9V360l-3,0.2v2.2v0.7h-5v2h-11.8l-0.2-2h-2v2h-0.4H380v2h-5v-4h5v-0.7v-2.2l5-0.2v-2.2l2-0.4h0.1v2.7L399,360
		v-2.2l5-0.4V355h3v2.3v0.4l5-0.4V355h6h0.8L419.2,360z M419.1,347.6L419.1,347.6H418l0,0l-6,0.1v2.3h-15l-0.2-2.5l-1.2,0.2
		l-1.2,0.3l0.2,2h-0.2H392v2.3v0.7h-15v2h-2v2.5l0.2,2.5l-7.2,0.2v2.9h-5v-2.9V360l-3,0.2v2.2v0.7h-5v2h-11.8l-0.2-2h-2v2h-0.4H336
		v2h-5v-4h5v-0.7v-2.2l5-0.2v-2.2l2-0.4h0.1v2.7L355,360v-2.2l5-0.4V355h3v2.3v0.4l5-0.4V355h6.8h0.2v-5l0,0h2v-0.1v-2l15-0.2v-0.2
		V345h2.4h0.2l-0.2-2h2.4l0.2,2h15v-2h6.8l0,0L419.1,347.6z M418.8,333H409l0.3,2.5l-7.3,0.3v-0.2V333h-3v2.5l-2,0.2v2.2l-3,0.2
		v-0.2v-2.4l-9,0.2v2.2l-5,0.2v2.2v0.7h-5v2v3l0.1,1.6H375l0,0l0,0l-7,0.1v2.3h-15l-0.2-2.5l-1.2,0.2l-1.2,0.3l0.2,2h-0.2H348v2.3
		v0.7h-15v2h-2v2.5l0.2,2.5l-7.2,0.2v2.9h-5v-2.9V360l-3,0.2v2.2v0.7h-5v2h-11.8l-0.2-2h-2v2h-0.4H292v2h-5v-4h5v-0.7v-2.2l5-0.2
		v-2.2l2-0.4h0.1v2.7L311,360v-2.2l5-0.4V355h3v2.3v0.4l5-0.4V355h6.8h0.2v-5l0,0h2v-0.1v-2l15-0.2v-0.2V345h2.4h0.2l-0.2-2h2.4
		l0.2,2h15v-2h6.8l0,0h0.2l-0.2-10H365l0.3,2.5l-7.3,0.3v-0.2V333h-3v2.5l-2,0.2v2.2l-3,0.2v-0.2v-2.4l-9,0.2v2.2l-5,0.2v2.2v0.7h-5
		v2v3l0.1,1.6H331l0,0l0,0l-7,0.1v2.3h-15l-0.2-2.5l-1.2,0.2l-1.2,0.3l0.2,2h-0.2H304v2.3v0.7h-15v2h-2v2.5v2.4v0.1l-7,0.1v2.9h-5
		v-2.9v-0.2l-3,0.2v2.2v0.7h-5v2h-11.8l-0.2-2h-2v2h-0.4H248v2h-5v-4h5v-0.7v-2.2l5-0.2v-2.2l2-0.4h0.1v2.7l11.9-0.1v-2.2l5-0.4V355
		h3v2.3v0.4l5-0.4V355h6.8h0.2v-4.9V350h2v-0.1v-2l15-0.2v-0.2V345h2.4h0.2l-0.2-2h2.4l0.2,2h15v-2h6.8l0,0h0.2l-0.2-10H321l0.3,2.5
		l-7.3,0.3v-0.2V333h-3v2.5l-2,0.2v2.2l-3,0.2v-0.2v-2.4l-9,0.2v2.2l-5,0.2v2.2v0.7h-5v2v3v1.5l0,0l-7,0.1v2.3h-15l-0.2-2.5
		l-1.2,0.2l-1.2,0.3l0.2,2h-0.2H260v2.3v0.7h-15v2h-2v2.5l0.2,2.5l-7.2,0.2v2.9h-5v-2.9v-0.2l-3,0.2v2.2v0.7h-5v2h-11.8l-0.2-2h-2v2
		h-0.4H204v2h-4v-4h4v-0.7v-2.2l5-0.2v-2.2l2-0.4h0.1v2.7l11.9-0.1v-2.2l5-0.4V355h3v2.3v0.4l5-0.4V355h6.8h0.2v-5l0,0h2v-0.1v-2
		l15-0.2v-0.2V345h2.4h0.2l-0.2-2h2.4l0.2,2h15v-2h6.8l0,0h0.2l-0.2-10H277l0.3,2.5l-7.3,0.3v-0.2V333h-3v2.5l-2,0.2v2.2l-3,0.2
		v-0.2v-2.4l-9,0.2v2.2l-5,0.2v2.2v0.7h-5v2v3l0.1,1.6H243l0,0l0,0l-7,0.1v2.3h-15l-0.2-2.5l-1.2,0.2l-1.2,0.3l0.2,2h-0.2H216v2.3
		v0.7h-15v2h-1v-5l0,0h1v-0.1v-2l15-0.2v-0.2V345h2.4h0.2l-0.2-2h2.4l0.2,2h15v-2h6.8l0,0h0.2l-0.2-10H233l0.3,2.5l-7.3,0.3v-0.2
		V333h-3v2.5l-2,0.2v2.2l-3,0.2v-0.2v-2.4l-9,0.2v2.2l-5,0.2v2.2v0.7h-4l-0.1-5h4.1v-3h4.6h0.2l-0.2-2l0,0l0,0l0,0v-0.2v-0.1
		l4.9-0.1l4.9-0.1l0.2,2.5h2.2h0.2l-0.2-2.3l2.6-0.2l-0.1-2.3l-0.2-0.2H223v0.3l3-0.2v0.2v2.2v0.2l7-0.2v-2.2l9.8-0.4l0,0h0.2v5v2.7
		v0.3h5v-3h4.6h0.2l-0.2-2l0,0l0,0l0,0v-0.2v-0.1l4.9-0.1l4.9-0.1l0.2,2.5h2.2h0.2l-0.2-2.3l2.6-0.2l-0.1-2.3l-0.2-0.2H267v0.3
		l3-0.2v0.2v2.2v0.2l7-0.2v-2.2l9.8-0.4l0,0h0.2v5v2.7v0.3h5v-3h4.6h0.2l-0.2-2l0,0l0,0l0,0v-0.2v-0.1l4.9-0.1l4.9-0.1l0.2,2.5h2.2
		h0.2l-0.2-2.3l2.6-0.2l-0.1-2.3l-0.2-0.2H311v0.3l3-0.2v0.2v2.2v0.2l7-0.2v-2.2l9.8-0.4l0,0h0.2v5v2.7v0.3h5v-3h4.6h0.2l-0.2-2l0,0
		l0,0l0,0v-0.2v-0.1l4.9-0.1l4.9-0.1l0.2,2.5h2.2h0.2l-0.2-2.3l2.6-0.2l-0.1-2.3l-0.2-0.2H355v0.3l3-0.2v0.2v2.2v0.2l7-0.2V328
		l9.8-0.4l0,0h0.2v5v2.7v0.3h5v-3h4.6h0.2l-0.2-2l0,0l0,0l0,0v-0.2v-0.1l4.9-0.1l4.9-0.1l0.2,2.5h2.2h0.2l-0.2-2.3l2.6-0.2l-0.1-2.3
		l-0.2-0.2H399v0.3l3-0.2v0.2v2.2v0.2l7-0.2v-2.2l9-0.3v0.1h0.8v0.2l0.2,4.7h-0.2V333z"/>
	<polygon id="XMLID_1300_" class="st14" points="533,286.7 533,286.5 533,284.3 533,284.1 530.3,284.3 530.3,284.3 530.3,284.3 
		530.4,286.5 527.8,286.7 528,289 527.8,289 525.6,289 525.4,286.5 520.5,286.5 515.6,286.6 515.6,286.7 515.6,286.8 515.8,289 
		515.6,289 511,289 511,292 506,292 506,297 511,297 511,296.3 511,294.1 516,293.9 516,291.7 525,291.5 525,293.9 525,294.1 
		528,293.9 528,291.7 530,291.5 530,289 533,289 533,291.5 533,291.7 540.3,291.5 540,289 549.8,289 550,289 549.8,284.3 
		549.8,284.1 540,284.3 540,286.5 	"/>
	<polygon id="XMLID_1301_" class="st14" points="455,311 455,313.3 450,313.7 450,313.3 450,311 447,311 447,313.3 442,313.7 
		442,315.9 430,316 430,316 430,316 430,316 430,313.3 428,313.7 428,315.9 423,316.1 423,318.3 423,319 418,319 418,323 423,323 
		423,321 427.6,321 428,321 428,319 430,319 430.2,321 442,321 442,319 447,319 447,318.3 447,316.1 450,315.9 450,316.1 450,319 
		455,319 455,316.1 462.2,316 462,313.5 461.8,311 	"/>
	<polygon id="XMLID_1302_" class="st14" points="461.8,299 455,299 455,301 440,301 439.8,299 437.4,299 437.6,301 437.4,301 
		435,301 435,303.5 435,303.7 420,303.9 420,305.9 420,306 418,306 418,306.1 418,311 420,311 420,309 435,309 435,308.3 435,306 
		437.4,306 437.6,306 437.4,304 437.4,304 437.4,304 438.6,303.7 439.8,303.5 440,306 455,306 455,303.7 462,303.5 462,303.5 
		462.1,303.6 462,302 	"/>
	<polygon id="XMLID_1303_" class="st14" points="423,297 423,296.3 423,294.1 428,293.9 428,291.7 437,291.5 437,293.9 437,294.1 
		440,293.9 440,291.7 442,291.5 442,289 445,289 445,291.5 445,291.7 452.3,291.5 452,289 461.8,289 462,289 461.8,284.3 
		461.8,284.1 452,284.3 452,286.5 445,286.7 445,286.5 445,284.3 445,284.1 442.3,284.3 442.3,284.3 442.3,284.3 442.4,286.5 
		439.8,286.7 440,289 439.8,289 437.6,289 437.4,286.5 432.5,286.5 427.6,286.6 427.6,286.7 427.6,286.8 427.8,289 427.6,289 
		423,289 423,292 418,292 418,297 	"/>
	<polygon id="XMLID_1304_" class="st14" points="499,355 499,357.3 494,357.7 494,357.3 494,355 491,355 491,357.3 486,357.7 
		486,359.9 474,360 474,360 474,360 474,360 474,357.3 472,357.7 472,359.9 467,360.1 467,362.3 467,363 462,363 462,367 467,367 
		467,365 471.6,365 472,365 472,363 474,363 474.2,365 486,365 486,363 491,363 491,362.3 491,360.1 494,359.9 494,360.1 494,363 
		499,363 499,360.1 506,360 506,359.9 506,357.5 505.8,355 	"/>
	<polygon id="XMLID_1305_" class="st14" points="505.8,343 499,343 499,345 484,345 483.8,343 481.4,343 481.6,345 481.4,345 
		479,345 479,347.5 479,347.7 464,347.9 464,349.9 464,350 462,350 462,350 462,355 464,355 464,353 479,353 479,352.3 479,350 
		481.4,350 481.6,350 481.4,348 481.4,348 481.4,348 482.6,347.7 483.8,347.5 484,350 499,350 499,347.7 506,347.5 506,346 	"/>
	<polygon id="XMLID_1306_" class="st14" points="505.8,328.3 505.8,328.1 496,328.3 496,330.5 489,330.7 489,330.5 489,328.3 
		489,328.1 486.3,328.3 486.3,328.3 486.3,328.3 486.4,330.5 483.8,330.7 484,333 483.8,333 481.6,333 481.4,330.5 476.5,330.5 
		471.6,330.6 471.6,330.7 471.6,330.8 471.8,333 471.6,333 467,333 467,336 462,336 462,341 467,341 467,340.3 467,338.1 472,337.9 
		472,335.7 481,335.5 481,337.9 481,338.1 484,337.9 484,335.7 486,335.5 486,333 489,333 489,335.5 489,335.7 496.3,335.5 496,333 
		505.8,333 506,333 	"/>
	<polygon id="XMLID_1307_" class="st14" points="543,357.3 538,357.7 538,357.3 538,355 535,355 535,357.3 530,357.7 530,359.9 
		518,360 518,360 518,360 518,360 518,357.3 516,357.7 516,359.9 511,360.1 511,362.3 511,363 506,363 506,367 511,367 511,365 
		515.6,365 516,365 516,363 518,363 518.2,365 530,365 530,363 535,363 535,362.3 535,360.1 538,359.9 538,360.1 538,363 543,363 
		543,360.1 550,360 550.2,360 549.8,355 543,355 	"/>
	<polygon id="XMLID_1308_" class="st14" points="543,343 543,345 528,345 527.8,343 525.4,343 525.6,345 525.4,345 523,345 
		523,347.5 523,347.7 508,347.9 508,349.9 508,350 506,350 506,350.1 506,355 508,355 508,353 523,353 523,352.3 523,350 525.4,350 
		525.6,350 525.4,348 525.4,348 525.4,348 526.6,347.7 527.8,347.5 528,350 543,350 543,347.7 550,347.5 550.1,347.6 549.8,343 
		549.8,343 	"/>
	<polygon id="XMLID_1309_" class="st14" points="533,330.7 533,330.5 533,328.3 533,328.1 530.3,328.3 530.3,328.3 530.3,328.3 
		530.4,330.5 527.8,330.7 528,333 527.8,333 525.6,333 525.4,330.5 520.5,330.5 515.6,330.6 515.6,330.7 515.6,330.8 515.8,333 
		515.6,333 511,333 511,336 506,336 506,341 511,341 511,340.3 511,338.1 516,337.9 516,335.7 525,335.5 525,337.9 525,338.1 
		528,337.9 528,335.7 530,335.5 530,333 533,333 533,335.5 533,335.7 540.3,335.5 540,333 549.8,333 550,333 549.8,328.3 
		549.8,328.1 540,328.3 540,330.5 	"/>
	<polygon id="XMLID_1310_" class="st14" points="455,355 455,357.3 450,357.7 450,357.3 450,355 447,355 447,357.3 442,357.7 
		442,359.9 430,360 430,360 430,360 430,360 430,357.3 428,357.7 428,359.9 423,360.1 423,362.3 423,363 419,363 419,367 423,367 
		423,365 427.6,365 428,365 428,363 430,363 430.2,365 442,365 442,363 447,363 447,362.3 447,360.1 450,359.9 450,360.1 450,363 
		455,363 455,360.1 462.2,360 462,357.5 461.8,355 	"/>
	<polygon id="XMLID_1311_" class="st14" points="461.8,343 455,343 455,345 440,345 439.8,343 437.4,343 437.6,345 437.4,345 
		435,345 435,347.5 435,347.7 420,347.9 420,349.9 420,350 419,350 419,350 419,355 420,355 420,353 435,353 435,352.3 435,350 
		437.4,350 437.6,350 437.4,348 437.4,348 437.4,348 438.6,347.7 439.8,347.5 440,350 455,350 455,347.7 462,347.5 462,347.5 
		462.1,347.6 462,346 	"/>
	<polygon id="XMLID_1312_" class="st14" points="461.8,328.3 461.8,328.1 452,328.3 452,330.5 445,330.7 445,330.5 445,328.3 
		445,328.1 442.3,328.3 442.3,328.3 442.3,328.3 442.4,330.5 439.8,330.7 440,333 439.8,333 437.6,333 437.4,330.5 432.5,330.5 
		427.6,330.6 427.6,330.7 427.6,330.8 427.8,333 427.6,333 423,333 423,336 418.9,336 419,341 423,341 423,340.3 423,338.1 
		428,337.9 428,335.7 437,335.5 437,337.9 437,338.1 440,337.9 440,335.7 442,335.5 442,333 445,333 445,335.5 445,335.7 
		452.3,335.5 452,333 461.8,333 462,333 	"/>
	<polygon id="XMLID_1313_" class="st14" points="418,355 412,355 412,357.3 407,357.7 407,357.3 407,355 404,355 404,357.3 
		399,357.7 399,359.9 387,360 387,360 387,360 387,360 387,357.3 385,357.7 385,359.9 380,360.1 380,362.3 380,363 375,363 375,367 
		380,367 380,365 384.6,365 385,365 385,363 387,363 387.2,365 399,365 399,363 404,363 404,362.3 404,360.1 407,359.9 407,360.1 
		407,363 412,363 412,360.1 419.2,360 418.8,355 	"/>
	<polygon id="XMLID_1314_" class="st14" points="418.8,343 412,343 412,345 397,345 396.8,343 394.4,343 394.6,345 394.4,345 
		392,345 392,347.5 392,347.7 377,347.9 377,349.9 377,350 375,350 375,350 375,355 377,355 377,353 392,353 392,352.3 392,350 
		394.4,350 394.6,350 394.4,348 394.4,348 394.4,348 395.6,347.7 396.8,347.5 397,350 412,350 412,347.7 418,347.5 419,347.5 
		419.1,347.6 	"/>
	<polygon id="XMLID_1315_" class="st14" points="418.8,328.1 418,328.1 409,328.3 409,330.5 402,330.7 402,330.5 402,328.3 
		402,328.1 399.3,328.3 399.3,328.3 399.3,328.3 399.4,330.5 396.8,330.7 397,333 396.8,333 394.6,333 394.4,330.5 389.5,330.5 
		384.6,330.6 384.6,330.7 384.6,330.8 384.8,333 384.6,333 380,333 380,336 375,336 375,341 380,341 380,340.3 380,338.1 385,337.9 
		385,335.7 394,335.5 394,337.9 394,338.1 397,337.9 397,335.7 399,335.5 399,333 402,333 402,335.5 402,335.7 409.3,335.5 409,333 
		418.8,333 419,333 418.8,328.3 	"/>
	<polygon id="XMLID_1316_" class="st14" points="368,355 368,357.3 363,357.7 363,357.3 363,355 360,355 360,357.3 355,357.7 
		355,359.9 343,360 343,360 343,360 343,360 343,357.3 341,357.7 341,359.9 336,360.1 336,362.3 336,363 331,363 331,367 336,367 
		336,365 340.6,365 341,365 341,363 343,363 343.2,365 355,365 355,363 360,363 360,362.3 360,360.1 363,359.9 363,360.1 363,363 
		368,363 368,360.1 375.2,360 375,357.5 374.8,355 	"/>
	<polygon id="XMLID_1317_" class="st14" points="374.8,343 368,343 368,345 353,345 352.8,343 350.4,343 350.6,345 350.4,345 
		348,345 348,347.5 348,347.7 333,347.9 333,349.9 333,350 331,350 331,350 331,355 333,355 333,353 348,353 348,352.3 348,350 
		350.4,350 350.6,350 350.4,348 350.4,348 350.4,348 351.6,347.7 352.8,347.5 353,350 368,350 368,347.7 375,347.5 375,347.5 
		375.1,347.6 375,346 	"/>
	<polygon id="XMLID_1318_" class="st14" points="374.8,328.3 374.8,328.1 365,328.3 365,330.5 358,330.7 358,330.5 358,328.3 
		358,328.1 355.3,328.3 355.3,328.3 355.3,328.3 355.4,330.5 352.8,330.7 353,333 352.8,333 350.6,333 350.4,330.5 345.5,330.5 
		340.6,330.6 340.6,330.7 340.6,330.8 340.8,333 340.6,333 336,333 336,336 331,336 331,341 336,341 336,340.3 336,338.1 341,337.9 
		341,335.7 350,335.5 350,337.9 350,338.1 353,337.9 353,335.7 355,335.5 355,333 358,333 358,335.5 358,335.7 365.3,335.5 365,333 
		374.8,333 375,333 	"/>
	<polygon id="XMLID_1319_" class="st14" points="280,355 280,357.3 275,357.7 275,357.3 275,355 272,355 272,357.3 267,357.7 
		267,359.9 255,360 255,360 255,360 255,360 255,357.3 253,357.7 253,359.9 248,360.1 248,362.3 248,363 243,363 243,367 248,367 
		248,365 252.6,365 253,365 253,363 255,363 255.2,365 267,365 267,363 272,363 272,362.3 272,360.1 275,359.9 275,360.1 275,363 
		280,363 280,360.1 287,360 287,359.9 287,357.5 286.8,355 	"/>
	<polygon id="XMLID_1320_" class="st14" points="286.8,343 280,343 280,345 265,345 264.8,343 262.4,343 262.6,345 262.4,345 
		260,345 260,347.5 260,347.7 245,347.9 245,349.9 245,350 243,350 243,350 243,355 245,355 245,353 260,353 260,352.3 260,350 
		262.4,350 262.6,350 262.4,348 262.4,348 262.4,348 263.6,347.7 264.8,347.5 265,350 280,350 280,347.7 287,347.5 287,346 	"/>
	<polygon id="XMLID_1321_" class="st14" points="286.8,328.3 286.8,328.1 277,328.3 277,330.5 270,330.7 270,330.5 270,328.3 
		270,328.1 267.3,328.3 267.3,328.3 267.3,328.3 267.4,330.5 264.8,330.7 265,333 264.8,333 262.6,333 262.4,330.5 257.5,330.5 
		252.6,330.6 252.6,330.7 252.6,330.8 252.8,333 252.6,333 248,333 248,336 243,336 243,341 248,341 248,340.3 248,338.1 253,337.9 
		253,335.7 262,335.5 262,337.9 262,338.1 265,337.9 265,335.7 267,335.5 267,333 270,333 270,335.5 270,335.7 277.3,335.5 277,333 
		286.8,333 287,333 	"/>
	<polygon id="XMLID_1322_" class="st14" points="324,355 324,357.3 319,357.7 319,357.3 319,355 316,355 316,357.3 311,357.7 
		311,359.9 299,360 299,360 299,360 299,360 299,357.3 297,357.7 297,359.9 292,360.1 292,362.3 292,363 287,363 287,367 292,367 
		292,365 296.6,365 297,365 297,363 299,363 299.2,365 311,365 311,363 316,363 316,362.3 316,360.1 319,359.9 319,360.1 319,363 
		324,363 324,360.1 331.2,360 331,357.5 330.8,355 	"/>
	<polygon id="XMLID_1323_" class="st14" points="330.8,343 324,343 324,345 309,345 308.8,343 306.4,343 306.6,345 306.4,345 
		304,345 304,347.5 304,347.7 289,347.9 289,349.9 289,350 287,350 287,350.1 287,355 289,355 289,353 304,353 304,352.3 304,350 
		306.4,350 306.6,350 306.4,348 306.4,348 306.4,348 307.6,347.7 308.8,347.5 309,350 324,350 324,347.7 331,347.5 331,347.5 
		331.1,347.6 331,346 	"/>
	<polygon id="XMLID_1324_" class="st14" points="330.8,328.3 330.8,328.1 321,328.3 321,330.5 314,330.7 314,330.5 314,328.3 
		314,328.1 311.3,328.3 311.3,328.3 311.3,328.3 311.4,330.5 308.8,330.7 309,333 308.8,333 306.6,333 306.4,330.5 301.5,330.5 
		296.6,330.6 296.6,330.7 296.6,330.8 296.8,333 296.6,333 292,333 292,336 287,336 287,341 292,341 292,340.3 292,338.1 297,337.9 
		297,335.7 306,335.5 306,337.9 306,338.1 309,337.9 309,335.7 311,335.5 311,333 314,333 314,335.5 314,335.7 321.3,335.5 321,333 
		330.8,333 331,333 	"/>
	<polygon id="XMLID_1325_" class="st14" points="236,355 236,357.3 231,357.7 231,357.3 231,355 228,355 228,357.3 223,357.7 
		223,359.9 211,360 211,360 211,360 211,360 211,357.3 209,357.7 209,359.9 204,360.1 204,362.3 204,363 200,363 200,367 204,367 
		204,365 208.6,365 209,365 209,363 211,363 211.2,365 223,365 223,363 228,363 228,362.3 228,360.1 231,359.9 231,360.1 231,363 
		236,363 236,360.1 243.2,360 243,357.5 242.8,355 	"/>
	<polygon id="XMLID_1326_" class="st14" points="242.8,343 236,343 236,345 221,345 220.8,343 218.4,343 218.6,345 218.4,345 
		216,345 216,347.5 216,347.7 201,347.9 201,349.9 201,350 200,350 200,350 200,355 201,355 201,353 216,353 216,352.3 216,350 
		218.4,350 218.6,350 218.4,348 218.4,348 218.4,348 219.6,347.7 220.8,347.5 221,350 236,350 236,347.7 243,347.5 243,347.5 
		243.1,347.6 243,346 	"/>
	<polygon id="XMLID_1327_" class="st14" points="242.8,328.3 242.8,328.1 233,328.3 233,330.5 226,330.7 226,330.5 226,328.3 
		226,328.1 223.3,328.3 223.3,328.3 223.3,328.3 223.4,330.5 220.8,330.7 221,333 220.8,333 218.6,333 218.4,330.5 213.5,330.5 
		208.6,330.6 208.6,330.7 208.6,330.8 208.8,333 208.6,333 204,333 204,336 199.9,336 200,341 204,341 204,340.3 204,338.1 
		209,337.9 209,335.7 218,335.5 218,337.9 218,338.1 221,337.9 221,335.7 223,335.5 223,333 226,333 226,335.5 226,335.7 
		233.3,335.5 233,333 242.8,333 243,333 	"/>
	<polygon id="XMLID_1328_" class="st14" points="199.8,355 199,355 193,355 193,357.3 188,357.7 188,357.3 188,355 185,355 
		185,357.3 180,357.7 180,359.9 168,360 168,360 168,360 168,360 168,357.3 166,357.7 166,359.9 161,360.1 161,362.3 161,363 
		156,363 156,367 161,367 161,365 165.6,365 166,365 166,363 168,363 168.2,365 180,365 180,363 185,363 185,362.3 185,360.1 
		188,359.9 188,360.1 188,363 193,363 193,360.1 200.2,360 	"/>
	<polygon id="XMLID_1329_" class="st14" points="158,353 173,353 173,352.3 173,350 175.4,350 175.6,350 175.4,348 175.4,348 
		175.4,348 176.6,347.7 177.8,347.5 178,350 193,350 193,347.7 199,347.5 200,347.5 200.1,347.6 199.8,343 199.8,343 193,343 
		193,345 178,345 177.8,343 175.4,343 175.6,345 175.4,345 173,345 173,347.5 173,347.7 158,347.9 158,349.9 158,350 156,350 
		156,350 156,355 158,355 	"/>
	<polygon id="XMLID_1330_" class="st14" points="161,341 161,340.3 161,338.1 166,337.9 166,335.7 175,335.5 175,337.9 175,338.1 
		178,337.9 178,335.7 180,335.5 180,333 183,333 183,335.5 183,335.7 190.3,335.5 190,333 199.8,333 200,333 199.8,328.3 
		199.8,328.1 199,328.1 190,328.3 190,330.5 183,330.7 183,330.5 183,328.3 183,328.1 180.3,328.3 180.3,328.3 180.3,328.3 
		180.4,330.5 177.8,330.7 178,333 177.8,333 175.6,333 175.4,330.5 170.5,330.5 165.6,330.6 165.6,330.7 165.6,330.8 165.8,333 
		165.6,333 161,333 161,336 156,336 156,341 	"/>
	<polygon id="XMLID_1331_" class="st14" points="156,357.5 155.8,355 149,355 149,357.3 144,357.7 144,357.3 144,355 141,355 
		141,357.3 136,357.7 136,359.9 124,360 124,360 124,360 124,360 124,357.3 122,357.7 122,359.9 117,360.1 117,362.3 117,363 
		112,363 112,367 117,367 117,365 121.6,365 122,365 122,363 124,363 124.2,365 136,365 136,363 141,363 141,362.3 141,360.1 
		144,359.9 144,360.1 144,363 149,363 149,360.1 156.2,360 	"/>
	<polygon id="XMLID_1332_" class="st14" points="114,353 129,353 129,352.3 129,350 131.4,350 131.6,350 131.4,348 131.4,348 
		131.4,348 132.6,347.7 133.8,347.5 134,350 149,350 149,347.7 156,347.5 156,347.5 156.1,347.6 156,346 155.8,343 155.8,343 
		149,343 149,345 134,345 133.8,343 131.4,343 131.6,345 131.4,345 129,345 129,347.5 129,347.7 114,347.9 114,349.9 114,350 
		112,350 112,350 112,355 114,355 	"/>
	<polygon id="XMLID_1333_" class="st14" points="155.8,328.3 155.8,328.1 146,328.3 146,330.5 139,330.7 139,330.5 139,328.3 
		139,328.1 136.3,328.3 136.3,328.3 136.3,328.3 136.4,330.5 133.8,330.7 134,333 133.8,333 131.6,333 131.4,330.5 126.5,330.5 
		121.6,330.6 121.6,330.7 121.6,330.8 121.8,333 121.6,333 117,333 117,336 112,336 112,341 117,341 117,340.3 117,338.1 122,337.9 
		122,335.7 131,335.5 131,337.9 131,338.1 134,337.9 134,335.7 136,335.5 136,333 139,333 139,335.5 139,335.7 146.3,335.5 146,333 
		155.8,333 156,333 	"/>
	<polygon id="XMLID_1334_" class="st14" points="112,357.5 111.8,355 105,355 105,357.3 100,357.7 100,357.3 100,355 97,355 
		97,357.3 92,357.7 92,359.9 80,360 80,360 80,360 80,360 80,357.3 78,357.7 78,359.9 73,360.1 73,362.3 73,363 69,363 69,367 
		73,367 73,365 77.6,365 78,365 78,363 80,363 80.2,365 92,365 92,363 97,363 97,362.3 97,360.1 100,359.9 100,360.1 100,363 
		105,363 105,360.1 112.2,360 	"/>
	<polygon id="XMLID_1335_" class="st14" points="111.8,343 105,343 105,345 90,345 89.8,343 87.4,343 87.6,345 87.4,345 85,345 
		85,347.5 85,347.7 70,347.9 70,349.9 70,350 69,350 69,350 69,355 70,355 70,353 85,353 85,352.3 85,350 87.4,350 87.6,350 
		87.4,348 87.4,348 87.4,348 88.6,347.7 89.8,347.5 90,350 105,350 105,347.7 112,347.5 112,347.5 112.1,347.6 112,346 	"/>
	<polygon id="XMLID_1336_" class="st14" points="111.8,328.3 111.8,328.1 102,328.3 102,330.5 95,330.7 95,330.5 95,328.3 95,328.1 
		92.3,328.3 92.3,328.3 92.3,328.3 92.4,330.5 89.8,330.7 90,333 89.8,333 87.6,333 87.4,330.5 82.5,330.5 77.6,330.6 77.6,330.7 
		77.6,330.8 77.8,333 77.6,333 73,333 73,336 68.9,336 69,341 73,341 73,340.3 73,338.1 78,337.9 78,335.7 87,335.5 87,337.9 
		87,338.1 90,337.9 90,335.7 92,335.5 92,333 95,333 95,335.5 95,335.7 102.3,335.5 102,333 111.8,333 112,333 	"/>
	<polygon id="XMLID_1337_" class="st14" points="68.8,355 68,355 62,355 62,357.3 57,357.7 57,357.3 57,355 54,355 54,357.3 
		49,357.7 49,359.9 37,360 37,360 37,360 37,360 37,357.3 35,357.7 35,359.9 30,360.1 30,362.3 30,363 25,363 25,367 30,367 30,365 
		34.6,365 35,365 35,363 37,363 37.2,365 49,365 49,363 54,363 54,362.3 54,360.1 57,359.9 57,360.1 57,363 62,363 62,360.1 
		69.2,360 	"/>
	<polygon id="XMLID_1338_" class="st14" points="27,353 42,353 42,352.3 42,350 44.4,350 44.6,350 44.4,348 44.4,348 44.4,348 
		45.6,347.7 46.8,347.5 47,350 62,350 62,347.7 68,347.5 69,347.5 69.1,347.6 68.8,343 68.8,343 62,343 62,345 47,345 46.8,343 
		44.4,343 44.6,345 44.4,345 42,345 42,347.5 42,347.7 27,347.9 27,349.9 27,350 25,350 25,350 25,355 27,355 	"/>
	<polygon id="XMLID_1339_" class="st14" points="30,341 30,340.3 30,338.1 35,337.9 35,335.7 44,335.5 44,337.9 44,338.1 47,337.9 
		47,335.7 49,335.5 49,333 52,333 52,335.5 52,335.7 59.3,335.5 59,333 68.8,333 69,333 68.8,328.3 68.8,328.1 68,328.1 59,328.3 
		59,330.5 52,330.7 52,330.5 52,328.3 52,328.1 49.3,328.3 49.3,328.3 49.3,328.3 49.4,330.5 46.8,330.7 47,333 46.8,333 44.6,333 
		44.4,330.5 39.5,330.5 34.6,330.6 34.6,330.7 34.6,330.8 34.8,333 34.6,333 30,333 30,336 25,336 25,341 	"/>
	<polygon id="XMLID_1340_" class="st14" points="-14,365 -9.4,365 -9,365 -9,363 -7,363 -6.8,365 5,365 5,363 10,363 10,362.3 
		10,360.1 13,359.9 13,360.1 13,363 18,363 18,360.1 25.2,360 25,357.5 24.8,355 18,355 18,357.3 13,357.7 13,357.3 13,355 10,355 
		10,357.3 5,357.7 5,359.9 -7,360 -7,360 -7,360 -7,360 -7,357.3 -9,357.7 -9,359.9 -14,360.1 -14,362.3 -14,363 -19,363 -19,367 
		-14,367 	"/>
	<polygon id="XMLID_1341_" class="st14" points="-17,353 -2,353 -2,352.3 -2,350 0.4,350 0.6,350 0.4,348 0.4,348 0.4,348 
		1.6,347.7 2.8,347.5 3,350 18,350 18,347.7 25,347.5 25,347.5 25.1,347.6 25,346 24.8,343 24.8,343 18,343 18,345 3,345 2.8,343 
		0.4,343 0.6,345 0.4,345 -2,345 -2,347.5 -2,347.7 -17,347.9 -17,349.9 -17,350 -19,350 -19,350.1 -19,355 -17,355 	"/>
	<polygon id="XMLID_1342_" class="st16" points="-17,349.9 -17,347.9 -2,347.7 -2,347.5 -2,345 0.4,345 0.6,345 0.4,343 2.8,343 
		3,345 18,345 18,343 24.8,343 24.8,343 25,343 24.8,333 15,333 15.3,335.5 8,335.7 8,335.5 8,333 5,333 5,335.5 3,335.7 3,337.9 
		0,338.1 0,337.9 0,335.5 -9,335.7 -9,337.9 -14,338.1 -14,340.3 -14,341 -19,341 -19,350 -17,350 	"/>
	<polygon id="XMLID_1343_" class="st14" points="-14,340.3 -14,338.1 -9,337.9 -9,335.7 0,335.5 0,337.9 0,338.1 3,337.9 3,335.7 
		5,335.5 5,333 8,333 8,335.5 8,335.7 15.3,335.5 15,333 24.8,333 25,333 24.8,328.3 24.8,328.1 15,328.3 15,330.5 8,330.7 8,330.5 
		8,328.3 8,328.1 5.3,328.3 5.3,328.3 5.3,328.3 5.4,330.5 2.8,330.7 3,333 2.8,333 0.6,333 0.4,330.5 -4.5,330.5 -9.4,330.6 
		-9.4,330.7 -9.4,330.8 -9.2,333 -9.4,333 -14,333 -14,336 -19,336 -19,341 -14,341 	"/>
	<polygon id="XMLID_1359_" class="st17" points="397,136 397,146 397,156 397,166 397,176 397,186 397,196 397,206 407,206 407,196 
		407,186 417,186 417,196 417,206 427,206 427,196 427,186 427,176 416.7,176 407,176 407,166 407,156 407,146 407,136 407,126 
		397,126 	"/>
	<polygon id="XMLID_1360_" class="st17" points="356.7,176 347,176 347,186 347,196 347,206 356.7,206 366.7,206 377,206 377,196 
		367,196 367,186 377,186 377,176 366.7,176 	"/>
	<polygon id="XMLID_1361_" class="st17" points="386.7,106 397,106 397,96 387,96 387,86 377,86 377,96 367,96 367,106 376.7,106 	
		"/>
	<polygon id="XMLID_1362_" class="st17" points="387,76 387,66 376.7,66 367,66 367,76 367,86 377,86 377,76 	"/>
	<polygon id="XMLID_1363_" class="st14" points="347,86 347,76 337,76 337,86 337,96 347,96 	"/>
	<path id="XMLID_1366_" class="st17" d="M346.7,106H357V96V86V76V66h-10.3h-10H327v10v10v10v10h9.7H346.7z M337,86V76h10v10v10h-10
		V86z"/>
	<polygon id="XMLID_1367_" class="st17" points="306.7,176 297,176 297,186 297,196 297,206 307,206 307,196 307,186 316.7,186 
		327,186 327,176 316.7,176 	"/>
	<polygon id="XMLID_1368_" class="st17" points="306.7,106 317,106 317,96 306.7,96 297,96 297,86 297,76 307,76 307,66 297,66 
		297,56 287,56 287,66 287,76 287,86 287,96 287,106 296.7,106 	"/>
	<polygon id="XMLID_1369_" class="st17" points="256.7,156 247,156 247,166 247,176 257,176 257,166 267,166 267,176 267,186 
		256.7,186 247,186 247,196 247,206 256.7,206 266.7,206 277,206 277,196 277,186 277,176 277,166 277,156 266.7,156 	"/>
	<polygon id="XMLID_1370_" class="st17" points="256.7,106 267,106 267,96 267,86 267,76 267,66 267,56 256.7,56 246.7,56 237,56 
		237,66 237,76 247,76 247,66 257,66 257,76 257,86 246.7,86 237,86 237,96 237,106 246.7,106 	"/>
	<polygon id="XMLID_1371_" class="st17" points="206.7,166 197,166 197,176 197,186 197,196 197,206 206.7,206 216.7,206 227,206 
		227,196 217,196 217,186 227,186 227,176 227,166 216.7,166 	"/>
	<polygon id="XMLID_1372_" class="st17" points="227,106 227,96 217,96 217,86 217,76 217,66 217,56 207,56 207,66 207,76 207,86 
		207,96 207,106 216.7,106 	"/>
	<polygon id="XMLID_1373_" class="st17" points="156.7,206 166.7,206 177,206 177,196 177,186 177,176 177,166 166.7,166 156.7,166 
		147,166 147,156 147,146 156.7,146 167,146 167,156 177,156 177,146 177,136 166.7,136 156.7,136 146.7,136 137,136 137,146 
		137,156 137,166 137,176 146.7,176 156.7,176 167,176 167,186 167,196 156.7,196 147,196 147,186 137,186 137,196 137,206 
		146.7,206 	"/>
	<rect id="XMLID_1374_" x="167" y="76" class="st14" width="10" height="10"/>
	<path id="XMLID_1377_" class="st17" d="M157,116v-10V96h9.7h10H187V86V76V66V56h-10.3h-10h-10H147v10v10v10v10v10v10v10h10V116z
		 M167,76h10v10h-10V76z"/>
	<path id="XMLID_1346_" class="st14" d="M146.7,216h10h10h10h10h10h10h10h10h10h10h10h10h10h10h10h10h10H327v-10h10v10h9.7h10h10h10
		h10h10h10h10h10H437v-10v-10v-10v-10v-10h-10.3H417v-10v-10v-10v-10v-10h-10v-10V96V86h-10V76V66V56h-10.3h-10H367V46h-10.3H347v10
		h-10.3h-10h-10H307V46h-10.3h-10h-10h-10h-10h-10h-10h-10h-10h-10h-10h-10h-10h-10h-10h-10H137v10v10v10v10v10v10v10v10h-10v10v10
		v10v10v10v10v10v10v10h9.7H146.7z M227,176v10h-10v10h10v10h-10.3h-10H197v-10v-10v-10v-10h9.7h10H227V176z M277,166v10v10v10v10
		h-10.3h-10H247v-10v-10h9.7H267v-10v-10h-10v10h-10v-10v-10h9.7h10H277V166z M327,186h-10.3H307v10v10h-10v-10v-10v-10h9.7h10H327
		V186z M377,186h-10v10h10v10h-10.3h-10H347v-10v-10v-10h9.7h10H377V186z M407,126v10v10v10v10v10h9.7H427v10v10v10h-10v-10v-10h-10
		v10v10h-10v-10v-10v-10v-10v-10v-10v-10v-10H407z M367,96h10V86h-10V76V66h9.7H387v10h-10v10h10v10h10v10h-10.3h-10H367V96z
		 M327,96V86V76V66h9.7h10H357v10v10v10v10h-10.3h-10H327V96z M287,96V86V76V66V56h10v10h10v10h-10v10v10h9.7H317v10h-10.3h-10H287
		V96z M237,96V86h9.7H257V76V66h-10v10h-10V66V56h9.7h10H267v10v10v10v10v10h-10.3h-10H237V96z M207,96V86V76V66V56h10v10v10v10v10
		h10v10h-10.3H207V96z M197,106v10h9.7h10h10h10h10h10h10h10h10h10h10h10h10h10h10h10h10h10H387v10v10v10v10v10h-10.3h-10h-10h-10
		h-10h-10h-10h-10h-10H287v-10v-10h-10.3h-10h-10h-10H237v10h-10.3h-10h-10h-10H187v-10v-10v-10h-10.3H167v-10v-10h9.7h10H197z
		 M147,116v-10V96V86V76V66V56h9.7h10h10H187v10v10v10v10h-10.3h-10H157v10v10v10h-10V116z M137,196v-10h10v10h9.7H167v-10v-10
		h-10.3h-10H137v-10v-10v-10v-10h9.7h10h10H177v10v10h-10v-10h-10.3H147v10v10h9.7h10H177v10v10v10v10h-10.3h-10h-10H137V196z"/>
	<polygon id="XMLID_7_" class="st17" points="357,60 362,60 362,54.8 362,50 357,50 352,50 352,55 357,55 	"/>
</g>
<g id="XMLID_3_">
	<polygon id="XMLID_6_" class="st6" points="230,220 230,216 127,216 127,200 120,200 120,210 120,220 110,220 110,230 110,240 
		110,246 110,250 110,256 120,256 120,266 130,266 130,276 140,276 140,286.1 140,296 150,296 160,296 160,286 150,286 150,276.1 
		150,266 160,266 160,256 150,256 150,246 140,246 140,240 140,230 150,230 150,220 160,220 160,230 170,230 180,230 180,240 
		190,240 200,240 210,240 220,240 230,240 230,230 240,230 240,220 	"/>
	<rect id="XMLID_4_" x="300" y="276" class="st6" width="10" height="10"/>
	<polygon id="XMLID_162_" class="st5" points="300,296 300,286.1 300,276.1 300,266 290,266 290,256 280,256 270,256 260,256 
		250,256 250,246 240,246 230,246 220,246 210,246 200,246 190,246 180,246 170,246 160,246 150,246 150,256 160,256 160,266 
		150,266 150,276.1 150,286 160,286 160,296.1 160,306 170,306 180,306 190,306 200,306 210,306 220,306 220,316 230,316 240,316 
		250,316 260,316 270,316 280,316 290,316 300,316 300,306 290,306 290,296 	"/>
	<polygon id="XMLID_163_" class="st9" points="280,316 270,316 260,316 250,316 240,316 230,316 220,316 210,316 200,316 190,316 
		180,316 170,316 160,316 160,306.1 160,296 150,296 140,296 130,296 130,286.1 130,276 120,276 120,266 110,266 110,256 100,256 
		100,266.1 100,276.1 100,286.1 100,296.1 100,306 110,306 120,306 130,306 130,316 120,316 110,316 100,316 100,326 110,326 
		120,326 130,326 140,326 150,326 160,326 170,326 180,326 190,326 200,326 210,326 220,326 230,326 240,326 250,326 260,326 
		270,326 280,326 290,326 300,326 310,326 310,316 300,316 290,316 	"/>
	<polygon id="XMLID_164_" class="st6" points="260,256 270,256 270,246 260,246 250,246 250,256 	"/>
	<polygon id="XMLID_165_" class="st6" points="200,316 210,316 220,316 220,306 210,306 200,306 190,306 190,316 	"/>
	<polygon id="XMLID_166_" class="st4" points="170,316 180,316 190,316 190,306 180,306 170,306 160,306 160,316 	"/>
	<polygon id="XMLID_167_" class="st4" points="140,276 130,276 130,286.1 130,296 140,296 140,286.1 	"/>
	<rect id="XMLID_168_" x="120" y="266" class="st4" width="10" height="10"/>
	<polygon id="XMLID_169_" class="st8" points="120,316 130,316 130,306 120,306 110,306 100,306 100,316 110,316 	"/>
	<rect id="XMLID_170_" x="110" y="256" class="st4" width="10" height="10"/>
	<rect id="XMLID_172_" x="100" y="246" class="st4" width="10" height="10"/>
</g>
<rect id="XMLID_258_" x="197.7" y="239" class="st12" width="195.3" height="28"/>
</svg>
